<svg width="77" height="58" viewBox="0 0 77 58" fill="none" xmlns="http://www.w3.org/2000/svg">
<path d="M44.4741 25.0001C44.4741 23.4088 43.842 21.8827 42.7168 20.7575C41.5916 19.6323 40.0654 19.0001 38.4741 19.0001C36.8828 19.0001 35.3567 19.6323 34.2315 20.7575C33.1063 21.8827 32.4741 23.4088 32.4741 25.0001C32.4741 28.0903 31.6946 30.2061 30.8238 31.6055C30.0893 32.786 29.722 33.3762 29.7355 33.5409C29.7504 33.7232 29.789 33.7927 29.9359 33.9017C30.0686 34.0001 30.6667 34.0001 31.863 34.0001H45.0853C46.2815 34.0001 46.8797 34.0001 47.0124 33.9017C47.1593 33.7927 47.1979 33.7232 47.2128 33.5409C47.2263 33.3762 46.859 32.786 46.1245 31.6055C45.2537 30.2061 44.4741 28.0903 44.4741 25.0001Z" fill="#181818"/>
<path d="M35.8283 38.0001C36.5334 38.6225 37.4597 39.0001 38.4741 39.0001C39.4886 39.0001 40.4148 38.6225 41.12 38.0001M44.4741 25.0001C44.4741 23.4088 43.842 21.8827 42.7168 20.7575C41.5916 19.6323 40.0654 19.0001 38.4741 19.0001C36.8828 19.0001 35.3567 19.6323 34.2315 20.7575C33.1063 21.8827 32.4741 23.4088 32.4741 25.0001C32.4741 28.0903 31.6946 30.2061 30.8238 31.6055C30.0893 32.786 29.722 33.3762 29.7355 33.5409C29.7504 33.7232 29.789 33.7927 29.9359 33.9017C30.0686 34.0001 30.6667 34.0001 31.863 34.0001H45.0853C46.2815 34.0001 46.8797 34.0001 47.0124 33.9017C47.1593 33.7927 47.1979 33.7232 47.2128 33.5409C47.2263 33.3762 46.859 32.786 46.1245 31.6055C45.2537 30.2061 44.4741 28.0903 44.4741 25.0001Z" stroke="#181818" stroke-width="2" stroke-linecap="round" stroke-linejoin="round"/>
<mask id="path-3-inside-1_201_10827" fill="white">
<path d="M0.682829 32.2787C0.601256 32.1119 0.72341 31.8233 0.580565 31.5667C0.484786 31.3954 0.566352 31.1778 0.441359 30.9894C0.403212 30.932 0.425536 30.7076 0.470587 30.5723C0.59355 30.1997 0.536322 29.8231 0.542815 29.4442C0.553778 28.7618 0.39469 28.0837 0.495337 27.4022C0.572448 26.8807 0.542411 26.3418 0.67958 25.8365C0.758315 25.5457 0.717322 25.2385 0.854491 24.9599C0.924704 24.8171 0.862204 24.643 0.89508 24.4817C0.999373 23.9722 1.11666 23.4658 1.22907 22.9585C1.36867 22.3264 1.49895 21.6889 1.67873 21.07C1.80534 20.6332 1.9137 20.1875 2.07238 19.7572C2.39867 18.8716 2.798 18.0185 3.18435 17.1593C3.46112 16.5428 3.82514 15.9733 4.17456 15.397C4.61002 14.6784 5.03816 13.9549 5.53165 13.2728C5.85104 12.8315 6.20573 12.4201 6.56813 12.0152C7.00805 11.5239 7.43417 11.0189 7.89559 10.5486C8.5928 9.83821 9.28311 9.12115 10.0384 8.46805C10.5838 7.99624 11.21 7.63729 11.7587 7.17659C12.1661 6.8344 12.6632 6.63725 13.0699 6.29842C13.1652 6.219 13.3008 6.18999 13.4104 6.12575C13.8227 5.88481 14.2224 5.62098 14.6457 5.40155C14.9006 5.26925 15.1753 5.1699 15.435 5.04243C15.823 4.8521 16.2033 4.64435 16.5989 4.4722C17.0847 4.26068 17.5798 4.06804 18.0778 3.8857C18.7024 3.65694 19.3411 3.46535 19.9608 3.22384C20.6398 2.95904 21.3597 2.85575 22.0508 2.64403C22.464 2.5175 22.8954 2.46235 23.302 2.32392C23.5544 2.23813 23.849 2.28699 24.0629 2.08424C24.5714 2.07385 25.056 1.9146 25.5551 1.84253C26.3461 1.72841 27.1289 1.55971 27.9179 1.43138C28.359 1.35968 28.8135 1.35825 29.2474 1.26053C29.7031 1.1579 30.1613 1.08696 30.6219 1.06293C31.4072 1.02194 32.1892 0.938792 32.972 0.876011C33.905 0.801177 34.8405 0.783401 35.7722 0.710433C36.1419 0.681457 36.5126 0.68519 36.8828 0.640915C37.4112 0.577687 37.9482 0.56669 38.481 0.594774C39.2095 0.633205 39.9381 0.616201 40.6662 0.612345C40.9475 0.610803 41.2324 0.616606 41.5169 0.594732C41.7451 0.5772 42.0153 0.622329 42.2538 0.679226C42.5443 0.748541 42.8298 0.689248 43.1158 0.724961C43.7018 0.798213 44.2974 0.737016 44.8794 0.807102C45.4116 0.871182 45.9472 0.914199 46.4781 0.99581C46.8562 1.05388 47.2407 1.07044 47.6225 1.10388C48.1327 1.14856 48.6363 1.246 49.1443 1.3014C49.557 1.34641 49.9581 1.45703 50.3836 1.45241C50.6308 1.44973 50.8927 1.57842 51.1553 1.62699C51.6108 1.7112 52.0565 1.85876 52.5143 1.91716C52.917 1.9685 53.2805 2.13582 53.671 2.21686C54.0083 2.28683 54.3513 2.3488 54.6778 2.45123C55.0098 2.55536 55.3529 2.6009 55.6845 2.70471C56.1259 2.84297 56.5883 2.91436 57.0292 3.05417C57.409 3.17466 57.7975 3.25842 58.1774 3.37546C58.2258 3.39039 58.2492 3.43162 58.2829 3.46381C58.3528 3.53061 58.42 3.6112 58.5391 3.52261C58.6022 3.4757 58.6806 3.53138 58.7506 3.5554C59.0883 3.67147 59.378 3.89788 59.7268 3.98623C60.291 4.12916 60.8031 4.40297 61.3194 4.65288C61.876 4.92231 62.4701 5.10542 62.9983 5.44619C63.5315 5.79017 64.1172 6.05172 64.6636 6.37683C64.9172 6.52776 65.1183 6.765 65.3672 6.92596C65.9941 7.33125 66.5544 7.82511 67.1467 8.27415C67.3815 8.45223 67.6293 8.64727 67.8539 8.85765C68.2719 9.24931 68.6569 9.67348 69.0795 10.0593C69.2848 10.2469 69.5009 10.4247 69.6898 10.6277C69.8672 10.8183 70.0067 11.0436 70.1777 11.2409C70.9594 12.1429 71.6971 13.0777 72.3446 14.0823C72.6976 14.63 73.074 15.1629 73.4191 15.7154C73.6345 16.0601 73.8172 16.4259 74.0031 16.788C74.1164 17.0087 74.2883 17.1925 74.3753 17.43C74.5334 17.8617 74.8242 18.2289 74.9153 18.7016C75.001 19.146 75.1962 19.5668 75.393 19.9825C75.4855 20.1779 75.5227 20.4124 75.5849 20.6293C75.6859 20.9822 75.8264 21.323 75.9206 21.675C75.9784 21.8912 76.0399 22.1102 76.0859 22.331C76.1056 22.4255 76.123 22.5159 76.1895 22.5895C76.2219 22.6254 76.2455 22.6635 76.242 22.7158C76.2132 23.1402 76.3904 23.5286 76.4527 23.9361C76.4963 24.2206 76.5308 24.5094 76.6026 24.7852C76.6517 24.9738 76.5675 25.1916 76.7373 25.3605C76.7793 25.4023 76.7087 25.5205 76.7145 25.6181C76.7426 26.0975 76.8023 26.573 76.8466 27.0505C76.8793 27.4037 76.8791 27.7599 76.8938 28.1147C76.9135 28.5877 76.9505 29.0608 76.9479 29.5336C76.9458 29.9042 76.9029 30.2754 76.8606 30.6443C76.8482 30.7521 76.8393 30.8589 76.8425 30.9656C76.8508 31.2517 76.7614 31.5216 76.7187 31.7992C76.6401 32.3106 76.5747 32.8244 76.5207 33.3391C76.4853 33.6762 76.3421 33.9876 76.3075 34.3222C76.2543 34.8369 76.0048 35.2994 75.9199 35.8028C75.8762 36.0621 75.7253 36.3 75.7726 36.5782C75.7862 36.6578 75.6887 36.7008 75.6614 36.7809C75.4051 37.5308 75.1453 38.2797 74.8709 39.0231C74.6321 39.6699 74.3136 40.28 73.9934 40.8905C73.8486 41.1667 73.7135 41.4548 73.5709 41.7319C73.441 41.9843 73.2983 42.24 73.1358 42.4805C72.8603 42.8881 72.5853 43.2991 72.3518 43.7311C71.9455 44.4826 71.3639 45.1031 70.8728 45.7906C70.6892 46.0476 70.4216 46.2194 70.231 46.4726C69.896 46.9177 69.4596 47.2761 69.1214 47.7206C69.0122 47.864 68.8359 47.9199 68.7106 48.0425C68.3874 48.3584 68.0219 48.6247 67.6798 48.9183C67.4821 49.0879 67.2988 49.2752 67.1165 49.4616C66.9544 49.6273 66.7361 49.7077 66.5595 49.8532C66.1446 50.1951 65.6796 50.4691 65.2538 50.7984C65.0644 50.9448 64.8108 51.048 64.6522 51.1982C64.4485 51.3913 64.1183 51.3579 63.9817 51.6367C63.9653 51.6703 63.8112 51.6543 63.7147 51.7151C63.2337 52.0181 62.7202 52.2638 62.2133 52.5207C61.7215 52.7701 61.2344 53.0299 60.7343 53.2616C60.3566 53.4366 59.9515 53.5541 59.5869 53.7579C58.9427 54.1179 58.2289 54.2754 57.536 54.4968C57.0958 54.6373 56.6778 54.842 56.2289 54.9617C55.9504 55.036 55.6795 55.1396 55.4 55.2095C54.8662 55.3432 54.3286 55.4621 53.7927 55.5873C53.174 55.7319 52.5571 55.8848 51.9361 56.0187C51.5003 56.1127 51.0704 56.2274 50.6281 56.3012C50.0056 56.405 49.3835 56.5214 48.7634 56.6443C48.4462 56.7071 48.1142 56.6912 47.7901 56.7233C47.1528 56.7864 46.517 56.8672 45.8791 56.9238C45.3356 56.9721 44.7971 57.0623 44.2512 57.0922C43.8099 57.1163 43.3713 57.1866 42.9302 57.2195C42.5772 57.246 42.2225 57.2449 41.8685 57.2633C41.1145 57.3025 40.3582 57.2992 39.6048 57.3463C39.3072 57.3649 39.0063 57.3302 38.705 57.4132C38.589 57.4452 38.413 57.3495 38.2609 57.369C37.8568 57.4208 37.454 57.428 37.0503 57.3703C36.5362 57.2968 36.0174 57.3378 35.5007 57.3075C34.8571 57.2698 34.2126 57.2557 33.5702 57.1817C33.1238 57.1303 32.6729 57.1074 32.2225 57.0842C31.6949 57.0571 31.1706 56.9664 30.6442 56.9111C30.0574 56.8494 29.4685 56.8091 28.8833 56.735C28.5262 56.6898 28.1808 56.5721 27.8197 56.5308C27.2653 56.4673 26.7113 56.3964 26.1606 56.3069C25.9029 56.2651 25.642 56.1938 25.3888 56.1696C24.9825 56.1309 24.5978 56.005 24.2224 55.8914C23.8202 55.7698 23.4136 55.6515 23.0098 55.531C22.3921 55.3464 21.7562 55.2217 21.1426 55.0247C20.7635 54.9028 20.378 54.7963 20.0026 54.6502C19.5927 54.4906 19.1707 54.3493 18.7535 54.2017C18.1281 53.9805 17.5149 53.7297 16.9094 53.4555C16.3644 53.2087 15.8441 52.9065 15.2833 52.6989C14.8981 52.5563 14.5909 52.2864 14.2212 52.1228C13.8036 51.9377 13.4445 51.6544 13.0626 51.4096C12.8487 51.2725 12.6263 51.1462 12.3995 51.0319C12.1722 50.9175 11.9575 50.7852 11.7862 50.5997C11.6162 50.4153 11.3687 50.3645 11.182 50.2069C10.8175 49.8995 10.4093 49.653 10.0586 49.3179C9.76158 49.0342 9.43205 48.7563 9.03718 48.591C9.00552 48.5777 8.98118 48.5618 8.96088 48.5312C8.60051 47.9886 8.08552 47.5901 7.6253 47.1447C7.43416 46.9601 7.3112 46.7361 7.1302 46.5506C6.81771 46.23 6.57584 45.8484 6.24753 45.5353C6.10305 45.3975 6.01174 45.1847 5.88959 45.01C5.68545 44.7182 5.47848 44.4293 5.25609 44.1513C4.97485 43.8003 4.73623 43.4188 4.51505 43.0294C4.27683 42.6099 4.05201 42.1803 3.80324 41.769C3.5358 41.3268 3.30974 40.8634 3.04839 40.4188C2.90433 40.1741 2.84751 39.8835 2.71075 39.6284C2.3528 38.9596 2.12797 38.2369 1.86297 37.5295C1.68278 37.0495 1.54196 36.5565 1.41048 36.0681C1.23434 35.4147 1.02129 34.7658 0.977866 34.0732C0.95555 33.7151 0.825682 33.3537 0.776572 32.9873C0.748976 32.7817 0.722197 32.5759 0.682829 32.2787Z"/>
</mask>
<path d="M0.682829 32.2787C0.601256 32.1119 0.72341 31.8233 0.580565 31.5667C0.484786 31.3954 0.566352 31.1778 0.441359 30.9894C0.403212 30.932 0.425536 30.7076 0.470587 30.5723C0.59355 30.1997 0.536322 29.8231 0.542815 29.4442C0.553778 28.7618 0.39469 28.0837 0.495337 27.4022C0.572448 26.8807 0.542411 26.3418 0.67958 25.8365C0.758315 25.5457 0.717322 25.2385 0.854491 24.9599C0.924704 24.8171 0.862204 24.643 0.89508 24.4817C0.999373 23.9722 1.11666 23.4658 1.22907 22.9585C1.36867 22.3264 1.49895 21.6889 1.67873 21.07C1.80534 20.6332 1.9137 20.1875 2.07238 19.7572C2.39867 18.8716 2.798 18.0185 3.18435 17.1593C3.46112 16.5428 3.82514 15.9733 4.17456 15.397C4.61002 14.6784 5.03816 13.9549 5.53165 13.2728C5.85104 12.8315 6.20573 12.4201 6.56813 12.0152C7.00805 11.5239 7.43417 11.0189 7.89559 10.5486C8.5928 9.83821 9.28311 9.12115 10.0384 8.46805C10.5838 7.99624 11.21 7.63729 11.7587 7.17659C12.1661 6.8344 12.6632 6.63725 13.0699 6.29842C13.1652 6.219 13.3008 6.18999 13.4104 6.12575C13.8227 5.88481 14.2224 5.62098 14.6457 5.40155C14.9006 5.26925 15.1753 5.1699 15.435 5.04243C15.823 4.8521 16.2033 4.64435 16.5989 4.4722C17.0847 4.26068 17.5798 4.06804 18.0778 3.8857C18.7024 3.65694 19.3411 3.46535 19.9608 3.22384C20.6398 2.95904 21.3597 2.85575 22.0508 2.64403C22.464 2.5175 22.8954 2.46235 23.302 2.32392C23.5544 2.23813 23.849 2.28699 24.0629 2.08424C24.5714 2.07385 25.056 1.9146 25.5551 1.84253C26.3461 1.72841 27.1289 1.55971 27.9179 1.43138C28.359 1.35968 28.8135 1.35825 29.2474 1.26053C29.7031 1.1579 30.1613 1.08696 30.6219 1.06293C31.4072 1.02194 32.1892 0.938792 32.972 0.876011C33.905 0.801177 34.8405 0.783401 35.7722 0.710433C36.1419 0.681457 36.5126 0.68519 36.8828 0.640915C37.4112 0.577687 37.9482 0.56669 38.481 0.594774C39.2095 0.633205 39.9381 0.616201 40.6662 0.612345C40.9475 0.610803 41.2324 0.616606 41.5169 0.594732C41.7451 0.5772 42.0153 0.622329 42.2538 0.679226C42.5443 0.748541 42.8298 0.689248 43.1158 0.724961C43.7018 0.798213 44.2974 0.737016 44.8794 0.807102C45.4116 0.871182 45.9472 0.914199 46.4781 0.99581C46.8562 1.05388 47.2407 1.07044 47.6225 1.10388C48.1327 1.14856 48.6363 1.246 49.1443 1.3014C49.557 1.34641 49.9581 1.45703 50.3836 1.45241C50.6308 1.44973 50.8927 1.57842 51.1553 1.62699C51.6108 1.7112 52.0565 1.85876 52.5143 1.91716C52.917 1.9685 53.2805 2.13582 53.671 2.21686C54.0083 2.28683 54.3513 2.3488 54.6778 2.45123C55.0098 2.55536 55.3529 2.6009 55.6845 2.70471C56.1259 2.84297 56.5883 2.91436 57.0292 3.05417C57.409 3.17466 57.7975 3.25842 58.1774 3.37546C58.2258 3.39039 58.2492 3.43162 58.2829 3.46381C58.3528 3.53061 58.42 3.6112 58.5391 3.52261C58.6022 3.4757 58.6806 3.53138 58.7506 3.5554C59.0883 3.67147 59.378 3.89788 59.7268 3.98623C60.291 4.12916 60.8031 4.40297 61.3194 4.65288C61.876 4.92231 62.4701 5.10542 62.9983 5.44619C63.5315 5.79017 64.1172 6.05172 64.6636 6.37683C64.9172 6.52776 65.1183 6.765 65.3672 6.92596C65.9941 7.33125 66.5544 7.82511 67.1467 8.27415C67.3815 8.45223 67.6293 8.64727 67.8539 8.85765C68.2719 9.24931 68.6569 9.67348 69.0795 10.0593C69.2848 10.2469 69.5009 10.4247 69.6898 10.6277C69.8672 10.8183 70.0067 11.0436 70.1777 11.2409C70.9594 12.1429 71.6971 13.0777 72.3446 14.0823C72.6976 14.63 73.074 15.1629 73.4191 15.7154C73.6345 16.0601 73.8172 16.4259 74.0031 16.788C74.1164 17.0087 74.2883 17.1925 74.3753 17.43C74.5334 17.8617 74.8242 18.2289 74.9153 18.7016C75.001 19.146 75.1962 19.5668 75.393 19.9825C75.4855 20.1779 75.5227 20.4124 75.5849 20.6293C75.6859 20.9822 75.8264 21.323 75.9206 21.675C75.9784 21.8912 76.0399 22.1102 76.0859 22.331C76.1056 22.4255 76.123 22.5159 76.1895 22.5895C76.2219 22.6254 76.2455 22.6635 76.242 22.7158C76.2132 23.1402 76.3904 23.5286 76.4527 23.9361C76.4963 24.2206 76.5308 24.5094 76.6026 24.7852C76.6517 24.9738 76.5675 25.1916 76.7373 25.3605C76.7793 25.4023 76.7087 25.5205 76.7145 25.6181C76.7426 26.0975 76.8023 26.573 76.8466 27.0505C76.8793 27.4037 76.8791 27.7599 76.8938 28.1147C76.9135 28.5877 76.9505 29.0608 76.9479 29.5336C76.9458 29.9042 76.9029 30.2754 76.8606 30.6443C76.8482 30.7521 76.8393 30.8589 76.8425 30.9656C76.8508 31.2517 76.7614 31.5216 76.7187 31.7992C76.6401 32.3106 76.5747 32.8244 76.5207 33.3391C76.4853 33.6762 76.3421 33.9876 76.3075 34.3222C76.2543 34.8369 76.0048 35.2994 75.9199 35.8028C75.8762 36.0621 75.7253 36.3 75.7726 36.5782C75.7862 36.6578 75.6887 36.7008 75.6614 36.7809C75.4051 37.5308 75.1453 38.2797 74.8709 39.0231C74.6321 39.6699 74.3136 40.28 73.9934 40.8905C73.8486 41.1667 73.7135 41.4548 73.5709 41.7319C73.441 41.9843 73.2983 42.24 73.1358 42.4805C72.8603 42.8881 72.5853 43.2991 72.3518 43.7311C71.9455 44.4826 71.3639 45.1031 70.8728 45.7906C70.6892 46.0476 70.4216 46.2194 70.231 46.4726C69.896 46.9177 69.4596 47.2761 69.1214 47.7206C69.0122 47.864 68.8359 47.9199 68.7106 48.0425C68.3874 48.3584 68.0219 48.6247 67.6798 48.9183C67.4821 49.0879 67.2988 49.2752 67.1165 49.4616C66.9544 49.6273 66.7361 49.7077 66.5595 49.8532C66.1446 50.1951 65.6796 50.4691 65.2538 50.7984C65.0644 50.9448 64.8108 51.048 64.6522 51.1982C64.4485 51.3913 64.1183 51.3579 63.9817 51.6367C63.9653 51.6703 63.8112 51.6543 63.7147 51.7151C63.2337 52.0181 62.7202 52.2638 62.2133 52.5207C61.7215 52.7701 61.2344 53.0299 60.7343 53.2616C60.3566 53.4366 59.9515 53.5541 59.5869 53.7579C58.9427 54.1179 58.2289 54.2754 57.536 54.4968C57.0958 54.6373 56.6778 54.842 56.2289 54.9617C55.9504 55.036 55.6795 55.1396 55.4 55.2095C54.8662 55.3432 54.3286 55.4621 53.7927 55.5873C53.174 55.7319 52.5571 55.8848 51.9361 56.0187C51.5003 56.1127 51.0704 56.2274 50.6281 56.3012C50.0056 56.405 49.3835 56.5214 48.7634 56.6443C48.4462 56.7071 48.1142 56.6912 47.7901 56.7233C47.1528 56.7864 46.517 56.8672 45.8791 56.9238C45.3356 56.9721 44.7971 57.0623 44.2512 57.0922C43.8099 57.1163 43.3713 57.1866 42.9302 57.2195C42.5772 57.246 42.2225 57.2449 41.8685 57.2633C41.1145 57.3025 40.3582 57.2992 39.6048 57.3463C39.3072 57.3649 39.0063 57.3302 38.705 57.4132C38.589 57.4452 38.413 57.3495 38.2609 57.369C37.8568 57.4208 37.454 57.428 37.0503 57.3703C36.5362 57.2968 36.0174 57.3378 35.5007 57.3075C34.8571 57.2698 34.2126 57.2557 33.5702 57.1817C33.1238 57.1303 32.6729 57.1074 32.2225 57.0842C31.6949 57.0571 31.1706 56.9664 30.6442 56.9111C30.0574 56.8494 29.4685 56.8091 28.8833 56.735C28.5262 56.6898 28.1808 56.5721 27.8197 56.5308C27.2653 56.4673 26.7113 56.3964 26.1606 56.3069C25.9029 56.2651 25.642 56.1938 25.3888 56.1696C24.9825 56.1309 24.5978 56.005 24.2224 55.8914C23.8202 55.7698 23.4136 55.6515 23.0098 55.531C22.3921 55.3464 21.7562 55.2217 21.1426 55.0247C20.7635 54.9028 20.378 54.7963 20.0026 54.6502C19.5927 54.4906 19.1707 54.3493 18.7535 54.2017C18.1281 53.9805 17.5149 53.7297 16.9094 53.4555C16.3644 53.2087 15.8441 52.9065 15.2833 52.6989C14.8981 52.5563 14.5909 52.2864 14.2212 52.1228C13.8036 51.9377 13.4445 51.6544 13.0626 51.4096C12.8487 51.2725 12.6263 51.1462 12.3995 51.0319C12.1722 50.9175 11.9575 50.7852 11.7862 50.5997C11.6162 50.4153 11.3687 50.3645 11.182 50.2069C10.8175 49.8995 10.4093 49.653 10.0586 49.3179C9.76158 49.0342 9.43205 48.7563 9.03718 48.591C9.00552 48.5777 8.98118 48.5618 8.96088 48.5312C8.60051 47.9886 8.08552 47.5901 7.6253 47.1447C7.43416 46.9601 7.3112 46.7361 7.1302 46.5506C6.81771 46.23 6.57584 45.8484 6.24753 45.5353C6.10305 45.3975 6.01174 45.1847 5.88959 45.01C5.68545 44.7182 5.47848 44.4293 5.25609 44.1513C4.97485 43.8003 4.73623 43.4188 4.51505 43.0294C4.27683 42.6099 4.05201 42.1803 3.80324 41.769C3.5358 41.3268 3.30974 40.8634 3.04839 40.4188C2.90433 40.1741 2.84751 39.8835 2.71075 39.6284C2.3528 38.9596 2.12797 38.2369 1.86297 37.5295C1.68278 37.0495 1.54196 36.5565 1.41048 36.0681C1.23434 35.4147 1.02129 34.7658 0.977866 34.0732C0.95555 33.7151 0.825682 33.3537 0.776572 32.9873C0.748976 32.7817 0.722197 32.5759 0.682829 32.2787Z" stroke="#181818" stroke-width="2" mask="url(#path-3-inside-1_201_10827)"/>
</svg>
