<svg width="25" height="25" viewBox="0 0 25 25" fill="none" xmlns="http://www.w3.org/2000/svg">
<path d="M22.0335 22.5C22.3135 22.5 22.4535 22.5 22.5605 22.4455C22.6546 22.3976 22.7311 22.3211 22.779 22.227C22.8335 22.12 22.8335 21.98 22.8335 21.7V11.3C22.8335 11.02 22.8335 10.88 22.779 10.773C22.7311 10.6789 22.6546 10.6024 22.5605 10.5545C22.4535 10.5 22.3135 10.5 22.0335 10.5L19.6335 10.5C19.3535 10.5 19.2135 10.5 19.1065 10.5545C19.0124 10.6024 18.9359 10.6789 18.888 10.773C18.8335 10.88 18.8335 11.02 18.8335 11.3V13.7C18.8335 13.98 18.8335 14.12 18.779 14.227C18.7311 14.3211 18.6546 14.3976 18.5605 14.4455C18.4535 14.5 18.3135 14.5 18.0335 14.5H15.6335C15.3535 14.5 15.2135 14.5 15.1065 14.5545C15.0124 14.6024 14.9359 14.6789 14.888 14.773C14.8335 14.88 14.8335 15.02 14.8335 15.3V17.7C14.8335 17.98 14.8335 18.12 14.779 18.227C14.7311 18.3211 14.6546 18.3976 14.5605 18.4455C14.4535 18.5 14.3135 18.5 14.0335 18.5H11.6335C11.3535 18.5 11.2135 18.5 11.1065 18.5545C11.0124 18.6024 10.9359 18.6789 10.888 18.773C10.8335 18.88 10.8335 19.02 10.8335 19.3V21.7C10.8335 21.98 10.8335 22.12 10.888 22.227C10.9359 22.3211 11.0124 22.3976 11.1065 22.4455C11.2135 22.5 11.3535 22.5 11.6335 22.5L22.0335 22.5Z" fill="black"/>
<path d="M10.8335 7.3C10.8335 7.01997 10.8335 6.87996 10.888 6.773C10.9359 6.67892 11.0124 6.60243 11.1065 6.5545C11.2135 6.5 11.3535 6.5 11.6335 6.5H14.0335C14.3135 6.5 14.4535 6.5 14.5605 6.5545C14.6546 6.60243 14.7311 6.67892 14.779 6.773C14.8335 6.87996 14.8335 7.01997 14.8335 7.3V9.7C14.8335 9.98003 14.8335 10.12 14.779 10.227C14.7311 10.3211 14.6546 10.3976 14.5605 10.4455C14.4535 10.5 14.3135 10.5 14.0335 10.5H11.6335C11.3535 10.5 11.2135 10.5 11.1065 10.4455C11.0124 10.3976 10.9359 10.3211 10.888 10.227C10.8335 10.12 10.8335 9.98003 10.8335 9.7V7.3Z" fill="black"/>
<path d="M3.8335 13.3C3.8335 13.02 3.8335 12.88 3.88799 12.773C3.93593 12.6789 4.01242 12.6024 4.1065 12.5545C4.21346 12.5 4.35347 12.5 4.6335 12.5H7.0335C7.31352 12.5 7.45354 12.5 7.56049 12.5545C7.65457 12.6024 7.73106 12.6789 7.779 12.773C7.8335 12.88 7.8335 13.02 7.8335 13.3V15.7C7.8335 15.98 7.8335 16.12 7.779 16.227C7.73106 16.3211 7.65457 16.3976 7.56049 16.4455C7.45354 16.5 7.31352 16.5 7.0335 16.5H4.6335C4.35347 16.5 4.21346 16.5 4.1065 16.4455C4.01242 16.3976 3.93593 16.3211 3.88799 16.227C3.8335 16.12 3.8335 15.98 3.8335 15.7V13.3Z" fill="black"/>
<path d="M2.8335 3.3C2.8335 3.01997 2.8335 2.87996 2.88799 2.773C2.93593 2.67892 3.01242 2.60243 3.1065 2.5545C3.21346 2.5 3.35347 2.5 3.6335 2.5H6.0335C6.31352 2.5 6.45354 2.5 6.56049 2.5545C6.65457 2.60243 6.73106 2.67892 6.779 2.773C6.8335 2.87996 6.8335 3.01997 6.8335 3.3V5.7C6.8335 5.98003 6.8335 6.12004 6.779 6.227C6.73106 6.32108 6.65457 6.39757 6.56049 6.4455C6.45354 6.5 6.31352 6.5 6.0335 6.5H3.6335C3.35347 6.5 3.21346 6.5 3.1065 6.4455C3.01242 6.39757 2.93593 6.32108 2.88799 6.227C2.8335 6.12004 2.8335 5.98003 2.8335 5.7V3.3Z" fill="black"/>
<path d="M22.0335 22.5C22.3135 22.5 22.4535 22.5 22.5605 22.4455C22.6546 22.3976 22.7311 22.3211 22.779 22.227C22.8335 22.12 22.8335 21.98 22.8335 21.7V11.3C22.8335 11.02 22.8335 10.88 22.779 10.773C22.7311 10.6789 22.6546 10.6024 22.5605 10.5545C22.4535 10.5 22.3135 10.5 22.0335 10.5L19.6335 10.5C19.3535 10.5 19.2135 10.5 19.1065 10.5545C19.0124 10.6024 18.9359 10.6789 18.888 10.773C18.8335 10.88 18.8335 11.02 18.8335 11.3V13.7C18.8335 13.98 18.8335 14.12 18.779 14.227C18.7311 14.3211 18.6546 14.3976 18.5605 14.4455C18.4535 14.5 18.3135 14.5 18.0335 14.5H15.6335C15.3535 14.5 15.2135 14.5 15.1065 14.5545C15.0124 14.6024 14.9359 14.6789 14.888 14.773C14.8335 14.88 14.8335 15.02 14.8335 15.3V17.7C14.8335 17.98 14.8335 18.12 14.779 18.227C14.7311 18.3211 14.6546 18.3976 14.5605 18.4455C14.4535 18.5 14.3135 18.5 14.0335 18.5H11.6335C11.3535 18.5 11.2135 18.5 11.1065 18.5545C11.0124 18.6024 10.9359 18.6789 10.888 18.773C10.8335 18.88 10.8335 19.02 10.8335 19.3V21.7C10.8335 21.98 10.8335 22.12 10.888 22.227C10.9359 22.3211 11.0124 22.3976 11.1065 22.4455C11.2135 22.5 11.3535 22.5 11.6335 22.5L22.0335 22.5Z" stroke="black" stroke-linecap="round" stroke-linejoin="round"/>
<path d="M10.8335 7.3C10.8335 7.01997 10.8335 6.87996 10.888 6.773C10.9359 6.67892 11.0124 6.60243 11.1065 6.5545C11.2135 6.5 11.3535 6.5 11.6335 6.5H14.0335C14.3135 6.5 14.4535 6.5 14.5605 6.5545C14.6546 6.60243 14.7311 6.67892 14.779 6.773C14.8335 6.87996 14.8335 7.01997 14.8335 7.3V9.7C14.8335 9.98003 14.8335 10.12 14.779 10.227C14.7311 10.3211 14.6546 10.3976 14.5605 10.4455C14.4535 10.5 14.3135 10.5 14.0335 10.5H11.6335C11.3535 10.5 11.2135 10.5 11.1065 10.4455C11.0124 10.3976 10.9359 10.3211 10.888 10.227C10.8335 10.12 10.8335 9.98003 10.8335 9.7V7.3Z" stroke="black" stroke-linecap="round" stroke-linejoin="round"/>
<path d="M3.8335 13.3C3.8335 13.02 3.8335 12.88 3.88799 12.773C3.93593 12.6789 4.01242 12.6024 4.1065 12.5545C4.21346 12.5 4.35347 12.5 4.6335 12.5H7.0335C7.31352 12.5 7.45354 12.5 7.56049 12.5545C7.65457 12.6024 7.73106 12.6789 7.779 12.773C7.8335 12.88 7.8335 13.02 7.8335 13.3V15.7C7.8335 15.98 7.8335 16.12 7.779 16.227C7.73106 16.3211 7.65457 16.3976 7.56049 16.4455C7.45354 16.5 7.31352 16.5 7.0335 16.5H4.6335C4.35347 16.5 4.21346 16.5 4.1065 16.4455C4.01242 16.3976 3.93593 16.3211 3.88799 16.227C3.8335 16.12 3.8335 15.98 3.8335 15.7V13.3Z" stroke="black" stroke-linecap="round" stroke-linejoin="round"/>
<path d="M2.8335 3.3C2.8335 3.01997 2.8335 2.87996 2.88799 2.773C2.93593 2.67892 3.01242 2.60243 3.1065 2.5545C3.21346 2.5 3.35347 2.5 3.6335 2.5H6.0335C6.31352 2.5 6.45354 2.5 6.56049 2.5545C6.65457 2.60243 6.73106 2.67892 6.779 2.773C6.8335 2.87996 6.8335 3.01997 6.8335 3.3V5.7C6.8335 5.98003 6.8335 6.12004 6.779 6.227C6.73106 6.32108 6.65457 6.39757 6.56049 6.4455C6.45354 6.5 6.31352 6.5 6.0335 6.5H3.6335C3.35347 6.5 3.21346 6.5 3.1065 6.4455C3.01242 6.39757 2.93593 6.32108 2.88799 6.227C2.8335 6.12004 2.8335 5.98003 2.8335 5.7V3.3Z" stroke="black" stroke-linecap="round" stroke-linejoin="round"/>
</svg>
