<svg width="84" height="20" viewBox="0 0 84 20" fill="none" xmlns="http://www.w3.org/2000/svg">
<path d="M11.9453 13.0781C11.9453 13.9219 11.8008 14.668 11.5117 15.3164C11.2305 15.9648 10.8359 16.4805 10.3281 16.8633C9.82812 17.2461 9.26172 17.5312 8.62891 17.7188C8.00391 17.9062 7.32422 18 6.58984 18H0.109375V17.6133C0.921875 17.6133 1.48047 17.4883 1.78516 17.2383C2.08984 16.9805 2.24219 16.4805 2.24219 15.7383V3.45703C2.24219 2.72266 2.08594 2.22656 1.77344 1.96875C1.46875 1.71094 0.914062 1.58203 0.109375 1.58203V1.19531H5.79297C7.23828 1.19531 8.35938 1.55078 9.15625 2.26172C9.95312 2.96484 10.3516 3.89844 10.3516 5.0625C10.3516 5.65625 10.1719 6.21875 9.8125 6.75C9.45312 7.27344 9.03906 7.68359 8.57031 7.98047C8.10156 8.26953 7.65625 8.44922 7.23438 8.51953C7.59375 8.52734 7.97266 8.58594 8.37109 8.69531C8.76953 8.79688 9.18359 8.96875 9.61328 9.21094C10.043 9.44531 10.4297 9.73047 10.7734 10.0664C11.1172 10.4023 11.3984 10.832 11.6172 11.3555C11.8359 11.8789 11.9453 12.4531 11.9453 13.0781ZM3.51953 3.45703V8.56641H4.52734C6.07422 8.56641 7.21875 8.24219 7.96094 7.59375C8.71094 6.94531 9.08594 6.10156 9.08594 5.0625C9.08594 4.01562 8.80859 3.19141 8.25391 2.58984C7.70703 1.98047 6.84766 1.67578 5.67578 1.67578C5.26172 1.67578 4.9375 1.69531 4.70312 1.73438C4.46875 1.76563 4.25 1.84375 4.04688 1.96875C3.85156 2.08594 3.71484 2.26562 3.63672 2.50781C3.55859 2.74219 3.51953 3.05859 3.51953 3.45703ZM6.22656 17.5195C9.1875 17.5195 10.668 16.0391 10.668 13.0781C10.668 11.7344 10.2031 10.7227 9.27344 10.043C8.35156 9.36328 7.02344 9.02344 5.28906 9.02344H3.51953V15.7734C3.51953 16.5234 3.68359 17.0039 4.01172 17.2148C4.34766 17.418 5.08594 17.5195 6.22656 17.5195ZM27.8758 0.820312C26.8367 0.820312 25.8641 1.08203 24.9578 1.60547C24.0594 2.12891 23.3367 2.85547 22.7898 3.78516C22.2508 4.70703 21.9812 5.71875 21.9812 6.82031C21.9812 8.49219 22.5477 9.89062 23.6805 11.0156C24.8211 12.1328 26.2195 12.6914 27.8758 12.6914C28.8836 12.6914 29.825 12.4297 30.7 11.9062C31.5828 11.3828 32.2859 10.668 32.8094 9.76172C33.3328 8.85547 33.5945 7.875 33.5945 6.82031C33.5945 5.07812 33.0594 3.64453 31.9891 2.51953C30.9266 1.38672 29.5555 0.820312 27.8758 0.820312ZM28.0516 13.9688L26.3406 19.0312L25.9656 18.9375C25.9812 18.8281 25.9891 18.7305 25.9891 18.6445C25.9969 18.5586 25.993 18.4805 25.9773 18.4102C25.9617 18.3477 25.9383 18.293 25.907 18.2461C25.8758 18.207 25.8328 18.1719 25.7781 18.1406C25.7312 18.1172 25.6727 18.0977 25.6023 18.082C25.532 18.0742 25.4539 18.0664 25.368 18.0586C25.282 18.0508 25.1844 18.0469 25.075 18.0469C24.9734 18.0469 24.8602 18.0469 24.7352 18.0469C24.618 18.0469 24.5242 18.0469 24.4539 18.0469H14.8914V17.6133C15.7195 17.6133 16.282 17.4961 16.5789 17.2617C16.8836 17.0273 17.0359 16.5469 17.0359 15.8203V3.45703C17.0359 2.73047 16.8523 2.24219 16.4852 1.99219C16.118 1.73438 15.5086 1.60547 14.657 1.60547V1.19531H20.6336V1.60547C19.7117 1.60547 19.0906 1.72656 18.7703 1.96875C18.4578 2.21094 18.3016 2.70703 18.3016 3.45703V15.8203C18.3016 16.5469 18.4461 17.0156 18.7352 17.2266C19.0242 17.4375 19.6258 17.543 20.5398 17.543C21.2742 17.543 21.8523 17.5391 22.2742 17.5312C22.7039 17.5234 23.1531 17.5 23.6219 17.4609C24.0906 17.4141 24.4461 17.3633 24.6883 17.3086C24.9305 17.2539 25.1922 17.1562 25.4734 17.0156C25.7625 16.8672 25.9773 16.7188 26.118 16.5703C26.2664 16.4141 26.4383 16.1914 26.6336 15.9023C26.8289 15.6133 26.993 15.3203 27.1258 15.0234C27.2664 14.7266 27.4383 14.3359 27.6414 13.8516L28.0516 13.9688ZM32.2 6.79688C32.2 7.79688 32.0359 8.70312 31.7078 9.51562C31.3875 10.3281 30.8914 10.9844 30.2195 11.4844C29.5555 11.9844 28.7742 12.2344 27.8758 12.2344C26.5164 12.2344 25.4266 11.7227 24.6062 10.6992C23.7937 9.67578 23.3875 8.375 23.3875 6.79688C23.3875 5.19531 23.7898 3.875 24.5945 2.83594C25.3992 1.79687 26.493 1.27734 27.8758 1.27734C29.2039 1.27734 30.2547 1.79687 31.0281 2.83594C31.8094 3.875 32.2 5.19531 32.2 6.79688ZM51.2008 14.8125L51.5641 15.1172C50.5875 16.25 49.6227 17.0742 48.6695 17.5898C47.7164 18.1055 46.5836 18.3633 45.2711 18.3633C44.0211 18.3633 42.8492 18.1406 41.7555 17.6953C40.6695 17.25 39.7398 16.6406 38.9664 15.8672C38.193 15.0859 37.5836 14.1445 37.1383 13.043C36.693 11.9414 36.4703 10.7539 36.4703 9.48047C36.4703 8.28516 36.7086 7.14453 37.1852 6.05859C37.6695 4.97266 38.3063 4.04688 39.0953 3.28125C39.8922 2.51563 40.8102 1.90625 41.8492 1.45312C42.8883 1 43.9508 0.773438 45.0367 0.773438C45.4742 0.773438 46.1188 0.8125 46.9703 0.890625C47.8297 0.960938 48.4703 0.988281 48.8922 0.972656C49.3141 0.957031 49.525 0.855469 49.525 0.667969L49.9117 0.574219L51.3414 5.58984L50.9195 5.78906C50.5289 4.76562 50.107 3.94531 49.6539 3.32812C49.2008 2.71094 48.6227 2.22656 47.9195 1.875C47.4664 1.64844 47.0328 1.49219 46.6188 1.40625C46.2125 1.32031 45.6617 1.27734 44.9664 1.27734C43.6305 1.27734 42.4117 1.64453 41.3102 2.37891C40.2164 3.10547 39.357 4.09766 38.732 5.35547C38.1148 6.60547 37.8063 7.98047 37.8063 9.48047C37.8063 10.6758 38.0172 11.8008 38.4391 12.8555C38.8688 13.9023 39.4352 14.7852 40.1383 15.5039C40.8414 16.2148 41.6422 16.7773 42.5406 17.1914C43.4469 17.6055 44.3727 17.8125 45.318 17.8125C45.9977 17.8125 46.6148 17.7461 47.1695 17.6133C47.732 17.4805 48.2477 17.2773 48.7164 17.0039C49.193 16.7227 49.6188 16.4141 49.9938 16.0781C50.3688 15.7344 50.7711 15.3125 51.2008 14.8125ZM59.807 7.85156L63.7445 12.7969C64.307 13.5 64.7562 14.0586 65.0922 14.4727C65.4359 14.8867 65.7953 15.3008 66.1703 15.7148C66.5453 16.1211 66.8578 16.4258 67.1078 16.6289C67.3656 16.8242 67.6469 17.0078 67.9516 17.1797C68.2562 17.3438 68.5453 17.4531 68.8187 17.5078C69.1 17.5625 69.4164 17.5898 69.768 17.5898V17.9766L66.2406 18L58.8461 8.83594C58.6273 9.05469 58.2602 9.4375 57.7445 9.98438V15.7383C57.7445 16.4883 57.9008 16.9844 58.2133 17.2266C58.5336 17.4688 59.1625 17.5898 60.1 17.5898V18H54.1V17.5898C54.9516 17.5898 55.5609 17.4648 55.9281 17.2148C56.2953 16.957 56.4789 16.4648 56.4789 15.7383V3.45703C56.4789 2.73047 56.2953 2.24219 55.9281 1.99219C55.5609 1.73438 54.9516 1.60547 54.1 1.60547V1.19531H60.1V1.60547C59.1625 1.60547 58.5336 1.72656 58.2133 1.96875C57.9008 2.21094 57.7445 2.70703 57.7445 3.45703V9.16406L60.9906 5.97656C62.6391 4.35938 63.5961 3.40234 63.8617 3.10547C64.4242 2.48828 64.6469 2.08203 64.5297 1.88672C64.4203 1.70703 63.9281 1.61328 63.0531 1.60547C62.9828 1.60547 62.9086 1.60547 62.8305 1.60547V1.19531H68.9828V1.60547C68.4672 1.60547 68.0258 1.64062 67.6586 1.71094C67.2992 1.78125 66.8539 1.94531 66.3227 2.20312C65.7914 2.45312 65.1898 2.84766 64.518 3.38672C63.8539 3.92578 63.0687 4.63672 62.1625 5.51953C61.9359 5.73047 61.1508 6.50781 59.807 7.85156ZM73.9211 4.875C73.9211 5.39844 74.0266 5.86719 74.2375 6.28125C74.4484 6.6875 74.7297 7.02734 75.0813 7.30078C75.4406 7.56641 75.8508 7.8125 76.3117 8.03906C76.7805 8.25781 77.2688 8.46094 77.7766 8.64844C78.2922 8.82812 78.8039 9.01562 79.3117 9.21094C79.8195 9.39844 80.3039 9.62109 80.7648 9.87891C81.2336 10.1289 81.6438 10.4141 81.9953 10.7344C82.3547 11.0469 82.6398 11.4453 82.8508 11.9297C83.0617 12.4062 83.1672 12.9492 83.1672 13.5586C83.1672 14.8789 82.6789 16.0117 81.7023 16.957C80.7336 17.8945 79.4836 18.3633 77.9523 18.3633C77.3273 18.3633 76.7297 18.2852 76.1594 18.1289C75.5969 17.9727 75.1555 17.8047 74.8352 17.625C74.5148 17.4453 74.2219 17.293 73.9563 17.168C73.6984 17.043 73.5031 17.0117 73.3703 17.0742C73.2375 17.1289 73.1359 17.3164 73.0656 17.6367H72.6086V16.6758L72.5031 11.9297H72.9133C73.0461 13.9219 73.5383 15.4062 74.3898 16.3828C75.2414 17.3516 76.4719 17.8359 78.0813 17.8359C79.2453 17.8359 80.1789 17.4883 80.882 16.793C81.5852 16.0898 81.9367 15.1328 81.9367 13.9219C81.9367 13.3594 81.8313 12.8633 81.6203 12.4336C81.4094 11.9961 81.1242 11.6367 80.7648 11.3555C80.4133 11.0742 80.007 10.8242 79.5461 10.6055C79.0852 10.3867 78.6008 10.1914 78.093 10.0195C77.5852 9.83984 77.0773 9.66016 76.5695 9.48047C76.0617 9.29297 75.5773 9.07812 75.1164 8.83594C74.6555 8.58594 74.2453 8.30469 73.8859 7.99219C73.5344 7.67188 73.2531 7.26562 73.0422 6.77344C72.8313 6.28125 72.7258 5.71875 72.7258 5.08594C72.7258 4.59375 72.8508 4.09766 73.1008 3.59766C73.3508 3.09766 73.6945 2.63672 74.132 2.21484C74.5773 1.79297 75.1438 1.44922 75.8313 1.18359C76.5266 0.910156 77.2766 0.773438 78.0813 0.773438C78.4016 0.773438 78.7531 0.8125 79.1359 0.890625C79.5266 0.96875 79.8625 1.04687 80.1438 1.125C80.425 1.20313 80.6945 1.26562 80.9523 1.3125C81.218 1.35156 81.4328 1.33594 81.5969 1.26562C81.7609 1.19531 81.8742 1.05469 81.9367 0.84375H82.4172L82.5109 5.92969H82.007C82.007 2.82812 80.6164 1.27734 77.8352 1.27734C76.7258 1.27734 75.7961 1.64844 75.0461 2.39062C74.2961 3.125 73.9211 3.95312 73.9211 4.875Z" fill="#DFD4BF"/>
</svg>
