<svg width="25" height="25" viewBox="0 0 25 25" fill="none" xmlns="http://www.w3.org/2000/svg">
<path d="M5.625 8.3C5.625 6.61984 5.625 5.77976 5.95198 5.13803C6.2396 4.57354 6.69854 4.1146 7.26303 3.82698C7.90476 3.5 8.74484 3.5 10.425 3.5H14.825C16.5052 3.5 17.3452 3.5 17.987 3.82698C18.5515 4.1146 19.0104 4.57354 19.298 5.13803C19.625 5.77976 19.625 6.61984 19.625 8.3V21.5L12.625 17.5L5.625 21.5V8.3Z" fill="#181818"/>
<path d="M9.625 11L11.625 13L16.125 8.5M19.625 21.5V8.3C19.625 6.61984 19.625 5.77976 19.298 5.13803C19.0104 4.57354 18.5515 4.1146 17.987 3.82698C17.3452 3.5 16.5052 3.5 14.825 3.5H10.425C8.74484 3.5 7.90476 3.5 7.26303 3.82698C6.69854 4.1146 6.2396 4.57354 5.95198 5.13803C5.625 5.77976 5.625 6.61984 5.625 8.3V21.5L12.625 17.5L19.625 21.5Z" stroke="#DED3BD" stroke-linecap="round" stroke-linejoin="round"/>
</svg>
