<svg width="162" height="19" viewBox="0 0 162 19" fill="none" xmlns="http://www.w3.org/2000/svg">
<path d="M15.4492 14.8125L15.8125 15.1172C14.8359 16.25 13.8711 17.0742 12.918 17.5898C11.9648 18.1055 10.832 18.3633 9.51953 18.3633C8.26953 18.3633 7.09766 18.1406 6.00391 17.6953C4.91797 17.25 3.98828 16.6406 3.21484 15.8672C2.44141 15.0859 1.83203 14.1445 1.38672 13.043C0.941406 11.9414 0.71875 10.7539 0.71875 9.48047C0.71875 8.28516 0.957031 7.14453 1.43359 6.05859C1.91797 4.97266 2.55469 4.04688 3.34375 3.28125C4.14062 2.51563 5.05859 1.90625 6.09766 1.45312C7.13672 1 8.19922 0.773438 9.28516 0.773438C9.72266 0.773438 10.3672 0.8125 11.2188 0.890625C12.0781 0.960938 12.7188 0.988281 13.1406 0.972656C13.5625 0.957031 13.7734 0.855469 13.7734 0.667969L14.1602 0.574219L15.5898 5.58984L15.168 5.78906C14.7773 4.76562 14.3555 3.94531 13.9023 3.32812C13.4492 2.71094 12.8711 2.22656 12.168 1.875C11.7148 1.64844 11.2812 1.49219 10.8672 1.40625C10.4609 1.32031 9.91016 1.27734 9.21484 1.27734C7.87891 1.27734 6.66016 1.64453 5.55859 2.37891C4.46484 3.10547 3.60547 4.09766 2.98047 5.35547C2.36328 6.60547 2.05469 7.98047 2.05469 9.48047C2.05469 10.6758 2.26562 11.8008 2.6875 12.8555C3.11719 13.9023 3.68359 14.7852 4.38672 15.5039C5.08984 16.2148 5.89062 16.7773 6.78906 17.1914C7.69531 17.6055 8.62109 17.8125 9.56641 17.8125C10.2461 17.8125 10.8633 17.7461 11.418 17.6133C11.9805 17.4805 12.4961 17.2773 12.9648 17.0039C13.4414 16.7227 13.8672 16.4141 14.2422 16.0781C14.6172 15.7344 15.0195 15.3125 15.4492 14.8125ZM9.61328 3.71484C11.1992 3.71484 12.5039 4.23828 13.5273 5.28516C14.6523 6.38672 15.2148 7.82422 15.2148 9.59766C15.2148 10.3867 15.0664 11.1445 14.7695 11.8711C14.4727 12.5977 14.0508 13.2344 13.5039 13.7812C12.9727 14.2891 12.3633 14.6914 11.6758 14.9883C10.9883 15.2852 10.3008 15.4336 9.61328 15.4336C8.82422 15.4336 8.0625 15.2891 7.32812 15C6.60156 14.7109 5.98828 14.3047 5.48828 13.7812C4.93359 13.2422 4.50781 12.6133 4.21094 11.8945C3.91406 11.168 3.76562 10.4023 3.76562 9.59766C3.76562 8.79297 3.92188 8.02734 4.23438 7.30078C4.54688 6.56641 4.99609 5.92578 5.58203 5.37891C6.10547 4.86328 6.73828 4.45703 7.48047 4.16016C8.22266 3.86328 8.93359 3.71484 9.61328 3.71484ZM13.9141 9.59766C13.9141 7.87109 13.5156 6.54297 12.7188 5.61328C12.3359 5.15234 11.8711 4.79688 11.3242 4.54688C10.7852 4.29688 10.2148 4.17188 9.61328 4.17188C8.29297 4.17188 7.22266 4.65234 6.40234 5.61328C5.51953 6.58984 5.07812 7.91797 5.07812 9.59766C5.07812 11.2695 5.51953 12.582 6.40234 13.5352C7.25391 14.4805 8.32422 14.9531 9.61328 14.9531C10.8633 14.9531 11.8984 14.4805 12.7188 13.5352C13.5156 12.5977 13.9141 11.2852 13.9141 9.59766ZM38.0594 1.19531V1.60547C37.1141 1.60547 36.4695 1.73047 36.1258 1.98047C35.7898 2.22266 35.6219 2.71484 35.6219 3.45703V15.7383C35.6219 16.4805 35.7898 16.9766 36.1258 17.2266C36.4617 17.4688 37.1063 17.5898 38.0594 17.5898V18H31.8719V17.5898C32.7234 17.5898 33.3484 17.4648 33.7469 17.2148C34.1453 16.957 34.3445 16.4766 34.3445 15.7734V4.62891L28.157 18H27.5945L21.1492 4.60547V15.7383C21.1492 16.4805 21.3172 16.9766 21.6531 17.2266C21.9969 17.4688 22.6414 17.5898 23.5867 17.5898V18H18.0438V17.5898C18.9031 17.5898 19.5281 17.4609 19.9188 17.2031C20.3172 16.9375 20.5164 16.4414 20.5164 15.7148V3.48047C20.5164 2.75391 20.3172 2.26172 19.9188 2.00391C19.5281 1.73828 18.9031 1.60547 18.0438 1.60547V1.19531H21.0203L28.2508 16.3711L35.1883 1.19531H38.0594ZM60.4469 1.19531V1.60547C59.5016 1.60547 58.857 1.73047 58.5133 1.98047C58.1773 2.22266 58.0094 2.71484 58.0094 3.45703V15.7383C58.0094 16.4805 58.1773 16.9766 58.5133 17.2266C58.8492 17.4688 59.4938 17.5898 60.4469 17.5898V18H54.2594V17.5898C55.1109 17.5898 55.7359 17.4648 56.1344 17.2148C56.5328 16.957 56.732 16.4766 56.732 15.7734V4.62891L50.5445 18H49.982L43.5367 4.60547V15.7383C43.5367 16.4805 43.7047 16.9766 44.0406 17.2266C44.3844 17.4688 45.0289 17.5898 45.9742 17.5898V18H40.4313V17.5898C41.2906 17.5898 41.9156 17.4609 42.3063 17.2031C42.7047 16.9375 42.9039 16.4414 42.9039 15.7148V3.48047C42.9039 2.75391 42.7047 2.26172 42.3063 2.00391C41.9156 1.73828 41.2906 1.60547 40.4313 1.60547V1.19531H43.4078L50.6383 16.3711L57.5758 1.19531H60.4469ZM73.9164 1.19531H79.4828V1.60547C78.6703 1.60547 78.0687 1.82031 77.6781 2.25C77.2953 2.67969 77.1039 3.37891 77.1039 4.34766V11.1797C77.1039 13.6172 76.6234 15.4258 75.6625 16.6055C74.7094 17.7773 73.2602 18.3633 71.3148 18.3633C69.2133 18.3633 67.6859 17.8359 66.7328 16.7812C65.7875 15.7188 65.3148 14.0117 65.3148 11.6602V3.69141C65.3148 2.85547 65.1273 2.30078 64.7523 2.02734C64.3852 1.74609 63.7562 1.60547 62.8656 1.60547V1.19531H68.9945V1.60547C68.057 1.60547 67.4281 1.74219 67.1078 2.01562C66.7953 2.28906 66.6391 2.84766 66.6391 3.69141L66.6156 11.7305C66.6078 12.6758 66.6898 13.5 66.8617 14.2031C67.0414 14.9062 67.2797 15.4766 67.5766 15.9141C67.8734 16.3438 68.2484 16.6914 68.7016 16.957C69.1547 17.2148 69.6273 17.3945 70.1195 17.4961C70.6195 17.5898 71.1859 17.6367 71.8187 17.6367C72.7016 17.6367 73.4516 17.4961 74.0687 17.2148C74.6859 16.9258 75.1703 16.4961 75.5219 15.9258C75.8812 15.3477 76.1391 14.6758 76.2953 13.9102C76.4516 13.1445 76.5297 12.2344 76.5297 11.1797V4.37109C76.5297 3.39453 76.3031 2.69141 75.85 2.26172C75.4047 1.82422 74.7602 1.60547 73.9164 1.60547V1.19531ZM92.9406 1.19531H98.8234V1.60547C98.3938 1.60547 98.0188 1.64844 97.6984 1.73438C97.3781 1.82031 97.0852 1.96875 96.8195 2.17969C96.5539 2.39062 96.3508 2.69922 96.2102 3.10547C96.0773 3.50391 96.0109 3.99609 96.0109 4.58203V18H95.5773L84.4445 3.1875L84.468 15.7148C84.468 16.4727 84.6359 16.9766 84.9719 17.2266C85.3078 17.4688 85.9563 17.5898 86.9172 17.5898V18H81.468V17.5898C82.3273 17.5898 82.9523 17.4609 83.343 17.2031C83.7414 16.9375 83.9406 16.4414 83.9406 15.7148V3.48047C83.9406 2.75391 83.7414 2.26172 83.343 2.00391C82.9523 1.73828 82.3273 1.60547 81.468 1.60547V1.19531H84.5617L95.4367 15.6211V4.58203C95.4367 4.09766 95.3977 3.67969 95.3195 3.32812C95.2492 2.97656 95.1477 2.69141 95.0148 2.47266C94.882 2.24609 94.7063 2.07031 94.4875 1.94531C94.2766 1.8125 94.05 1.72266 93.8078 1.67578C93.5656 1.62891 93.2766 1.60547 92.9406 1.60547V1.19531ZM104.57 3.45703V15.7383C104.57 16.4883 104.727 16.9844 105.039 17.2266C105.359 17.4688 105.988 17.5898 106.926 17.5898V18H100.926V17.5898C101.777 17.5898 102.387 17.4648 102.754 17.2148C103.121 16.957 103.305 16.4648 103.305 15.7383V3.45703C103.305 2.71484 103.152 2.22266 102.848 1.98047C102.543 1.73047 101.98 1.60547 101.16 1.60547V1.19531H106.926V1.60547C105.988 1.60547 105.359 1.72656 105.039 1.96875C104.727 2.21094 104.57 2.70703 104.57 3.45703ZM122.833 0.433594L124.567 5.33203L124.157 5.44922C123.923 4.87891 123.731 4.43359 123.583 4.11328C123.442 3.79297 123.27 3.47266 123.067 3.15234C122.872 2.82422 122.684 2.58594 122.505 2.4375C122.333 2.28906 122.11 2.15234 121.837 2.02734C121.571 1.90234 121.278 1.82031 120.958 1.78125C120.645 1.74219 120.262 1.72266 119.809 1.72266C118.958 1.72266 118.348 1.83984 117.981 2.07422C117.622 2.30078 117.442 2.75391 117.442 3.43359V15.7383C117.442 16.4883 117.598 16.9844 117.911 17.2266C118.223 17.4688 118.848 17.5898 119.786 17.5898V18H113.786V17.5898C114.637 17.5898 115.247 17.4648 115.614 17.2148C115.981 16.957 116.165 16.4648 116.165 15.7383V3.43359C116.165 2.76172 115.985 2.30859 115.626 2.07422C115.266 1.83984 114.669 1.72266 113.833 1.72266C113.489 1.72266 113.188 1.73438 112.93 1.75781C112.68 1.77344 112.438 1.81641 112.204 1.88672C111.977 1.95703 111.786 2.02734 111.63 2.09766C111.473 2.16797 111.309 2.28906 111.137 2.46094C110.973 2.625 110.837 2.78125 110.727 2.92969C110.618 3.07812 110.485 3.30078 110.329 3.59766C110.18 3.89453 110.052 4.16797 109.942 4.41797C109.833 4.66797 109.684 5.01172 109.497 5.44922L109.087 5.33203L110.809 0.433594L111.196 0.527344C111.102 0.972656 111.63 1.19531 112.778 1.19531H120.876C121.423 1.19531 121.833 1.13281 122.106 1.00781C122.387 0.882812 122.505 0.722656 122.458 0.527344L122.833 0.433594ZM130.127 3.45703V15.7383C130.127 16.4883 130.283 16.9844 130.595 17.2266C130.916 17.4688 131.545 17.5898 132.482 17.5898V18H126.482V17.5898C127.334 17.5898 127.943 17.4648 128.31 17.2148C128.677 16.957 128.861 16.4648 128.861 15.7383V3.45703C128.861 2.71484 128.709 2.22266 128.404 1.98047C128.099 1.73047 127.537 1.60547 126.716 1.60547V1.19531H132.482V1.60547C131.545 1.60547 130.916 1.72656 130.595 1.96875C130.283 2.21094 130.127 2.70703 130.127 3.45703ZM147.405 13.7578L147.815 13.875L146.116 18.9844L145.729 18.8906C145.745 18.7891 145.752 18.6992 145.752 18.6211C145.752 18.543 145.748 18.4727 145.741 18.4102C145.733 18.3477 145.713 18.293 145.682 18.2461C145.651 18.207 145.623 18.1719 145.6 18.1406C145.577 18.1094 145.53 18.082 145.459 18.0586C145.389 18.043 145.334 18.0312 145.295 18.0234C145.256 18.0156 145.186 18.0078 145.084 18C144.983 18 144.901 18 144.838 18C144.784 18 144.686 18 144.545 18C144.405 18 144.295 18 144.217 18H134.643V17.5664C135.471 17.5664 136.034 17.4453 136.33 17.2031C136.627 16.9609 136.776 16.4727 136.776 15.7383V3.43359C136.776 2.71484 136.62 2.23438 136.307 1.99219C136.002 1.75 135.448 1.62891 134.643 1.62891V1.19531H142.998C143.069 1.19531 143.17 1.19531 143.303 1.19531C143.413 1.19531 143.514 1.19531 143.608 1.19531C143.702 1.19531 143.788 1.19531 143.866 1.19531C143.944 1.1875 144.014 1.17969 144.077 1.17188C144.147 1.15625 144.205 1.14062 144.252 1.125C144.307 1.10938 144.354 1.08594 144.393 1.05469C144.432 1.02344 144.463 0.984375 144.487 0.9375C144.51 0.890625 144.526 0.835937 144.534 0.773438C144.549 0.710938 144.557 0.640625 144.557 0.5625C144.557 0.484375 144.549 0.394531 144.534 0.292969L144.92 0.1875L146.62 5.30859L146.209 5.42578C146.006 4.94922 145.834 4.55859 145.694 4.25391C145.553 3.94141 145.389 3.64453 145.202 3.36328C145.022 3.07422 144.866 2.85156 144.733 2.69531C144.6 2.53906 144.413 2.39062 144.17 2.25C143.936 2.10156 143.717 2 143.514 1.94531C143.319 1.88281 143.038 1.83203 142.67 1.79297C142.303 1.74609 141.952 1.71875 141.616 1.71094C141.288 1.70312 140.842 1.69922 140.28 1.69922C139.452 1.69922 138.873 1.8125 138.545 2.03906C138.217 2.25781 138.053 2.72266 138.053 3.43359V9.02344H141.604C142.143 9.02344 142.51 8.83203 142.705 8.44922C142.901 8.06641 142.998 7.44922 142.998 6.59766H143.373V11.9297H142.998C142.998 11.0469 142.897 10.4219 142.694 10.0547C142.498 9.6875 142.143 9.50391 141.627 9.50391H138.053V15.7383C138.053 16.4805 138.194 16.957 138.475 17.168C138.764 17.3711 139.366 17.4727 140.28 17.4727C141.014 17.4727 141.592 17.4688 142.014 17.4609C142.444 17.4531 142.893 17.4258 143.362 17.3789C143.83 17.332 144.186 17.2852 144.428 17.2383C144.67 17.1836 144.932 17.082 145.213 16.9336C145.502 16.7852 145.717 16.6367 145.858 16.4883C146.006 16.3398 146.182 16.1211 146.385 15.832C146.588 15.5352 146.756 15.2383 146.889 14.9414C147.03 14.6367 147.202 14.2422 147.405 13.7578ZM152.413 4.875C152.413 5.39844 152.519 5.86719 152.73 6.28125C152.941 6.6875 153.222 7.02734 153.573 7.30078C153.933 7.56641 154.343 7.8125 154.804 8.03906C155.273 8.25781 155.761 8.46094 156.269 8.64844C156.784 8.82812 157.296 9.01562 157.804 9.21094C158.312 9.39844 158.796 9.62109 159.257 9.87891C159.726 10.1289 160.136 10.4141 160.488 10.7344C160.847 11.0469 161.132 11.4453 161.343 11.9297C161.554 12.4062 161.659 12.9492 161.659 13.5586C161.659 14.8789 161.171 16.0117 160.195 16.957C159.226 17.8945 157.976 18.3633 156.445 18.3633C155.82 18.3633 155.222 18.2852 154.652 18.1289C154.089 17.9727 153.648 17.8047 153.327 17.625C153.007 17.4453 152.714 17.293 152.448 17.168C152.191 17.043 151.995 17.0117 151.863 17.0742C151.73 17.1289 151.628 17.3164 151.558 17.6367H151.101V16.6758L150.995 11.9297H151.405C151.538 13.9219 152.03 15.4062 152.882 16.3828C153.734 17.3516 154.964 17.8359 156.573 17.8359C157.738 17.8359 158.671 17.4883 159.374 16.793C160.077 16.0898 160.429 15.1328 160.429 13.9219C160.429 13.3594 160.323 12.8633 160.113 12.4336C159.902 11.9961 159.616 11.6367 159.257 11.3555C158.905 11.0742 158.499 10.8242 158.038 10.6055C157.577 10.3867 157.093 10.1914 156.585 10.0195C156.077 9.83984 155.57 9.66016 155.062 9.48047C154.554 9.29297 154.07 9.07812 153.609 8.83594C153.148 8.58594 152.738 8.30469 152.378 7.99219C152.027 7.67188 151.745 7.26562 151.534 6.77344C151.323 6.28125 151.218 5.71875 151.218 5.08594C151.218 4.59375 151.343 4.09766 151.593 3.59766C151.843 3.09766 152.187 2.63672 152.624 2.21484C153.07 1.79297 153.636 1.44922 154.323 1.18359C155.019 0.910156 155.769 0.773438 156.573 0.773438C156.894 0.773438 157.245 0.8125 157.628 0.890625C158.019 0.96875 158.355 1.04687 158.636 1.125C158.917 1.20313 159.187 1.26562 159.445 1.3125C159.71 1.35156 159.925 1.33594 160.089 1.26562C160.253 1.19531 160.366 1.05469 160.429 0.84375H160.909L161.003 5.92969H160.499C160.499 2.82812 159.109 1.27734 156.327 1.27734C155.218 1.27734 154.288 1.64844 153.538 2.39062C152.788 3.125 152.413 3.95312 152.413 4.875Z" fill="#181818"/>
</svg>
