<svg width="25" height="25" viewBox="0 0 25 25" fill="none" xmlns="http://www.w3.org/2000/svg">
<path d="M10.375 12.5C12.8603 12.5 14.875 10.4853 14.875 8C14.875 5.51472 12.8603 3.5 10.375 3.5C7.88974 3.5 5.87502 5.51472 5.87502 8C5.87502 10.4853 7.88974 12.5 10.375 12.5Z" fill="#181818"/>
<path d="M10.375 15.5C7.54439 15.5 5.02856 17.0446 3.43425 19.4383C3.08498 19.9628 2.91035 20.225 2.93045 20.5599C2.94611 20.8207 3.11707 21.14 3.32546 21.2976C3.5931 21.5 3.96119 21.5 4.69738 21.5H16.0527C16.7888 21.5 17.1569 21.5 17.4246 21.2976C17.633 21.14 17.8039 20.8207 17.8196 20.5599C17.8397 20.225 17.6651 19.9628 17.3158 19.4383C15.7215 17.0446 13.2056 15.5 10.375 15.5Z" fill="#181818"/>
<path d="M18.875 16.3369C20.3309 17.0683 21.5792 18.242 22.4903 19.7096C22.6707 20.0003 22.7609 20.1456 22.7921 20.3468C22.8555 20.7558 22.5758 21.2585 22.195 21.4204C22.0075 21.5 21.7967 21.5 21.375 21.5M16.875 12.0322C18.3567 11.2959 19.375 9.76686 19.375 8C19.375 6.23314 18.3567 4.70411 16.875 3.96776M14.875 8C14.875 10.4853 12.8603 12.5 10.375 12.5C7.88974 12.5 5.87502 10.4853 5.87502 8C5.87502 5.51472 7.88974 3.5 10.375 3.5C12.8603 3.5 14.875 5.51472 14.875 8ZM3.43425 19.4383C5.02856 17.0446 7.54439 15.5 10.375 15.5C13.2056 15.5 15.7215 17.0446 17.3158 19.4383C17.6651 19.9628 17.8397 20.225 17.8196 20.5599C17.8039 20.8207 17.633 21.14 17.4246 21.2976C17.1569 21.5 16.7888 21.5 16.0527 21.5H4.69738C3.96119 21.5 3.5931 21.5 3.32546 21.2976C3.11707 21.14 2.94611 20.8207 2.93045 20.5599C2.91035 20.225 3.08498 19.9628 3.43425 19.4383Z" stroke="#181818" stroke-linecap="round" stroke-linejoin="round"/>
</svg>
