<svg width="137" height="19" viewBox="0 0 137 19" fill="none" xmlns="http://www.w3.org/2000/svg">
<path d="M6.46875 1.69922C5.63281 1.69922 5.05078 1.8125 4.72266 2.03906C4.39453 2.25781 4.23047 2.72266 4.23047 3.43359V9.02344H7.78125C8.32031 9.02344 8.6875 8.83203 8.88281 8.44922C9.07812 8.06641 9.17578 7.44922 9.17578 6.59766H9.5625V11.9297H9.17578C9.17578 11.0469 9.07422 10.4219 8.87109 10.0547C8.67578 9.6875 8.32031 9.50391 7.80469 9.50391H4.23047V15.7383C4.23047 16.4883 4.38672 16.9844 4.69922 17.2266C5.01953 17.4688 5.64844 17.5898 6.58594 17.5898V18H0.585938V17.5898C1.4375 17.5898 2.04688 17.4648 2.41406 17.2148C2.78125 16.957 2.96484 16.4648 2.96484 15.7383V3.43359C2.96484 2.71484 2.80859 2.23438 2.49609 1.99219C2.19141 1.75 1.63281 1.62891 0.820312 1.62891V1.19531H9.17578C9.27734 1.19531 9.39062 1.19922 9.51562 1.20703C9.64062 1.20703 9.73438 1.20703 9.79688 1.20703C9.86719 1.20703 9.94922 1.20703 10.043 1.20703C10.1445 1.20703 10.2148 1.20313 10.2539 1.19531C10.3008 1.1875 10.3594 1.17578 10.4297 1.16016C10.5 1.14453 10.543 1.12109 10.5586 1.08984C10.5742 1.05859 10.6016 1.01953 10.6406 0.972656C10.6875 0.925781 10.707 0.871094 10.6992 0.808594C10.6914 0.746094 10.6992 0.671875 10.7227 0.585938C10.7461 0.5 10.7422 0.402344 10.7109 0.292969L11.0977 0.1875L12.7969 5.30859L12.3984 5.42578C12.2031 4.96484 12.0273 4.57422 11.8711 4.25391C11.7148 3.92578 11.543 3.62891 11.3555 3.36328C11.168 3.08984 10.9961 2.86719 10.8398 2.69531C10.6914 2.52344 10.4961 2.37109 10.2539 2.23828C10.0117 2.10547 9.78516 2.00781 9.57422 1.94531C9.37109 1.88281 9.08984 1.83203 8.73047 1.79297C8.37891 1.74609 8.04297 1.71875 7.72266 1.71094C7.41016 1.70312 6.99219 1.69922 6.46875 1.69922ZM17.4375 6.48047C19.1172 6.48047 20.4883 7.04688 21.5508 8.17969C22.6133 9.30469 23.1445 10.7383 23.1445 12.4805C23.1445 13.5352 22.8828 14.5156 22.3594 15.4219C21.8438 16.3281 21.1445 17.0469 20.2617 17.5781C19.3867 18.1016 18.4453 18.3633 17.4375 18.3633C16.3516 18.3633 15.3555 18.1094 14.4492 17.6016C13.5508 17.0938 12.8398 16.3906 12.3164 15.4922C11.793 14.5859 11.5312 13.582 11.5312 12.4805C11.5312 11.3789 11.8047 10.3672 12.3516 9.44531C12.8984 8.51562 13.6211 7.78906 14.5195 7.26562C15.4258 6.74219 16.3984 6.48047 17.4375 6.48047ZM17.4375 17.9062C18.3359 17.9062 19.1172 17.6562 19.7812 17.1562C20.4453 16.6484 20.9375 15.9883 21.2578 15.1758C21.5859 14.3633 21.75 13.457 21.75 12.457C21.75 10.8555 21.3633 9.53516 20.5898 8.49609C19.8164 7.45703 18.7656 6.9375 17.4375 6.9375C16.0547 6.9375 14.9609 7.45703 14.1562 8.49609C13.3516 9.53516 12.9492 10.8555 12.9492 12.457C12.9492 14.0352 13.3555 15.3398 14.168 16.3711C14.9883 17.3945 16.0781 17.9062 17.4375 17.9062ZM38.6648 13.7812L39.075 13.8984L37.3641 18.9844L36.9891 18.8906C37.0047 18.7891 37.0125 18.6992 37.0125 18.6211C37.0125 18.543 37.0086 18.4727 37.0008 18.4102C36.993 18.3477 36.9734 18.293 36.9422 18.2461C36.9109 18.207 36.8836 18.1719 36.8602 18.1406C36.8367 18.1094 36.7898 18.082 36.7195 18.0586C36.6492 18.043 36.5945 18.0312 36.5555 18.0234C36.5164 18.0156 36.4461 18.0078 36.3445 18C36.243 18 36.1609 18 36.0984 18C36.0438 18 35.9461 18 35.8055 18C35.6648 18 35.5555 18 35.4773 18H25.8914V17.5664C26.7195 17.5664 27.282 17.4453 27.5789 17.2031C27.8836 16.9609 28.0359 16.4727 28.0359 15.7383V3.45703C28.0359 2.73047 27.8523 2.24219 27.4852 1.99219C27.118 1.73438 26.5086 1.60547 25.657 1.60547V1.19531H31.4109V1.60547C30.7781 1.60547 30.3172 1.66016 30.0281 1.76953C29.7391 1.87109 29.5438 2.04297 29.4422 2.28516C29.3484 2.52734 29.3016 2.91797 29.3016 3.45703V15.7383C29.3016 16.4727 29.4461 16.9453 29.7352 17.1562C30.0242 17.3672 30.6258 17.4727 31.5398 17.4727C32.1258 17.4727 32.5984 17.4727 32.9578 17.4727C33.325 17.4648 33.7117 17.4492 34.118 17.4258C34.532 17.4023 34.8523 17.375 35.0789 17.3438C35.3133 17.3125 35.5711 17.2617 35.8523 17.1914C36.1336 17.1133 36.3445 17.0352 36.4852 16.957C36.6336 16.8789 36.8055 16.7617 37.0008 16.6055C37.1961 16.4492 37.3445 16.293 37.4461 16.1367C37.5555 15.9805 37.6883 15.7734 37.8445 15.5156C38.0008 15.2578 38.1336 15 38.243 14.7422C38.3602 14.4844 38.5008 14.1641 38.6648 13.7812ZM42.1219 7.51172L42.532 7.62891L40.7742 12.8672L40.3875 12.7734C40.4422 12.3438 40.4109 12.0703 40.2938 11.9531C40.1766 11.8281 39.8992 11.7656 39.4617 11.7656H32.6648V11.332C33.493 11.332 34.0555 11.2109 34.3523 10.9688C34.6492 10.7266 34.7977 10.2383 34.7977 9.50391V3.45703C34.7977 2.71484 34.6453 2.22266 34.3406 1.98047C34.0438 1.73047 33.4852 1.60547 32.6648 1.60547V1.19531H38.2313V1.60547C37.2938 1.60547 36.6648 1.72656 36.3445 1.96875C36.032 2.21094 35.8758 2.70703 35.8758 3.45703V10.2773C35.8758 10.6523 36.032 10.9062 36.3445 11.0391C36.6648 11.1641 37.2938 11.2266 38.2313 11.2266C38.5359 11.2266 38.7938 11.2227 39.0047 11.2148C39.2234 11.1992 39.4305 11.1641 39.6258 11.1094C39.8289 11.0547 39.993 11.0039 40.118 10.957C40.243 10.9023 40.3758 10.8047 40.5164 10.6641C40.657 10.5156 40.7664 10.3867 40.8445 10.2773C40.9305 10.1602 41.0398 9.96875 41.1727 9.70312C41.3055 9.4375 41.4148 9.20312 41.5008 9C41.5867 8.78906 41.7156 8.48047 41.8875 8.07422C41.9891 7.83203 42.0672 7.64453 42.1219 7.51172ZM45.0563 9.62109C45.0563 8.34766 45.3063 7.15234 45.8063 6.03516C46.3063 4.91016 46.9625 3.96875 47.775 3.21094C48.5875 2.45312 49.5094 1.85938 50.5406 1.42969C51.5719 0.992188 52.6227 0.773438 53.693 0.773438C55.2633 0.773438 56.6813 1.14844 57.9469 1.89844C59.2203 2.64844 60.2164 3.69922 60.9352 5.05078C61.6617 6.40234 62.025 7.92578 62.025 9.62109C62.025 10.8477 61.7906 12.0117 61.3219 13.1133C60.8531 14.207 60.232 15.1328 59.4586 15.8906C58.693 16.6484 57.8063 17.25 56.7984 17.6953C55.7906 18.1406 54.7555 18.3633 53.693 18.3633C52.5211 18.3633 51.4039 18.1445 50.3414 17.707C49.2789 17.2617 48.3609 16.6562 47.5875 15.8906C46.8141 15.125 46.1969 14.1992 45.7359 13.1133C45.2828 12.0195 45.0563 10.8555 45.0563 9.62109ZM46.568 9.62109C46.568 10.8398 46.7555 11.9688 47.1305 13.0078C47.5133 14.0391 48.025 14.9023 48.6656 15.5977C49.3141 16.293 50.0719 16.8359 50.9391 17.2266C51.8063 17.6172 52.7242 17.8125 53.693 17.8125C54.9898 17.8125 56.15 17.4805 57.1734 16.8164C58.2047 16.1523 59.0172 15.1953 59.6109 13.9453C60.2125 12.6953 60.5133 11.2539 60.5133 9.62109C60.5133 8.36328 60.3375 7.21094 59.9859 6.16406C59.6422 5.11719 59.1656 4.24219 58.5563 3.53906C57.9547 2.83594 57.2359 2.29297 56.4 1.91016C55.5641 1.51953 54.6617 1.32422 53.693 1.32422C52.7164 1.32422 51.7945 1.51953 50.9273 1.91016C50.0602 2.29297 49.3023 2.83594 48.6539 3.53906C48.0133 4.24219 47.5055 5.12109 47.1305 6.17578C46.7555 7.22266 46.568 8.37109 46.568 9.62109ZM83.3227 1.19531H89.6039V1.60547C88.1195 1.60547 87.0336 2.62891 86.3461 4.67578L81.7875 18H81.2367L76.725 5.88281L72.2367 18H71.6859L65.6039 3.04688C65.4477 2.67188 65.2992 2.39453 65.1586 2.21484C65.018 2.03516 64.7914 1.89062 64.4789 1.78125C64.1742 1.66406 63.7523 1.60547 63.2133 1.60547V1.19531H69.9516V1.60547C68.9594 1.60547 68.1977 1.76563 67.6664 2.08594C67.1352 2.40625 66.9867 2.84766 67.2211 3.41016L72.3305 16.125L76.432 5.10938L75.6937 3.11719C75.5453 2.72656 75.393 2.43359 75.2367 2.23828C75.0883 2.04297 74.8578 1.89062 74.5453 1.78125C74.2328 1.66406 73.807 1.60547 73.268 1.60547V1.19531H80.0062V1.60547C78.9984 1.60547 78.225 1.71875 77.6859 1.94531C77.1547 2.17187 76.9711 2.50781 77.1352 2.95312L81.8578 16.0781L85.8656 4.37109C85.9516 4.12891 86.0023 3.89062 86.018 3.65625C86.0414 3.41406 86.0141 3.16797 85.9359 2.91797C85.8656 2.66016 85.7367 2.4375 85.5492 2.25C85.3617 2.0625 85.0766 1.91016 84.6937 1.79297C84.3187 1.66797 83.8617 1.60547 83.3227 1.60547V1.19531ZM95.175 3.45703V15.7383C95.175 16.4883 95.3313 16.9844 95.6438 17.2266C95.9641 17.4688 96.593 17.5898 97.5305 17.5898V18H91.5305V17.5898C92.382 17.5898 92.9914 17.4648 93.3586 17.2148C93.7258 16.957 93.9094 16.4648 93.9094 15.7383V3.45703C93.9094 2.71484 93.757 2.22266 93.4523 1.98047C93.1477 1.73047 92.5852 1.60547 91.7648 1.60547V1.19531H97.5305V1.60547C96.593 1.60547 95.9641 1.72656 95.6438 1.96875C95.3313 2.21094 95.175 2.70703 95.175 3.45703ZM111.117 1.19531H117V1.60547C116.57 1.60547 116.195 1.64844 115.875 1.73438C115.555 1.82031 115.262 1.96875 114.996 2.17969C114.73 2.39062 114.527 2.69922 114.387 3.10547C114.254 3.50391 114.188 3.99609 114.188 4.58203V18H113.754L102.621 3.1875L102.645 15.7148C102.645 16.4727 102.812 16.9766 103.148 17.2266C103.484 17.4688 104.133 17.5898 105.094 17.5898V18H99.6445V17.5898C100.504 17.5898 101.129 17.4609 101.52 17.2031C101.918 16.9375 102.117 16.4414 102.117 15.7148V3.48047C102.117 2.75391 101.918 2.26172 101.52 2.00391C101.129 1.73828 100.504 1.60547 99.6445 1.60547V1.19531H102.738L113.613 15.6211V4.58203C113.613 4.09766 113.574 3.67969 113.496 3.32812C113.426 2.97656 113.324 2.69141 113.191 2.47266C113.059 2.24609 112.883 2.07031 112.664 1.94531C112.453 1.8125 112.227 1.72266 111.984 1.67578C111.742 1.62891 111.453 1.60547 111.117 1.60547V1.19531ZM127.692 18.3633C126.419 18.3633 125.227 18.1406 124.118 17.6953C123.009 17.25 122.059 16.6406 121.27 15.8672C120.481 15.0859 119.86 14.1445 119.407 13.043C118.962 11.9414 118.739 10.7539 118.739 9.48047C118.739 8.28516 118.977 7.14453 119.454 6.05859C119.938 4.97266 120.575 4.04688 121.364 3.28125C122.161 2.51563 123.079 1.90625 124.118 1.45312C125.157 1 126.22 0.773438 127.305 0.773438C127.727 0.773438 128.411 0.8125 129.356 0.890625C130.309 0.960938 131.032 0.988281 131.524 0.972656C132.024 0.957031 132.274 0.855469 132.274 0.667969L132.661 0.574219L133.95 5.26172L133.516 5.44922C133.196 4.58203 132.813 3.85938 132.368 3.28125C131.93 2.69531 131.364 2.22656 130.669 1.875C129.872 1.47656 128.727 1.27734 127.235 1.27734C125.899 1.27734 124.68 1.64453 123.579 2.37891C122.485 3.10547 121.626 4.09766 121.001 5.35547C120.384 6.60547 120.075 7.98047 120.075 9.48047C120.075 10.6758 120.29 11.8008 120.72 12.8555C121.149 13.9023 121.72 14.7852 122.43 15.5039C123.149 16.2227 123.981 16.7891 124.927 17.2031C125.872 17.6094 126.856 17.8125 127.88 17.8125C130.2 17.8125 131.802 17.2109 132.684 16.0078L132.731 13.1953C132.731 12.7656 132.684 12.4219 132.591 12.1641C132.497 11.9062 132.329 11.7148 132.087 11.5898C131.845 11.4648 131.591 11.3867 131.325 11.3555C131.059 11.3242 130.68 11.3086 130.188 11.3086V10.875H136.036V11.3086C135.591 11.3086 135.255 11.3242 135.028 11.3555C134.809 11.3867 134.606 11.4688 134.419 11.6016C134.239 11.7266 134.118 11.9141 134.055 12.1641C134.001 12.4062 133.973 12.75 133.973 13.1953L133.95 15.9141C133.473 16.2969 133.126 16.5703 132.907 16.7344C132.696 16.8984 132.376 17.1133 131.946 17.3789C131.516 17.6367 131.126 17.8203 130.774 17.9297C130.43 18.0391 129.989 18.1367 129.45 18.2227C128.911 18.3164 128.325 18.3633 127.692 18.3633Z" fill="#181818"/>
</svg>
