<svg width="172" height="19" viewBox="0 0 172 19" fill="none" xmlns="http://www.w3.org/2000/svg">
<path d="M14.9492 14.8125L15.3125 15.1172C14.3359 16.25 13.3711 17.0742 12.418 17.5898C11.4648 18.1055 10.332 18.3633 9.01953 18.3633C7.76953 18.3633 6.59766 18.1406 5.50391 17.6953C4.41797 17.25 3.48828 16.6406 2.71484 15.8672C1.94141 15.0859 1.33203 14.1445 0.886719 13.043C0.441406 11.9414 0.21875 10.7539 0.21875 9.48047C0.21875 8.28516 0.457031 7.14453 0.933594 6.05859C1.41797 4.97266 2.05469 4.04688 2.84375 3.28125C3.64062 2.51563 4.55859 1.90625 5.59766 1.45312C6.63672 1 7.69922 0.773438 8.78516 0.773438C9.22266 0.773438 9.86719 0.8125 10.7188 0.890625C11.5781 0.960938 12.2188 0.988281 12.6406 0.972656C13.0625 0.957031 13.2734 0.855469 13.2734 0.667969L13.6602 0.574219L15.0898 5.58984L14.668 5.78906C14.2773 4.76562 13.8555 3.94531 13.4023 3.32812C12.9492 2.71094 12.3711 2.22656 11.668 1.875C11.2148 1.64844 10.7812 1.49219 10.3672 1.40625C9.96094 1.32031 9.41016 1.27734 8.71484 1.27734C7.37891 1.27734 6.16016 1.64453 5.05859 2.37891C3.96484 3.10547 3.10547 4.09766 2.48047 5.35547C1.86328 6.60547 1.55469 7.98047 1.55469 9.48047C1.55469 10.6758 1.76562 11.8008 2.1875 12.8555C2.61719 13.9023 3.18359 14.7852 3.88672 15.5039C4.58984 16.2148 5.39062 16.7773 6.28906 17.1914C7.19531 17.6055 8.12109 17.8125 9.06641 17.8125C9.74609 17.8125 10.3633 17.7461 10.918 17.6133C11.4805 17.4805 11.9961 17.2773 12.4648 17.0039C12.9414 16.7227 13.3672 16.4141 13.7422 16.0781C14.1172 15.7344 14.5195 15.3125 14.9492 14.8125ZM9.11328 3.71484C10.6992 3.71484 12.0039 4.23828 13.0273 5.28516C14.1523 6.38672 14.7148 7.82422 14.7148 9.59766C14.7148 10.3867 14.5664 11.1445 14.2695 11.8711C13.9727 12.5977 13.5508 13.2344 13.0039 13.7812C12.4727 14.2891 11.8633 14.6914 11.1758 14.9883C10.4883 15.2852 9.80078 15.4336 9.11328 15.4336C8.32422 15.4336 7.5625 15.2891 6.82812 15C6.10156 14.7109 5.48828 14.3047 4.98828 13.7812C4.43359 13.2422 4.00781 12.6133 3.71094 11.8945C3.41406 11.168 3.26562 10.4023 3.26562 9.59766C3.26562 8.79297 3.42188 8.02734 3.73438 7.30078C4.04688 6.56641 4.49609 5.92578 5.08203 5.37891C5.60547 4.86328 6.23828 4.45703 6.98047 4.16016C7.72266 3.86328 8.43359 3.71484 9.11328 3.71484ZM13.4141 9.59766C13.4141 7.87109 13.0156 6.54297 12.2188 5.61328C11.8359 5.15234 11.3711 4.79688 10.8242 4.54688C10.2852 4.29688 9.71484 4.17188 9.11328 4.17188C7.79297 4.17188 6.72266 4.65234 5.90234 5.61328C5.01953 6.58984 4.57812 7.91797 4.57812 9.59766C4.57812 11.2695 5.01953 12.582 5.90234 13.5352C6.75391 14.4805 7.82422 14.9531 9.11328 14.9531C10.3633 14.9531 11.3984 14.4805 12.2188 13.5352C13.0156 12.5977 13.4141 11.2852 13.4141 9.59766ZM29.2625 1.19531H35.1453V1.60547C34.7156 1.60547 34.3406 1.64844 34.0203 1.73438C33.7 1.82031 33.407 1.96875 33.1414 2.17969C32.8758 2.39062 32.6727 2.69922 32.532 3.10547C32.3992 3.50391 32.3328 3.99609 32.3328 4.58203V18H31.8992L20.7664 3.1875L20.7898 15.7148C20.7898 16.4727 20.9578 16.9766 21.2938 17.2266C21.6297 17.4688 22.2781 17.5898 23.2391 17.5898V18H17.7898V17.5898C18.6492 17.5898 19.2742 17.4609 19.6648 17.2031C20.0633 16.9375 20.2625 16.4414 20.2625 15.7148V3.48047C20.2625 2.75391 20.0633 2.26172 19.6648 2.00391C19.2742 1.73828 18.6492 1.60547 17.7898 1.60547V1.19531H20.8836L31.7586 15.6211V4.58203C31.7586 4.09766 31.7195 3.67969 31.6414 3.32812C31.5711 2.97656 31.4695 2.69141 31.3367 2.47266C31.2039 2.24609 31.0281 2.07031 30.8094 1.94531C30.5984 1.8125 30.3719 1.72266 30.1297 1.67578C29.8875 1.62891 29.5984 1.60547 29.2625 1.60547V1.19531ZM56.4195 9.50391L59.2086 12.7969C60.6617 14.5078 61.5875 15.5664 61.9859 15.9727C62.7516 16.7539 63.4469 17.2422 64.0719 17.4375C64.4156 17.5391 64.8023 17.5898 65.232 17.5898V17.9766L61.8688 18L54.9078 9.59766H52.3414V15.7148C52.3414 16.4727 52.4977 16.9766 52.8102 17.2266C53.1305 17.4688 53.7594 17.5898 54.6969 17.5898V18H48.6969V17.5898C49.5406 17.5898 50.1461 17.4609 50.5133 17.2031C50.8883 16.9375 51.0758 16.4414 51.0758 15.7148V3.52734C51.0758 3.08984 51.0367 2.74609 50.9586 2.49609C50.8805 2.24609 50.7281 2.05469 50.5016 1.92188C50.275 1.78906 50.0133 1.70312 49.7164 1.66406C49.4273 1.625 49.0133 1.60547 48.4742 1.60547C47.5445 1.60547 46.8336 1.74219 46.3414 2.01562C45.8492 2.28906 45.6031 2.76172 45.6031 3.43359V15.7383C45.6031 16.4883 45.7594 16.9844 46.0719 17.2266C46.3844 17.4688 47.0094 17.5898 47.9469 17.5898V18H41.9469V17.5898C42.7984 17.5898 43.4078 17.4648 43.775 17.2148C44.1422 16.957 44.3258 16.4648 44.3258 15.7383V3.43359C44.3258 2.76172 44.1461 2.30859 43.7867 2.07422C43.4273 1.83984 42.8297 1.72266 41.9938 1.72266C41.65 1.72266 41.3492 1.73438 41.0914 1.75781C40.8414 1.77344 40.5992 1.81641 40.3648 1.88672C40.1383 1.95703 39.9469 2.02734 39.7906 2.09766C39.6344 2.16797 39.4703 2.28906 39.2984 2.46094C39.1344 2.625 38.9977 2.78125 38.8883 2.92969C38.7789 3.07812 38.6461 3.30078 38.4898 3.59766C38.3414 3.89453 38.2125 4.16797 38.1031 4.41797C37.9938 4.66797 37.8453 5.01172 37.6578 5.44922L37.2477 5.33203L38.9703 0.433594L39.357 0.527344C39.2633 0.972656 39.7906 1.19531 40.9391 1.19531H55.2477C57.0445 1.19531 58.4313 1.55078 59.4078 2.26172C60.3922 2.97266 60.8844 3.94531 60.8844 5.17969C60.8844 6.35156 60.4781 7.3125 59.6656 8.0625C58.8531 8.8125 57.7711 9.29297 56.4195 9.50391ZM52.3414 9.02344H54.9781C56.3844 9.02344 57.4977 8.68359 58.318 8.00391C59.1383 7.32422 59.5484 6.42578 59.5484 5.30859C59.5484 4.19141 59.1383 3.29688 58.318 2.625C57.5055 1.94531 56.2438 1.60547 54.5328 1.60547C53.6578 1.60547 53.0719 1.72266 52.775 1.95703C52.4859 2.19141 52.3414 2.71484 52.3414 3.52734V9.02344ZM70.8031 3.45703V15.7383C70.8031 16.4883 70.9594 16.9844 71.2719 17.2266C71.5922 17.4688 72.2211 17.5898 73.1586 17.5898V18H67.1586V17.5898C68.0102 17.5898 68.6195 17.4648 68.9867 17.2148C69.3539 16.957 69.5375 16.4648 69.5375 15.7383V3.45703C69.5375 2.71484 69.3852 2.22266 69.0805 1.98047C68.7758 1.73047 68.2133 1.60547 67.393 1.60547V1.19531H73.1586V1.60547C72.2211 1.60547 71.5922 1.72656 71.2719 1.96875C70.9594 2.21094 70.8031 2.70703 70.8031 3.45703ZM87.6594 13.0781C87.6594 13.9219 87.5148 14.668 87.2258 15.3164C86.9445 15.9648 86.55 16.4805 86.0422 16.8633C85.5422 17.2461 84.9758 17.5312 84.343 17.7188C83.718 17.9062 83.0383 18 82.3039 18H75.8234V17.6133C76.6359 17.6133 77.1945 17.4883 77.4992 17.2383C77.8039 16.9805 77.9563 16.4805 77.9563 15.7383V3.45703C77.9563 2.72266 77.8 2.22656 77.4875 1.96875C77.1828 1.71094 76.6281 1.58203 75.8234 1.58203V1.19531H81.507C82.9523 1.19531 84.0734 1.55078 84.8703 2.26172C85.6672 2.96484 86.0656 3.89844 86.0656 5.0625C86.0656 5.65625 85.8859 6.21875 85.5266 6.75C85.1672 7.27344 84.7531 7.68359 84.2844 7.98047C83.8156 8.26953 83.3703 8.44922 82.9484 8.51953C83.3078 8.52734 83.6867 8.58594 84.0852 8.69531C84.4836 8.79688 84.8977 8.96875 85.3273 9.21094C85.757 9.44531 86.1438 9.73047 86.4875 10.0664C86.8313 10.4023 87.1125 10.832 87.3313 11.3555C87.55 11.8789 87.6594 12.4531 87.6594 13.0781ZM79.2336 3.45703V8.56641H80.2414C81.7883 8.56641 82.9328 8.24219 83.675 7.59375C84.425 6.94531 84.8 6.10156 84.8 5.0625C84.8 4.01562 84.5227 3.19141 83.968 2.58984C83.4211 1.98047 82.5617 1.67578 81.3898 1.67578C80.9758 1.67578 80.6516 1.69531 80.4172 1.73438C80.1828 1.76563 79.9641 1.84375 79.7609 1.96875C79.5656 2.08594 79.4289 2.26562 79.3508 2.50781C79.2727 2.74219 79.2336 3.05859 79.2336 3.45703ZM81.9406 17.5195C84.9016 17.5195 86.382 16.0391 86.382 13.0781C86.382 11.7344 85.9172 10.7227 84.9875 10.043C84.0656 9.36328 82.7375 9.02344 81.0031 9.02344H79.2336V15.7734C79.2336 16.5234 79.3977 17.0039 79.7258 17.2148C80.0617 17.418 80.8 17.5195 81.9406 17.5195ZM110.457 0.433594L112.191 5.33203L111.781 5.44922C111.547 4.87891 111.355 4.43359 111.207 4.11328C111.066 3.79297 110.895 3.47266 110.691 3.15234C110.496 2.82422 110.309 2.58594 110.129 2.4375C109.957 2.28906 109.734 2.15234 109.461 2.02734C109.195 1.90234 108.902 1.82031 108.582 1.78125C108.27 1.74219 107.887 1.72266 107.434 1.72266C106.574 1.72266 105.949 1.83984 105.559 2.07422C105.176 2.30078 104.984 2.75391 104.984 3.43359L104.961 10.8516C104.961 11.9375 104.832 12.9141 104.574 13.7812C104.324 14.6484 103.992 15.3633 103.578 15.9258C103.164 16.4883 102.676 16.957 102.113 17.332C101.551 17.707 100.977 17.9727 100.391 18.1289C99.8047 18.2852 99.1992 18.3633 98.5742 18.3633C96.4727 18.3633 94.9453 17.8359 93.9922 16.7812C93.0469 15.7188 92.5742 14.0117 92.5742 11.6602V3.69141C92.5742 2.85547 92.3867 2.30078 92.0117 2.02734C91.6445 1.74609 91.0156 1.60547 90.125 1.60547V1.19531H96.2539V1.60547C95.3164 1.60547 94.6875 1.74219 94.3672 2.01562C94.0547 2.28906 93.8984 2.84766 93.8984 3.69141L93.875 11.7305C93.8672 12.6758 93.9492 13.5 94.1211 14.2031C94.3008 14.9062 94.5391 15.4727 94.8359 15.9023C95.1328 16.332 95.5078 16.6797 95.9609 16.9453C96.4141 17.2031 96.8867 17.3789 97.3789 17.4727C97.8789 17.5664 98.4453 17.6133 99.0781 17.6133C99.9609 17.6133 100.711 17.4727 101.328 17.1914C101.945 16.9023 102.43 16.4766 102.781 15.9141C103.141 15.3438 103.398 14.6797 103.555 13.9219C103.711 13.1562 103.789 12.25 103.789 11.2031V3.43359C103.789 2.76172 103.609 2.30859 103.25 2.07422C102.891 1.83984 102.293 1.72266 101.457 1.72266C101.004 1.72266 100.617 1.74219 100.297 1.78125C99.9844 1.8125 99.6914 1.89453 99.418 2.02734C99.1523 2.16016 98.9336 2.29688 98.7617 2.4375C98.5977 2.57812 98.4141 2.81641 98.2109 3.15234C98.0078 3.48047 97.8359 3.80078 97.6953 4.11328C97.5547 4.41797 97.3594 4.86328 97.1094 5.44922L96.7109 5.33203L98.4336 0.433594L98.8203 0.527344C98.7266 0.972656 99.2539 1.19531 100.402 1.19531H108.488C109.035 1.19531 109.445 1.13281 109.719 1.00781C110 0.882812 110.117 0.722656 110.07 0.527344L110.457 0.433594ZM116.309 3.45703V15.7383C116.309 16.4883 116.466 16.9844 116.778 17.2266C117.098 17.4688 117.727 17.5898 118.665 17.5898V18H112.665V17.5898C113.516 17.5898 114.126 17.4648 114.493 17.2148C114.86 16.957 115.044 16.4648 115.044 15.7383V3.45703C115.044 2.71484 114.891 2.22266 114.587 1.98047C114.282 1.73047 113.72 1.60547 112.899 1.60547V1.19531H118.665V1.60547C117.727 1.60547 117.098 1.72656 116.778 1.96875C116.466 2.21094 116.309 2.70703 116.309 3.45703ZM121.189 9.62109C121.189 8.34766 121.439 7.15234 121.939 6.03516C122.439 4.91016 123.095 3.96875 123.908 3.21094C124.72 2.45312 125.642 1.85938 126.673 1.42969C127.705 0.992188 128.755 0.773438 129.826 0.773438C131.396 0.773438 132.814 1.14844 134.08 1.89844C135.353 2.64844 136.349 3.69922 137.068 5.05078C137.795 6.40234 138.158 7.92578 138.158 9.62109C138.158 10.8477 137.923 12.0117 137.455 13.1133C136.986 14.207 136.365 15.1328 135.591 15.8906C134.826 16.6484 133.939 17.25 132.931 17.6953C131.923 18.1406 130.888 18.3633 129.826 18.3633C128.654 18.3633 127.537 18.1445 126.474 17.707C125.412 17.2617 124.494 16.6562 123.72 15.8906C122.947 15.125 122.33 14.1992 121.869 13.1133C121.416 12.0195 121.189 10.8555 121.189 9.62109ZM122.701 9.62109C122.701 10.8398 122.888 11.9688 123.263 13.0078C123.646 14.0391 124.158 14.9023 124.798 15.5977C125.447 16.293 126.205 16.8359 127.072 17.2266C127.939 17.6172 128.857 17.8125 129.826 17.8125C131.123 17.8125 132.283 17.4805 133.306 16.8164C134.338 16.1523 135.15 15.1953 135.744 13.9453C136.345 12.6953 136.646 11.2539 136.646 9.62109C136.646 8.36328 136.47 7.21094 136.119 6.16406C135.775 5.11719 135.298 4.24219 134.689 3.53906C134.088 2.83594 133.369 2.29297 132.533 1.91016C131.697 1.51953 130.795 1.32422 129.826 1.32422C128.849 1.32422 127.927 1.51953 127.06 1.91016C126.193 2.29297 125.435 2.83594 124.787 3.53906C124.146 4.24219 123.638 5.12109 123.263 6.17578C122.888 7.22266 122.701 8.37109 122.701 9.62109ZM152.108 1.19531H157.991V1.60547C157.561 1.60547 157.186 1.64844 156.866 1.73438C156.545 1.82031 156.252 1.96875 155.987 2.17969C155.721 2.39062 155.518 2.69922 155.377 3.10547C155.245 3.50391 155.178 3.99609 155.178 4.58203V18H154.745L143.612 3.1875L143.635 15.7148C143.635 16.4727 143.803 16.9766 144.139 17.2266C144.475 17.4688 145.123 17.5898 146.084 17.5898V18H140.635V17.5898C141.495 17.5898 142.12 17.4609 142.51 17.2031C142.909 16.9375 143.108 16.4414 143.108 15.7148V3.48047C143.108 2.75391 142.909 2.26172 142.51 2.00391C142.12 1.73828 141.495 1.60547 140.635 1.60547V1.19531H143.729L154.604 15.6211V4.58203C154.604 4.09766 154.565 3.67969 154.487 3.32812C154.416 2.97656 154.315 2.69141 154.182 2.47266C154.049 2.24609 153.873 2.07031 153.655 1.94531C153.444 1.8125 153.217 1.72266 152.975 1.67578C152.733 1.62891 152.444 1.60547 152.108 1.60547V1.19531ZM162.249 4.875C162.249 5.39844 162.355 5.86719 162.566 6.28125C162.777 6.6875 163.058 7.02734 163.409 7.30078C163.769 7.56641 164.179 7.8125 164.64 8.03906C165.109 8.25781 165.597 8.46094 166.105 8.64844C166.62 8.82812 167.132 9.01562 167.64 9.21094C168.148 9.39844 168.632 9.62109 169.093 9.87891C169.562 10.1289 169.972 10.4141 170.323 10.7344C170.683 11.0469 170.968 11.4453 171.179 11.9297C171.39 12.4062 171.495 12.9492 171.495 13.5586C171.495 14.8789 171.007 16.0117 170.03 16.957C169.062 17.8945 167.812 18.3633 166.28 18.3633C165.655 18.3633 165.058 18.2852 164.488 18.1289C163.925 17.9727 163.484 17.8047 163.163 17.625C162.843 17.4453 162.55 17.293 162.284 17.168C162.027 17.043 161.831 17.0117 161.698 17.0742C161.566 17.1289 161.464 17.3164 161.394 17.6367H160.937V16.6758L160.831 11.9297H161.241C161.374 13.9219 161.866 15.4062 162.718 16.3828C163.57 17.3516 164.8 17.8359 166.409 17.8359C167.573 17.8359 168.507 17.4883 169.21 16.793C169.913 16.0898 170.265 15.1328 170.265 13.9219C170.265 13.3594 170.159 12.8633 169.948 12.4336C169.738 11.9961 169.452 11.6367 169.093 11.3555C168.741 11.0742 168.335 10.8242 167.874 10.6055C167.413 10.3867 166.929 10.1914 166.421 10.0195C165.913 9.83984 165.405 9.66016 164.898 9.48047C164.39 9.29297 163.905 9.07812 163.445 8.83594C162.984 8.58594 162.573 8.30469 162.214 7.99219C161.863 7.67188 161.581 7.26562 161.37 6.77344C161.159 6.28125 161.054 5.71875 161.054 5.08594C161.054 4.59375 161.179 4.09766 161.429 3.59766C161.679 3.09766 162.023 2.63672 162.46 2.21484C162.905 1.79297 163.472 1.44922 164.159 1.18359C164.855 0.910156 165.605 0.773438 166.409 0.773438C166.73 0.773438 167.081 0.8125 167.464 0.890625C167.855 0.96875 168.191 1.04687 168.472 1.125C168.753 1.20313 169.023 1.26562 169.28 1.3125C169.546 1.35156 169.761 1.33594 169.925 1.26562C170.089 1.19531 170.202 1.05469 170.265 0.84375H170.745L170.839 5.92969H170.335C170.335 2.82812 168.945 1.27734 166.163 1.27734C165.054 1.27734 164.124 1.64844 163.374 2.39062C162.624 3.125 162.249 3.95312 162.249 4.875Z" fill="#181818"/>
</svg>
