<svg width="25" height="25" viewBox="0 0 25 25" fill="none" xmlns="http://www.w3.org/2000/svg">
<path d="M21.325 22.5C21.605 22.5 21.745 22.5 21.852 22.4455C21.9461 22.3976 22.0226 22.3211 22.0705 22.227C22.125 22.12 22.125 21.98 22.125 21.7V11.3C22.125 11.02 22.125 10.88 22.0705 10.773C22.0226 10.6789 21.9461 10.6024 21.852 10.5545C21.745 10.5 21.605 10.5 21.325 10.5L18.925 10.5C18.645 10.5 18.505 10.5 18.398 10.5545C18.3039 10.6024 18.2274 10.6789 18.1795 10.773C18.125 10.88 18.125 11.02 18.125 11.3V13.7C18.125 13.98 18.125 14.12 18.0705 14.227C18.0226 14.3211 17.9461 14.3976 17.852 14.4455C17.745 14.5 17.605 14.5 17.325 14.5H14.925C14.645 14.5 14.505 14.5 14.398 14.5545C14.3039 14.6024 14.2274 14.6789 14.1795 14.773C14.125 14.88 14.125 15.02 14.125 15.3V17.7C14.125 17.98 14.125 18.12 14.0705 18.227C14.0226 18.3211 13.9461 18.3976 13.852 18.4455C13.745 18.5 13.605 18.5 13.325 18.5H10.925C10.645 18.5 10.505 18.5 10.398 18.5545C10.3039 18.6024 10.2274 18.6789 10.1795 18.773C10.125 18.88 10.125 19.02 10.125 19.3V21.7C10.125 21.98 10.125 22.12 10.1795 22.227C10.2274 22.3211 10.3039 22.3976 10.398 22.4455C10.505 22.5 10.645 22.5 10.925 22.5L21.325 22.5Z" fill="#DFD4BF"/>
<path d="M10.125 7.3C10.125 7.01997 10.125 6.87996 10.1795 6.773C10.2274 6.67892 10.3039 6.60243 10.398 6.5545C10.505 6.5 10.645 6.5 10.925 6.5H13.325C13.605 6.5 13.745 6.5 13.852 6.5545C13.9461 6.60243 14.0226 6.67892 14.0705 6.773C14.125 6.87996 14.125 7.01997 14.125 7.3V9.7C14.125 9.98003 14.125 10.12 14.0705 10.227C14.0226 10.3211 13.9461 10.3976 13.852 10.4455C13.745 10.5 13.605 10.5 13.325 10.5H10.925C10.645 10.5 10.505 10.5 10.398 10.4455C10.3039 10.3976 10.2274 10.3211 10.1795 10.227C10.125 10.12 10.125 9.98003 10.125 9.7V7.3Z" fill="#DFD4BF"/>
<path d="M3.125 13.3C3.125 13.02 3.125 12.88 3.1795 12.773C3.22743 12.6789 3.30392 12.6024 3.398 12.5545C3.50496 12.5 3.64497 12.5 3.925 12.5H6.325C6.60503 12.5 6.74504 12.5 6.852 12.5545C6.94608 12.6024 7.02257 12.6789 7.0705 12.773C7.125 12.88 7.125 13.02 7.125 13.3V15.7C7.125 15.98 7.125 16.12 7.0705 16.227C7.02257 16.3211 6.94608 16.3976 6.852 16.4455C6.74504 16.5 6.60503 16.5 6.325 16.5H3.925C3.64497 16.5 3.50496 16.5 3.398 16.4455C3.30392 16.3976 3.22743 16.3211 3.1795 16.227C3.125 16.12 3.125 15.98 3.125 15.7V13.3Z" fill="#DFD4BF"/>
<path d="M2.125 3.3C2.125 3.01997 2.125 2.87996 2.1795 2.773C2.22743 2.67892 2.30392 2.60243 2.398 2.5545C2.50496 2.5 2.64497 2.5 2.925 2.5H5.325C5.60503 2.5 5.74504 2.5 5.852 2.5545C5.94608 2.60243 6.02257 2.67892 6.0705 2.773C6.125 2.87996 6.125 3.01997 6.125 3.3V5.7C6.125 5.98003 6.125 6.12004 6.0705 6.227C6.02257 6.32108 5.94608 6.39757 5.852 6.4455C5.74504 6.5 5.60503 6.5 5.325 6.5H2.925C2.64497 6.5 2.50496 6.5 2.398 6.4455C2.30392 6.39757 2.22743 6.32108 2.1795 6.227C2.125 6.12004 2.125 5.98003 2.125 5.7V3.3Z" fill="#DFD4BF"/>
<path d="M21.325 22.5C21.605 22.5 21.745 22.5 21.852 22.4455C21.9461 22.3976 22.0226 22.3211 22.0705 22.227C22.125 22.12 22.125 21.98 22.125 21.7V11.3C22.125 11.02 22.125 10.88 22.0705 10.773C22.0226 10.6789 21.9461 10.6024 21.852 10.5545C21.745 10.5 21.605 10.5 21.325 10.5L18.925 10.5C18.645 10.5 18.505 10.5 18.398 10.5545C18.3039 10.6024 18.2274 10.6789 18.1795 10.773C18.125 10.88 18.125 11.02 18.125 11.3V13.7C18.125 13.98 18.125 14.12 18.0705 14.227C18.0226 14.3211 17.9461 14.3976 17.852 14.4455C17.745 14.5 17.605 14.5 17.325 14.5H14.925C14.645 14.5 14.505 14.5 14.398 14.5545C14.3039 14.6024 14.2274 14.6789 14.1795 14.773C14.125 14.88 14.125 15.02 14.125 15.3V17.7C14.125 17.98 14.125 18.12 14.0705 18.227C14.0226 18.3211 13.9461 18.3976 13.852 18.4455C13.745 18.5 13.605 18.5 13.325 18.5H10.925C10.645 18.5 10.505 18.5 10.398 18.5545C10.3039 18.6024 10.2274 18.6789 10.1795 18.773C10.125 18.88 10.125 19.02 10.125 19.3V21.7C10.125 21.98 10.125 22.12 10.1795 22.227C10.2274 22.3211 10.3039 22.3976 10.398 22.4455C10.505 22.5 10.645 22.5 10.925 22.5L21.325 22.5Z" stroke="#DFD4BF" stroke-linecap="round" stroke-linejoin="round"/>
<path d="M10.125 7.3C10.125 7.01997 10.125 6.87996 10.1795 6.773C10.2274 6.67892 10.3039 6.60243 10.398 6.5545C10.505 6.5 10.645 6.5 10.925 6.5H13.325C13.605 6.5 13.745 6.5 13.852 6.5545C13.9461 6.60243 14.0226 6.67892 14.0705 6.773C14.125 6.87996 14.125 7.01997 14.125 7.3V9.7C14.125 9.98003 14.125 10.12 14.0705 10.227C14.0226 10.3211 13.9461 10.3976 13.852 10.4455C13.745 10.5 13.605 10.5 13.325 10.5H10.925C10.645 10.5 10.505 10.5 10.398 10.4455C10.3039 10.3976 10.2274 10.3211 10.1795 10.227C10.125 10.12 10.125 9.98003 10.125 9.7V7.3Z" stroke="#DFD4BF" stroke-linecap="round" stroke-linejoin="round"/>
<path d="M3.125 13.3C3.125 13.02 3.125 12.88 3.1795 12.773C3.22743 12.6789 3.30392 12.6024 3.398 12.5545C3.50496 12.5 3.64497 12.5 3.925 12.5H6.325C6.60503 12.5 6.74504 12.5 6.852 12.5545C6.94608 12.6024 7.02257 12.6789 7.0705 12.773C7.125 12.88 7.125 13.02 7.125 13.3V15.7C7.125 15.98 7.125 16.12 7.0705 16.227C7.02257 16.3211 6.94608 16.3976 6.852 16.4455C6.74504 16.5 6.60503 16.5 6.325 16.5H3.925C3.64497 16.5 3.50496 16.5 3.398 16.4455C3.30392 16.3976 3.22743 16.3211 3.1795 16.227C3.125 16.12 3.125 15.98 3.125 15.7V13.3Z" stroke="#DFD4BF" stroke-linecap="round" stroke-linejoin="round"/>
<path d="M2.125 3.3C2.125 3.01997 2.125 2.87996 2.1795 2.773C2.22743 2.67892 2.30392 2.60243 2.398 2.5545C2.50496 2.5 2.64497 2.5 2.925 2.5H5.325C5.60503 2.5 5.74504 2.5 5.852 2.5545C5.94608 2.60243 6.02257 2.67892 6.0705 2.773C6.125 2.87996 6.125 3.01997 6.125 3.3V5.7C6.125 5.98003 6.125 6.12004 6.0705 6.227C6.02257 6.32108 5.94608 6.39757 5.852 6.4455C5.74504 6.5 5.60503 6.5 5.325 6.5H2.925C2.64497 6.5 2.50496 6.5 2.398 6.4455C2.30392 6.39757 2.22743 6.32108 2.1795 6.227C2.125 6.12004 2.125 5.98003 2.125 5.7V3.3Z" stroke="#DFD4BF" stroke-linecap="round" stroke-linejoin="round"/>
</svg>
