<svg width="25" height="25" viewBox="0 0 25 25" fill="none" xmlns="http://www.w3.org/2000/svg">
<path d="M4.375 7.3C4.375 5.61984 4.375 4.77976 4.70198 4.13803C4.9896 3.57354 5.44854 3.1146 6.01303 2.82698C6.65476 2.5 7.49484 2.5 9.175 2.5H14.375L20.375 8.5V17.7C20.375 19.3802 20.375 20.2202 20.048 20.862C19.7604 21.4265 19.3015 21.8854 18.737 22.173C18.0952 22.5 17.2552 22.5 15.575 22.5H9.175C7.49484 22.5 6.65476 22.5 6.01303 22.173C5.44854 21.8854 4.9896 21.4265 4.70198 20.862C4.375 20.2202 4.375 19.3802 4.375 17.7V7.3Z" fill="#181818"/>
<path d="M14.375 2.76953V6.90007C14.375 7.46012 14.375 7.74015 14.484 7.95406C14.5799 8.14222 14.7328 8.2952 14.921 8.39108C15.1349 8.50007 15.4149 8.50007 15.975 8.50007H20.1055M12.375 18.5V12.5M9.375 15.5H15.375M14.375 2.5H9.175C7.49484 2.5 6.65476 2.5 6.01303 2.82698C5.44854 3.1146 4.9896 3.57354 4.70198 4.13803C4.375 4.77976 4.375 5.61984 4.375 7.3V17.7C4.375 19.3802 4.375 20.2202 4.70198 20.862C4.9896 21.4265 5.44854 21.8854 6.01303 22.173C6.65476 22.5 7.49484 22.5 9.175 22.5H15.575C17.2552 22.5 18.0952 22.5 18.737 22.173C19.3015 21.8854 19.7604 21.4265 20.048 20.862C20.375 20.2202 20.375 19.3802 20.375 17.7V8.5L14.375 2.5Z" stroke="#DCD0B9" stroke-linecap="round" stroke-linejoin="round"/>
</svg>
