<svg width="25" height="25" viewBox="0 0 25 25" fill="none" xmlns="http://www.w3.org/2000/svg">
<path d="M21.4996 12.1001C21.4996 16.7945 17.694 20.6001 12.9996 20.6001C11.9228 20.6001 10.8928 20.3999 9.94478 20.0346C9.77145 19.9679 9.68478 19.9345 9.61586 19.9186C9.54807 19.903 9.499 19.8964 9.42949 19.8938C9.35881 19.8911 9.28127 19.8991 9.12619 19.9151L4.00517 20.4445C3.51692 20.4949 3.2728 20.5202 3.1288 20.4323C3.00337 20.3558 2.91794 20.228 2.8952 20.0829C2.86909 19.9162 2.98575 19.7003 3.21906 19.2684L4.85472 16.2409C4.98942 15.9916 5.05677 15.8669 5.08728 15.747C5.1174 15.6287 5.12469 15.5433 5.11505 15.4215C5.10529 15.2982 5.05119 15.1377 4.943 14.8167C4.65547 13.9637 4.49962 13.0501 4.49962 12.1001C4.49962 7.40568 8.3052 3.6001 12.9996 3.6001C17.694 3.6001 21.4996 7.40568 21.4996 12.1001Z" fill="#181818"/>
<path d="M8.49962 10.1001H12.4996M8.49962 13.6001H15.4996M12.9996 20.6001C17.694 20.6001 21.4996 16.7945 21.4996 12.1001C21.4996 7.40568 17.694 3.6001 12.9996 3.6001C8.3052 3.6001 4.49962 7.40568 4.49962 12.1001C4.49962 13.0501 4.65547 13.9637 4.943 14.8167C5.05119 15.1377 5.10529 15.2982 5.11505 15.4215C5.12469 15.5433 5.1174 15.6287 5.08728 15.747C5.05677 15.8669 4.98942 15.9916 4.85472 16.2409L3.21906 19.2684C2.98575 19.7003 2.86909 19.9162 2.8952 20.0829C2.91794 20.228 3.00337 20.3558 3.1288 20.4323C3.2728 20.5202 3.51692 20.4949 4.00517 20.4445L9.12619 19.9151C9.28127 19.8991 9.35881 19.8911 9.42949 19.8938C9.499 19.8964 9.54807 19.903 9.61586 19.9186C9.68478 19.9345 9.77145 19.9679 9.94478 20.0346C10.8928 20.3999 11.9228 20.6001 12.9996 20.6001Z" stroke="#DFD4BF" stroke-linecap="round" stroke-linejoin="round"/>
</svg>
