<svg width="413" height="39" viewBox="0 0 413 39" fill="none" xmlns="http://www.w3.org/2000/svg">
<path d="M30.1484 29.8848L30.875 30.4941C28.9219 32.7598 26.9922 34.4082 25.0859 35.4395C23.1797 36.4707 20.9141 36.9863 18.2891 36.9863C15.7891 36.9863 13.4453 36.541 11.2578 35.6504C9.08594 34.7598 7.22656 33.541 5.67969 31.9941C4.13281 30.4316 2.91406 28.5488 2.02344 26.3457C1.13281 24.1426 0.6875 21.7676 0.6875 19.2207C0.6875 16.8301 1.16406 14.5488 2.11719 12.377C3.08594 10.2051 4.35938 8.35352 5.9375 6.82227C7.53125 5.29102 9.36719 4.07227 11.4453 3.16602C13.5234 2.25977 15.6484 1.80664 17.8203 1.80664C18.6953 1.80664 19.9844 1.88477 21.6875 2.04102C23.4062 2.18164 24.6875 2.23633 25.5312 2.20508C26.375 2.17383 26.7969 1.9707 26.7969 1.5957L27.5703 1.4082L30.4297 11.4395L29.5859 11.8379C28.8047 9.79102 27.9609 8.15039 27.0547 6.91602C26.1484 5.68164 24.9922 4.71289 23.5859 4.00977C22.6797 3.55664 21.8125 3.24414 20.9844 3.07227C20.1719 2.90039 19.0703 2.81445 17.6797 2.81445C15.0078 2.81445 12.5703 3.54883 10.3672 5.01758C8.17969 6.4707 6.46094 8.45508 5.21094 10.9707C3.97656 13.4707 3.35938 16.2207 3.35938 19.2207C3.35938 21.6113 3.78125 23.8613 4.625 25.9707C5.48438 28.0645 6.61719 29.8301 8.02344 31.2676C9.42969 32.6895 11.0312 33.8145 12.8281 34.6426C14.6406 35.4707 16.4922 35.8848 18.3828 35.8848C19.7422 35.8848 20.9766 35.752 22.0859 35.4863C23.2109 35.2207 24.2422 34.8145 25.1797 34.2676C26.1328 33.7051 26.9844 33.0879 27.7344 32.416C28.4844 31.7285 29.2891 30.8848 30.1484 29.8848ZM50.15 19.2676L55.7281 25.8535C58.6188 29.3066 60.525 31.4863 61.4469 32.3926C62.9469 33.9082 64.3531 34.8379 65.6656 35.1816C66.2906 35.3535 66.9938 35.4395 67.775 35.4395V36.2129L61.0484 36.2598L47.1266 19.4551H41.9938V31.6895C41.9938 33.2051 42.3063 34.2129 42.9313 34.7129C43.5719 35.1973 44.8297 35.4395 46.7047 35.4395V36.2598H34.7047V35.4395C36.3922 35.4395 37.6031 35.1816 38.3375 34.666C39.0719 34.1348 39.4391 33.1426 39.4391 31.6895V7.31445C39.4391 5.79883 39.0719 4.7832 38.3375 4.26758C37.6188 3.73633 36.4078 3.4707 34.7047 3.4707V2.65039H47.8063C51.4 2.65039 54.1734 3.36133 56.1266 4.7832C58.0953 6.20508 59.0797 8.15039 59.0797 10.6191C59.0797 12.9629 58.2672 14.8848 56.6422 16.3848C55.0172 17.8848 52.8531 18.8457 50.15 19.2676ZM41.9938 7.31445V18.3066H47.2672C50.0641 18.3066 52.2828 17.627 53.9234 16.2676C55.5641 14.9082 56.3844 13.1113 56.3844 10.877C56.3844 8.64258 55.5641 6.85352 53.9234 5.50977C52.2984 4.15039 49.775 3.4707 46.3531 3.4707C44.6031 3.4707 43.4391 3.70508 42.8609 4.17383C42.2828 4.64258 41.9938 5.68945 41.9938 7.31445ZM97.1281 27.7754L97.9484 28.0098L94.55 38.2285L93.7766 38.041C93.8078 37.8379 93.8234 37.6582 93.8234 37.502C93.8234 37.3457 93.8156 37.2051 93.8 37.0801C93.7844 36.9551 93.7453 36.8457 93.6828 36.752C93.6203 36.6738 93.5656 36.6035 93.5188 36.541C93.4719 36.4785 93.3781 36.4238 93.2375 36.377C93.0969 36.3457 92.9875 36.3223 92.9094 36.3066C92.8313 36.291 92.6906 36.2754 92.4875 36.2598C92.2844 36.2598 92.1203 36.2598 91.9953 36.2598C91.8859 36.2598 91.6906 36.2598 91.4094 36.2598C91.1281 36.2598 90.9094 36.2598 90.7531 36.2598H71.6047V35.3926C73.2609 35.3926 74.3859 35.1504 74.9797 34.666C75.5734 34.1816 75.8703 33.2051 75.8703 31.7363V7.12695C75.8703 5.68945 75.5578 4.72852 74.9328 4.24414C74.3234 3.75977 73.2141 3.51758 71.6047 3.51758V2.65039H88.3156C88.4563 2.65039 88.6594 2.65039 88.925 2.65039C89.1438 2.65039 89.3469 2.65039 89.5344 2.65039C89.7219 2.65039 89.8938 2.65039 90.05 2.65039C90.2063 2.63477 90.3469 2.61914 90.4719 2.60352C90.6125 2.57227 90.7297 2.54102 90.8234 2.50977C90.9328 2.47852 91.0266 2.43164 91.1047 2.36914C91.1828 2.30664 91.2453 2.22852 91.2922 2.13477C91.3391 2.04102 91.3703 1.93164 91.3859 1.80664C91.4172 1.68164 91.4328 1.54102 91.4328 1.38477C91.4328 1.22852 91.4172 1.04883 91.3859 0.845703L92.1594 0.634766L95.5578 10.877L94.7375 11.1113C94.3313 10.1582 93.9875 9.37695 93.7063 8.76758C93.425 8.14258 93.0969 7.54883 92.7219 6.98633C92.3625 6.4082 92.05 5.96289 91.7844 5.65039C91.5188 5.33789 91.1438 5.04102 90.6594 4.75977C90.1906 4.46289 89.7531 4.25977 89.3469 4.15039C88.9563 4.02539 88.3938 3.92383 87.6594 3.8457C86.925 3.75195 86.2219 3.69727 85.55 3.68164C84.8938 3.66602 84.0031 3.6582 82.8781 3.6582C81.2219 3.6582 80.0656 3.88477 79.4094 4.33789C78.7531 4.77539 78.425 5.70508 78.425 7.12695V18.3066H85.5266C86.6047 18.3066 87.3391 17.9238 87.7297 17.1582C88.1203 16.3926 88.3156 15.1582 88.3156 13.4551H89.0656V24.1191H88.3156C88.3156 22.3535 88.1125 21.1035 87.7063 20.3691C87.3156 19.6348 86.6047 19.2676 85.5734 19.2676H78.425V31.7363C78.425 33.2207 78.7063 34.1738 79.2688 34.5957C79.8469 35.002 81.05 35.2051 82.8781 35.2051C84.3469 35.2051 85.5031 35.1973 86.3469 35.1816C87.2063 35.166 88.1047 35.1113 89.0422 35.0176C89.9797 34.9238 90.6906 34.8301 91.175 34.7363C91.6594 34.627 92.1828 34.4238 92.7453 34.127C93.3234 33.8301 93.7531 33.5332 94.0344 33.2363C94.3313 32.9395 94.6828 32.502 95.0891 31.9238C95.4953 31.3301 95.8313 30.7363 96.0969 30.1426C96.3781 29.5332 96.7219 28.7441 97.1281 27.7754ZM117.458 1.64258L126.809 27.3301C127.216 28.4551 127.528 29.3223 127.747 29.9316C127.981 30.541 128.247 31.1816 128.544 31.8535C128.841 32.5254 129.059 33.0098 129.2 33.3066C129.356 33.6035 129.567 33.9238 129.833 34.2676C130.114 34.5957 130.333 34.8145 130.489 34.9238C130.661 35.0176 130.911 35.1191 131.239 35.2285C131.583 35.3223 131.887 35.377 132.153 35.3926C132.434 35.3926 132.825 35.3926 133.325 35.3926V36.2598H122.778V35.3926C124.2 35.3926 125.091 35.2988 125.45 35.1113C126.012 34.8301 126.184 34.1113 125.966 32.9551C125.794 32.0801 125.356 30.6895 124.653 28.7832L123.153 24.7988H109.723L107.895 29.3926C107.645 30.0176 107.442 30.541 107.286 30.9629C107.145 31.3848 107.012 31.8145 106.887 32.252C106.778 32.6895 106.723 33.041 106.723 33.3066C106.739 33.5723 106.794 33.8379 106.887 34.1035C106.981 34.3691 107.13 34.5723 107.333 34.7129C107.552 34.8535 107.833 34.9863 108.177 35.1113C108.536 35.2207 108.958 35.2988 109.442 35.3457C109.927 35.377 110.497 35.3926 111.153 35.3926V36.2598H101.356V35.4395C101.684 35.4395 101.989 35.416 102.27 35.3691C102.567 35.3066 102.825 35.2441 103.044 35.1816C103.262 35.1191 103.481 34.9941 103.7 34.8066C103.934 34.6191 104.122 34.4707 104.262 34.3613C104.403 34.252 104.567 34.041 104.755 33.7285C104.958 33.416 105.106 33.1895 105.2 33.0488C105.294 32.9082 105.434 32.6191 105.622 32.1816C105.809 31.7441 105.934 31.4395 105.997 31.2676C106.075 31.0957 106.223 30.7363 106.442 30.1895C106.661 29.6426 106.809 29.2676 106.887 29.0645L116.192 5.67383L115.372 3.37695C115.7 3.31445 116.028 3.0957 116.356 2.7207C116.7 2.3457 116.919 1.98633 117.012 1.64258H117.458ZM116.684 6.98633L110.098 23.791H122.825L116.684 6.98633ZM168.35 10.9238L167.53 11.1582C167.061 10.0176 166.678 9.12695 166.381 8.48633C166.1 7.8457 165.756 7.20508 165.35 6.56445C164.959 5.9082 164.584 5.43164 164.225 5.13477C163.881 4.83789 163.436 4.56445 162.889 4.31445C162.358 4.06445 161.772 3.90039 161.131 3.82227C160.506 3.74414 159.741 3.70508 158.834 3.70508C157.131 3.70508 155.913 3.93945 155.178 4.4082C154.459 4.86133 154.1 5.76758 154.1 7.12695V31.7363C154.1 33.2363 154.413 34.2285 155.038 34.7129C155.663 35.1973 156.913 35.4395 158.788 35.4395V36.2598H146.788V35.4395C148.491 35.4395 149.709 35.1895 150.444 34.6895C151.178 34.1738 151.545 33.1895 151.545 31.7363V7.12695C151.545 5.7832 151.186 4.87695 150.467 4.4082C149.748 3.93945 148.553 3.70508 146.881 3.70508C146.194 3.70508 145.592 3.72852 145.077 3.77539C144.577 3.80664 144.092 3.89258 143.623 4.0332C143.17 4.17383 142.788 4.31445 142.475 4.45508C142.163 4.5957 141.834 4.83789 141.491 5.18164C141.163 5.50977 140.889 5.82227 140.67 6.11914C140.452 6.41602 140.186 6.86133 139.873 7.45508C139.577 8.04883 139.319 8.5957 139.1 9.0957C138.881 9.5957 138.584 10.2832 138.209 11.1582L137.389 10.9238L140.834 1.12695L141.608 1.31445C141.42 2.20508 142.475 2.65039 144.772 2.65039H160.967C162.061 2.65039 162.881 2.52539 163.428 2.27539C163.991 2.02539 164.225 1.70508 164.131 1.31445L164.881 1.12695L168.35 10.9238ZM184.522 27.8691L185.342 28.1035L181.944 38.2285L181.17 38.041C181.202 37.8379 181.217 37.6582 181.217 37.502C181.217 37.3457 181.209 37.2051 181.194 37.0801C181.178 36.9551 181.139 36.8457 181.077 36.752C181.014 36.6738 180.959 36.6035 180.913 36.541C180.866 36.4785 180.772 36.4238 180.631 36.377C180.491 36.3457 180.381 36.3223 180.303 36.3066C180.225 36.291 180.084 36.2754 179.881 36.2598C179.678 36.2598 179.514 36.2598 179.389 36.2598C179.28 36.2598 179.084 36.2598 178.803 36.2598C178.522 36.2598 178.303 36.2598 178.147 36.2598H165.42V35.4395C166.248 35.4395 166.881 35.4004 167.319 35.3223C167.772 35.2285 168.116 35.0332 168.35 34.7363C168.6 34.4238 168.756 34.0723 168.819 33.6816C168.881 33.2754 168.913 32.666 168.913 31.8535V18.3066C168.913 17.4785 168.881 16.8613 168.819 16.4551C168.756 16.0332 168.6 15.666 168.35 15.3535C168.116 15.0254 167.772 14.8223 167.319 14.7441C166.881 14.6504 166.248 14.6035 165.42 14.6035V13.8066H177.139C178.452 13.8066 179.233 13.7676 179.483 13.6895C179.952 13.5488 180.163 13.127 180.116 12.4238C180.1 12.2988 180.084 12.1504 180.069 11.9785L180.819 11.791L184.241 22.0098L183.42 22.2441C182.889 20.9941 182.444 19.9863 182.084 19.2207C181.741 18.4551 181.366 17.7676 180.959 17.1582C180.569 16.5332 180.225 16.0801 179.928 15.7988C179.631 15.502 179.241 15.2598 178.756 15.0723C178.272 14.8691 177.803 14.752 177.35 14.7207C176.913 14.6738 176.311 14.6504 175.545 14.6504C174.561 14.6504 173.811 14.6816 173.295 14.7441C172.795 14.8066 172.35 14.9707 171.959 15.2363C171.569 15.4863 171.311 15.8457 171.186 16.3145C171.061 16.7832 170.998 17.4473 170.998 18.3066V24.6816H173.858C174.498 24.6816 174.967 24.6582 175.264 24.6113C175.561 24.5645 175.827 24.4238 176.061 24.1895C176.311 23.9551 176.467 23.6191 176.53 23.1816C176.608 22.7441 176.647 22.1113 176.647 21.2832H177.42V28.9238H176.647C176.647 27.4863 176.459 26.5566 176.084 26.1348C175.725 25.7129 174.998 25.502 173.905 25.502H170.998V31.8535C170.998 33.2285 171.272 34.166 171.819 34.666C172.381 35.1504 173.436 35.3926 174.983 35.3926C175.764 35.3926 176.452 35.3691 177.045 35.3223C177.639 35.2754 178.194 35.1816 178.709 35.041C179.225 34.8848 179.663 34.7285 180.022 34.5723C180.397 34.4004 180.764 34.1426 181.123 33.7988C181.483 33.4551 181.788 33.127 182.038 32.8145C182.288 32.502 182.561 32.0645 182.858 31.502C183.17 30.9238 183.436 30.3848 183.655 29.8848C183.889 29.3691 184.178 28.6973 184.522 27.8691ZM216.861 1.64258L226.212 27.3301C226.619 28.4551 226.931 29.3223 227.15 29.9316C227.384 30.541 227.65 31.1816 227.947 31.8535C228.244 32.5254 228.462 33.0098 228.603 33.3066C228.759 33.6035 228.97 33.9238 229.236 34.2676C229.517 34.5957 229.736 34.8145 229.892 34.9238C230.064 35.0176 230.314 35.1191 230.642 35.2285C230.986 35.3223 231.291 35.377 231.556 35.3926C231.837 35.3926 232.228 35.3926 232.728 35.3926V36.2598H222.181V35.3926C223.603 35.3926 224.494 35.2988 224.853 35.1113C225.416 34.8301 225.587 34.1113 225.369 32.9551C225.197 32.0801 224.759 30.6895 224.056 28.7832L222.556 24.7988H209.127L207.298 29.3926C207.048 30.0176 206.845 30.541 206.689 30.9629C206.548 31.3848 206.416 31.8145 206.291 32.252C206.181 32.6895 206.127 33.041 206.127 33.3066C206.142 33.5723 206.197 33.8379 206.291 34.1035C206.384 34.3691 206.533 34.5723 206.736 34.7129C206.955 34.8535 207.236 34.9863 207.58 35.1113C207.939 35.2207 208.361 35.2988 208.845 35.3457C209.33 35.377 209.9 35.3926 210.556 35.3926V36.2598H200.759V35.4395C201.087 35.4395 201.392 35.416 201.673 35.3691C201.97 35.3066 202.228 35.2441 202.447 35.1816C202.666 35.1191 202.884 34.9941 203.103 34.8066C203.337 34.6191 203.525 34.4707 203.666 34.3613C203.806 34.252 203.97 34.041 204.158 33.7285C204.361 33.416 204.509 33.1895 204.603 33.0488C204.697 32.9082 204.837 32.6191 205.025 32.1816C205.212 31.7441 205.337 31.4395 205.4 31.2676C205.478 31.0957 205.627 30.7363 205.845 30.1895C206.064 29.6426 206.212 29.2676 206.291 29.0645L215.595 5.67383L214.775 3.37695C215.103 3.31445 215.431 3.0957 215.759 2.7207C216.103 2.3457 216.322 1.98633 216.416 1.64258H216.861ZM216.087 6.98633L209.502 23.791H222.228L216.087 6.98633ZM265.058 29.8848L265.784 30.4941C263.831 32.7598 261.902 34.4082 259.995 35.4395C258.089 36.4707 255.823 36.9863 253.198 36.9863C250.698 36.9863 248.355 36.541 246.167 35.6504C243.995 34.7598 242.136 33.541 240.589 31.9941C239.042 30.4316 237.823 28.5488 236.933 26.3457C236.042 24.1426 235.597 21.7676 235.597 19.2207C235.597 16.8301 236.073 14.5488 237.027 12.377C237.995 10.2051 239.269 8.35352 240.847 6.82227C242.441 5.29102 244.277 4.07227 246.355 3.16602C248.433 2.25977 250.558 1.80664 252.73 1.80664C253.605 1.80664 254.894 1.88477 256.597 2.04102C258.316 2.18164 259.597 2.23633 260.441 2.20508C261.284 2.17383 261.706 1.9707 261.706 1.5957L262.48 1.4082L265.339 11.4395L264.495 11.8379C263.714 9.79102 262.87 8.15039 261.964 6.91602C261.058 5.68164 259.902 4.71289 258.495 4.00977C257.589 3.55664 256.722 3.24414 255.894 3.07227C255.081 2.90039 253.98 2.81445 252.589 2.81445C249.917 2.81445 247.48 3.54883 245.277 5.01758C243.089 6.4707 241.37 8.45508 240.12 10.9707C238.886 13.4707 238.269 16.2207 238.269 19.2207C238.269 21.6113 238.691 23.8613 239.534 25.9707C240.394 28.0645 241.527 29.8301 242.933 31.2676C244.339 32.6895 245.941 33.8145 247.738 34.6426C249.55 35.4707 251.402 35.8848 253.292 35.8848C254.652 35.8848 255.886 35.752 256.995 35.4863C258.12 35.2207 259.152 34.8145 260.089 34.2676C261.042 33.7051 261.894 33.0879 262.644 32.416C263.394 31.7285 264.198 30.8848 265.058 29.8848ZM300.083 29.8848L300.809 30.4941C298.856 32.7598 296.927 34.4082 295.02 35.4395C293.114 36.4707 290.848 36.9863 288.223 36.9863C285.723 36.9863 283.38 36.541 281.192 35.6504C279.02 34.7598 277.161 33.541 275.614 31.9941C274.067 30.4316 272.848 28.5488 271.958 26.3457C271.067 24.1426 270.622 21.7676 270.622 19.2207C270.622 16.8301 271.098 14.5488 272.052 12.377C273.02 10.2051 274.294 8.35352 275.872 6.82227C277.466 5.29102 279.302 4.07227 281.38 3.16602C283.458 2.25977 285.583 1.80664 287.755 1.80664C288.63 1.80664 289.919 1.88477 291.622 2.04102C293.341 2.18164 294.622 2.23633 295.466 2.20508C296.309 2.17383 296.731 1.9707 296.731 1.5957L297.505 1.4082L300.364 11.4395L299.52 11.8379C298.739 9.79102 297.895 8.15039 296.989 6.91602C296.083 5.68164 294.927 4.71289 293.52 4.00977C292.614 3.55664 291.747 3.24414 290.919 3.07227C290.106 2.90039 289.005 2.81445 287.614 2.81445C284.942 2.81445 282.505 3.54883 280.302 5.01758C278.114 6.4707 276.395 8.45508 275.145 10.9707C273.911 13.4707 273.294 16.2207 273.294 19.2207C273.294 21.6113 273.716 23.8613 274.559 25.9707C275.419 28.0645 276.552 29.8301 277.958 31.2676C279.364 32.6895 280.966 33.8145 282.763 34.6426C284.575 35.4707 286.427 35.8848 288.317 35.8848C289.677 35.8848 290.911 35.752 292.02 35.4863C293.145 35.2207 294.177 34.8145 295.114 34.2676C296.067 33.7051 296.919 33.0879 297.669 32.416C298.419 31.7285 299.223 30.8848 300.083 29.8848ZM288.411 7.68945C291.583 7.68945 294.192 8.73633 296.239 10.8301C298.489 13.0332 299.614 15.9082 299.614 19.4551C299.614 21.0332 299.317 22.5488 298.723 24.002C298.13 25.4551 297.286 26.7285 296.192 27.8223C295.13 28.8379 293.911 29.6426 292.536 30.2363C291.161 30.8301 289.786 31.127 288.411 31.127C286.833 31.127 285.309 30.8379 283.841 30.2598C282.388 29.6816 281.161 28.8691 280.161 27.8223C279.052 26.7441 278.2 25.4863 277.606 24.0488C277.013 22.5957 276.716 21.0645 276.716 19.4551C276.716 17.8457 277.028 16.3145 277.653 14.8613C278.278 13.3926 279.177 12.1113 280.348 11.0176C281.395 9.98633 282.661 9.17383 284.145 8.58008C285.63 7.98633 287.052 7.68945 288.411 7.68945ZM297.013 19.4551C297.013 16.002 296.216 13.3457 294.622 11.4863C293.856 10.5645 292.927 9.85352 291.833 9.35352C290.755 8.85352 289.614 8.60352 288.411 8.60352C285.77 8.60352 283.63 9.56445 281.989 11.4863C280.223 13.4395 279.341 16.0957 279.341 19.4551C279.341 22.7988 280.223 25.4238 281.989 27.3301C283.692 29.2207 285.833 30.166 288.411 30.166C290.911 30.166 292.981 29.2207 294.622 27.3301C296.216 25.4551 297.013 22.8301 297.013 19.4551ZM327.467 2.65039H338.6V3.4707C336.975 3.4707 335.772 3.90039 334.991 4.75977C334.225 5.61914 333.842 7.01758 333.842 8.95508V22.6191C333.842 27.4941 332.881 31.1113 330.959 33.4707C329.053 35.8145 326.155 36.9863 322.264 36.9863C318.061 36.9863 315.006 35.9316 313.1 33.8223C311.209 31.6973 310.264 28.2832 310.264 23.5801V7.64258C310.264 5.9707 309.889 4.86133 309.139 4.31445C308.405 3.75195 307.147 3.4707 305.366 3.4707V2.65039H317.623V3.4707C315.748 3.4707 314.491 3.74414 313.85 4.29102C313.225 4.83789 312.913 5.95508 312.913 7.64258L312.866 23.7207C312.85 25.6113 313.014 27.2598 313.358 28.666C313.717 30.0723 314.194 31.2129 314.788 32.0879C315.381 32.9473 316.131 33.6426 317.038 34.1738C317.944 34.6895 318.889 35.0488 319.873 35.252C320.873 35.4395 322.006 35.5332 323.272 35.5332C325.038 35.5332 326.538 35.252 327.772 34.6895C329.006 34.1113 329.975 33.252 330.678 32.1113C331.397 30.9551 331.913 29.6113 332.225 28.0801C332.538 26.5488 332.694 24.7285 332.694 22.6191V9.00195C332.694 7.04883 332.241 5.64258 331.334 4.7832C330.444 3.9082 329.155 3.4707 327.467 3.4707V2.65039ZM365.516 2.65039H377.281V3.4707C376.422 3.4707 375.672 3.55664 375.031 3.72852C374.391 3.90039 373.805 4.19727 373.273 4.61914C372.742 5.04102 372.336 5.6582 372.055 6.4707C371.789 7.26758 371.656 8.25195 371.656 9.42383V36.2598H370.789L348.523 6.63477L348.57 31.6895C348.57 33.2051 348.906 34.2129 349.578 34.7129C350.25 35.1973 351.547 35.4395 353.469 35.4395V36.2598H342.57V35.4395C344.289 35.4395 345.539 35.1816 346.32 34.666C347.117 34.1348 347.516 33.1426 347.516 31.6895V7.2207C347.516 5.76758 347.117 4.7832 346.32 4.26758C345.539 3.73633 344.289 3.4707 342.57 3.4707V2.65039H348.758L370.508 31.502V9.42383C370.508 8.45508 370.43 7.61914 370.273 6.91602C370.133 6.21289 369.93 5.64258 369.664 5.20508C369.398 4.75195 369.047 4.40039 368.609 4.15039C368.188 3.88477 367.734 3.70508 367.25 3.61133C366.766 3.51758 366.188 3.4707 365.516 3.4707V2.65039ZM408.978 1.12695L412.447 10.9238L411.627 11.1582C411.158 10.0176 410.775 9.12695 410.478 8.48633C410.197 7.8457 409.853 7.20508 409.447 6.56445C409.056 5.9082 408.681 5.43164 408.322 5.13477C407.978 4.83789 407.533 4.56445 406.986 4.31445C406.455 4.06445 405.869 3.90039 405.228 3.82227C404.603 3.74414 403.837 3.70508 402.931 3.70508C401.228 3.70508 400.009 3.93945 399.275 4.4082C398.556 4.86133 398.197 5.76758 398.197 7.12695V31.7363C398.197 33.2363 398.509 34.2285 399.134 34.7129C399.759 35.1973 401.009 35.4395 402.884 35.4395V36.2598H390.884V35.4395C392.587 35.4395 393.806 35.1895 394.541 34.6895C395.275 34.1738 395.642 33.1895 395.642 31.7363V7.12695C395.642 5.7832 395.283 4.87695 394.564 4.4082C393.845 3.93945 392.65 3.70508 390.978 3.70508C390.291 3.70508 389.689 3.72852 389.173 3.77539C388.673 3.80664 388.189 3.89258 387.72 4.0332C387.267 4.17383 386.884 4.31445 386.572 4.45508C386.259 4.5957 385.931 4.83789 385.587 5.18164C385.259 5.50977 384.986 5.82227 384.767 6.11914C384.548 6.41602 384.283 6.86133 383.97 7.45508C383.673 8.04883 383.416 8.5957 383.197 9.0957C382.978 9.5957 382.681 10.2832 382.306 11.1582L381.486 10.9238L384.931 1.12695L385.705 1.31445C385.517 2.20508 386.572 2.65039 388.869 2.65039H405.064C406.158 2.65039 406.978 2.52539 407.525 2.27539C408.087 2.02539 408.322 1.70508 408.228 1.31445L408.978 1.12695Z" fill="#181818"/>
</svg>
