<svg width="25" height="25" viewBox="0 0 25 25" fill="none" xmlns="http://www.w3.org/2000/svg">
<path d="M19.1169 19.2397C20.237 19.2397 20.7971 19.2397 21.2249 19.0218C21.6012 18.83 21.9072 18.5241 22.0989 18.1477C22.3169 17.7199 22.3169 17.1599 22.3169 16.0397V8.43975C22.3169 7.31964 22.3169 6.75959 22.0989 6.33177C21.9072 5.95544 21.6012 5.64948 21.2249 5.45773C20.7971 5.23975 20.237 5.23975 19.1169 5.23975L5.5169 5.23975C4.39679 5.23975 3.83674 5.23975 3.40891 5.45773C3.03259 5.64948 2.72663 5.95544 2.53488 6.33176C2.31689 6.75959 2.31689 7.31964 2.31689 8.43975L2.31689 16.0397C2.31689 17.1598 2.31689 17.7199 2.53488 18.1477C2.72663 18.524 3.03259 18.83 3.40891 19.0218C3.83674 19.2397 4.39679 19.2397 5.51689 19.2397L19.1169 19.2397Z" fill="#181818"/>
<path d="M22.3169 10.2397H2.31689M2.31689 8.43975L2.31689 16.0397C2.31689 17.1598 2.31689 17.7199 2.53488 18.1477C2.72663 18.524 3.03259 18.83 3.40891 19.0218C3.83674 19.2397 4.39679 19.2397 5.51689 19.2397L19.1169 19.2397C20.237 19.2397 20.7971 19.2397 21.2249 19.0218C21.6012 18.83 21.9072 18.5241 22.0989 18.1477C22.3169 17.7199 22.3169 17.1599 22.3169 16.0397V8.43975C22.3169 7.31964 22.3169 6.75959 22.0989 6.33177C21.9072 5.95544 21.6012 5.64948 21.2249 5.45773C20.7971 5.23975 20.237 5.23975 19.1169 5.23975L5.5169 5.23975C4.39679 5.23975 3.83674 5.23975 3.40891 5.45773C3.03259 5.64948 2.72663 5.95544 2.53488 6.33176C2.31689 6.75959 2.31689 7.31964 2.31689 8.43975Z" stroke="#DCD0B9" stroke-linecap="round" stroke-linejoin="round"/>
</svg>
