<svg width="30" height="24" viewBox="0 0 30 24" fill="none" xmlns="http://www.w3.org/2000/svg">
<g style="mix-blend-mode:luminosity" clip-path="url(#clip0_132_182288)">
<path d="M25.4128 2.1785C23.4454 1.2706 21.364 0.625503 19.2237 0.260254C18.9571 0.735626 18.6456 1.375 18.4308 1.88366C16.1231 1.54143 13.8367 1.54143 11.5714 1.88366C11.3567 1.37512 11.0382 0.735626 10.7692 0.260254C8.62674 0.625671 6.54358 1.27241 4.57523 2.18324C0.658351 8.02096 -0.403485 13.7135 0.127375 19.3255C2.7253 21.2389 5.24296 22.4013 7.71819 23.1619C8.33335 22.3276 8.87714 21.4442 9.34394 20.5211C8.45522 20.1874 7.59846 19.7761 6.78386 19.2922C6.99823 19.1355 7.20755 18.9722 7.41151 18.8025C12.3477 21.0796 17.7111 21.0796 22.5885 18.8025C22.7933 18.9711 23.0026 19.1344 23.216 19.2922C22.4001 19.7774 21.5417 20.1895 20.6512 20.5235C21.1207 21.4504 21.6635 22.3346 22.277 23.1642C24.7546 22.4037 27.2746 21.2413 29.8725 19.3255C30.4955 12.8199 28.8084 7.17956 25.4128 2.1785ZM10.0165 15.8742C8.53464 15.8742 7.31941 14.5099 7.31941 12.8484C7.31941 11.187 8.50874 9.82028 10.0165 9.82028C11.5243 9.82028 12.7394 11.1846 12.7135 12.8484C12.7159 14.5099 11.5243 15.8742 10.0165 15.8742ZM19.9834 15.8742C18.5016 15.8742 17.2864 14.5099 17.2864 12.8484C17.2864 11.187 18.4757 9.82028 19.9834 9.82028C21.4912 9.82028 22.7064 11.1846 22.6805 12.8484C22.6805 14.5099 21.4912 15.8742 19.9834 15.8742Z" fill="#DFD4BF"/>
</g>
<defs>
<clipPath id="clip0_132_182288">
<rect width="30" height="23" fill="white" transform="translate(0 0.260254)"/>
</clipPath>
</defs>
</svg>
