<svg width="24" height="24" viewBox="0 0 24 24" fill="none" xmlns="http://www.w3.org/2000/svg">
<path fill-rule="evenodd" clip-rule="evenodd" d="M6.31641 0.5C4.10727 0.5 2.31641 2.29086 2.31641 4.5V19.5C2.31641 21.7091 4.10727 23.5 6.31641 23.5H17.3164C19.5255 23.5 21.3164 21.7091 21.3164 19.5V19.012L17.9142 22.4142C17.1332 23.1953 15.8668 23.1953 15.0858 22.4142L13.0858 20.4142C12.3047 19.6332 12.3047 18.3668 13.0858 17.5858C13.8668 16.8047 15.1332 16.8047 15.9142 17.5858L16.5 18.1716L19.5858 15.0858C20.0571 14.6145 20.705 14.4276 21.3164 14.525V4.5C21.3164 2.29086 19.5255 0.5 17.3164 0.5H6.31641ZM8 6C7.44772 6 7 6.44772 7 7C7 7.55228 7.44772 8 8 8H16C16.5523 8 17 7.55228 17 7C17 6.44772 16.5523 6 16 6H8ZM8 10C7.44772 10 7 10.4477 7 11C7 11.5523 7.44772 12 8 12H14C14.5523 12 15 11.5523 15 11C15 10.4477 14.5523 10 14 10H8ZM8 14C7.44772 14 7 14.4477 7 15C7 15.5523 7.44772 16 8 16H10C10.5523 16 11 15.5523 11 15C11 14.4477 10.5523 14 10 14H8Z" fill="#181818"/>
<path d="M21.7071 17.2071C22.0976 16.8166 22.0976 16.1834 21.7071 15.7929C21.3166 15.4024 20.6834 15.4024 20.2929 15.7929L16.5 19.5858L15.2071 18.2929C14.8166 17.9024 14.1834 17.9024 13.7929 18.2929C13.4024 18.6834 13.4024 19.3166 13.7929 19.7071L15.7929 21.7071C16.1834 22.0976 16.8166 22.0976 17.2071 21.7071L21.7071 17.2071Z" fill="#181818"/>
</svg>
