<svg width="1070" height="802" viewBox="0 0 1070 802" fill="none" xmlns="http://www.w3.org/2000/svg">
<g clip-path="url(#clip0_196_63874)">
<path d="M1066.82 352.952C1067.51 357.238 1066.91 361.594 1067.54 365.853C1067.73 367.144 1067.8 368.416 1067.74 369.674C1067.57 373.541 1067.85 377.276 1069.14 381.011C1069.69 382.609 1069.05 384.609 1069.02 386.427C1068.93 390.176 1068.83 393.888 1069.53 397.647C1069.95 399.851 1069.2 402.28 1069.02 404.593C1068.49 410.878 1069.54 417.25 1067.87 423.473C1067.44 425.073 1068.15 426.795 1068.12 428.531C1068.04 434.137 1066.54 439.499 1066 444.999C1065.81 447.021 1065.55 449.129 1066.07 451.193C1066.17 451.6 1066.13 452.11 1065.97 452.505C1062.87 460.546 1062.1 469.14 1060.28 477.472C1059.18 482.443 1057.45 487.219 1056.52 492.203C1055.48 497.762 1053.99 503.231 1053.34 508.873C1053.16 510.426 1051.96 511.776 1051.22 513.193C1048.78 517.858 1047.59 522.96 1045.89 527.856C1042.87 536.559 1039.57 545.075 1035.45 553.349C1031.81 560.68 1027.98 567.992 1025.58 575.905C1024.92 578.057 1023.08 579.71 1021.8 581.559C1018.36 586.53 1015.78 591.983 1012.56 597.027C1007.15 605.45 1001.89 613.95 995.78 621.94C990.037 629.458 984.156 636.86 978.069 644.08C971.978 651.304 965.599 658.337 958.829 664.915C955.342 668.3 952.264 672.003 948.842 675.398C946.74 677.486 943.843 678.75 941.549 680.68C934.607 686.525 926.899 691.421 920.433 697.852C919.687 698.598 918.573 698.967 917.767 699.666C911.886 704.745 905.071 708.4 898.549 712.521C893.809 715.513 888.954 718.329 884.457 721.782C879.63 725.486 874.073 728.253 868.77 731.324C865.913 732.982 862.74 734.344 860.141 736.158C857.15 738.249 853.613 737.9 850.7 739.89C847.798 741.876 844.327 743.084 841.144 744.67C835.83 747.316 830.268 749.384 824.779 751.479C817.379 754.301 810.256 757.894 802.438 759.688C797.819 760.747 793.46 762.901 788.886 764.197C780.819 766.478 773.189 770.076 764.785 771.377C759.13 772.253 753.689 774.459 748.055 775.514C741.33 776.773 734.791 778.767 728.22 780.5C719.839 782.707 711.247 783.473 702.828 785.314C695.235 786.974 687.55 788.297 679.886 789.559C673.254 790.652 666.494 791.219 659.807 792.052C650.631 793.196 641.416 793.948 632.257 795.23C626.734 796.002 621.133 796.225 615.61 797C608.559 797.991 601.447 798.216 594.373 798.85C588.194 799.407 581.959 800.064 575.674 799.642C569.102 799.201 562.52 799.842 555.942 800.293C551.019 800.63 546.023 799.911 541.098 800.235C535.325 800.615 529.511 800.685 523.814 800.347C518.183 800.013 512.555 800.315 506.919 799.912C501.015 799.49 495.049 799.397 489.113 799.121C481.642 798.775 474.153 798.943 466.696 798.19C459.521 797.464 452.288 797.197 445.162 796.166C439.353 795.326 433.618 794.699 427.73 794.944C424.99 795.058 422.217 793.914 419.434 793.524C407.45 791.848 395.581 789.158 383.508 788.432C378.833 788.151 374.627 786.669 370.196 785.823C363.001 784.452 355.817 783.127 348.499 782.586C346.893 782.467 345.35 781.657 343.754 781.257C337.144 779.604 330.393 778.311 323.936 776.294C313.644 773.082 303.007 771.105 292.896 767.197C288.932 765.665 284.856 764.156 280.492 763.32C277.431 762.733 274.154 760.997 270.892 759.936C266.307 758.445 261.862 756.5 257.247 755.118C252.758 753.773 248.636 751.621 244.308 749.935C239.162 747.93 233.96 746.064 228.793 744.108C226.677 743.307 224.688 742.113 222.782 741.008C218.259 738.386 213.082 737.514 208.54 734.908C203.859 732.223 198.849 730.096 194.102 727.46C187.211 723.637 180.791 719.074 174.031 715.065C170.016 712.682 166.382 709.862 162.607 707.179C152.922 700.296 143.755 692.753 134.323 685.552C127.297 680.189 121.394 673.67 114.562 668.156C111.374 665.584 109.066 661.993 105.292 660.085C105.058 656.878 102.203 655.564 100.437 653.499C93.6591 645.576 86.6876 637.839 81.0408 628.994C77.4218 623.325 72.9862 618.179 69.3715 612.509C63.7066 603.621 57.5676 595.05 52.6548 585.641C50.3064 581.142 47.3512 576.724 44.9217 572.268C42.2215 567.315 39.0367 562.506 37.0602 557.071C35.4893 552.753 32.8228 548.846 30.8761 544.648C29.3951 541.455 28.4567 538.011 26.9707 534.821C22.289 524.777 18.8178 514.268 15.9232 503.643C13.9325 496.334 12.1482 488.918 11.0016 481.322C10.0255 474.854 8.87562 468.265 6.76292 461.886C4.74899 455.807 4.81129 449.181 3.87384 442.808C3.23987 438.496 3.10198 434.112 2.56401 429.848C1.84893 424.184 1.87816 418.463 0.93795 412.782C0.131272 407.907 -0.359243 402.646 0.788426 397.527C1.17853 395.787 1.02068 393.873 0.847428 392.065C0.313872 386.518 2.48067 381.203 2.22023 375.722C1.95263 370.076 3.54722 364.587 3.28072 358.889C3.19907 357.139 4.38701 354.658 4.7611 352.39C5.48777 347.977 6.2724 343.551 6.9301 339.142C7.54035 335.053 8.98047 331.093 8.92088 326.897C8.89605 325.192 10.6639 323.687 10.3554 322.261C9.57526 318.646 12.1304 315.847 12.1669 312.329C12.1989 309.294 13.4658 306.021 14.2774 302.885C15.7186 297.31 17.1775 291.681 19.3613 286.375C22.3425 279.131 24.8382 271.716 27.6124 264.405C31.0433 255.364 35.1253 246.611 38.7278 237.651C41.0816 231.797 43.5368 225.988 45.7533 220.078C45.9657 219.51 45.952 216.468 48.2323 218.836C48.6688 219.288 49.2106 218.263 49.5235 217.736C53.4901 211.035 57.3762 204.286 61.4399 197.646C63.3424 194.536 65.6665 191.687 67.6489 188.622C69.8583 185.207 72.1304 181.799 73.9369 178.168C75.5199 174.986 78.607 173.352 80.6474 170.619C83.8404 166.341 87.9626 162.699 91.2594 158.561C97.5264 150.698 106.295 145.451 112.296 137.506C117.543 130.559 124.006 124.906 130.357 119.124C136.504 113.528 143.138 108.515 149.93 103.705C156.277 99.2112 162.416 94.4257 168.71 89.8577C175.198 85.15 182.179 81.2265 189.351 77.7012C193.817 75.5074 197.805 72.6041 201.958 69.9711C211.314 64.039 221.306 59.3882 231.195 54.493C238.991 50.634 246.989 47.2594 255.185 44.4365C261.145 42.384 267.208 40.5532 273.222 38.6452C281.575 35.9957 290.284 34.6322 298.454 31.4502C306.64 28.2622 315.193 26.4601 323.664 24.3281C327.576 23.3437 331.423 21.9704 335.389 21.3712C341.944 20.3808 348.455 19.0422 354.865 17.5507C364.628 15.2786 374.589 14.5552 384.406 12.8001C389.66 11.8604 395.09 11.4256 400.411 10.6796C405.347 9.98717 410.301 9.08394 415.233 8.39811C425.653 6.94918 436.109 5.62935 446.631 4.99427C449.369 4.8293 452.076 4.1258 454.813 3.984C464.925 3.46037 475.058 3.26892 485.154 2.54997C490.958 2.1367 496.734 2.21726 502.527 2.10856C509.718 1.97283 516.934 1.61253 524.116 0.816885C529.449 0.226498 534.846 0.86766 540.201 0.787654C551.381 0.621021 562.515 2.01478 573.72 1.36976C578.686 1.0845 583.735 2.25865 588.778 2.18306C594.687 2.09478 600.564 2.67854 606.462 2.87001C613.718 3.10671 620.847 4.47123 628.064 5.04231C635.656 5.64428 643.238 6.47467 650.807 7.23115C657.898 7.94016 665.02 8.71263 672.083 9.77423C677.91 10.6505 683.642 12.0723 689.541 12.5563C700.824 13.481 711.854 16.0312 722.873 18.4104C728.281 19.5774 733.765 20.4299 739.122 21.8357C746.097 23.6632 753.193 25.0542 760.067 27.1774C767.423 29.4474 774.993 30.8996 782.221 33.6452C786.713 35.3484 791.496 36.2727 796.17 37.47C805.086 39.7565 813.81 42.5451 822.274 46.2315C828.398 48.897 834.865 50.7928 840.818 53.8414C848.057 57.547 855.523 60.7627 862.839 64.2951C871.435 68.4439 879.491 73.4687 887.63 78.3424C894.494 82.4537 901.38 86.5874 907.885 91.3106C910.495 93.203 913.667 94.1472 916.256 96.346C920.399 99.8693 924.775 103.152 929.316 106.214C936.053 110.762 942.122 116.224 948.048 121.731C952.468 125.841 957.048 129.701 961.649 133.579C963.166 134.857 963.216 137.357 964.921 138.993C969.517 143.407 973.705 148.247 978.175 152.799C980.255 154.914 981.662 157.481 983.394 159.82C987.433 165.268 992.299 170.065 995.909 175.84C999.8 182.04 1004.95 187.305 1008.63 193.709C1013.09 201.455 1018.35 208.738 1023.23 216.245C1025.55 219.808 1026.49 223.987 1028.27 227.796C1031.16 233.922 1034.12 240.038 1036.45 246.38C1039.62 254.977 1043.71 263.177 1046.86 271.746C1050.34 281.159 1053.58 290.682 1056.3 300.337C1058.5 308.191 1060.01 316.249 1061.28 324.345C1062.31 330.931 1063.98 337.419 1065.34 343.954C1065.97 346.935 1066.03 350.002 1066.82 352.952Z" fill="#DFD4BF"/>
<path d="M1058.47 335.118C1057.92 337.3 1058.18 338.561 1059.22 339.684C1060.46 341.025 1059.59 342.691 1059.77 344.197C1060.56 350.832 1061.3 357.473 1061.91 364.125C1062.46 370.198 1062.63 376.277 1062.46 382.395C1062.4 384.333 1062.43 386.677 1063.1 388.595C1063.86 390.752 1063.44 392.709 1063.31 394.796C1062.92 401.344 1062.48 407.899 1062.39 414.456C1062.33 418.915 1061.73 423.354 1061.23 427.715C1060.84 431.225 1061.14 434.782 1060.41 438.261C1059.51 442.513 1058.79 446.805 1058.06 451.092C1057.43 454.737 1056.74 458.414 1055.98 461.98C1054.6 468.315 1054.57 474.888 1052.63 481.04C1050.91 486.549 1050.81 492.358 1048.99 497.79C1046.32 505.798 1045.05 514.178 1042.18 522.162C1040.36 527.216 1038.51 532.291 1036.49 537.245C1034.62 541.825 1032.42 546.336 1030.45 550.883C1027.57 557.505 1024.53 564.052 1021.56 570.63C1019 576.315 1016.1 581.813 1012.88 587.135C1008.02 595.186 1002.94 603.12 997.302 610.64C994.657 614.165 992.703 618.158 989.288 621.234C987.362 622.964 986.485 625.899 984.549 628.01C983.064 629.636 982.077 631.705 980.377 633.319C976.531 636.977 974.004 641.786 970.02 645.409C967.344 647.838 965.192 650.833 962.737 653.507C957.721 658.957 952.458 664.183 946.819 668.966C938.862 675.708 930.757 682.274 922.569 688.739C914.546 695.07 906.209 700.959 897.833 706.77C892.53 710.448 887.129 714.1 881.032 716.522C879.051 717.306 877.529 719.02 875.647 720.16C868.54 724.455 861.356 728.552 853.796 732.02C848.042 734.663 842.491 737.777 836.653 740.228C830.093 742.984 823.356 745.443 816.89 748.331C808.668 752.002 799.972 754.157 791.701 757.579C786.907 759.564 781.836 760.827 776.721 761.93C773.383 762.649 770.277 764.345 766.872 765.146C762.165 766.255 757.575 767.837 752.89 769.036C747.776 770.344 742.534 771.191 737.485 772.704C731.763 774.421 725.87 775.175 720.05 776.311C709.649 778.343 699.187 780.047 688.726 781.787C679.903 783.256 671.075 784.755 662.208 785.919C653.595 787.048 645.026 788.523 636.425 789.564C629.852 790.361 623.237 791.177 616.55 791.416C611.512 791.597 606.435 792.749 601.31 793.05C597.188 793.292 593.044 793.353 588.939 793.401C579.978 793.505 571.078 794.846 562.134 794.534C552.063 794.184 541.978 794.303 531.913 793.574C530.351 793.459 527.63 792.115 527.284 795.547C527.271 795.675 526.643 795.844 526.315 795.817C521.859 795.462 517.387 795.711 512.932 795.686C505.159 795.643 497.456 794.585 489.677 794.518C485.482 794.482 481.18 793.962 476.936 793.563C473.518 793.242 470.101 792.389 466.588 792.953C463.315 793.479 460.04 792.586 456.829 792.23C445.965 791.031 435.097 790.007 424.193 789.237C415.263 788.607 406.383 787.45 397.507 786.203C393.637 785.659 390.357 783.502 386.482 783.346C380.204 783.095 374.119 781.542 367.993 780.352C357.976 778.405 347.982 776.311 338.027 774.064C331.258 772.536 324.56 770.676 317.849 768.9C309.669 766.738 301.533 764.463 293.449 761.922C285.273 759.352 277.225 756.461 269.164 753.595C264.294 751.863 259.604 749.636 254.764 747.812C249.135 745.691 243.239 744.264 237.831 741.561C232.093 738.692 226.244 736.053 220.53 733.125C217.48 731.563 214.126 730.544 211.089 728.83C206.149 726.041 200.823 724.001 195.968 721.023C191.461 718.259 186.807 715.735 182.304 712.964C177.587 710.06 173.056 706.822 168.329 703.977C163.957 701.345 159.506 698.764 155.521 695.664C151.248 692.34 147.036 688.865 143.122 685.031C140.119 682.092 136.906 679.277 133.525 676.678C130.54 674.385 127.93 671.499 125.004 669.178C119.234 664.599 114.66 658.89 109.409 653.843C105.119 649.724 101.075 645.294 97.2592 640.641C91.5589 633.69 86.3283 626.419 81.1533 619.107C73.9368 608.911 66.185 599.067 60.0682 588.124C56.6948 582.089 53.2153 576.102 50.1397 569.916C46.236 562.063 42.1915 554.306 39.1922 545.969C36.786 539.278 33.5107 532.81 30.934 526.144C29.266 521.83 27.8397 517.354 26.3488 512.942C25.0317 509.044 24.7272 504.699 23.0084 501.252C21.3664 497.958 22.1262 494.245 20.0068 491.307C19.667 490.835 19.4865 489.974 19.6702 489.446C20.925 485.845 18.41 483.115 17.6602 479.979C16.7415 476.138 16.0705 472.235 15.35 468.347C14.5742 464.166 13.8702 459.971 13.1253 455.783C12.0858 449.941 10.868 444.123 10.0337 438.25C8.89046 430.205 8.66867 422.074 8.56769 413.96C8.50479 408.949 8.87226 403.931 9.07642 398.917C9.32857 392.712 9.92558 386.5 9.76888 380.307C9.6668 376.246 10.7741 372.422 10.9954 368.451C11.2343 364.164 11.4667 359.836 12.2502 355.628C13.4911 348.961 13.3829 342.109 15.372 335.532C16.2013 332.789 16.0645 329.75 16.331 326.844C16.5815 324.123 17.6128 321.593 18.2064 318.989C18.7996 316.383 19.0732 313.679 19.9069 311.088C21.522 306.062 23.7075 301.197 25.082 296.142C27.6322 286.766 31.2137 277.74 33.8086 268.369C36.1857 259.785 39.5034 251.353 43.6742 243.422C48.7444 233.779 54.5097 224.504 59.6003 214.872C63.5399 207.419 67.9739 200.287 72.7621 193.398C78.922 184.538 85.52 175.984 92.2808 167.563C96.6788 162.086 101.648 157.062 106.019 151.625C110.282 146.321 115.356 141.925 120.001 137.101C126.44 130.415 132.955 123.766 140.2 117.819C147.092 112.16 154.992 108 161.745 102.235C170.411 94.8361 180.148 88.9471 189.437 82.4308C197.309 76.9093 205.749 72.3325 214.551 68.5103C221.716 65.399 229.012 62.5342 236.104 59.302C242.33 56.4649 248.685 53.9438 254.918 51.1387C260.515 48.6205 266.493 47.1461 272.316 45.2563C278.675 43.1933 285.026 41.0955 291.447 39.2449C299.687 36.8696 308.011 34.7828 316.268 32.4665C323.582 30.4155 331.078 29.2674 338.474 27.6684C347.5 25.7162 356.559 23.8838 365.573 21.8578C371.918 20.4315 378.487 20.2946 384.795 18.5947C390.72 16.9978 396.899 16.9382 402.871 15.8369C409.085 14.6903 415.339 13.754 421.572 13.1376C437.423 11.5707 453.265 9.80889 469.198 9.12912C473.989 8.92442 478.756 7.63164 483.529 7.66199C490.268 7.70558 496.921 6.63901 503.666 6.78303C510.738 6.9331 517.842 6.27154 524.89 6.3074C528.623 6.32561 532.698 5.00636 536.499 7.08265C537.056 7.38722 538.97 6.63019 540.312 6.50385C541.648 6.37749 543.003 5.47977 543.703 7.46225C543.747 7.5864 544.213 7.65539 544.45 7.60242C552.36 5.83733 560.312 6.5877 568.287 6.97394C571.013 7.10636 573.964 8.03388 576.232 7.71496C580.702 7.0854 585.094 8.11719 589.469 7.35465C592.096 6.8967 594.484 8.70537 597.216 8.09016C602.645 6.86746 608.135 7.91912 613.598 8.04935C614.988 8.08246 616.577 7.60846 617.664 9.06346C617.791 9.22899 618.178 9.27425 618.431 9.25383C625.433 8.68552 632.402 9.72836 639.21 10.7778C645.429 11.7357 651.73 12.3393 657.938 13.2922C663.394 14.128 668.862 15.4424 674.424 15.6846C679.225 15.8937 683.743 17.5717 688.472 18.2111C693.537 18.8959 698.658 19.1772 703.668 20.3112C708.788 21.4704 713.914 22.6689 719.089 23.5285C721.782 23.9754 724.569 24.0174 727.222 24.69C733.319 26.2332 739.427 27.7881 745.529 29.2221C750.827 30.4653 755.93 32.4527 761.399 33.1369C764.897 33.5745 768.241 35.1558 771.706 36.0116C776.163 37.114 780.721 37.838 785.158 39.0242C791.321 40.674 797.407 42.5814 803.404 44.821C807.823 46.4703 812.232 48.2166 816.801 49.532C821.309 50.8292 825.634 52.794 829.977 54.6032C833.944 56.253 838.028 57.7467 841.714 59.9068C850.415 65.015 860.584 67.2314 868.694 73.2787C871.789 75.5824 875.337 76.8894 878.505 78.9426C882.985 81.8487 887.852 84.3829 892.437 87.2598C896.791 89.9905 900.978 92.9833 905.255 95.8387C907.461 97.3114 909.674 98.7741 911.931 100.168C913.238 100.977 914.678 101.593 915.192 103.234C915.385 103.844 915.97 103.97 916.461 104.189C920.902 106.165 924.142 109.839 928.108 112.445C935.551 117.326 941.279 124.116 948.01 129.783C951.376 132.614 954.097 136.26 957.285 139.285C961.462 143.25 965.237 147.534 968.95 151.874C976.669 160.893 984.62 169.711 991.489 179.452C998.596 189.528 1005.64 199.632 1012.18 210.09C1015.51 215.419 1017.92 221.224 1021.01 226.677C1027.15 237.528 1032.11 248.923 1036.88 260.431C1039.94 267.818 1042.81 275.271 1045.19 282.876C1047.19 289.286 1049.43 295.621 1051.04 302.183C1052.46 307.931 1054.27 313.617 1055.56 319.408C1056.77 324.829 1057.6 330.337 1058.47 335.118Z" fill="#181818"/>
<path d="M19.7101 445.347C18.6011 443.079 20.2619 439.156 18.3197 435.666C17.0175 433.337 18.1265 430.379 16.4271 427.817C15.9084 427.037 16.2119 423.986 16.8244 422.147C18.4962 417.08 17.7182 411.96 17.8065 406.809C17.9554 397.531 15.7926 388.311 17.161 379.045C18.2093 371.956 17.801 364.628 19.666 357.758C20.7364 353.804 20.1791 349.628 22.0441 345.84C22.9987 343.898 22.1489 341.531 22.5958 339.339C24.0139 332.411 25.6085 325.526 27.1369 318.629C29.0349 310.035 30.806 301.367 33.2503 292.952C34.9718 287.014 36.4451 280.955 38.6025 275.104C43.0387 263.064 48.468 251.466 53.7208 239.783C57.4839 231.402 62.4332 223.657 67.1838 215.823C73.1043 206.053 78.9254 196.216 85.6349 186.942C89.9772 180.942 94.7997 175.349 99.7271 169.843C105.708 163.164 111.501 156.298 117.775 149.903C127.254 140.245 136.64 130.496 146.908 121.617C154.324 115.202 162.837 110.322 170.297 104.058C175.837 99.4055 182.597 96.725 188.125 92.1183C189.422 91.0385 191.265 90.644 192.755 89.7707C198.361 86.4948 203.795 82.9078 209.55 79.9244C213.015 78.1256 216.751 76.775 220.282 75.0418C225.556 72.4541 230.726 69.6296 236.106 67.289C242.711 64.4132 249.443 61.7941 256.212 59.3149C264.704 56.2047 273.389 53.5998 281.814 50.3162C291.046 46.716 300.834 45.3118 310.23 42.4332C315.847 40.7129 321.713 39.963 327.241 38.081C330.673 36.9145 334.679 37.5788 337.587 34.8222C344.501 34.681 351.089 32.5159 357.875 31.5359C368.629 29.9844 379.273 27.6907 389.999 25.946C395.997 24.971 402.176 24.9517 408.074 23.6231C414.271 22.2277 420.5 21.2632 426.763 20.9365C437.44 20.3793 448.072 19.2488 458.716 18.3952C471.401 17.3777 484.118 17.136 496.787 16.144C501.813 15.75 506.853 15.8007 511.886 15.1988C519.071 14.3391 526.372 14.1896 533.616 14.5715C543.521 15.094 553.426 14.8628 563.326 14.8103C567.15 14.7894 571.024 14.8683 574.892 14.5709C577.994 14.3325 581.668 14.9461 584.91 15.7196C588.86 16.6621 592.742 15.856 596.631 16.3415C604.597 17.3374 612.696 16.5053 620.609 17.4582C627.845 18.3295 635.126 18.9144 642.344 20.0239C647.485 20.8135 652.713 21.0386 657.904 21.4933C664.84 22.1008 671.688 23.4256 678.595 24.1788C684.205 24.7907 689.658 26.2947 695.443 26.2318C698.805 26.1954 702.366 27.9451 705.937 28.6056C712.13 29.7504 718.189 31.7566 724.413 32.5506C729.888 33.2486 734.83 35.5235 740.139 36.6254C744.725 37.5766 749.389 38.4192 753.827 39.8118C758.341 41.2277 763.007 41.8468 767.515 43.2581C773.516 45.138 779.804 46.1086 785.797 48.0094C790.961 49.6476 796.244 50.7864 801.408 52.3777C802.066 52.5807 802.385 53.1413 802.842 53.5789C803.794 54.4871 804.707 55.5829 806.327 54.3784C807.184 53.7405 808.25 54.4975 809.202 54.8242C813.794 56.4022 817.732 59.4806 822.474 60.6817C830.146 62.6251 837.107 66.3478 844.127 69.7455C851.695 73.4086 859.772 75.8982 866.955 80.5313C874.204 85.2081 882.166 88.7642 889.595 93.1844C893.043 95.2363 895.777 98.462 899.162 100.65C907.685 106.161 915.303 112.875 923.355 118.981C926.548 121.401 929.918 124.053 932.971 126.914C938.654 132.239 943.888 138.006 949.633 143.252C952.426 145.801 955.363 148.22 957.931 150.979C960.344 153.571 962.24 156.634 964.565 159.316C975.193 171.581 985.222 184.289 994.026 197.947C998.825 205.394 1003.94 212.64 1008.64 220.152C1011.56 224.839 1014.05 229.811 1016.58 234.735C1018.11 237.735 1020.45 240.235 1021.63 243.463C1023.78 249.332 1027.73 254.325 1028.98 260.752C1030.14 266.794 1032.8 272.516 1035.47 278.168C1036.73 280.824 1037.24 284.011 1038.08 286.961C1039.46 291.759 1041.37 296.393 1042.64 301.178C1043.43 304.118 1044.27 307.096 1044.89 310.097C1045.16 311.382 1045.4 312.611 1046.31 313.611C1046.74 314.1 1047.06 314.618 1047.01 315.33C1046.62 321.1 1049.03 326.38 1049.88 331.921C1050.47 335.788 1050.94 339.715 1051.92 343.465C1052.58 346.029 1051.44 348.99 1053.75 351.286C1054.32 351.855 1053.36 353.462 1053.44 354.789C1053.82 361.307 1054.63 367.773 1055.23 374.263C1055.68 379.065 1055.68 383.909 1055.88 388.733C1056.15 395.164 1056.65 401.596 1056.62 408.025C1056.59 413.063 1056 418.109 1055.42 423.125C1055.26 424.591 1055.13 426.042 1055.18 427.494C1055.29 431.383 1054.08 435.053 1053.5 438.827C1052.43 445.781 1051.54 452.767 1050.8 459.763C1050.33 464.348 1048.38 468.58 1047.91 473.13C1047.18 480.129 1043.79 486.416 1042.63 493.26C1042.05 496.786 1039.99 500.02 1040.63 503.803C1040.82 504.885 1039.5 505.47 1039.12 506.559C1035.64 516.754 1032.1 526.936 1028.37 537.043C1025.13 545.837 1020.8 554.132 1016.44 562.432C1014.48 566.188 1012.64 570.105 1010.7 573.872C1008.94 577.304 1007 580.781 1004.79 584.05C1001.03 589.592 997.302 595.18 994.123 601.054C988.6 611.272 980.693 619.707 974.016 629.054C971.521 632.548 967.881 634.886 965.29 638.328C960.736 644.378 954.801 649.251 950.204 655.294C948.719 657.245 946.322 658.005 944.619 659.671C940.224 663.966 935.256 667.587 930.603 671.579C927.915 673.885 925.423 676.431 922.944 678.966C920.741 681.219 917.773 682.311 915.372 684.29C909.731 688.938 903.409 692.664 897.62 697.141C895.045 699.131 891.596 700.533 889.44 702.576C886.671 705.202 882.182 704.748 880.324 708.539C880.1 708.995 878.006 708.777 876.694 709.604C870.154 713.724 863.173 717.064 856.281 720.557C849.595 723.947 842.972 727.48 836.172 730.63C831.036 733.01 825.53 734.608 820.572 737.377C811.814 742.272 802.109 744.414 792.688 747.424C786.703 749.333 781.02 752.117 774.916 753.745C771.13 754.755 767.446 756.163 763.648 757.114C756.389 758.932 749.08 760.548 741.794 762.251C733.382 764.217 724.995 766.295 716.551 768.116C710.627 769.393 704.781 770.954 698.768 771.956C690.304 773.367 681.846 774.951 673.415 776.622C669.104 777.476 664.589 777.258 660.183 777.695C651.517 778.553 642.873 779.652 634.2 780.422C626.811 781.078 619.49 782.304 612.068 782.71C606.067 783.039 600.104 783.995 594.107 784.443C589.308 784.802 584.485 784.788 579.672 785.038C569.421 785.57 559.138 785.526 548.895 786.166C544.849 786.419 540.758 785.947 536.66 787.076C535.083 787.511 532.69 786.209 530.622 786.475C525.129 787.179 519.652 787.276 514.163 786.492C507.174 785.493 500.12 786.051 493.096 785.639C484.345 785.126 475.582 784.934 466.849 783.928C460.779 783.229 454.648 782.917 448.524 782.603C441.352 782.234 434.222 781.001 427.066 780.249C419.087 779.41 411.082 778.862 403.125 777.855C398.27 777.24 393.575 775.64 388.663 775.079C381.127 774.215 373.595 773.251 366.107 772.035C362.603 771.466 359.056 770.497 355.613 770.168C350.09 769.641 344.859 767.93 339.756 766.385C334.287 764.731 328.759 763.124 323.268 761.485C314.871 758.976 306.225 757.28 297.882 754.602C292.729 752.945 287.486 751.497 282.383 749.51C276.81 747.339 271.071 745.419 265.4 743.412C256.897 740.405 248.56 736.995 240.327 733.267C232.917 729.91 225.844 725.802 218.218 722.98C212.982 721.041 208.805 717.371 203.778 715.147C198.101 712.631 193.217 708.778 188.026 705.451C185.118 703.587 182.094 701.869 179.01 700.315C175.92 698.76 173.001 696.962 170.672 694.439C168.361 691.932 164.995 691.241 162.457 689.099C157.502 684.92 151.952 681.568 147.184 677.012C143.145 673.155 138.665 669.376 133.296 667.129C132.866 666.948 132.535 666.732 132.259 666.316C127.36 658.938 120.357 653.521 114.101 647.465C111.501 644.955 109.829 641.91 107.369 639.387C103.121 635.028 99.8316 629.841 95.3679 625.583C93.4036 623.711 92.1621 620.818 90.5014 618.441C87.726 614.473 84.912 610.545 81.8884 606.766C78.0646 601.995 74.8202 596.808 71.8131 591.513C68.5743 585.81 65.5176 579.969 62.1352 574.377C58.4991 568.364 55.4257 562.063 51.8724 556.02C49.9136 552.693 49.1412 548.741 47.2818 545.273C42.4152 536.18 39.3584 526.354 35.7553 516.737C33.3056 510.211 31.3909 503.509 29.6032 496.868C27.2085 487.984 24.3118 479.161 23.7215 469.744C23.4179 464.876 21.6523 459.962 20.9847 454.981C20.6095 452.185 20.2454 449.387 19.7101 445.347Z" fill="#DFD4BF"/>
<path d="M987.252 599.479C986.721 601.055 985.656 602.291 984.674 603.584C980.884 608.578 977.116 613.591 973.319 618.586C972.657 619.458 971.957 620.306 971.206 621.103C961.942 630.963 952.799 640.941 943.348 650.612C937.604 656.492 931.612 662.191 925.288 667.439C916.372 674.844 907.097 681.801 897.275 688.044C891.956 691.423 886.78 695.083 881.319 698.206C875.006 701.817 868.782 705.648 861.962 708.363C859.49 709.347 857.444 711.345 855.065 712.642C845.901 717.653 836.509 722.168 826.919 726.365C817.982 730.279 809.037 734.178 799.811 737.286C789.251 740.845 778.613 744.205 768.019 747.654C756.874 751.281 745.534 754.181 734.318 757.478C723.397 760.686 712.296 763.371 700.886 764.886C693.151 765.913 685.354 767.181 677.667 768.751C670.109 770.295 662.461 771.008 654.819 771.556C647.69 772.066 640.639 773.105 633.57 773.964C623.457 775.193 613.282 775.465 603.168 776.533C591.631 777.751 580.094 778.989 568.528 779.801C562.356 780.234 556.129 780.309 549.917 779.917C545.803 779.658 541.77 781.046 536.852 780.486C538.69 781.945 540.3 781.068 542.141 782.128C516.322 783.946 491.255 782.764 466.22 779.994C469.451 778.877 472.741 779.546 476.147 779.513C475.839 778.408 475.027 778.468 474.403 778.481C471.741 778.532 469.094 778.403 466.441 778.19C465.949 778.15 463.867 776.916 464.671 779.486C464.81 779.93 462.776 780.2 461.709 780.109C457.787 779.774 453.871 779.34 449.952 778.97C442.741 778.288 435.526 777.654 428.319 776.94C425.403 776.651 422.501 776.222 419.603 775.785C419.419 775.757 417.007 776.166 419.101 774.655C419.511 774.358 418.291 773.966 417.739 773.924C405.479 772.989 393.45 770.508 381.385 768.348C372.193 766.703 363.101 764.501 353.963 762.554C348.434 761.376 342.804 760.684 337.061 758.791C339.044 760.951 350.705 763.702 357.915 764.774C365.06 765.837 372.041 767.958 379.154 769.284C386.297 770.614 393.516 771.537 400.671 772.882C396.144 773.356 391.722 772.543 387.295 771.882C378.72 770.602 370.147 769.303 361.587 767.915C359.275 767.54 357.045 766.664 354.733 766.284C343.917 764.507 333.466 761.249 322.94 758.346C314.595 756.045 306.341 753.396 298.106 750.683C289.97 748.004 281.928 745.018 273.694 742.599C268.482 741.067 263.463 738.757 258.541 736.414C255.553 734.992 252.354 734.299 249.354 732.931C241.846 729.51 234.015 726.918 226.772 722.745C222.665 720.379 217.949 718.84 213.596 716.708C206.112 713.042 198.697 709.25 191.801 704.561C187.762 701.817 183.77 698.907 179.724 696.273C173.829 692.434 167.892 688.649 162.23 684.482C156.439 680.221 150.708 675.865 145.659 670.681C144.178 669.159 142.215 668.145 140.631 666.663C134.489 660.914 128.063 655.457 122.127 649.509C115.578 642.944 109.23 636.149 103.208 629.101C98.3726 623.443 94.1295 617.274 89.6569 611.309C83.8353 603.544 78.6051 595.395 73.2558 587.331C69.0735 581.027 65.5543 574.287 62.1394 567.516C60.3721 564.01 58.1799 560.695 56.6692 557.089C54.5229 551.964 51.4457 547.287 49.892 541.841C49.2872 539.722 47.7136 537.678 46.6315 535.556C43.3772 529.176 41.6392 522.255 39.026 515.655C36.7032 509.792 35.3342 503.631 33.7026 497.586C32.3469 492.563 31.2064 487.403 30.4146 482.189C30.0538 479.811 29.0176 477.342 28.3113 474.903C26.4 468.304 25.5916 461.515 24.6929 454.734C24.0048 449.542 23.0553 444.383 22.3733 439.189C21.3326 431.262 20.4663 423.315 21.0524 415.296C21.113 414.468 20.7577 413.408 22.1946 412.729C22.6095 416.923 23.0116 420.99 23.4668 425.589C25.1519 423.809 24.5925 422.294 24.4131 420.871C24.2769 419.786 23.8966 418.726 23.8233 417.641C23.7836 417.05 23.3482 415.943 24.5246 415.949C25.3721 415.953 25.5989 416.812 25.6458 417.592C25.9724 423.028 26.0712 428.49 26.6859 433.893C27.38 439.994 27.7315 446.159 29.3962 452.134C30.0538 454.495 30.2927 456.989 30.5796 459.405C31.6506 468.411 34.5259 476.99 36.4653 485.786C37.6886 491.335 39.2059 496.833 40.8872 502.263C43.1052 509.427 45.7449 516.461 47.9591 523.626C50.1479 530.71 53.437 537.325 56.2725 544.131C58.3008 549 60.5796 553.766 62.545 558.66C63.4896 561.011 65.5052 562.515 66.6082 564.76C69.4227 570.487 72.0706 576.386 75.6449 581.63C80.4679 588.705 84.3826 596.332 89.6437 603.164C94.2835 609.188 98.8604 615.267 103.829 621.013C106.461 624.058 108.69 627.355 111.136 630.448C112.475 632.14 114.782 633.66 116.447 635.496C120.488 639.953 124.406 644.531 128.628 648.809C131.564 651.785 134.908 654.36 138.095 657.085C141.475 659.975 144.879 662.835 148.28 665.7C148.768 666.112 149.277 666.504 149.803 666.866C150.747 667.514 151.901 668.179 152.657 666.904C153.375 665.692 151.84 665.544 151.244 665.015C147.036 661.265 142.761 657.588 138.576 653.815C136.336 651.795 133.921 650.003 131.692 647.956C125.502 642.272 120.048 635.958 114.728 629.492C111.51 625.584 108.042 621.882 104.852 617.952C101.091 613.318 97.5946 608.471 93.9332 603.764C91.3029 600.382 88.7747 596.955 86.5059 593.344C81.1763 584.861 75.6157 576.506 71.1685 567.506C69.2885 563.7 68.0764 559.51 65.8317 555.955C61.8856 549.707 59.4921 542.764 56.2305 536.22C53.9684 531.68 52.3319 526.858 51.1019 521.886C50.5547 519.673 49.1685 517.636 48.2063 515.519C46.4677 511.692 45.7802 507.652 44.6066 503.721C42.5921 496.973 40.1969 490.28 38.908 483.387C37.5959 476.367 35.1339 469.647 34.144 462.567C33.4604 457.679 33.3434 452.642 32.2476 447.92C31.1259 443.087 30.5471 438.247 29.8723 433.387C28.6065 424.268 27.3115 415.163 27.9246 405.892C28.2104 401.556 27.9842 397.184 27.9461 392.829C27.929 390.888 28.0592 388.994 28.9917 387.066C29.5838 387.894 29.6406 388.749 29.5942 389.632C29.2383 396.323 30.2811 402.973 29.7393 409.721C29.3205 414.935 30.6376 420.252 30.7783 425.575C30.924 431.074 31.5364 436.599 32.8276 441.97C34.8603 450.42 35.3921 459.11 37.3967 467.598C39.079 474.723 41.4048 481.676 42.8421 488.812C43.6703 492.928 44.7246 497.012 45.9761 500.927C47.3477 505.214 48.8612 509.552 50.6798 513.692C52.6055 518.078 53.4315 522.738 54.9191 527.221C55.1149 527.81 55.1546 528.439 55.5447 528.977C58.1452 532.567 58.9248 537.061 61.1099 540.762C64.3592 546.265 66.1154 552.439 69.6677 557.814C72.3989 561.948 74.0498 566.78 76.4003 571.186C78.5952 575.3 81.0015 579.328 83.5076 583.241C89.9339 593.278 97.2591 602.673 104.648 612.036C108.562 616.995 112.147 622.333 116.331 627.01C122.644 634.068 128.688 641.371 135.388 648.138C141.523 654.337 148.657 659.164 155.067 664.924C157.897 667.468 160.978 670.03 164.457 671.896C166.482 672.982 168.199 674.498 169.869 676.097C173.815 679.878 178.892 682.079 183.17 685.431C188.943 689.955 195.489 693.337 201.541 697.455C202.265 697.947 203.266 698.24 203.431 699.329C202.152 700.635 200.88 699.869 199.672 699.244C195.843 697.262 192.16 694.968 188.746 692.39C186.022 690.333 183.044 688.756 180.192 686.981C174.281 683.304 168.986 678.773 163.088 675.097C161.848 674.324 160.689 673.424 159.411 672.694C157.977 671.875 156.592 670.967 155.836 669.427C155.728 669.345 155.647 669.214 155.629 669.068C155.649 669.081 155.485 669.191 155.487 669.189C155.788 669.258 155.897 669.52 156.057 669.753C158.075 672.471 160.963 674.231 163.615 676.082C169.391 680.117 175.045 684.328 180.946 688.209C187.609 692.593 194.526 696.547 201.177 700.925C209.863 706.644 219.279 710.911 228.595 715.418C238.76 720.335 249.335 724.269 259.737 728.601C269.691 732.744 279.747 736.658 290.123 739.775C297.029 741.849 303.835 744.397 310.684 746.722C316.04 748.539 321.62 749.77 327.116 751.203C334.197 753.051 341.323 754.743 348.425 756.468C361.846 759.729 375.428 762.334 389.184 763.926C394.64 764.557 400.053 765.595 405.442 766.651C409.926 767.529 414.507 767.926 418.911 769.124C426.652 771.229 434.655 771.057 442.515 772.106C453.329 773.55 464.253 773.692 475.11 774.533C486.184 775.391 497.278 775.293 508.34 776.12C512.526 776.431 516.708 775.399 520.952 775.519C524.87 775.628 528.822 775.721 531.772 775.412C519.843 775.159 506.936 776.071 494.039 775.006C491.842 774.825 489.629 774.899 487.425 774.955C481.443 775.112 475.524 774.235 469.572 773.956C462.082 773.606 454.578 773.377 447.121 772.641C438.928 771.833 430.6 771.635 422.579 769.993C412.102 767.85 401.548 766.197 391.06 764.164C386.387 763.26 381.634 762.743 376.97 761.822C367.107 759.873 357.136 758.655 347.375 755.934C334.415 752.322 321.194 749.605 308.326 745.627C294.845 741.459 281.449 737 268.346 731.74C264.182 730.069 260.037 728.325 256.004 726.315C252.396 724.518 248.338 723.872 244.658 722.159C236.099 718.176 227.213 714.94 218.843 710.489C214.476 708.167 210.031 705.982 205.817 703.389C204.398 702.516 202.691 701.533 203.377 699.281C208.888 700.598 213.487 703.91 218.551 706.204C224.034 708.688 229.661 710.876 235.043 713.558C241.171 716.613 247.556 719.054 253.762 721.913C259.081 724.363 264.71 726.031 270.036 728.508C279.496 732.906 289.645 735.424 299.547 738.573C310.848 742.167 322.296 745.31 333.729 748.475C342.069 750.784 350.416 753.181 358.898 754.824C363.679 755.749 368.381 757.065 373.258 757.741C379.016 758.54 384.794 759.647 390.525 760.814C397.071 762.147 403.758 762.578 410.291 763.849C415.493 764.861 420.759 765.331 425.971 766.245C432.073 767.316 438.37 767.22 444.54 767.98C451.405 768.827 458.313 768.904 465.189 769.524C470.446 769.997 475.772 769.873 480.992 770.569C487.974 771.5 494.992 771.139 501.956 771.238C507.189 771.312 512.438 771.695 517.67 771.774C524.276 771.873 530.9 771.19 537.565 772.204C540.25 772.612 543.433 771.922 546.396 771.779C558.548 771.192 570.697 770.527 582.847 769.954C583.503 769.924 584.331 769.684 584.977 770.316C584.739 771.428 583.791 771.679 582.919 771.74C575.177 772.274 567.438 772.812 559.69 773.229C553.944 773.538 548.188 773.694 542.435 773.867C541.025 773.907 539.61 773.733 538.196 773.677C537.722 773.659 537.266 773.769 537.063 774.266C536.815 774.87 537.428 775.005 537.689 775.331C538.671 776.559 539.654 777.323 541.434 776.519C543.202 775.72 545.255 776.245 547.096 776.316C560.109 776.814 572.981 775.121 585.91 774.228C589.656 773.969 593.491 774.213 597.132 773.475C600.83 772.727 604.41 773.596 608.019 773.277C614.083 772.742 620.129 771.986 626.188 771.395C633.869 770.646 641.488 769.411 649.197 768.935C655.972 768.517 662.858 768.38 669.441 766.956C674.848 765.787 680.371 765.183 685.729 763.665C689.933 762.473 694.331 761.904 698.624 761.032C703.749 759.99 708.986 759.358 713.941 757.46C716.661 756.418 719.635 756.127 722.471 755.384C732.889 752.658 743.316 749.917 753.855 747.747C761.37 746.199 768.604 743.882 775.865 741.524C780.257 740.097 784.809 739.153 789.267 737.907C790.388 737.593 791.381 736.81 792.507 736.484C800.424 734.189 808.127 731.307 815.664 727.985C819.934 726.103 824.238 724.28 828.415 722.21C830.805 721.028 833.342 720.281 835.732 719.151C844.251 715.125 852.489 710.559 860.919 706.38C865.604 704.061 869.83 701.053 874.394 698.572C879.977 695.54 884.877 691.269 890.406 688.133C896.564 684.644 902.231 680.497 907.841 676.293C915.384 670.644 922.38 664.277 929.945 658.664C934.861 655.016 939.281 650.823 944.038 647.017C947.679 644.105 950.277 640.078 953.964 637.137C957.473 634.335 959.216 629.809 963.376 627.515C964.298 627.008 964.64 625.223 965.666 624.251C971.548 618.654 976.321 612.136 981.115 605.632C982.468 603.798 984.002 602.104 985.442 600.334C985.932 599.732 986.441 599.242 987.301 599.526L987.252 599.479Z" fill="#181818"/>
<path d="M114.099 179.764C114.198 177.31 116.112 175.845 117.508 174.314C124.278 166.901 130.916 159.318 138.509 152.734C142.735 149.069 145.93 144.436 150.382 141.018C157.942 135.222 165.016 128.705 172.96 123.524C185.386 115.426 197.15 106.328 210.089 98.9982C220.578 93.0551 231.304 87.5336 242.312 82.7008C249.909 79.3659 257.552 76.0299 265.376 73.1674C269.386 71.6986 273.089 69.3453 277.134 68.0024C285.295 65.2943 293.614 63.089 301.825 60.5188C313.032 57.0079 324.32 53.8171 335.775 51.1824C347.379 48.5147 359.059 46.3816 370.845 44.6931C378.829 43.5483 386.746 41.9663 394.714 40.7265C398.698 40.1069 402.787 40.1002 406.726 39.3096C412.741 38.1023 418.843 37.731 424.907 37.2124C432.394 36.5701 439.777 34.8972 447.253 34.5981C459.657 34.102 472.049 33.2556 484.453 32.8115C495.527 32.4148 506.601 31.1115 517.671 31.6517C526.059 32.0611 534.407 31.2952 542.804 31.6765C549.428 31.9778 556.155 31.5231 562.84 31.533C564.415 31.5352 565.89 32.145 567.376 32.2961C571.01 32.6659 574.693 32.5334 578.356 32.657C588.028 32.9831 597.756 32.4976 607.358 33.7881C612.758 34.5137 618.203 33.8621 623.552 34.9424C625.298 35.295 627.057 34.9755 628.813 36.0448C629.879 36.6931 631.699 35.8357 633.233 35.812C638.882 35.7232 644.318 37.2317 649.896 37.4668C657.838 37.8021 665.692 39.0779 673.493 40.3817C680.488 41.5508 687.534 42.4757 694.532 43.6162C699.254 44.3858 704.002 45.2929 708.749 46.003C715.783 47.0552 722.658 49.1569 729.616 50.7421C737.078 52.4427 744.545 54.1321 752.036 55.7003C761.038 57.5845 770.022 59.4655 778.829 62.2089C783.866 63.7775 789.079 64.8562 794.049 66.6478C801.259 69.2483 808.376 72.113 815.513 74.9132C819.904 76.6358 824.137 78.8219 828.448 80.5898C835.552 83.5036 842.611 86.4705 849.484 89.8776C856.702 93.4569 864.05 96.8077 870.724 101.401C874.9 104.275 879.167 107.015 883.652 109.385C892.306 113.956 899.831 120.143 907.589 125.996C912.236 129.501 917.017 132.851 921.433 136.625C923.704 138.566 926.807 139.753 927.937 142.959C928.235 143.806 929.441 143.716 930.195 144.191C935.677 147.644 939.484 152.809 943.611 157.538C951.587 166.678 959.866 175.53 968.004 184.515C970.389 187.147 972.303 190.206 974.44 193.064C974.824 193.578 975.229 194.082 975.668 194.548C976.322 195.242 977.108 194.918 977.67 194.522C978.488 193.944 977.708 193.47 977.375 192.965C973.281 186.747 968.473 181.137 963.481 175.608C956.926 168.347 949.834 161.562 943.85 153.774C942.367 151.844 939.607 150.873 939.536 147.876C949.423 153.518 990.479 203.478 989.925 209.368C988.853 208.787 988.388 207.793 987.835 206.897C985.455 203.037 982.402 199.68 979.706 196.057C979.191 195.363 978.532 194.437 977.455 195.272C976.2 196.243 977.178 197.069 977.779 197.805C984.049 205.468 989.203 213.846 994.028 222.471C998.347 230.193 1003.2 237.621 1007.37 245.418C1009.98 250.274 1011.62 255.632 1013.93 260.659C1016.3 265.818 1018 271.244 1019.82 276.567C1021.66 281.941 1023.79 287.202 1025.62 292.57C1028.05 299.759 1030.87 306.954 1032.1 314.382C1033.39 322.145 1036.17 329.483 1037.36 337.213C1038.92 347.397 1040.74 357.552 1041.89 367.782C1042.5 373.282 1043.03 378.845 1042.54 384.489C1042.27 387.506 1043.59 390.649 1043.03 393.851C1042.4 397.503 1043.53 401.13 1043.17 404.891C1042.87 407.927 1043.04 411.183 1042.95 414.335C1042.84 418.295 1042.65 422.259 1042.32 426.207C1041.84 431.998 1040.62 437.688 1039.82 443.433C1039.55 445.298 1038.6 446.821 1038.32 448.637C1037.33 455.133 1036.42 461.645 1035.38 468.128C1034.56 473.215 1033.96 478.438 1031.69 483.223C1031.26 484.133 1031.69 485.421 1031.35 486.415C1030.07 490.268 1028.36 493.999 1027.38 497.919C1026.55 501.238 1025.39 504.484 1024.32 507.665C1021.52 516.051 1019.28 524.648 1015.25 532.636C1013.45 536.186 1012.02 539.993 1010.46 543.695C1010.29 544.087 1010.33 544.639 1009.68 544.794C1008.88 543.138 1009.19 541.725 1009.96 539.998C1012.21 534.902 1013.92 529.559 1016.21 524.481C1018.63 519.129 1019.44 513.224 1021.98 507.993C1024.04 503.724 1025.15 499.175 1026.45 494.739C1027.63 490.731 1027.73 486.316 1029.09 482.335C1031.57 475.015 1032.09 467.334 1033.9 459.921C1035.92 451.604 1037.07 443.175 1037.87 434.725C1038.5 428.022 1039.54 421.328 1039.47 414.552C1039.45 412.099 1040.17 409.622 1040.03 407.192C1039.74 402.781 1040.35 398.387 1040.04 394.006C1039.77 390.423 1040.37 386.815 1040.02 383.328C1039.57 379.005 1039.65 374.657 1039.01 370.336C1038.32 365.69 1038.6 360.831 1037.79 356.283C1037.01 351.944 1036.39 347.528 1035.4 343.202C1034.44 339.04 1033.5 334.853 1032.95 330.626C1032.27 325.509 1030.69 320.663 1029.32 315.742C1027.87 310.61 1027.23 305.278 1025.53 300.208C1024.04 295.752 1022.6 291.277 1020.97 286.874C1018.34 279.797 1015.49 272.786 1012.81 265.751C1010.18 258.869 1006.78 252.403 1003.8 245.724C1000.23 237.678 995.62 230.114 991.461 222.341C987.418 214.786 982.618 207.826 977.151 201.249C974.629 198.213 972.907 194.504 970.336 191.518C967.834 188.613 964.847 186.08 962.678 182.902C957.143 174.79 950.337 167.749 943.51 160.822C936.798 154.013 930.347 146.904 923.026 140.694C919.033 137.307 915.373 133.507 911.239 130.311C906.284 126.478 900.993 123.075 895.828 119.515C892.627 117.309 889.564 114.801 886.116 113.077C882.615 111.328 879.43 109.168 876.167 107.081C871.314 103.978 866.174 101.381 861.061 98.7422C856.843 96.5661 852.454 94.6812 848.408 92.2248C844.741 89.9978 840.964 88.0447 837.103 86.2189C829.997 82.8602 822.854 79.5801 815.487 76.8279C811.723 75.4214 808.2 73.4759 804.314 72.3161C796.547 69.9981 788.886 67.3464 781.077 65.121C771.425 62.3705 761.577 60.4046 751.97 57.5531C744.886 55.4509 737.645 54.1195 730.427 52.8328C724.233 51.7286 718.136 50.1561 711.905 49.1618C706.173 48.2476 700.385 47.5993 694.695 46.5195C686.2 44.9072 677.578 44.275 669.103 42.7808C663.057 41.7147 656.942 41.2723 650.914 40.0694C641.671 38.2254 632.146 38.5995 622.856 37.2615C615.415 36.1899 607.969 36.5237 600.546 35.8594C594.554 35.3237 588.491 35.6083 582.489 35.151C575.195 34.5953 567.874 35.0814 560.614 34.5021C555.157 34.0667 549.68 34.0541 544.221 33.5878C541.428 33.3495 538.418 33.8306 535.508 33.8113C530.963 33.7815 526.415 34.2814 521.901 34.1699C516.912 34.0474 511.909 35.0451 507.022 34.447C500.725 33.6756 494.606 34.7118 488.431 35.1289C482.092 35.5571 475.751 35.9052 469.407 36.2247C461.202 36.6374 453.047 37.9147 444.842 38.2894C435.02 38.7374 425.243 39.8299 415.56 41.1376C403.774 42.7288 391.966 44.3158 380.203 46.1184C372.456 47.3052 364.737 48.6708 357.007 49.9586C352.725 50.6726 348.471 51.6029 344.212 52.451C335.979 54.0891 327.94 56.3966 319.807 58.3763C307.469 61.3812 295.149 64.4424 283.103 68.4763C275.384 71.063 267.775 74.0193 260.217 77.0463C253.049 79.9143 245.705 82.3764 238.852 85.9683C232.656 89.2138 226.625 92.7693 220.412 95.9773C210.442 101.129 200.781 106.76 191.495 113.086C187.991 115.474 184.868 118.329 181.32 120.613C176.844 123.494 172.166 126.122 168.193 129.666C164.823 132.673 160.982 135.035 157.643 138.127C154.758 140.801 151.447 143.092 148.463 145.752C144.037 149.696 139.927 153.954 135.683 158.073C131.313 162.314 126.74 166.353 122.778 171.008C120.714 173.434 118.529 175.755 116.399 178.129C115.749 178.857 115.263 179.829 114.049 179.719L114.099 179.764Z" fill="#181818"/>
<path d="M116.269 161.037C117.46 161.323 118.172 160.59 118.818 159.786C124.259 153.06 130.537 147.118 136.85 141.279C144.095 134.576 151.35 127.847 159.13 121.733C166.545 115.907 173.862 109.927 181.813 104.853C192.159 98.2495 202.896 92.3291 213.981 87.0244C221.915 83.2299 229.65 79.041 237.53 75.1334C242.529 72.6521 247.522 70.1024 252.703 68.0438C264.246 63.4564 276.105 59.7612 287.943 55.9921C298.957 52.4852 310.129 49.6077 321.259 46.5592C331.565 43.7369 342.036 41.6232 352.477 39.3504C371.998 35.1019 391.732 32.2255 411.465 29.3023C423.313 27.5471 435.231 26.3608 447.176 25.4415C453.549 24.9516 459.894 24.0666 466.27 23.6643C477.672 22.9454 489.087 22.4339 500.498 21.8793C507.462 21.5412 514.427 21.1687 521.396 21.0164C534.85 20.7223 548.311 20.2522 561.757 20.4955C568.723 20.6219 575.727 20.8553 582.708 21.4241C588.271 21.8778 593.948 21.3801 599.482 22.1972C604.921 23.0005 610.415 22.4709 615.799 23.3201C619.122 23.8437 622.614 24.2691 625.777 24.204C629.456 24.129 632.835 25.2893 636.421 25.2948C639.767 25.3003 643.117 26.08 646.456 26.5793C651.515 27.3358 656.698 26.8425 661.704 28.0492C668.647 29.7228 675.801 29.8607 682.817 31.1142C693.516 33.0261 704.121 35.3446 714.78 37.4204C722.03 38.8323 729.192 40.5853 736.375 42.2538C743.324 43.8677 750.18 45.8783 757.102 47.6114C763.878 49.3081 770.7 50.8194 777.475 52.5149C783.773 54.0919 790.114 55.5243 796.197 57.8792C798.148 58.634 800.215 59.0964 802.242 59.6393C802.81 59.7911 803.612 60.0504 803.767 59.1212C803.889 58.389 803.172 58.3581 802.659 58.192C798.92 56.9836 795.045 56.0755 791.487 54.466C787.383 52.6093 782.913 52.2082 778.792 50.5849C802.923 55.5358 825.145 65.7518 847.415 75.8214C843.003 74.0332 838.577 72.2774 834.181 70.4495C825.696 66.9209 817.247 63.3052 808.729 59.8583C807.669 59.4302 805.477 58.6307 805.266 59.5902C804.932 61.1098 807.107 61.5115 808.317 62.0014C814.163 64.3669 820.139 66.4106 825.958 68.835C833.264 71.8797 840.379 75.401 847.738 78.3088C854.009 80.7867 860.085 83.6074 865.925 86.935C870.75 89.6844 875.28 93.0271 880.289 95.361C886.445 98.2308 891.752 102.328 897.309 106.039C902.947 109.805 908.32 114.013 913.477 118.842C911.796 119.565 910.858 118.509 909.999 117.946C905.488 114.991 901.045 111.931 896.634 108.827C893.335 106.505 889.468 105.157 886.28 102.655C882.437 99.6379 877.93 97.8258 873.607 95.6689C871.824 94.7794 870.096 93.7885 868.458 92.5763C864.826 89.8865 860.715 87.9475 856.809 85.6997C853.676 83.897 849.963 83.5136 847.156 80.9209C844.159 78.1527 839.876 77.5815 836.173 76.307C830.912 74.4961 825.981 72.0612 820.907 69.901C813.039 66.5507 805.32 62.8202 797.332 59.7927C792.257 57.8688 786.864 56.6322 781.511 55.6169C774.847 54.3518 768.33 52.511 761.714 51.0782C756.303 49.9067 750.95 48.3927 745.651 46.9029C739.34 45.1296 732.807 44.505 726.524 42.5026C723.897 41.6651 720.725 40.9572 717.607 41.0604C715.091 41.1431 712.75 39.6528 710.186 39.2262C703.101 38.0493 696.104 36.3218 689.008 35.2342C682.714 34.2693 676.331 33.8935 669.99 33.2165C662.074 32.3712 654.284 30.4252 646.32 30.1481C642.822 30.0262 639.442 29.2245 636.081 28.6622C634.345 28.372 632.736 28.6064 631.088 28.42C622.563 27.4561 614.014 26.8778 605.435 26.7008C604.532 26.6819 603.636 26.3967 602.736 26.2383C600.806 25.8995 599.052 25.382 596.903 26.1357C594.491 26.9821 592.029 25.0697 589.435 24.9444C583.733 24.6691 578.008 23.8089 572.346 24.4622C570.5 24.6751 568.577 24.7861 566.709 25.0873C565.413 25.2964 565.026 23.5578 563.213 23.8928C560.421 24.4081 557.435 26.0419 554.496 24.1726C543.131 26.2697 531.657 24.7111 520.246 25.2071C512.713 25.5343 505.176 25.0807 497.641 25.6617C490.188 26.2367 482.697 26.8392 475.238 26.7007C466.597 26.5401 458.073 27.9692 449.407 27.7491C442.374 27.5698 435.303 29.2008 428.235 29.9065C422.8 30.4493 417.453 31.7173 411.91 31.4796C409.503 31.3764 407.053 32.2492 404.622 32.6774C397.259 33.9729 389.819 34.997 382.534 36.5331C374.945 38.1332 367.298 39.5248 359.666 40.4755C354.107 41.1674 348.747 43.3457 343.015 42.8426C341.781 42.7344 341.18 44.3091 339.791 44.6126C332.927 46.114 326.062 47.6732 319.295 49.563C314.013 51.0385 308.914 53.1633 303.661 54.7523C298.324 56.3668 293.011 58.0331 287.486 59.0887C283.724 59.8076 279.899 60.8747 276.414 62.8461C274.202 64.0976 271.709 64.9991 269.232 65.6039C260.638 67.7006 252.908 71.9172 244.763 75.1157C236.041 78.5411 227.979 83.1599 219.708 87.4399C213.136 90.8399 206.675 94.4114 200.369 98.2544C198.509 99.3884 196.374 98.9635 194.592 100.221C186.15 106.17 177.432 111.695 169.122 117.865C161.906 123.226 154.997 128.977 148.216 134.787C142.037 140.08 136.039 145.745 130.571 151.889C126.504 156.458 122.095 160.726 117.797 165.086C116.198 166.711 115.187 168.753 113.72 170.504C109.99 174.956 106.105 179.272 102.403 183.727C97.8124 189.254 94.099 195.504 89.8671 201.339C87.9414 203.989 86.0544 206.72 83.5383 208.871C81.8058 210.355 81.0444 212.427 79.9518 214.291C76.5861 220.011 72.3595 225.185 69.4021 231.16C65.275 239.495 61.098 247.805 56.9488 256.127C54.1844 261.672 51.9002 267.469 50.0959 273.334C47.9441 280.321 46.0679 287.449 43.5685 294.282C41.7421 299.262 40.5613 304.397 38.8012 309.374C36.0369 317.188 34.5417 325.349 32.8533 333.456C30.9442 342.646 30.7621 352.098 28.8253 361.207C27.9095 365.521 27.3522 369.869 27.4681 374.029C27.5618 377.507 25.3107 380.101 25.6031 383.521C25.7631 385.415 25.7742 387.473 25.741 389.452C25.6693 393.865 25.4099 398.277 25.1341 402.685C24.9961 404.951 25.1176 407.188 25.399 409.428C25.548 410.607 25.8569 411.788 25.3438 412.958C25.0734 413.569 25.25 414.67 24.163 414.432C23.545 414.296 23.4236 413.511 23.4071 412.82C23.1864 402.931 23.3905 393.047 23.8981 383.169C24.4057 373.348 25.9452 363.649 27.6391 353.986C28.8971 346.793 29.8847 339.547 31.2255 332.386C32.3511 326.353 33.8906 320.336 35.2314 314.327C36.6714 307.842 39.0165 301.656 40.5504 295.214C41.8525 289.773 43.5354 284.377 45.5052 279.075C47.304 274.224 48.5675 269.139 50.7304 264.431C54.5651 256.062 57.8371 247.436 62.3781 239.387C66.3618 232.336 69.8877 225.022 74.0424 218.082C78.2192 211.112 82.7271 204.368 88.2448 198.268C90.9374 195.288 93.0838 191.67 95.5943 188.43C100.571 181.996 105.637 175.631 110.713 169.271C112.075 167.557 113.687 166.034 115.011 164.292C115.717 163.366 117.063 162.545 116.319 160.99L116.269 161.037Z" fill="#181818"/>
<path d="M588.675 770.812C590.959 769.455 593.483 769.693 595.82 769.568C601.086 769.288 606.334 768.913 611.559 768.242C620.666 767.073 629.724 765.459 638.926 765.172C645.431 764.969 651.853 763.994 658.27 763.075C667.772 761.712 677.285 760.355 686.671 758.313C690.875 757.398 695.054 756.383 699.278 755.545C704.99 754.414 710.606 752.534 716.362 751.946C723.04 751.264 728.914 748.004 735.4 746.993C742.571 745.874 749.474 743.698 756.499 742.012C764.561 740.076 772.445 737.58 780.3 734.889C785.887 732.975 791.536 731.139 797.2 729.4C801.012 728.229 804.75 726.772 808.364 725.019C810.501 723.983 812.728 723.081 814.994 722.378C817.709 721.535 820.148 719.772 822.834 719.276C827.466 718.421 830.8 715.068 835.257 713.762C839.151 712.62 842.918 710.469 846.649 708.57C851.101 706.308 855.742 704.363 859.983 701.761C864.067 699.254 868.168 696.773 872.332 694.414C879.674 690.254 886.325 685.057 893.473 680.63C899.622 676.823 905.555 672.692 911.22 668.274C915.736 664.753 919.925 660.7 924.576 657.377C933.686 650.868 940.778 642.197 949.313 635.076C951.968 632.861 955.319 631.166 957.184 628.105C962.1 620.04 969.841 614.335 975 606.466C977.072 603.303 979.913 600.561 981.999 597.507C985.002 593.11 987.995 588.647 991.064 584.295C995.809 577.572 999.323 570.22 1003.27 563.082C1005.55 558.968 1008.3 555.117 1010.59 551.007C1012.16 548.168 1013.37 545.117 1014.63 542.113C1018.2 533.587 1021.77 525.058 1025.22 516.482C1026.13 514.221 1026.31 511.653 1027.33 509.455C1030.57 502.412 1031.73 494.74 1034.15 487.454C1036.16 481.451 1037.68 475.263 1039.06 469.079C1039.99 464.967 1040.08 460.671 1040.97 456.55C1041.75 452.963 1041.57 449.193 1043.2 445.747C1043.66 444.792 1043.17 443.418 1043.22 442.237C1043.42 436.94 1044.69 431.769 1045.36 426.53C1046.18 420.105 1045.64 413.737 1046.05 407.36C1046.27 403.933 1046.57 400.495 1046.48 397.073C1046.37 392.555 1046.1 388.019 1045.5 383.544C1045.06 380.261 1044.8 376.817 1045.22 373.753C1046.09 367.335 1043.58 361.658 1042.72 355.643C1041.78 348.971 1040.79 342.303 1039.97 335.616C1039.64 333.014 1038.4 330.614 1038.45 327.907C1040.06 327.795 1040.56 328.803 1040.59 330.109C1040.77 336.726 1043.51 342.886 1044.05 349.423C1044.53 355.413 1046.3 361.173 1046.5 367.282C1046.63 371.034 1047.04 374.994 1047.22 378.79C1047.56 385.828 1049.62 392.694 1048.78 399.857C1047.86 407.833 1047.38 415.868 1046.93 423.89C1046.53 431.159 1045.47 438.355 1044.84 445.599C1044.13 454.019 1042.4 462.385 1039.94 470.45C1038.17 476.231 1037.08 482.141 1035.39 487.915C1033.42 494.679 1031.24 501.381 1029.28 508.149C1027.14 515.517 1024.29 522.641 1021.46 529.729C1019.67 534.171 1017.64 538.603 1015.9 543.051C1014.35 546.994 1012.38 550.758 1010.66 554.562C1008.77 558.725 1006.68 562.937 1004.12 566.851C1002.2 569.806 1000.91 573.176 999.153 576.252C995.166 583.229 990.722 589.957 985.586 596.108C979.391 603.526 973.852 611.469 967.361 618.632C964.194 622.127 960.71 625.334 957.529 628.817C955.125 631.45 952.811 634.175 950.092 636.478C944.482 641.229 940.296 647.437 934.384 651.85C927.515 656.979 921.048 662.625 913.897 667.398C910.63 669.578 907.968 672.683 904.653 674.765C898.123 678.863 892.498 684.182 885.663 687.932C881.524 690.203 877.494 692.98 873.453 695.502C864.324 701.201 855.34 707.32 845.266 711.327C840.035 713.409 835.578 716.905 830.215 718.74C819.198 722.511 809.06 728.428 797.729 731.607C791.032 733.487 784.623 736.502 777.808 738.241C770.24 740.172 762.966 743.189 755.273 744.639C748.867 745.847 742.645 747.956 736.049 748.313C734.044 748.422 732.149 749.885 730.118 750.284C722.201 751.838 714.536 754.366 706.708 756.266C700.139 757.858 693.52 759.113 686.953 760.607C679.536 762.294 672.007 763.212 664.588 764.806C659.151 765.975 653.496 765.874 647.969 766.513C642.898 767.099 637.817 766.585 632.682 768.109C627.718 769.583 622.187 769.203 616.915 769.637C612.884 769.969 608.808 770.047 604.785 770.693C599.439 771.55 594.048 770.818 588.675 770.812Z" fill="#181818"/>
<path d="M116.304 160.993C114.013 161.176 112.98 163.06 111.772 164.549C104.64 173.335 97.9103 182.443 90.8345 191.267C86.145 197.115 81.9058 203.282 77.3698 209.23C73.9699 213.687 71.5493 218.902 68.7788 223.828C64.7057 231.072 60.1967 238.135 56.8713 245.712C54.8252 250.374 52.211 254.797 50.6209 259.693C49.2288 263.981 47.2126 268.062 45.6655 272.306C42.8537 280.019 40.8933 287.986 38.6641 295.879C35.7348 306.251 32.7194 316.613 30.6492 327.167C29.1412 334.853 27.7386 342.596 26.9954 350.452C26.3079 357.717 24.4949 364.87 23.6374 372.127C22.9461 377.976 22.0897 383.846 22.365 389.784C22.4135 390.821 22.0544 391.876 21.672 392.896C20.7688 385.799 21.2885 378.746 22.2127 371.733C22.775 367.46 22.3441 363.157 23.0448 358.891C24.0634 352.688 24.6647 346.446 26.1264 340.282C27.1157 336.111 28.035 331.83 28.5453 327.54C29.2058 321.992 31.2049 316.759 32.0838 311.282C33.4317 302.892 36.243 294.892 38.4605 286.735C39.0046 284.733 39.9442 282.889 41.072 281.062C42.0889 279.415 41.492 277.104 42.4084 275.09C44.7672 269.909 46.6906 264.523 48.7785 259.234C50.6252 254.558 52.467 249.878 54.6432 245.363C59.5947 235.088 65.1433 225.136 71.3424 215.546C74.8615 210.101 77.9966 204.406 81.6079 199.027C86.3658 191.939 91.4094 185.079 97.0622 178.616C102.29 172.639 107.045 166.224 112.396 160.335C122.32 149.417 131.999 138.274 143.344 128.715C155.392 118.562 167.664 108.684 181.374 100.909C189.379 96.3691 197.056 91.3045 205.045 86.7365C211.964 82.7792 219.088 79.2761 226.165 75.6824C231.028 73.2128 236.112 71.0333 241.145 68.9989C246.738 66.7384 252.286 64.3012 257.953 62.1935C258.956 61.8199 259.845 61.6859 260.848 62.593C258.842 64.3895 256.488 65.3335 254.162 65.834C249.218 66.8973 245.042 69.5733 240.599 71.6789C233.008 75.2758 225.449 78.9451 217.931 82.6936C211.234 86.0341 204.385 89.152 198.014 93.0431C190.771 97.4671 183.165 101.292 176.234 106.239C165.947 113.583 156.136 121.485 146.683 129.893C138.971 136.751 131.63 143.983 124.095 151.013C121.415 153.513 118.913 156.242 116.753 159.241C116.363 159.783 116.118 160.357 116.254 161.041L116.304 160.993Z" fill="#181818"/>
<path d="M974.332 591.552C988.093 570.909 1000.23 549.561 1009.39 526.337C1018.54 503.167 1025.19 479.467 1030.57 455.26C1028.89 461.871 1029.39 468.84 1026.62 475.293C1025.09 478.848 1024.98 482.999 1024.06 486.862C1021.89 495.97 1019.92 505.088 1015.96 513.673C1014.27 517.351 1013.46 521.434 1012.05 525.254C1011.2 527.51 1009.86 529.573 1008.94 531.8C1008.36 533.184 1008.32 534.8 1007.7 536.16C1004.94 542.328 1002.35 548.563 999.123 554.544C994.898 562.379 990.036 569.755 985.047 577.099C982.028 581.542 979.463 586.298 976.1 590.524C975.725 590.994 975.332 591.451 974.947 591.914C974.742 591.793 974.537 591.672 974.332 591.552Z" fill="#181818"/>
<path d="M1030.91 452.844C1030.45 450.313 1030.75 447.876 1031.15 445.434C1031.57 442.918 1031.55 440.195 1032.27 437.889C1034.02 432.267 1032.84 426.393 1034.42 420.754C1035 418.704 1034.08 416.092 1034.35 413.645C1034.87 408.837 1035.64 404.032 1035.35 399.156C1035.02 393.435 1034.51 387.709 1034.52 381.985C1034.54 371.09 1033.33 360.308 1031.88 349.553C1030.82 341.662 1028.53 334.005 1026.67 326.269C1026.5 325.574 1025.98 324.909 1026.3 324.152C1026.43 323.842 1026.7 323.49 1026.99 323.37C1027.55 323.143 1027.74 323.545 1027.9 324.047C1028.44 325.789 1029.23 327.478 1029.57 329.254C1030.84 335.969 1032.16 342.685 1033.08 349.453C1033.53 352.758 1034.18 356.031 1033.9 359.539C1033.66 362.456 1034.51 365.684 1035.09 368.7C1036.61 376.677 1036.17 384.658 1036.16 392.673C1036.15 398.581 1036.11 404.502 1036.24 410.415C1036.31 413.795 1035.89 417.392 1035.62 420.854C1035.24 425.84 1034.93 430.85 1034.35 435.812C1033.68 441.568 1033.31 447.425 1030.91 452.844Z" fill="#181818"/>
<path d="M934.948 144.203C933.539 143.196 931.981 142.403 930.837 141.212C924.047 134.145 915.674 129.123 907.968 123.239C900.194 117.306 892.28 111.597 883.902 106.538C883.388 106.228 881.655 106.012 882.496 104.793C883.133 103.871 884.014 104.997 884.578 105.423C889.15 108.882 894.176 111.714 899.033 114.65C905.112 118.325 911.11 122.14 916.6 126.524C921.349 130.318 926.66 133.639 930.27 138.816C931.273 140.254 932.994 141.182 934.348 142.387C934.785 142.775 935.467 143.134 934.948 144.203Z" fill="#181818"/>
<path d="M1049.13 437.595C1049.43 433.52 1049.86 429.449 1050 425.367C1050.32 416.426 1050.51 407.482 1051.26 398.561C1051.32 397.931 1051.18 397.279 1051.09 396.643C1051.01 396.123 1050.21 395.528 1051.23 395.144C1052.01 394.852 1052.88 394.606 1053.54 395.299C1054.02 395.807 1054.02 396.687 1053.52 397.06C1052.42 397.877 1052.59 398.991 1052.59 400.039C1052.59 407.145 1051.84 414.221 1051.67 421.305C1051.6 424.112 1051.4 426.883 1051.06 429.641C1050.73 432.332 1050.07 434.982 1049.54 437.649L1049.13 437.595Z" fill="#181818"/>
<path d="M28.1592 445.26C27.076 443.044 28.698 439.213 26.8011 435.805C25.5293 433.529 26.6125 430.641 24.9526 428.138C24.4461 427.376 24.7426 424.397 25.3407 422.6C26.9736 417.652 26.2137 412.65 26.2999 407.62C26.4454 398.557 24.3329 389.553 25.6695 380.503C26.6933 373.579 26.2946 366.422 28.1161 359.712C29.1615 355.851 28.6172 351.772 30.4387 348.071C31.371 346.175 30.5411 343.863 30.9776 341.722C32.3626 334.956 33.9201 328.231 35.4129 321.495C37.2668 313.1 38.9966 304.635 41.384 296.416C43.0653 290.616 44.5043 284.698 46.6114 278.984C50.9442 267.224 56.2471 255.896 61.3775 244.486C65.0528 236.3 69.8868 228.736 74.5268 221.084C80.3092 211.541 85.9947 201.934 92.5479 192.875C96.7891 187.016 101.499 181.553 106.311 176.175C112.153 169.652 117.812 162.945 123.939 156.7C133.197 147.267 142.365 137.745 152.394 129.073C159.637 122.807 167.951 118.04 175.238 111.923C180.648 107.379 187.25 104.76 192.65 100.261C193.916 99.2068 195.716 98.8215 197.171 97.9684C202.647 94.7689 207.955 91.2655 213.576 88.3516C216.96 86.5948 220.609 85.2756 224.057 83.5829C229.209 81.0554 234.259 78.2967 239.514 76.0107C245.965 73.2018 252.539 70.6437 259.151 68.2224C267.445 65.1846 275.928 62.6404 284.157 59.4334C293.172 55.917 302.732 54.5455 311.91 51.734C317.396 50.0537 323.125 49.3214 328.525 47.4831C331.876 46.3439 335.79 46.9927 338.629 44.3003C345.382 44.1624 351.816 42.0477 358.445 41.0906C368.948 39.5752 379.344 37.335 389.821 35.6309C395.678 34.6787 401.714 34.6598 407.475 33.3622C413.527 31.9993 419.611 31.0572 425.727 30.7382C436.156 30.1939 446.541 29.0897 456.935 28.256C469.325 27.2623 481.747 27.0262 494.121 26.0573C499.029 25.6725 503.951 25.722 508.867 25.1342C515.885 24.2945 523.016 24.1485 530.091 24.5214C539.765 25.0317 549.439 24.8059 559.109 24.7548C562.844 24.7343 566.627 24.8113 570.405 24.5208C573.435 24.288 577.023 24.8873 580.191 25.6429C584.048 26.5633 587.84 25.776 591.638 26.2502C599.419 27.223 607.328 26.4103 615.057 27.341C622.124 28.1919 629.236 28.7631 636.286 29.8469C641.307 30.6181 646.413 30.8379 651.483 31.2819C658.258 31.8753 664.946 33.1692 671.692 33.9049C677.171 34.5025 682.498 35.9716 688.148 35.9101C691.431 35.8745 694.909 37.5834 698.397 38.2285C704.446 39.3468 710.364 41.3062 716.443 42.0816C721.79 42.7634 726.617 44.9853 731.802 46.0615C736.282 46.9905 740.836 47.8134 745.172 49.1737C749.581 50.5565 754.138 51.1612 758.54 52.5397C764.402 54.3757 770.543 55.3236 776.396 57.1802C781.44 58.7802 786.6 59.8926 791.644 61.4468C792.286 61.6451 792.598 62.1926 793.045 62.62C793.973 63.507 794.867 64.5772 796.447 63.4008C797.285 62.7778 798.327 63.5173 799.256 63.8363C803.74 65.3776 807.587 68.3841 812.219 69.5573C819.711 71.4553 826.511 75.0913 833.367 78.4099C840.759 81.9877 848.648 84.4192 855.663 88.9445C862.743 93.5122 870.52 96.9855 877.776 101.303C881.143 103.306 883.814 106.457 887.12 108.595C895.444 113.977 902.885 120.535 910.75 126.497C913.868 128.863 917.159 131.452 920.141 134.246C925.692 139.447 930.804 145.079 936.415 150.204C939.142 152.694 942.011 155.055 944.52 157.751C946.875 160.282 948.728 163.274 950.999 165.893C961.379 177.872 971.175 190.285 979.773 203.625C984.462 210.898 989.46 217.975 994.042 225.312C996.904 229.89 999.332 234.746 1001.8 239.556C1003.3 242.486 1005.58 244.927 1006.74 248.08C1008.84 253.812 1012.7 258.688 1013.91 264.966C1015.05 270.867 1017.64 276.456 1020.25 281.976C1021.48 284.569 1021.97 287.683 1022.8 290.564C1024.14 295.251 1026.01 299.777 1027.26 304.45C1028.02 307.321 1028.85 310.23 1029.46 313.161C1029.72 314.416 1029.94 315.617 1030.83 316.594C1031.26 317.07 1031.58 317.577 1031.53 318.271C1031.15 323.908 1033.5 329.064 1034.32 334.477C1034.9 338.254 1035.37 342.089 1036.31 345.752C1036.97 348.256 1035.86 351.149 1038.1 353.391C1038.66 353.946 1037.73 355.515 1037.81 356.812C1038.17 363.177 1038.97 369.493 1039.56 375.832C1040 380.523 1039.99 385.253 1040.18 389.965C1040.44 396.247 1040.94 402.528 1040.9 408.807C1040.87 413.727 1040.3 418.656 1039.75 423.556C1039.58 424.988 1039.46 426.405 1039.5 427.823C1039.62 431.622 1038.42 435.206 1037.86 438.892C1036.81 445.683 1035.95 452.507 1035.23 459.341C1034.76 463.818 1032.86 467.952 1032.4 472.396C1031.7 479.231 1028.38 485.372 1027.25 492.057C1026.67 495.501 1024.67 498.659 1025.3 502.354C1025.48 503.411 1024.18 503.982 1023.81 505.045C1020.41 515.004 1016.97 524.949 1013.32 534.82C1010.15 543.408 1005.92 551.51 1001.67 559.617C999.75 563.285 997.949 567.111 996.058 570.791C994.334 574.143 992.438 577.538 990.281 580.732C986.622 586.144 982.97 591.602 979.869 597.339C974.474 607.318 966.751 615.558 960.23 624.687C957.793 628.1 954.238 630.382 951.707 633.744C947.259 639.654 941.464 644.413 936.972 650.316C935.522 652.219 933.182 652.963 931.518 654.59C927.224 658.785 922.373 662.322 917.829 666.221C915.203 668.473 912.77 670.959 910.348 673.436C908.196 675.636 905.297 676.703 902.953 678.636C897.443 683.175 891.267 686.814 885.613 691.186C883.099 693.131 879.731 694.501 877.625 696.495C874.92 699.06 870.535 698.617 868.721 702.319C868.503 702.765 866.457 702.553 865.175 703.36C858.788 707.383 851.969 710.646 845.238 714.058C838.707 717.369 832.239 720.819 825.598 723.896C820.581 726.221 815.203 727.78 810.361 730.486C801.807 735.266 792.329 737.359 783.126 740.299C777.282 742.164 771.731 744.883 765.769 746.473C762.071 747.459 758.474 748.835 754.763 749.763C747.674 751.538 740.535 753.117 733.419 754.781C725.203 756.7 717.01 758.731 708.764 760.508C702.978 761.756 697.268 763.28 691.396 764.259C683.129 765.637 674.867 767.185 666.632 768.816C662.422 769.65 658.012 769.438 653.71 769.864C645.246 770.703 636.802 771.776 628.331 772.528C621.115 773.168 613.965 774.366 606.715 774.763C600.854 775.083 595.03 776.017 589.172 776.455C584.485 776.805 579.775 776.792 575.074 777.036C565.062 777.556 555.017 777.513 545.014 778.138C541.063 778.386 537.066 777.924 533.065 779.027C531.524 779.452 529.187 778.181 527.168 778.439C521.802 779.127 516.453 779.223 511.092 778.456C504.265 777.48 497.375 778.025 490.515 777.623C481.968 777.123 473.41 776.935 464.879 775.953C458.952 775.269 452.964 774.965 446.982 774.658C439.976 774.297 433.014 773.093 426.024 772.359C418.231 771.539 410.412 771.004 402.641 770.02C397.899 769.42 393.313 767.858 388.516 767.309C381.154 766.466 373.798 765.524 366.485 764.336C363.064 763.78 359.599 762.834 356.236 762.512C350.841 761.998 345.732 760.327 340.748 758.818C335.406 757.203 330.007 755.633 324.644 754.031C316.442 751.581 307.998 749.925 299.849 747.309C294.817 745.691 289.696 744.277 284.711 742.336C279.269 740.216 273.664 738.34 268.124 736.38C259.82 733.443 251.677 730.112 243.636 726.472C236.399 723.193 229.49 719.18 222.042 716.424C216.928 714.53 212.849 710.947 207.939 708.773C202.393 706.316 197.624 702.554 192.553 699.303C189.713 697.482 186.76 695.805 183.747 694.288C180.73 692.768 177.878 691.011 175.604 688.548C173.346 686.1 170.059 685.425 167.58 683.332C162.741 679.251 157.319 675.977 152.663 671.527C148.718 667.759 144.342 664.069 139.099 661.875C138.679 661.697 138.355 661.487 138.086 661.08C133.3 653.874 126.461 648.583 120.35 642.669C117.812 640.216 116.179 637.243 113.775 634.779C109.626 630.521 106.414 625.455 102.054 621.297C100.136 619.468 98.9231 616.641 97.301 614.321C94.5903 610.446 91.8419 606.61 88.8887 602.918C85.154 598.257 81.9852 593.192 79.0482 588.021C75.8848 582.451 72.8993 576.745 69.5958 571.284C66.0444 565.411 63.0426 559.258 59.5721 553.353C57.6589 550.105 56.9045 546.245 55.0884 542.857C50.3352 533.976 47.3496 524.379 43.8306 514.986C41.4378 508.613 39.5678 502.066 37.8218 495.579C35.4829 486.903 32.6536 478.287 32.077 469.089C31.7807 464.334 30.0561 459.535 29.404 454.669C29.0376 451.938 28.6819 449.207 28.1592 445.26Z" fill="#DFD4BF"/>
</g>
<path d="M559.737 121.972C560.366 121.972 560.754 122.384 560.754 123.353L560.754 123.668L561.021 123.668L561.021 118.58L560.754 118.58L560.754 118.895C560.754 119.864 560.366 120.276 559.737 120.276L520.394 120.276C519.764 120.276 519.376 119.864 519.376 118.895L519.376 118.58L519.11 118.58L519.11 123.668L519.376 123.668L519.376 123.353C519.376 122.384 519.764 121.972 520.394 121.972L559.737 121.972Z" fill="#181818"/>
<path d="M559.737 128.664C560.366 128.664 560.754 129.076 560.754 130.045L560.754 130.36L561.021 130.36L561.021 125.272L560.754 125.272L560.754 125.587C560.754 126.556 560.366 126.968 559.737 126.968L520.394 126.968C519.764 126.968 519.376 126.556 519.376 125.587L519.376 125.272L519.11 125.272L519.11 130.36L519.376 130.36L519.376 130.045C519.376 129.076 519.764 128.664 520.394 128.664L559.737 128.664Z" fill="#181818"/>
<path d="M559.737 135.357C560.366 135.357 560.754 135.769 560.754 136.738L560.754 137.053L561.021 137.053L561.021 131.965L560.754 131.965L560.754 132.28C560.754 133.249 560.366 133.661 559.737 133.661L520.394 133.661C519.764 133.661 519.376 133.249 519.376 132.28L519.376 131.965L519.11 131.965L519.11 137.053L519.376 137.053L519.376 136.738C519.376 135.769 519.764 135.357 520.394 135.357L559.737 135.357Z" fill="#181818"/>
<mask id="path-17-inside-1_196_63874" fill="white">
<path d="M502.179 130.901C502.097 130.735 502.219 130.448 502.077 130.193C501.982 130.022 502.063 129.806 501.938 129.618C501.9 129.561 501.923 129.338 501.967 129.203C502.09 128.832 502.033 128.457 502.039 128.08C502.05 127.401 501.892 126.726 501.992 126.048C502.069 125.529 502.039 124.993 502.175 124.49C502.254 124.201 502.213 123.895 502.349 123.618C502.419 123.476 502.357 123.302 502.39 123.142C502.494 122.635 502.61 122.131 502.722 121.626C502.861 120.997 502.991 120.362 503.17 119.746C503.296 119.312 503.404 118.868 503.562 118.44C503.886 117.559 504.284 116.71 504.668 115.855C504.944 115.241 505.306 114.674 505.654 114.101C506.087 113.386 506.513 112.666 507.004 111.987C507.322 111.548 507.675 111.138 508.036 110.735C508.473 110.246 508.898 109.744 509.357 109.276C510.051 108.569 510.738 107.855 511.489 107.205C512.032 106.736 512.655 106.378 513.201 105.92C513.607 105.579 514.101 105.383 514.506 105.046C514.601 104.967 514.736 104.938 514.845 104.874C515.255 104.634 515.653 104.372 516.074 104.153C516.328 104.022 516.601 103.923 516.86 103.796C517.246 103.607 517.624 103.4 518.018 103.229C518.502 103.018 518.994 102.826 519.49 102.645C520.112 102.417 520.747 102.226 521.364 101.986C522.04 101.723 522.756 101.62 523.444 101.409C523.855 101.283 524.284 101.228 524.689 101.091C524.94 101.005 525.233 101.054 525.446 100.852C525.952 100.842 526.435 100.683 526.931 100.611C527.719 100.498 528.498 100.33 529.283 100.202C529.722 100.131 530.174 100.13 530.606 100.032C531.059 99.9301 531.515 99.8595 531.974 99.8356C532.755 99.7948 533.534 99.7121 534.313 99.6496C535.241 99.5751 536.172 99.5574 537.099 99.4848C537.467 99.456 537.836 99.4597 538.205 99.4156C538.73 99.3527 539.265 99.3418 539.795 99.3697C540.52 99.408 541.245 99.3911 541.97 99.3872C542.25 99.3857 542.533 99.3915 542.816 99.3697C543.043 99.3522 543.312 99.3972 543.55 99.4538C543.839 99.5228 544.123 99.4637 544.408 99.4993C544.991 99.5722 545.584 99.5113 546.163 99.581C546.692 99.6448 547.225 99.6876 547.754 99.7688C548.13 99.8266 548.513 99.8431 548.893 99.8764C549.4 99.9209 549.902 100.018 550.407 100.073C550.818 100.118 551.217 100.228 551.64 100.223C551.887 100.221 552.147 100.349 552.408 100.397C552.862 100.481 553.305 100.628 553.761 100.686C554.162 100.737 554.523 100.903 554.912 100.984C555.248 101.054 555.589 101.115 555.914 101.217C556.244 101.321 556.586 101.366 556.916 101.47C557.355 101.607 557.815 101.678 558.254 101.817C558.632 101.937 559.019 102.021 559.397 102.137C559.445 102.152 559.468 102.193 559.502 102.225C559.571 102.291 559.638 102.372 559.757 102.283C559.82 102.237 559.898 102.292 559.967 102.316C560.303 102.432 560.592 102.657 560.939 102.745C561.5 102.887 562.01 103.16 562.524 103.408C563.078 103.676 563.669 103.859 564.195 104.198C564.725 104.54 565.308 104.8 565.852 105.124C566.104 105.274 566.304 105.51 566.552 105.67C567.176 106.074 567.734 106.565 568.323 107.012C568.557 107.189 568.803 107.383 569.027 107.593C569.443 107.983 569.826 108.405 570.246 108.789C570.451 108.975 570.666 109.152 570.854 109.354C571.03 109.544 571.169 109.768 571.339 109.965C572.117 110.862 572.851 111.793 573.496 112.792C573.847 113.337 574.222 113.868 574.565 114.418C574.78 114.761 574.961 115.125 575.146 115.485C575.259 115.705 575.43 115.888 575.517 116.124C575.674 116.554 575.964 116.919 576.054 117.389C576.14 117.832 576.334 118.251 576.53 118.664C576.622 118.859 576.659 119.092 576.721 119.308C576.821 119.659 576.961 119.998 577.055 120.349C577.112 120.564 577.173 120.782 577.219 121.001C577.239 121.095 577.256 121.185 577.322 121.259C577.355 121.294 577.378 121.332 577.375 121.384C577.346 121.807 577.522 122.193 577.584 122.599C577.628 122.882 577.662 123.169 577.733 123.444C577.782 123.631 577.699 123.848 577.867 124.016C577.909 124.058 577.839 124.176 577.845 124.273C577.873 124.75 577.932 125.223 577.976 125.698C578.009 126.05 578.009 126.404 578.023 126.757C578.043 127.228 578.08 127.699 578.077 128.169C578.075 128.538 578.032 128.908 577.99 129.275C577.978 129.382 577.969 129.488 577.972 129.595C577.98 129.879 577.891 130.148 577.849 130.424C577.771 130.933 577.706 131.444 577.652 131.957C577.617 132.292 577.474 132.602 577.44 132.935C577.387 133.447 577.138 133.907 577.054 134.408C577.01 134.667 576.86 134.903 576.907 135.18C576.921 135.259 576.824 135.302 576.797 135.382C576.542 136.128 576.283 136.873 576.01 137.613C575.772 138.257 575.455 138.864 575.137 139.472C574.993 139.747 574.858 140.033 574.716 140.309C574.587 140.56 574.445 140.815 574.283 141.054C574.009 141.46 573.735 141.869 573.503 142.299C573.099 143.047 572.52 143.664 572.031 144.348C571.848 144.604 571.582 144.775 571.392 145.027C571.059 145.47 570.625 145.827 570.288 146.269C570.18 146.412 570.004 146.467 569.879 146.589C569.558 146.904 569.194 147.169 568.853 147.461C568.657 147.63 568.474 147.816 568.293 148.002C568.132 148.166 567.914 148.246 567.739 148.391C567.326 148.731 566.863 149.004 566.439 149.332C566.251 149.478 565.998 149.58 565.84 149.73C565.638 149.922 565.309 149.889 565.173 150.166C565.157 150.2 565.004 150.184 564.907 150.244C564.429 150.546 563.918 150.79 563.413 151.046C562.924 151.294 562.439 151.553 561.941 151.783C561.565 151.957 561.162 152.074 560.799 152.277C560.158 152.635 559.448 152.792 558.758 153.012C558.32 153.152 557.904 153.356 557.458 153.475C557.18 153.549 556.911 153.652 556.633 153.722C556.101 153.855 555.567 153.973 555.033 154.098C554.417 154.242 553.803 154.394 553.185 154.527C552.752 154.621 552.324 154.735 551.884 154.808C551.264 154.912 550.645 155.027 550.028 155.15C549.712 155.212 549.382 155.196 549.059 155.228C548.425 155.291 547.792 155.372 547.158 155.428C546.617 155.476 546.081 155.566 545.538 155.595C545.098 155.619 544.662 155.689 544.223 155.722C543.872 155.748 543.519 155.747 543.166 155.766C542.416 155.805 541.663 155.801 540.914 155.848C540.617 155.867 540.318 155.832 540.018 155.915C539.903 155.947 539.727 155.851 539.576 155.871C539.174 155.922 538.773 155.93 538.371 155.872C537.86 155.799 537.343 155.84 536.829 155.81C536.189 155.772 535.547 155.758 534.908 155.685C534.464 155.633 534.015 155.611 533.567 155.587C533.042 155.561 532.52 155.47 531.996 155.415C531.412 155.354 530.826 155.314 530.244 155.24C529.888 155.195 529.544 155.078 529.185 155.037C528.633 154.974 528.082 154.903 527.534 154.814C527.277 154.772 527.018 154.701 526.766 154.677C526.362 154.639 525.979 154.513 525.605 154.4C525.205 154.279 524.8 154.162 524.398 154.042C523.784 153.858 523.151 153.734 522.54 153.538C522.163 153.417 521.779 153.311 521.406 153.165C520.998 153.006 520.578 152.866 520.162 152.719C519.54 152.499 518.93 152.249 518.327 151.976C517.785 151.731 517.267 151.43 516.709 151.223C516.326 151.081 516.02 150.813 515.652 150.65C515.236 150.466 514.879 150.184 514.499 149.94C514.286 149.804 514.065 149.678 513.839 149.564C513.613 149.45 513.399 149.319 513.229 149.134C513.059 148.951 512.813 148.9 512.627 148.743C512.265 148.437 511.858 148.192 511.509 147.859C511.214 147.576 510.886 147.3 510.493 147.135C510.461 147.122 510.437 147.106 510.417 147.076C510.058 146.536 509.546 146.139 509.088 145.696C508.898 145.512 508.775 145.289 508.595 145.104C508.284 144.785 508.043 144.406 507.717 144.094C507.573 143.957 507.482 143.745 507.36 143.571C507.157 143.281 506.951 142.993 506.73 142.717C506.45 142.367 506.213 141.988 505.992 141.6C505.755 141.183 505.532 140.755 505.284 140.346C505.018 139.906 504.793 139.445 504.533 139.002C504.389 138.759 504.333 138.469 504.197 138.216C503.841 137.55 503.617 136.831 503.353 136.127C503.174 135.649 503.034 135.159 502.903 134.672C502.727 134.022 502.515 133.376 502.472 132.687C502.45 132.331 502.321 131.971 502.272 131.607C502.244 131.402 502.218 131.197 502.179 130.901Z"/>
</mask>
<path d="M502.179 130.901C502.097 130.735 502.219 130.448 502.077 130.193C501.982 130.022 502.063 129.806 501.938 129.618C501.9 129.561 501.923 129.338 501.967 129.203C502.09 128.832 502.033 128.457 502.039 128.08C502.05 127.401 501.892 126.726 501.992 126.048C502.069 125.529 502.039 124.993 502.175 124.49C502.254 124.201 502.213 123.895 502.349 123.618C502.419 123.476 502.357 123.302 502.39 123.142C502.494 122.635 502.61 122.131 502.722 121.626C502.861 120.997 502.991 120.362 503.17 119.746C503.296 119.312 503.404 118.868 503.562 118.44C503.886 117.559 504.284 116.71 504.668 115.855C504.944 115.241 505.306 114.674 505.654 114.101C506.087 113.386 506.513 112.666 507.004 111.987C507.322 111.548 507.675 111.138 508.036 110.735C508.473 110.246 508.898 109.744 509.357 109.276C510.051 108.569 510.738 107.855 511.489 107.205C512.032 106.736 512.655 106.378 513.201 105.92C513.607 105.579 514.101 105.383 514.506 105.046C514.601 104.967 514.736 104.938 514.845 104.874C515.255 104.634 515.653 104.372 516.074 104.153C516.328 104.022 516.601 103.923 516.86 103.796C517.246 103.607 517.624 103.4 518.018 103.229C518.502 103.018 518.994 102.826 519.49 102.645C520.112 102.417 520.747 102.226 521.364 101.986C522.04 101.723 522.756 101.62 523.444 101.409C523.855 101.283 524.284 101.228 524.689 101.091C524.94 101.005 525.233 101.054 525.446 100.852C525.952 100.842 526.435 100.683 526.931 100.611C527.719 100.498 528.498 100.33 529.283 100.202C529.722 100.131 530.174 100.13 530.606 100.032C531.059 99.9301 531.515 99.8595 531.974 99.8356C532.755 99.7948 533.534 99.7121 534.313 99.6496C535.241 99.5751 536.172 99.5574 537.099 99.4848C537.467 99.456 537.836 99.4597 538.205 99.4156C538.73 99.3527 539.265 99.3418 539.795 99.3697C540.52 99.408 541.245 99.3911 541.97 99.3872C542.25 99.3857 542.533 99.3915 542.816 99.3697C543.043 99.3522 543.312 99.3972 543.55 99.4538C543.839 99.5228 544.123 99.4637 544.408 99.4993C544.991 99.5722 545.584 99.5113 546.163 99.581C546.692 99.6448 547.225 99.6876 547.754 99.7688C548.13 99.8266 548.513 99.8431 548.893 99.8764C549.4 99.9209 549.902 100.018 550.407 100.073C550.818 100.118 551.217 100.228 551.64 100.223C551.887 100.221 552.147 100.349 552.408 100.397C552.862 100.481 553.305 100.628 553.761 100.686C554.162 100.737 554.523 100.903 554.912 100.984C555.248 101.054 555.589 101.115 555.914 101.217C556.244 101.321 556.586 101.366 556.916 101.47C557.355 101.607 557.815 101.678 558.254 101.817C558.632 101.937 559.019 102.021 559.397 102.137C559.445 102.152 559.468 102.193 559.502 102.225C559.571 102.291 559.638 102.372 559.757 102.283C559.82 102.237 559.898 102.292 559.967 102.316C560.303 102.432 560.592 102.657 560.939 102.745C561.5 102.887 562.01 103.16 562.524 103.408C563.078 103.676 563.669 103.859 564.195 104.198C564.725 104.54 565.308 104.8 565.852 105.124C566.104 105.274 566.304 105.51 566.552 105.67C567.176 106.074 567.734 106.565 568.323 107.012C568.557 107.189 568.803 107.383 569.027 107.593C569.443 107.983 569.826 108.405 570.246 108.789C570.451 108.975 570.666 109.152 570.854 109.354C571.03 109.544 571.169 109.768 571.339 109.965C572.117 110.862 572.851 111.793 573.496 112.792C573.847 113.337 574.222 113.868 574.565 114.418C574.78 114.761 574.961 115.125 575.146 115.485C575.259 115.705 575.43 115.888 575.517 116.124C575.674 116.554 575.964 116.919 576.054 117.389C576.14 117.832 576.334 118.251 576.53 118.664C576.622 118.859 576.659 119.092 576.721 119.308C576.821 119.659 576.961 119.998 577.055 120.349C577.112 120.564 577.173 120.782 577.219 121.001C577.239 121.095 577.256 121.185 577.322 121.259C577.355 121.294 577.378 121.332 577.375 121.384C577.346 121.807 577.522 122.193 577.584 122.599C577.628 122.882 577.662 123.169 577.733 123.444C577.782 123.631 577.699 123.848 577.867 124.016C577.909 124.058 577.839 124.176 577.845 124.273C577.873 124.75 577.932 125.223 577.976 125.698C578.009 126.05 578.009 126.404 578.023 126.757C578.043 127.228 578.08 127.699 578.077 128.169C578.075 128.538 578.032 128.908 577.99 129.275C577.978 129.382 577.969 129.488 577.972 129.595C577.98 129.879 577.891 130.148 577.849 130.424C577.771 130.933 577.706 131.444 577.652 131.957C577.617 132.292 577.474 132.602 577.44 132.935C577.387 133.447 577.138 133.907 577.054 134.408C577.01 134.667 576.86 134.903 576.907 135.18C576.921 135.259 576.824 135.302 576.797 135.382C576.542 136.128 576.283 136.873 576.01 137.613C575.772 138.257 575.455 138.864 575.137 139.472C574.993 139.747 574.858 140.033 574.716 140.309C574.587 140.56 574.445 140.815 574.283 141.054C574.009 141.46 573.735 141.869 573.503 142.299C573.099 143.047 572.52 143.664 572.031 144.348C571.848 144.604 571.582 144.775 571.392 145.027C571.059 145.47 570.625 145.827 570.288 146.269C570.18 146.412 570.004 146.467 569.879 146.589C569.558 146.904 569.194 147.169 568.853 147.461C568.657 147.63 568.474 147.816 568.293 148.002C568.132 148.166 567.914 148.246 567.739 148.391C567.326 148.731 566.863 149.004 566.439 149.332C566.251 149.478 565.998 149.58 565.84 149.73C565.638 149.922 565.309 149.889 565.173 150.166C565.157 150.2 565.004 150.184 564.907 150.244C564.429 150.546 563.918 150.79 563.413 151.046C562.924 151.294 562.439 151.553 561.941 151.783C561.565 151.957 561.162 152.074 560.799 152.277C560.158 152.635 559.448 152.792 558.758 153.012C558.32 153.152 557.904 153.356 557.458 153.475C557.18 153.549 556.911 153.652 556.633 153.722C556.101 153.855 555.567 153.973 555.033 154.098C554.417 154.242 553.803 154.394 553.185 154.527C552.752 154.621 552.324 154.735 551.884 154.808C551.264 154.912 550.645 155.027 550.028 155.15C549.712 155.212 549.382 155.196 549.059 155.228C548.425 155.291 547.792 155.372 547.158 155.428C546.617 155.476 546.081 155.566 545.538 155.595C545.098 155.619 544.662 155.689 544.223 155.722C543.872 155.748 543.519 155.747 543.166 155.766C542.416 155.805 541.663 155.801 540.914 155.848C540.617 155.867 540.318 155.832 540.018 155.915C539.903 155.947 539.727 155.851 539.576 155.871C539.174 155.922 538.773 155.93 538.371 155.872C537.86 155.799 537.343 155.84 536.829 155.81C536.189 155.772 535.547 155.758 534.908 155.685C534.464 155.633 534.015 155.611 533.567 155.587C533.042 155.561 532.52 155.47 531.996 155.415C531.412 155.354 530.826 155.314 530.244 155.24C529.888 155.195 529.544 155.078 529.185 155.037C528.633 154.974 528.082 154.903 527.534 154.814C527.277 154.772 527.018 154.701 526.766 154.677C526.362 154.639 525.979 154.513 525.605 154.4C525.205 154.279 524.8 154.162 524.398 154.042C523.784 153.858 523.151 153.734 522.54 153.538C522.163 153.417 521.779 153.311 521.406 153.165C520.998 153.006 520.578 152.866 520.162 152.719C519.54 152.499 518.93 152.249 518.327 151.976C517.785 151.731 517.267 151.43 516.709 151.223C516.326 151.081 516.02 150.813 515.652 150.65C515.236 150.466 514.879 150.184 514.499 149.94C514.286 149.804 514.065 149.678 513.839 149.564C513.613 149.45 513.399 149.319 513.229 149.134C513.059 148.951 512.813 148.9 512.627 148.743C512.265 148.437 511.858 148.192 511.509 147.859C511.214 147.576 510.886 147.3 510.493 147.135C510.461 147.122 510.437 147.106 510.417 147.076C510.058 146.536 509.546 146.139 509.088 145.696C508.898 145.512 508.775 145.289 508.595 145.104C508.284 144.785 508.043 144.406 507.717 144.094C507.573 143.957 507.482 143.745 507.36 143.571C507.157 143.281 506.951 142.993 506.73 142.717C506.45 142.367 506.213 141.988 505.992 141.6C505.755 141.183 505.532 140.755 505.284 140.346C505.018 139.906 504.793 139.445 504.533 139.002C504.389 138.759 504.333 138.469 504.197 138.216C503.841 137.55 503.617 136.831 503.353 136.127C503.174 135.649 503.034 135.159 502.903 134.672C502.727 134.022 502.515 133.376 502.472 132.687C502.45 132.331 502.321 131.971 502.272 131.607C502.244 131.402 502.218 131.197 502.179 130.901Z" stroke="#181818" stroke-width="1.99038" mask="url(#path-17-inside-1_196_63874)"/>
<defs>
<clipPath id="clip0_196_63874">
<rect width="1069.83" height="801.13" fill="white"/>
</clipPath>
</defs>
</svg>
