<svg width="551" height="346" viewBox="0 0 551 346" fill="none" xmlns="http://www.w3.org/2000/svg">
<path d="M131.605 49.7966C151.827 51.6185 167.677 68.5615 167.677 88.9661C167.677 110.828 150.005 128.5 128.143 128.5H68.7513L78.5892 118.298V11.1737L68.7513 0.971369H116.848C133.609 0.971369 146.362 12.4489 146.362 27.7524C146.362 38.319 140.532 44.1489 131.605 49.7966ZM89.5202 2.24666V81.4966C93.1639 69.6546 104.641 63.4604 113.204 58.7236C126.504 51.4363 134.884 39.0478 134.884 28.4811C134.884 18.461 129.783 2.61102 107.921 2.24666H89.5202ZM156.199 88.9661C156.199 69.8368 145.451 51.9828 129.965 50.7075C127.232 52.5294 118.123 57.2661 116.119 58.3593C103.731 65.1001 89.7024 72.5696 89.5202 88.9661V127.225H128.143C145.997 127.225 156.199 107.367 156.199 88.9661ZM191.786 2.7932V118.298L201.624 128.5H171.018L180.855 118.298V15.9104L171.018 9.35182L191.786 2.7932ZM206.33 83.3184C206.33 56.7196 227.645 36.4972 252.422 36.4972C278.475 36.4972 298.879 57.9949 298.879 82.5897C298.879 109.189 277.564 129.411 252.787 129.411C226.734 129.411 206.33 107.913 206.33 83.3184ZM217.443 73.6627C217.443 100.262 238.03 126.496 259.892 126.496C275.742 126.496 287.766 112.832 287.766 92.2454C287.766 65.6466 267.179 39.4121 245.317 39.4121C229.467 39.4121 217.443 53.0759 217.443 73.6627ZM389.143 104.087H396.612C388.596 119.573 373.293 129.411 355.439 129.411C329.751 129.411 309.164 108.642 309.164 82.9541C309.164 57.084 330.297 36.4972 355.621 36.4972C370.742 36.4972 385.499 44.3311 394.062 57.2661H378.94C370.56 45.9708 358.9 39.0478 347.969 39.0478C331.026 39.0478 320.277 54.5334 320.277 73.1161C320.277 100.808 340.864 126.678 363.09 126.678C376.936 126.678 386.046 116.84 389.143 104.087ZM472.497 119.391L480.878 128.5H453.55L460.838 120.666L434.421 66.011C428.045 72.7518 420.939 83.3184 420.939 93.5207V118.116L430.777 128.5H400.171L410.008 118.116V15.7283L400.171 9.16964L420.939 2.7932V84.9581C422.944 78.0351 432.053 60.7276 459.016 45.6064L453.915 37.4081H478.51C461.931 45.242 454.279 48.8857 442.802 58.1771L472.497 119.391ZM103.941 215.346C137.127 218.335 163.137 246.139 163.137 279.624C163.137 315.5 134.137 344.5 98.2609 344.5H0.797285L16.9416 327.758V151.964L0.797285 135.222H79.7249C107.23 135.222 128.158 154.057 128.158 179.171C128.158 196.511 118.591 206.078 103.941 215.346ZM34.8797 137.315V267.366C40.859 247.933 59.694 237.768 73.7455 229.995C95.5702 218.036 109.323 197.707 109.323 180.366C109.323 163.923 100.952 137.913 65.0755 137.315H34.8797ZM144.302 279.624C144.302 248.232 126.663 218.933 101.251 216.841C96.7661 219.83 81.8177 227.603 78.529 229.397C58.1992 240.459 35.1786 252.717 34.8797 279.624V342.407H98.2609C127.56 342.407 144.302 309.82 144.302 279.624ZM176.058 270.356C176.058 226.707 211.037 193.521 251.697 193.521C294.449 193.521 327.934 228.799 327.934 269.16C327.934 312.809 292.955 345.995 252.295 345.995C209.542 345.995 176.058 310.717 176.058 270.356ZM194.295 254.511C194.295 298.16 228.079 341.211 263.955 341.211C289.965 341.211 309.697 318.789 309.697 285.005C309.697 241.356 275.913 198.305 240.037 198.305C214.027 198.305 194.295 220.727 194.295 254.511ZM255.121 270.356C255.121 226.707 290.1 193.521 330.76 193.521C373.513 193.521 406.997 228.799 406.997 269.16C406.997 312.809 372.018 345.995 331.358 345.995C288.606 345.995 255.121 310.717 255.121 270.356ZM273.358 254.511C273.358 298.16 307.142 341.211 343.018 341.211C369.028 341.211 388.76 318.789 388.76 285.005C388.76 241.356 354.977 198.305 319.1 198.305C293.09 198.305 273.358 220.727 273.358 254.511ZM536.586 329.552L550.338 344.5H505.493L517.452 331.644L474.101 241.954C463.637 253.016 451.978 270.356 451.978 287.098V327.459L468.122 344.5H417.895L434.04 327.459V159.439L417.895 148.676L451.978 138.212V273.047C455.266 261.686 470.215 233.284 514.462 208.469L506.091 195.016H546.452C519.246 207.872 506.689 213.851 487.854 229.098L536.586 329.552Z" fill="#111111"/>
</svg>
