<svg width="24" height="25" viewBox="0 0 24 25" fill="none" xmlns="http://www.w3.org/2000/svg">
<path fill-rule="evenodd" clip-rule="evenodd" d="M5 2.70276C2.79086 2.70276 1 4.49362 1 6.70276V18.7028C1 19.9635 1.58324 21.088 2.49462 21.8211C2.51746 21.7951 2.54108 21.7695 2.5655 21.7443L10.9273 13.1373C11.6969 12.345 12.9631 12.3267 13.7554 13.0964L14.4082 13.7306L16.9489 11.1153C17.7205 10.3448 18.9705 10.3339 19.7554 11.0964L23 14.2486V6.70276C23 4.49362 21.2091 2.70276 19 2.70276H5ZM11.1719 7.70276C11.1719 9.35961 9.82872 10.7028 8.17187 10.7028C6.51502 10.7028 5.17187 9.35961 5.17187 7.70276C5.17187 6.0459 6.51502 4.70276 8.17187 4.70276C9.82872 4.70276 11.1719 6.0459 11.1719 7.70276Z" fill="#DFD4BF"/>
<path d="M23 17.037L19.079 13.2277C18.6829 12.8429 18.0498 12.852 17.6649 13.2482L15.8425 15.1241L22.1125 21.2154C22.6676 20.5287 23 19.6545 23 18.7028V17.037Z" fill="#DFD4BF"/>
<path d="M20.4348 22.4377C20.3876 22.3504 20.3265 22.2687 20.2515 22.1959L13.079 15.2277C12.6829 14.8429 12.0498 14.852 11.6649 15.2482L4.69681 22.4207C4.62229 22.4974 4.56255 22.583 4.51752 22.674C4.67569 22.693 4.8367 22.7028 5 22.7028H19C19.5057 22.7028 19.9894 22.6089 20.4348 22.4377Z" fill="#DFD4BF"/>
</svg>
