<svg width="28" height="15" viewBox="0 0 28 15" fill="none" xmlns="http://www.w3.org/2000/svg">
<path d="M10.3187 4.95554C8.61147 3.15608 6.21645 2.00934 4.20595 3.98539C3.54897 4.62918 3.07875 5.50543 2.87221 6.44428C2.62611 7.55748 2.81068 8.57457 3.26552 9.41283C3.66982 10.1594 4.28725 10.7697 5.01454 11.1899C5.74403 11.6124 6.5746 11.8404 7.39857 11.8158C8.30385 11.789 9.20912 11.4492 9.96938 10.7183C11.0438 9.6833 11.9821 8.13644 12.8983 6.62758C13.9003 4.97789 14.8759 3.37067 16.0734 2.28429C16.9281 1.50863 17.8422 1.00791 18.7694 0.73296C20.101 0.339538 21.4325 0.426717 22.6432 0.855904C23.8341 1.27615 24.902 2.02276 25.7238 2.9616C26.4225 3.75739 26.9542 4.70518 27.2443 5.71779C27.6662 7.19312 27.4113 8.96128 26.6422 10.5081C26.0973 11.6012 25.2887 12.6049 24.2736 13.3292C23.2299 14.0735 21.973 14.5228 20.5668 14.4804C18.9584 14.4312 17.183 13.7427 15.3527 12.1109L16.8754 10.3405C18.2619 11.5766 19.5297 12.0952 20.6305 12.1288C21.505 12.1556 22.2916 11.8717 22.9508 11.4023C23.6386 10.9127 24.1945 10.2176 24.5768 9.44859C25.0954 8.40692 25.2799 7.26912 25.025 6.37498C24.8361 5.71332 24.4757 5.08072 23.9945 4.53082C23.4232 3.8781 22.6937 3.36397 21.8939 3.08008C21.1139 2.80513 20.2592 2.74478 19.4154 2.99513C18.8156 3.17173 18.2069 3.5115 17.6159 4.04798C16.6557 4.91977 15.7724 6.37275 14.8671 7.86596C13.8695 9.50895 12.8478 11.1922 11.5646 12.4261C10.3605 13.5862 8.91249 14.1249 7.4623 14.1697C6.20766 14.2077 4.95741 13.8701 3.87196 13.2397C2.78212 12.6094 1.85048 11.6839 1.23524 10.5484C0.52333 9.23623 0.235489 7.65137 0.615616 5.92791C0.921036 4.54647 1.62196 3.2522 2.60414 2.28876C3.26552 1.64051 4.05434 1.13756 4.93983 0.853668C5.83192 0.567544 6.81191 0.507189 7.84901 0.744136C9.18495 1.05038 10.5978 1.85287 11.9909 3.32373L10.3187 4.95554Z" fill="#DFD4BF"/>
</svg>
