<svg width="1108" height="290" viewBox="0 0 1108 290" fill="none" xmlns="http://www.w3.org/2000/svg">
<path d="M165.735 142.027C191.088 144.311 210.96 165.553 210.96 191.135C210.96 218.544 188.804 240.699 161.395 240.699H86.9345L99.2685 227.908V93.6049L86.9345 80.8141H147.234C168.247 80.8141 184.236 95.2038 184.236 114.39C184.236 127.638 176.927 134.947 165.735 142.027ZM112.973 82.413V181.77C117.541 166.924 131.931 159.158 142.666 153.219C159.34 144.083 169.846 128.551 169.846 115.304C169.846 102.741 163.451 82.8698 136.042 82.413H112.973ZM196.57 191.135C196.57 167.152 183.094 144.768 163.679 143.169C160.253 145.453 148.833 151.392 146.32 152.762C130.789 161.213 113.201 170.578 112.973 191.135V239.1H161.395C183.779 239.1 196.57 214.204 196.57 191.135ZM241.186 83.0982V227.908L253.52 240.699H215.148L227.482 227.908V99.5435L215.148 91.3209L241.186 83.0982ZM259.419 184.054C259.419 150.707 286.143 125.354 317.206 125.354C349.869 125.354 375.45 152.306 375.45 183.141C375.45 216.488 348.726 241.841 317.663 241.841C285.001 241.841 259.419 214.889 259.419 184.054ZM273.352 171.949C273.352 205.296 299.162 238.187 326.571 238.187C346.442 238.187 361.517 221.056 361.517 195.246C361.517 161.899 335.707 129.008 308.298 129.008C288.427 129.008 273.352 146.139 273.352 171.949ZM488.615 210.093H497.98C487.93 229.507 468.744 241.841 446.36 241.841C414.154 241.841 388.344 215.803 388.344 183.597C388.344 151.164 414.84 125.354 446.588 125.354C465.546 125.354 484.047 135.175 494.782 151.392H475.824C465.318 137.231 450.7 128.551 436.995 128.551C415.753 128.551 402.277 147.966 402.277 171.263C402.277 205.981 428.087 238.415 455.953 238.415C473.312 238.415 484.732 226.081 488.615 210.093ZM593.118 229.279L603.625 240.699H569.364L578.5 230.878L545.381 162.355C537.387 170.807 528.479 184.054 528.479 196.845V227.68L540.813 240.699H502.441L514.775 227.68V99.3151L502.441 91.0925L528.479 83.0982V186.11C530.992 177.43 542.412 155.732 576.216 136.774L569.821 126.496H600.656C579.871 136.317 570.278 140.885 555.888 152.534L593.118 229.279ZM686.789 142.027C712.142 144.311 732.013 165.553 732.013 191.135C732.013 218.544 709.858 240.699 682.449 240.699H607.988L620.322 227.908V93.6049L607.988 80.8141H668.288C689.301 80.8141 705.29 95.2038 705.29 114.39C705.29 127.638 697.981 134.947 686.789 142.027ZM634.027 82.413V181.77C638.595 166.924 652.984 159.158 663.719 153.219C680.393 144.083 690.9 128.551 690.9 115.304C690.9 102.741 684.505 82.8698 657.096 82.413H634.027ZM717.624 191.135C717.624 167.152 704.148 144.768 684.733 143.169C681.307 145.453 669.886 151.392 667.374 152.762C651.842 161.213 634.255 170.578 634.027 191.135V239.1H682.449C704.833 239.1 717.624 214.204 717.624 191.135ZM741.885 184.054C741.885 150.707 768.608 125.354 799.672 125.354C832.334 125.354 857.915 152.306 857.915 183.141C857.915 216.488 831.192 241.841 800.128 241.841C767.466 241.841 741.885 214.889 741.885 184.054ZM755.817 171.949C755.817 205.296 781.627 238.187 809.036 238.187C828.908 238.187 843.983 221.056 843.983 195.246C843.983 161.899 818.173 129.008 790.764 129.008C770.892 129.008 755.817 146.139 755.817 171.949ZM802.288 184.054C802.288 150.707 829.011 125.354 860.075 125.354C892.737 125.354 918.318 152.306 918.318 183.141C918.318 216.488 891.595 241.841 860.531 241.841C827.869 241.841 802.288 214.889 802.288 184.054ZM816.22 171.949C816.22 205.296 842.03 238.187 869.439 238.187C889.311 238.187 904.386 221.056 904.386 195.246C904.386 161.899 878.576 129.008 851.167 129.008C831.295 129.008 816.22 146.139 816.22 171.949ZM1014.65 229.279L1025.15 240.699H990.891L1000.03 230.878L966.908 162.355C958.914 170.807 950.006 184.054 950.006 196.845V227.68L962.34 240.699H923.968L936.302 227.68V99.3151L923.968 91.0925L950.006 83.0982V186.11C952.519 177.43 963.939 155.732 997.743 136.774L991.348 126.496H1022.18C1001.4 136.317 991.805 140.885 977.415 152.534L1014.65 229.279Z" fill="#181818"/>
</svg>
