<svg width="63" height="88" viewBox="0 0 63 88" fill="none" xmlns="http://www.w3.org/2000/svg">
<path d="M30.0818 22.1732C39.2181 22.9963 46.3789 30.651 46.3789 39.8695C46.3789 49.7465 38.395 57.7305 28.518 57.7305H1.68541L6.13006 53.1212V4.72382L1.68541 0.114545H23.4148C30.9872 0.114545 36.7488 5.29998 36.7488 12.2139C36.7488 16.9878 34.1149 19.6217 30.0818 22.1732ZM11.0686 0.690707V36.4949C12.7147 31.1448 17.9002 28.3463 21.7687 26.2063C27.7772 22.914 31.5634 17.317 31.5634 12.5431C31.5634 8.01616 29.2587 0.855322 19.3817 0.690707H11.0686ZM41.1935 39.8695C41.1935 31.2271 36.3373 23.1609 29.3411 22.5848C28.1064 23.4078 23.991 25.5479 23.0856 26.0417C17.4886 29.0871 11.1509 32.4618 11.0686 39.8695V57.1543H28.518C36.5842 57.1543 41.1935 48.1827 41.1935 39.8695Z" fill="#181818"/>
<path fill-rule="evenodd" clip-rule="evenodd" d="M45.7615 49.1607C47.5471 46.655 48.5973 43.589 48.5973 40.2778C48.5973 37.0969 47.6281 34.1423 45.9689 31.6934C50.1841 33.675 52.9482 37.6346 52.9482 42.4234C52.9482 47.1972 50.3143 49.8311 46.2812 52.3827C55.4174 53.2058 62.5783 60.8605 62.5783 70.079C62.5783 79.956 54.5943 87.9399 44.7173 87.9399H17.8848L22.3294 83.3307V59.3222L27.2679 59.3222V66.7044C28.889 61.4357 33.9425 58.6416 37.7905 56.514L37.968 56.4158C41.3758 54.5485 44.0687 51.94 45.7615 49.1607ZM57.3928 70.079C57.3928 61.4366 52.5366 53.3704 45.5404 52.7942C44.5738 53.4386 41.8416 54.8902 40.2663 55.7271L40.2661 55.7272C39.8293 55.9592 39.4815 56.144 39.285 56.2512L39.1199 56.341C33.5641 59.3633 27.3494 62.744 27.2679 70.079V87.3638H44.7173C52.7836 87.3638 57.3928 78.3922 57.3928 70.079Z" fill="#181818"/>
</svg>
