<svg width="77" height="58" viewBox="0 0 77 58" fill="none" xmlns="http://www.w3.org/2000/svg">
<path d="M58.7254 22.4354C59.3584 22.4354 59.7478 22.8493 59.7478 23.823L59.7478 24.1395L60.0156 24.1395L60.0156 19.0273L59.7478 19.0273L59.7478 19.3438C59.7478 20.3175 59.3584 20.7314 58.7254 20.7314L19.1927 20.7314C18.5598 20.7314 18.1703 20.3175 18.1703 19.3438L18.1703 19.0273L17.9025 19.0273L17.9025 24.1395L18.1703 24.1395L18.1703 23.823C18.1703 22.8493 18.5598 22.4354 19.1927 22.4354L58.7254 22.4354Z" fill="#181818"/>
<path d="M58.7254 29.16C59.3584 29.16 59.7478 29.5739 59.7478 30.5476L59.7478 30.8641L60.0156 30.8641L60.0156 25.752L59.7478 25.752L59.7478 26.0684C59.7478 27.0422 59.3584 27.456 58.7254 27.456L19.1927 27.456C18.5598 27.456 18.1703 27.0422 18.1703 26.0684L18.1703 25.752L17.9025 25.752L17.9025 30.8641L18.1703 30.8641L18.1703 30.5476C18.1703 29.5739 18.5598 29.16 19.1927 29.16L58.7254 29.16Z" fill="#181818"/>
<path d="M58.7254 35.8846C59.3584 35.8846 59.7478 36.2985 59.7478 37.2722L59.7478 37.5887L60.0156 37.5887L60.0156 32.4766L59.7478 32.4766L59.7478 32.793C59.7478 33.7668 59.3584 34.1806 58.7254 34.1806L19.1927 34.1806C18.5598 34.1806 18.1703 33.7668 18.1703 32.793L18.1703 32.4766L17.9025 32.4766L17.9025 37.5887L18.1703 37.5887L18.1703 37.2722C18.1703 36.2985 18.5598 35.8846 19.1927 35.8846L58.7254 35.8846Z" fill="#181818"/>
<mask id="path-4-inside-1_152_225289" fill="white">
<path d="M0.734831 32.2786C0.653258 32.1118 0.775412 31.8232 0.632567 31.5666C0.536788 31.3952 0.618353 31.1777 0.493361 30.9893C0.455214 30.9319 0.477538 30.7074 0.522589 30.5722C0.645552 30.1996 0.588324 29.8229 0.594817 29.4441C0.60578 28.7617 0.446692 28.0836 0.547339 27.4021C0.62445 26.8806 0.594413 26.3416 0.731582 25.8364C0.810317 25.5456 0.769324 25.2384 0.906493 24.9598C0.976706 24.817 0.914206 24.6428 0.947081 24.4816C1.05138 23.9721 1.16866 23.4657 1.28107 22.9584C1.42068 22.3263 1.55095 21.6888 1.73073 21.0698C1.85734 20.633 1.96571 20.1874 2.12438 19.7571C2.45067 18.8715 2.85001 18.0184 3.23635 17.1592C3.51312 16.5427 3.87714 15.9731 4.22656 15.3969C4.66202 14.6783 5.09016 13.9548 5.58365 13.2727C5.90304 12.8314 6.25773 12.42 6.62013 12.0151C7.06005 11.5238 7.48617 11.0188 7.94759 10.5484C8.64481 9.83809 9.33511 9.12103 10.0904 8.46793C10.6358 7.99612 11.262 7.63717 11.8107 7.17647C12.2181 6.83428 12.7152 6.63713 13.1219 6.2983C13.2173 6.21888 13.3528 6.18987 13.4624 6.12562C13.8747 5.88468 14.2744 5.62085 14.6977 5.40142C14.9526 5.26912 15.2273 5.16978 15.487 5.04231C15.875 4.85198 16.2553 4.64423 16.651 4.47208C17.1367 4.26056 17.6318 4.06792 18.1298 3.88558C18.7544 3.65682 19.3931 3.46522 20.0128 3.22372C20.6918 2.95891 21.4117 2.85563 22.1028 2.64391C22.516 2.51738 22.9474 2.46222 23.354 2.3238C23.6064 2.238 23.901 2.28687 24.1149 2.08411C24.6234 2.07373 25.108 1.91448 25.6071 1.8424C26.3981 1.72829 27.1809 1.55959 27.9699 1.43126C28.411 1.35955 28.8655 1.35813 29.2994 1.26041C29.7551 1.15778 30.2133 1.08684 30.6739 1.06281C31.4592 1.02182 32.2412 0.93867 33.024 0.875889C33.957 0.801055 34.8925 0.783279 35.8242 0.710311C36.1939 0.681335 36.5646 0.685068 36.9348 0.640793C37.4632 0.577565 38.0002 0.566568 38.533 0.594652C39.2615 0.633083 39.9901 0.616079 40.7182 0.612223C40.9995 0.610681 41.2844 0.616484 41.5689 0.59461C41.7971 0.577078 42.0673 0.622207 42.3058 0.679104C42.5963 0.748419 42.8818 0.689126 43.1678 0.724839C43.7538 0.798091 44.3494 0.736894 44.9314 0.80698C45.4636 0.87106 45.9992 0.914076 46.5301 0.995688C46.9082 1.05376 47.2927 1.07032 47.6745 1.10376C48.1847 1.14844 48.6883 1.24588 49.1963 1.30128C49.609 1.34628 50.0101 1.45691 50.4356 1.45229C50.6829 1.44961 50.9447 1.5783 51.2073 1.62687C51.6628 1.71108 52.1085 1.85864 52.5663 1.91704C52.969 1.96837 53.3325 2.1357 53.723 2.21674C54.0603 2.28671 54.4033 2.34868 54.7298 2.45111C55.0618 2.55524 55.4049 2.60077 55.7365 2.70459C56.1779 2.84285 56.6404 2.91424 57.0812 3.05404C57.461 3.17453 57.8496 3.2583 58.2294 3.37534C58.2778 3.39027 58.3012 3.4315 58.3349 3.46368C58.4048 3.53048 58.472 3.61108 58.5911 3.52249C58.6542 3.47557 58.7326 3.53126 58.8026 3.55528C59.1403 3.67135 59.43 3.89776 59.7788 3.98611C60.343 4.12904 60.8551 4.40285 61.3714 4.65276C61.928 4.92219 62.5221 5.10529 63.0503 5.44607C63.5835 5.79005 64.1692 6.0516 64.7156 6.37671C64.9692 6.52764 65.1703 6.76488 65.4192 6.92583C66.0461 7.33113 66.6064 7.82498 67.1987 8.27403C67.4335 8.45211 67.6813 8.64715 67.9059 8.85753C68.3239 9.24919 68.7089 9.67336 69.1315 10.0592C69.3368 10.2468 69.5529 10.4246 69.7418 10.6276C69.9192 10.8182 70.0587 11.0435 70.2297 11.2407C71.0114 12.1428 71.7491 13.0776 72.3966 14.0821C72.7496 14.6299 73.126 15.1628 73.4711 15.7153C73.6865 16.06 73.8692 16.4258 74.0551 16.7879C74.1684 17.0086 74.3403 17.1924 74.4273 17.4298C74.5854 17.8615 74.8762 18.2288 74.9673 18.7015C75.053 19.1458 75.2482 19.5667 75.445 19.9824C75.5375 20.1777 75.5747 20.4122 75.6369 20.6291C75.7379 20.9821 75.8784 21.3229 75.9726 21.6748C76.0304 21.8911 76.0919 22.1101 76.1379 22.3309C76.1576 22.4253 76.175 22.5158 76.2415 22.5893C76.2739 22.6252 76.2975 22.6634 76.294 22.7157C76.2652 23.1401 76.4424 23.5285 76.5047 23.936C76.5483 24.2205 76.5828 24.5093 76.6546 24.7851C76.7037 24.9736 76.6195 25.1915 76.7893 25.3604C76.8313 25.4022 76.7608 25.5204 76.7665 25.618C76.7946 26.0973 76.8543 26.5729 76.8986 27.0503C76.9313 27.4035 76.9311 27.7598 76.9458 28.1146C76.9655 28.5876 77.0025 29.0607 76.9999 29.5335C76.9978 29.904 76.9549 30.2752 76.9126 30.6441C76.9002 30.752 76.8913 30.8587 76.8945 30.9655C76.9028 31.2516 76.8134 31.5215 76.7707 31.7991C76.6921 32.3105 76.6267 32.8243 76.5727 33.339C76.5373 33.6761 76.3941 33.9875 76.3596 34.3221C76.3063 34.8368 76.0568 35.2993 75.9719 35.8026C75.9282 36.062 75.7773 36.2999 75.8246 36.5781C75.8382 36.6577 75.7407 36.7007 75.7134 36.7808C75.4571 37.5307 75.1973 38.2796 74.9229 39.023C74.6841 39.6698 74.3656 40.2798 74.0454 40.8903C73.9006 41.1666 73.7655 41.4547 73.6229 41.7318C73.493 41.9842 73.3503 42.2399 73.1878 42.4804C72.9123 42.888 72.6373 43.299 72.4038 43.731C71.9975 44.4825 71.4159 45.103 70.9248 45.7904C70.7412 46.0475 70.4736 46.2193 70.283 46.4725C69.948 46.9175 69.5116 47.276 69.1734 47.7204C69.0642 47.8639 68.8879 47.9198 68.7626 48.0423C68.4394 48.3582 68.0739 48.6246 67.7318 48.9182C67.5341 49.0878 67.3508 49.275 67.1685 49.4615C67.0064 49.6272 66.7881 49.7076 66.6115 49.8531C66.1966 50.195 65.7316 50.469 65.3058 50.7983C65.1164 50.9447 64.8628 51.0479 64.7042 51.1981C64.5005 51.3912 64.1703 51.3578 64.0337 51.6366C64.0173 51.6702 63.8632 51.6542 63.7667 51.715C63.2857 52.0179 62.7722 52.2637 62.2653 52.5206C61.7735 52.7699 61.2864 53.0297 60.7863 53.2615C60.4086 53.4365 60.0035 53.554 59.6389 53.7578C58.9947 54.1177 58.2809 54.2753 57.588 54.4966C57.1478 54.6371 56.7298 54.8418 56.2809 54.9616C56.0024 55.0359 55.7315 55.1394 55.452 55.2094C54.9182 55.3431 54.3806 55.462 53.8447 55.5872C53.226 55.7318 52.6091 55.8847 51.9881 56.0186C51.5523 56.1125 51.1224 56.2273 50.6801 56.301C50.0576 56.4048 49.4355 56.5213 48.8154 56.6442C48.4982 56.707 48.1662 56.691 47.8421 56.7231C47.2048 56.7863 46.569 56.8671 45.9311 56.9237C45.3876 56.9719 44.8491 57.0622 44.3032 57.092C43.8619 57.1161 43.4233 57.1865 42.9822 57.2194C42.6292 57.2458 42.2745 57.2448 41.9205 57.2632C41.1665 57.3024 40.4102 57.2991 39.6568 57.3462C39.3592 57.3648 39.0583 57.33 38.757 57.4131C38.641 57.4451 38.465 57.3494 38.3129 57.3689C37.9088 57.4207 37.506 57.4279 37.1023 57.3701C36.5882 57.2967 36.0694 57.3377 35.5527 57.3074C34.9091 57.2697 34.2646 57.2556 33.6222 57.1816C33.1758 57.1301 32.7249 57.1072 32.2745 57.0841C31.7469 57.057 31.2226 56.9663 30.6962 56.911C30.1094 56.8493 29.5205 56.809 28.9353 56.7349C28.5782 56.6897 28.2328 56.572 27.8717 56.5307C27.3173 56.4672 26.7633 56.3963 26.2126 56.3068C25.9549 56.265 25.694 56.1937 25.4408 56.1695C25.0345 56.1307 24.6498 56.0049 24.2744 55.8913C23.8722 55.7696 23.4656 55.6514 23.0618 55.5309C22.4441 55.3463 21.8082 55.2216 21.1946 55.0246C20.8155 54.9027 20.43 54.7962 20.0546 54.6501C19.6447 54.4904 19.2227 54.3492 18.8055 54.2016C18.1801 53.9804 17.5669 53.7296 16.9614 53.4554C16.4164 53.2086 15.8961 52.9063 15.3353 52.6988C14.9501 52.5562 14.6429 52.2863 14.2732 52.1226C13.8556 51.9376 13.4965 51.6543 13.1146 51.4095C12.9007 51.2724 12.6783 51.1461 12.4515 51.0318C12.2242 50.9174 12.0095 50.7851 11.8382 50.5995C11.6682 50.4152 11.4207 50.3644 11.234 50.2068C10.8695 49.8994 10.4613 49.6529 10.1106 49.3178C9.81358 49.0341 9.48405 48.7561 9.08918 48.5909C9.05752 48.5775 9.03318 48.5617 9.01288 48.5311C8.65251 47.9885 8.13752 47.59 7.67731 47.1446C7.48617 46.96 7.3632 46.736 7.1822 46.5504C6.86971 46.2298 6.62784 45.8483 6.29953 45.5352C6.15505 45.3974 6.06374 45.1846 5.94159 45.0098C5.73746 44.718 5.53049 44.4291 5.30809 44.1511C5.02685 43.8002 4.78823 43.4187 4.56705 43.0293C4.32883 42.6098 4.10401 42.1802 3.85524 41.7689C3.5878 41.3267 3.36175 40.8633 3.10039 40.4187C2.95633 40.174 2.89951 39.8833 2.76275 39.6282C2.40481 38.9594 2.17998 38.2367 1.91498 37.5294C1.73479 37.0494 1.59396 36.5564 1.46248 36.068C1.28634 35.4146 1.07329 34.7657 1.02987 34.073C1.00755 33.715 0.877684 33.3536 0.828574 32.9872C0.800978 32.7815 0.774199 32.5758 0.734831 32.2786Z"/>
</mask>
<path d="M0.734831 32.2786C0.653258 32.1118 0.775412 31.8232 0.632567 31.5666C0.536788 31.3952 0.618353 31.1777 0.493361 30.9893C0.455214 30.9319 0.477538 30.7074 0.522589 30.5722C0.645552 30.1996 0.588324 29.8229 0.594817 29.4441C0.60578 28.7617 0.446692 28.0836 0.547339 27.4021C0.62445 26.8806 0.594413 26.3416 0.731582 25.8364C0.810317 25.5456 0.769324 25.2384 0.906493 24.9598C0.976706 24.817 0.914206 24.6428 0.947081 24.4816C1.05138 23.9721 1.16866 23.4657 1.28107 22.9584C1.42068 22.3263 1.55095 21.6888 1.73073 21.0698C1.85734 20.633 1.96571 20.1874 2.12438 19.7571C2.45067 18.8715 2.85001 18.0184 3.23635 17.1592C3.51312 16.5427 3.87714 15.9731 4.22656 15.3969C4.66202 14.6783 5.09016 13.9548 5.58365 13.2727C5.90304 12.8314 6.25773 12.42 6.62013 12.0151C7.06005 11.5238 7.48617 11.0188 7.94759 10.5484C8.64481 9.83809 9.33511 9.12103 10.0904 8.46793C10.6358 7.99612 11.262 7.63717 11.8107 7.17647C12.2181 6.83428 12.7152 6.63713 13.1219 6.2983C13.2173 6.21888 13.3528 6.18987 13.4624 6.12562C13.8747 5.88468 14.2744 5.62085 14.6977 5.40142C14.9526 5.26912 15.2273 5.16978 15.487 5.04231C15.875 4.85198 16.2553 4.64423 16.651 4.47208C17.1367 4.26056 17.6318 4.06792 18.1298 3.88558C18.7544 3.65682 19.3931 3.46522 20.0128 3.22372C20.6918 2.95891 21.4117 2.85563 22.1028 2.64391C22.516 2.51738 22.9474 2.46222 23.354 2.3238C23.6064 2.238 23.901 2.28687 24.1149 2.08411C24.6234 2.07373 25.108 1.91448 25.6071 1.8424C26.3981 1.72829 27.1809 1.55959 27.9699 1.43126C28.411 1.35955 28.8655 1.35813 29.2994 1.26041C29.7551 1.15778 30.2133 1.08684 30.6739 1.06281C31.4592 1.02182 32.2412 0.93867 33.024 0.875889C33.957 0.801055 34.8925 0.783279 35.8242 0.710311C36.1939 0.681335 36.5646 0.685068 36.9348 0.640793C37.4632 0.577565 38.0002 0.566568 38.533 0.594652C39.2615 0.633083 39.9901 0.616079 40.7182 0.612223C40.9995 0.610681 41.2844 0.616484 41.5689 0.59461C41.7971 0.577078 42.0673 0.622207 42.3058 0.679104C42.5963 0.748419 42.8818 0.689126 43.1678 0.724839C43.7538 0.798091 44.3494 0.736894 44.9314 0.80698C45.4636 0.87106 45.9992 0.914076 46.5301 0.995688C46.9082 1.05376 47.2927 1.07032 47.6745 1.10376C48.1847 1.14844 48.6883 1.24588 49.1963 1.30128C49.609 1.34628 50.0101 1.45691 50.4356 1.45229C50.6829 1.44961 50.9447 1.5783 51.2073 1.62687C51.6628 1.71108 52.1085 1.85864 52.5663 1.91704C52.969 1.96837 53.3325 2.1357 53.723 2.21674C54.0603 2.28671 54.4033 2.34868 54.7298 2.45111C55.0618 2.55524 55.4049 2.60077 55.7365 2.70459C56.1779 2.84285 56.6404 2.91424 57.0812 3.05404C57.461 3.17453 57.8496 3.2583 58.2294 3.37534C58.2778 3.39027 58.3012 3.4315 58.3349 3.46368C58.4048 3.53048 58.472 3.61108 58.5911 3.52249C58.6542 3.47557 58.7326 3.53126 58.8026 3.55528C59.1403 3.67135 59.43 3.89776 59.7788 3.98611C60.343 4.12904 60.8551 4.40285 61.3714 4.65276C61.928 4.92219 62.5221 5.10529 63.0503 5.44607C63.5835 5.79005 64.1692 6.0516 64.7156 6.37671C64.9692 6.52764 65.1703 6.76488 65.4192 6.92583C66.0461 7.33113 66.6064 7.82498 67.1987 8.27403C67.4335 8.45211 67.6813 8.64715 67.9059 8.85753C68.3239 9.24919 68.7089 9.67336 69.1315 10.0592C69.3368 10.2468 69.5529 10.4246 69.7418 10.6276C69.9192 10.8182 70.0587 11.0435 70.2297 11.2407C71.0114 12.1428 71.7491 13.0776 72.3966 14.0821C72.7496 14.6299 73.126 15.1628 73.4711 15.7153C73.6865 16.06 73.8692 16.4258 74.0551 16.7879C74.1684 17.0086 74.3403 17.1924 74.4273 17.4298C74.5854 17.8615 74.8762 18.2288 74.9673 18.7015C75.053 19.1458 75.2482 19.5667 75.445 19.9824C75.5375 20.1777 75.5747 20.4122 75.6369 20.6291C75.7379 20.9821 75.8784 21.3229 75.9726 21.6748C76.0304 21.8911 76.0919 22.1101 76.1379 22.3309C76.1576 22.4253 76.175 22.5158 76.2415 22.5893C76.2739 22.6252 76.2975 22.6634 76.294 22.7157C76.2652 23.1401 76.4424 23.5285 76.5047 23.936C76.5483 24.2205 76.5828 24.5093 76.6546 24.7851C76.7037 24.9736 76.6195 25.1915 76.7893 25.3604C76.8313 25.4022 76.7608 25.5204 76.7665 25.618C76.7946 26.0973 76.8543 26.5729 76.8986 27.0503C76.9313 27.4035 76.9311 27.7598 76.9458 28.1146C76.9655 28.5876 77.0025 29.0607 76.9999 29.5335C76.9978 29.904 76.9549 30.2752 76.9126 30.6441C76.9002 30.752 76.8913 30.8587 76.8945 30.9655C76.9028 31.2516 76.8134 31.5215 76.7707 31.7991C76.6921 32.3105 76.6267 32.8243 76.5727 33.339C76.5373 33.6761 76.3941 33.9875 76.3596 34.3221C76.3063 34.8368 76.0568 35.2993 75.9719 35.8026C75.9282 36.062 75.7773 36.2999 75.8246 36.5781C75.8382 36.6577 75.7407 36.7007 75.7134 36.7808C75.4571 37.5307 75.1973 38.2796 74.9229 39.023C74.6841 39.6698 74.3656 40.2798 74.0454 40.8903C73.9006 41.1666 73.7655 41.4547 73.6229 41.7318C73.493 41.9842 73.3503 42.2399 73.1878 42.4804C72.9123 42.888 72.6373 43.299 72.4038 43.731C71.9975 44.4825 71.4159 45.103 70.9248 45.7904C70.7412 46.0475 70.4736 46.2193 70.283 46.4725C69.948 46.9175 69.5116 47.276 69.1734 47.7204C69.0642 47.8639 68.8879 47.9198 68.7626 48.0423C68.4394 48.3582 68.0739 48.6246 67.7318 48.9182C67.5341 49.0878 67.3508 49.275 67.1685 49.4615C67.0064 49.6272 66.7881 49.7076 66.6115 49.8531C66.1966 50.195 65.7316 50.469 65.3058 50.7983C65.1164 50.9447 64.8628 51.0479 64.7042 51.1981C64.5005 51.3912 64.1703 51.3578 64.0337 51.6366C64.0173 51.6702 63.8632 51.6542 63.7667 51.715C63.2857 52.0179 62.7722 52.2637 62.2653 52.5206C61.7735 52.7699 61.2864 53.0297 60.7863 53.2615C60.4086 53.4365 60.0035 53.554 59.6389 53.7578C58.9947 54.1177 58.2809 54.2753 57.588 54.4966C57.1478 54.6371 56.7298 54.8418 56.2809 54.9616C56.0024 55.0359 55.7315 55.1394 55.452 55.2094C54.9182 55.3431 54.3806 55.462 53.8447 55.5872C53.226 55.7318 52.6091 55.8847 51.9881 56.0186C51.5523 56.1125 51.1224 56.2273 50.6801 56.301C50.0576 56.4048 49.4355 56.5213 48.8154 56.6442C48.4982 56.707 48.1662 56.691 47.8421 56.7231C47.2048 56.7863 46.569 56.8671 45.9311 56.9237C45.3876 56.9719 44.8491 57.0622 44.3032 57.092C43.8619 57.1161 43.4233 57.1865 42.9822 57.2194C42.6292 57.2458 42.2745 57.2448 41.9205 57.2632C41.1665 57.3024 40.4102 57.2991 39.6568 57.3462C39.3592 57.3648 39.0583 57.33 38.757 57.4131C38.641 57.4451 38.465 57.3494 38.3129 57.3689C37.9088 57.4207 37.506 57.4279 37.1023 57.3701C36.5882 57.2967 36.0694 57.3377 35.5527 57.3074C34.9091 57.2697 34.2646 57.2556 33.6222 57.1816C33.1758 57.1301 32.7249 57.1072 32.2745 57.0841C31.7469 57.057 31.2226 56.9663 30.6962 56.911C30.1094 56.8493 29.5205 56.809 28.9353 56.7349C28.5782 56.6897 28.2328 56.572 27.8717 56.5307C27.3173 56.4672 26.7633 56.3963 26.2126 56.3068C25.9549 56.265 25.694 56.1937 25.4408 56.1695C25.0345 56.1307 24.6498 56.0049 24.2744 55.8913C23.8722 55.7696 23.4656 55.6514 23.0618 55.5309C22.4441 55.3463 21.8082 55.2216 21.1946 55.0246C20.8155 54.9027 20.43 54.7962 20.0546 54.6501C19.6447 54.4904 19.2227 54.3492 18.8055 54.2016C18.1801 53.9804 17.5669 53.7296 16.9614 53.4554C16.4164 53.2086 15.8961 52.9063 15.3353 52.6988C14.9501 52.5562 14.6429 52.2863 14.2732 52.1226C13.8556 51.9376 13.4965 51.6543 13.1146 51.4095C12.9007 51.2724 12.6783 51.1461 12.4515 51.0318C12.2242 50.9174 12.0095 50.7851 11.8382 50.5995C11.6682 50.4152 11.4207 50.3644 11.234 50.2068C10.8695 49.8994 10.4613 49.6529 10.1106 49.3178C9.81358 49.0341 9.48405 48.7561 9.08918 48.5909C9.05752 48.5775 9.03318 48.5617 9.01288 48.5311C8.65251 47.9885 8.13752 47.59 7.67731 47.1446C7.48617 46.96 7.3632 46.736 7.1822 46.5504C6.86971 46.2298 6.62784 45.8483 6.29953 45.5352C6.15505 45.3974 6.06374 45.1846 5.94159 45.0098C5.73746 44.718 5.53049 44.4291 5.30809 44.1511C5.02685 43.8002 4.78823 43.4187 4.56705 43.0293C4.32883 42.6098 4.10401 42.1802 3.85524 41.7689C3.5878 41.3267 3.36175 40.8633 3.10039 40.4187C2.95633 40.174 2.89951 39.8833 2.76275 39.6282C2.40481 38.9594 2.17998 38.2367 1.91498 37.5294C1.73479 37.0494 1.59396 36.5564 1.46248 36.068C1.28634 35.4146 1.07329 34.7657 1.02987 34.073C1.00755 33.715 0.877684 33.3536 0.828574 32.9872C0.800978 32.7815 0.774199 32.5758 0.734831 32.2786Z" stroke="#181818" stroke-width="2" mask="url(#path-4-inside-1_152_225289)"/>
</svg>
