<svg width="77" height="58" viewBox="0 0 77 58" fill="none" xmlns="http://www.w3.org/2000/svg">
<path d="M58.7254 22.4346C59.3584 22.4346 59.7478 22.8484 59.7478 23.8221L59.7478 24.1386L60.0156 24.1386L60.0156 19.0265L59.7478 19.0265L59.7478 19.343C59.7478 20.3167 59.3584 20.7305 58.7254 20.7305L19.1927 20.7305C18.5598 20.7305 18.1703 20.3167 18.1703 19.343L18.1703 19.0265L17.9025 19.0265L17.9025 24.1386L18.1703 24.1386L18.1703 23.8221C18.1703 22.8484 18.5598 22.4346 19.1927 22.4346L58.7254 22.4346Z" fill="#DFD4BF"/>
<path d="M58.7254 29.1592C59.3584 29.1592 59.7478 29.573 59.7478 30.5467L59.7478 30.8632L60.0156 30.8632L60.0156 25.7511L59.7478 25.7511L59.7478 26.0676C59.7478 27.0413 59.3584 27.4551 58.7254 27.4551L19.1927 27.4551C18.5598 27.4551 18.1703 27.0413 18.1703 26.0676L18.1703 25.7511L17.9025 25.7511L17.9025 30.8632L18.1703 30.8632L18.1703 30.5467C18.1703 29.573 18.5598 29.1592 19.1927 29.1592L58.7254 29.1592Z" fill="#DFD4BF"/>
<path d="M58.7254 35.8838C59.3584 35.8838 59.7478 36.2976 59.7478 37.2714L59.7478 37.5878L60.0156 37.5878L60.0156 32.4757L59.7478 32.4757L59.7478 32.7922C59.7478 33.7659 59.3584 34.1797 58.7254 34.1797L19.1927 34.1797C18.5598 34.1797 18.1703 33.7659 18.1703 32.7922L18.1703 32.4757L17.9025 32.4757L17.9025 37.5878L18.1703 37.5878L18.1703 37.2714C18.1703 36.2976 18.5598 35.8838 19.1927 35.8838L58.7254 35.8838Z" fill="#DFD4BF"/>
<mask id="path-4-inside-1_132_186984" fill="white">
<path d="M0.734831 32.2787C0.653258 32.1119 0.775412 31.8233 0.632567 31.5667C0.536788 31.3954 0.618353 31.1778 0.493361 30.9894C0.455214 30.932 0.477538 30.7076 0.522589 30.5723C0.645552 30.1997 0.588324 29.8231 0.594817 29.4442C0.60578 28.7618 0.446692 28.0837 0.547339 27.4022C0.62445 26.8807 0.594413 26.3418 0.731582 25.8365C0.810317 25.5457 0.769324 25.2385 0.906493 24.9599C0.976706 24.8171 0.914206 24.643 0.947081 24.4817C1.05138 23.9722 1.16866 23.4658 1.28107 22.9585C1.42068 22.3264 1.55095 21.6889 1.73073 21.07C1.85734 20.6332 1.96571 20.1875 2.12438 19.7572C2.45067 18.8716 2.85001 18.0185 3.23635 17.1593C3.51312 16.5428 3.87714 15.9733 4.22656 15.397C4.66202 14.6784 5.09016 13.9549 5.58365 13.2728C5.90304 12.8315 6.25773 12.4201 6.62013 12.0152C7.06005 11.5239 7.48617 11.0189 7.94759 10.5486C8.64481 9.83821 9.33511 9.12115 10.0904 8.46805C10.6358 7.99624 11.262 7.63729 11.8107 7.17659C12.2181 6.8344 12.7152 6.63725 13.1219 6.29842C13.2173 6.219 13.3528 6.18999 13.4624 6.12575C13.8747 5.88481 14.2744 5.62098 14.6977 5.40155C14.9526 5.26925 15.2273 5.1699 15.487 5.04243C15.875 4.8521 16.2553 4.64435 16.651 4.4722C17.1367 4.26068 17.6318 4.06804 18.1298 3.8857C18.7544 3.65694 19.3931 3.46535 20.0128 3.22384C20.6918 2.95904 21.4117 2.85575 22.1028 2.64403C22.516 2.5175 22.9474 2.46235 23.354 2.32392C23.6064 2.23813 23.901 2.28699 24.1149 2.08424C24.6234 2.07385 25.108 1.9146 25.6071 1.84253C26.3981 1.72841 27.1809 1.55971 27.9699 1.43138C28.411 1.35968 28.8655 1.35825 29.2994 1.26053C29.7551 1.1579 30.2133 1.08696 30.6739 1.06293C31.4592 1.02194 32.2412 0.938792 33.024 0.876011C33.957 0.801177 34.8925 0.783401 35.8242 0.710433C36.1939 0.681457 36.5646 0.68519 36.9348 0.640915C37.4632 0.577687 38.0002 0.56669 38.533 0.594774C39.2615 0.633205 39.9901 0.616201 40.7182 0.612345C40.9995 0.610803 41.2844 0.616606 41.5689 0.594732C41.7971 0.5772 42.0673 0.622329 42.3058 0.679226C42.5963 0.748541 42.8818 0.689248 43.1678 0.724961C43.7538 0.798213 44.3494 0.737016 44.9314 0.807102C45.4636 0.871182 45.9992 0.914199 46.5301 0.99581C46.9082 1.05388 47.2927 1.07044 47.6745 1.10388C48.1847 1.14856 48.6883 1.246 49.1963 1.3014C49.609 1.34641 50.0101 1.45703 50.4356 1.45241C50.6829 1.44973 50.9447 1.57842 51.2073 1.62699C51.6628 1.7112 52.1085 1.85876 52.5663 1.91716C52.969 1.9685 53.3325 2.13582 53.723 2.21686C54.0603 2.28683 54.4033 2.3488 54.7298 2.45123C55.0618 2.55536 55.4049 2.6009 55.7365 2.70471C56.1779 2.84297 56.6404 2.91436 57.0812 3.05417C57.461 3.17466 57.8496 3.25842 58.2294 3.37546C58.2778 3.39039 58.3012 3.43162 58.3349 3.46381C58.4048 3.53061 58.472 3.6112 58.5911 3.52261C58.6542 3.4757 58.7326 3.53138 58.8026 3.5554C59.1403 3.67147 59.43 3.89788 59.7788 3.98623C60.343 4.12916 60.8551 4.40297 61.3714 4.65288C61.928 4.92231 62.5221 5.10542 63.0503 5.44619C63.5835 5.79017 64.1692 6.05172 64.7156 6.37683C64.9692 6.52776 65.1703 6.765 65.4192 6.92596C66.0461 7.33125 66.6064 7.82511 67.1987 8.27415C67.4335 8.45223 67.6813 8.64727 67.9059 8.85765C68.3239 9.24931 68.7089 9.67348 69.1315 10.0593C69.3368 10.2469 69.5529 10.4247 69.7418 10.6277C69.9192 10.8183 70.0587 11.0436 70.2297 11.2409C71.0114 12.1429 71.7491 13.0777 72.3966 14.0823C72.7496 14.63 73.126 15.1629 73.4711 15.7154C73.6865 16.0601 73.8692 16.4259 74.0551 16.788C74.1684 17.0087 74.3403 17.1925 74.4273 17.43C74.5854 17.8617 74.8762 18.2289 74.9673 18.7016C75.053 19.146 75.2482 19.5668 75.445 19.9825C75.5375 20.1779 75.5747 20.4124 75.6369 20.6293C75.7379 20.9822 75.8784 21.323 75.9726 21.675C76.0304 21.8912 76.0919 22.1102 76.1379 22.331C76.1576 22.4255 76.175 22.5159 76.2415 22.5895C76.2739 22.6254 76.2975 22.6635 76.294 22.7158C76.2652 23.1402 76.4424 23.5286 76.5047 23.9361C76.5483 24.2206 76.5828 24.5094 76.6546 24.7852C76.7037 24.9738 76.6195 25.1916 76.7893 25.3605C76.8313 25.4023 76.7608 25.5205 76.7665 25.6181C76.7946 26.0975 76.8543 26.573 76.8986 27.0505C76.9313 27.4037 76.9311 27.7599 76.9458 28.1147C76.9655 28.5877 77.0025 29.0608 76.9999 29.5336C76.9978 29.9042 76.9549 30.2754 76.9126 30.6443C76.9002 30.7521 76.8913 30.8589 76.8945 30.9656C76.9028 31.2517 76.8134 31.5216 76.7707 31.7992C76.6921 32.3106 76.6267 32.8244 76.5727 33.3391C76.5373 33.6762 76.3941 33.9876 76.3596 34.3222C76.3063 34.8369 76.0568 35.2994 75.9719 35.8028C75.9282 36.0621 75.7773 36.3 75.8246 36.5782C75.8382 36.6578 75.7407 36.7008 75.7134 36.7809C75.4571 37.5308 75.1973 38.2797 74.9229 39.0231C74.6841 39.6699 74.3656 40.28 74.0454 40.8905C73.9006 41.1667 73.7655 41.4548 73.6229 41.7319C73.493 41.9843 73.3503 42.24 73.1878 42.4805C72.9123 42.8881 72.6373 43.2991 72.4038 43.7311C71.9975 44.4826 71.4159 45.1031 70.9248 45.7906C70.7412 46.0476 70.4736 46.2194 70.283 46.4726C69.948 46.9177 69.5116 47.2761 69.1734 47.7206C69.0642 47.864 68.8879 47.9199 68.7626 48.0425C68.4394 48.3584 68.0739 48.6247 67.7318 48.9183C67.5341 49.0879 67.3508 49.2752 67.1685 49.4616C67.0064 49.6273 66.7881 49.7077 66.6115 49.8532C66.1966 50.1951 65.7316 50.4691 65.3058 50.7984C65.1164 50.9448 64.8628 51.048 64.7042 51.1982C64.5005 51.3913 64.1703 51.3579 64.0337 51.6367C64.0173 51.6703 63.8632 51.6543 63.7667 51.7151C63.2857 52.0181 62.7722 52.2638 62.2653 52.5207C61.7735 52.7701 61.2864 53.0299 60.7863 53.2616C60.4086 53.4366 60.0035 53.5541 59.6389 53.7579C58.9947 54.1179 58.2809 54.2754 57.588 54.4968C57.1478 54.6373 56.7298 54.842 56.2809 54.9617C56.0024 55.036 55.7315 55.1396 55.452 55.2095C54.9182 55.3432 54.3806 55.4621 53.8447 55.5873C53.226 55.7319 52.6091 55.8848 51.9881 56.0187C51.5523 56.1127 51.1224 56.2274 50.6801 56.3012C50.0576 56.405 49.4355 56.5214 48.8154 56.6443C48.4982 56.7071 48.1662 56.6912 47.8421 56.7233C47.2048 56.7864 46.569 56.8672 45.9311 56.9238C45.3876 56.9721 44.8491 57.0623 44.3032 57.0922C43.8619 57.1163 43.4233 57.1866 42.9822 57.2195C42.6292 57.246 42.2745 57.2449 41.9205 57.2633C41.1665 57.3025 40.4102 57.2992 39.6568 57.3463C39.3592 57.3649 39.0583 57.3302 38.757 57.4132C38.641 57.4452 38.465 57.3495 38.3129 57.369C37.9088 57.4208 37.506 57.428 37.1023 57.3703C36.5882 57.2968 36.0694 57.3378 35.5527 57.3075C34.9091 57.2698 34.2646 57.2557 33.6222 57.1817C33.1758 57.1303 32.7249 57.1074 32.2745 57.0842C31.7469 57.0571 31.2226 56.9664 30.6962 56.9111C30.1094 56.8494 29.5205 56.8091 28.9353 56.735C28.5782 56.6898 28.2328 56.5721 27.8717 56.5308C27.3173 56.4673 26.7633 56.3964 26.2126 56.3069C25.9549 56.2651 25.694 56.1938 25.4408 56.1696C25.0345 56.1309 24.6498 56.005 24.2744 55.8914C23.8722 55.7698 23.4656 55.6515 23.0618 55.531C22.4441 55.3464 21.8082 55.2217 21.1946 55.0247C20.8155 54.9028 20.43 54.7963 20.0546 54.6502C19.6447 54.4906 19.2227 54.3493 18.8055 54.2017C18.1801 53.9805 17.5669 53.7297 16.9614 53.4555C16.4164 53.2087 15.8961 52.9065 15.3353 52.6989C14.9501 52.5563 14.6429 52.2864 14.2732 52.1228C13.8556 51.9377 13.4965 51.6544 13.1146 51.4096C12.9007 51.2725 12.6783 51.1462 12.4515 51.0319C12.2242 50.9175 12.0095 50.7852 11.8382 50.5997C11.6682 50.4153 11.4207 50.3645 11.234 50.2069C10.8695 49.8995 10.4613 49.653 10.1106 49.3179C9.81358 49.0342 9.48405 48.7563 9.08918 48.591C9.05752 48.5777 9.03318 48.5618 9.01288 48.5312C8.65251 47.9886 8.13752 47.5901 7.67731 47.1447C7.48617 46.9601 7.3632 46.7361 7.1822 46.5506C6.86971 46.23 6.62784 45.8484 6.29953 45.5353C6.15505 45.3975 6.06374 45.1847 5.94159 45.01C5.73746 44.7182 5.53049 44.4293 5.30809 44.1513C5.02685 43.8003 4.78823 43.4188 4.56705 43.0294C4.32883 42.6099 4.10401 42.1803 3.85524 41.769C3.5878 41.3268 3.36175 40.8634 3.10039 40.4188C2.95633 40.1741 2.89951 39.8835 2.76275 39.6284C2.40481 38.9596 2.17998 38.2369 1.91498 37.5295C1.73479 37.0495 1.59396 36.5565 1.46248 36.0681C1.28634 35.4147 1.07329 34.7658 1.02987 34.0732C1.00755 33.7151 0.877684 33.3537 0.828574 32.9873C0.800978 32.7817 0.774199 32.5759 0.734831 32.2787Z"/>
</mask>
<path d="M0.734831 32.2787C0.653258 32.1119 0.775412 31.8233 0.632567 31.5667C0.536788 31.3954 0.618353 31.1778 0.493361 30.9894C0.455214 30.932 0.477538 30.7076 0.522589 30.5723C0.645552 30.1997 0.588324 29.8231 0.594817 29.4442C0.60578 28.7618 0.446692 28.0837 0.547339 27.4022C0.62445 26.8807 0.594413 26.3418 0.731582 25.8365C0.810317 25.5457 0.769324 25.2385 0.906493 24.9599C0.976706 24.8171 0.914206 24.643 0.947081 24.4817C1.05138 23.9722 1.16866 23.4658 1.28107 22.9585C1.42068 22.3264 1.55095 21.6889 1.73073 21.07C1.85734 20.6332 1.96571 20.1875 2.12438 19.7572C2.45067 18.8716 2.85001 18.0185 3.23635 17.1593C3.51312 16.5428 3.87714 15.9733 4.22656 15.397C4.66202 14.6784 5.09016 13.9549 5.58365 13.2728C5.90304 12.8315 6.25773 12.4201 6.62013 12.0152C7.06005 11.5239 7.48617 11.0189 7.94759 10.5486C8.64481 9.83821 9.33511 9.12115 10.0904 8.46805C10.6358 7.99624 11.262 7.63729 11.8107 7.17659C12.2181 6.8344 12.7152 6.63725 13.1219 6.29842C13.2173 6.219 13.3528 6.18999 13.4624 6.12575C13.8747 5.88481 14.2744 5.62098 14.6977 5.40155C14.9526 5.26925 15.2273 5.1699 15.487 5.04243C15.875 4.8521 16.2553 4.64435 16.651 4.4722C17.1367 4.26068 17.6318 4.06804 18.1298 3.8857C18.7544 3.65694 19.3931 3.46535 20.0128 3.22384C20.6918 2.95904 21.4117 2.85575 22.1028 2.64403C22.516 2.5175 22.9474 2.46235 23.354 2.32392C23.6064 2.23813 23.901 2.28699 24.1149 2.08424C24.6234 2.07385 25.108 1.9146 25.6071 1.84253C26.3981 1.72841 27.1809 1.55971 27.9699 1.43138C28.411 1.35968 28.8655 1.35825 29.2994 1.26053C29.7551 1.1579 30.2133 1.08696 30.6739 1.06293C31.4592 1.02194 32.2412 0.938792 33.024 0.876011C33.957 0.801177 34.8925 0.783401 35.8242 0.710433C36.1939 0.681457 36.5646 0.68519 36.9348 0.640915C37.4632 0.577687 38.0002 0.56669 38.533 0.594774C39.2615 0.633205 39.9901 0.616201 40.7182 0.612345C40.9995 0.610803 41.2844 0.616606 41.5689 0.594732C41.7971 0.5772 42.0673 0.622329 42.3058 0.679226C42.5963 0.748541 42.8818 0.689248 43.1678 0.724961C43.7538 0.798213 44.3494 0.737016 44.9314 0.807102C45.4636 0.871182 45.9992 0.914199 46.5301 0.99581C46.9082 1.05388 47.2927 1.07044 47.6745 1.10388C48.1847 1.14856 48.6883 1.246 49.1963 1.3014C49.609 1.34641 50.0101 1.45703 50.4356 1.45241C50.6829 1.44973 50.9447 1.57842 51.2073 1.62699C51.6628 1.7112 52.1085 1.85876 52.5663 1.91716C52.969 1.9685 53.3325 2.13582 53.723 2.21686C54.0603 2.28683 54.4033 2.3488 54.7298 2.45123C55.0618 2.55536 55.4049 2.6009 55.7365 2.70471C56.1779 2.84297 56.6404 2.91436 57.0812 3.05417C57.461 3.17466 57.8496 3.25842 58.2294 3.37546C58.2778 3.39039 58.3012 3.43162 58.3349 3.46381C58.4048 3.53061 58.472 3.6112 58.5911 3.52261C58.6542 3.4757 58.7326 3.53138 58.8026 3.5554C59.1403 3.67147 59.43 3.89788 59.7788 3.98623C60.343 4.12916 60.8551 4.40297 61.3714 4.65288C61.928 4.92231 62.5221 5.10542 63.0503 5.44619C63.5835 5.79017 64.1692 6.05172 64.7156 6.37683C64.9692 6.52776 65.1703 6.765 65.4192 6.92596C66.0461 7.33125 66.6064 7.82511 67.1987 8.27415C67.4335 8.45223 67.6813 8.64727 67.9059 8.85765C68.3239 9.24931 68.7089 9.67348 69.1315 10.0593C69.3368 10.2469 69.5529 10.4247 69.7418 10.6277C69.9192 10.8183 70.0587 11.0436 70.2297 11.2409C71.0114 12.1429 71.7491 13.0777 72.3966 14.0823C72.7496 14.63 73.126 15.1629 73.4711 15.7154C73.6865 16.0601 73.8692 16.4259 74.0551 16.788C74.1684 17.0087 74.3403 17.1925 74.4273 17.43C74.5854 17.8617 74.8762 18.2289 74.9673 18.7016C75.053 19.146 75.2482 19.5668 75.445 19.9825C75.5375 20.1779 75.5747 20.4124 75.6369 20.6293C75.7379 20.9822 75.8784 21.323 75.9726 21.675C76.0304 21.8912 76.0919 22.1102 76.1379 22.331C76.1576 22.4255 76.175 22.5159 76.2415 22.5895C76.2739 22.6254 76.2975 22.6635 76.294 22.7158C76.2652 23.1402 76.4424 23.5286 76.5047 23.9361C76.5483 24.2206 76.5828 24.5094 76.6546 24.7852C76.7037 24.9738 76.6195 25.1916 76.7893 25.3605C76.8313 25.4023 76.7608 25.5205 76.7665 25.6181C76.7946 26.0975 76.8543 26.573 76.8986 27.0505C76.9313 27.4037 76.9311 27.7599 76.9458 28.1147C76.9655 28.5877 77.0025 29.0608 76.9999 29.5336C76.9978 29.9042 76.9549 30.2754 76.9126 30.6443C76.9002 30.7521 76.8913 30.8589 76.8945 30.9656C76.9028 31.2517 76.8134 31.5216 76.7707 31.7992C76.6921 32.3106 76.6267 32.8244 76.5727 33.3391C76.5373 33.6762 76.3941 33.9876 76.3596 34.3222C76.3063 34.8369 76.0568 35.2994 75.9719 35.8028C75.9282 36.0621 75.7773 36.3 75.8246 36.5782C75.8382 36.6578 75.7407 36.7008 75.7134 36.7809C75.4571 37.5308 75.1973 38.2797 74.9229 39.0231C74.6841 39.6699 74.3656 40.28 74.0454 40.8905C73.9006 41.1667 73.7655 41.4548 73.6229 41.7319C73.493 41.9843 73.3503 42.24 73.1878 42.4805C72.9123 42.8881 72.6373 43.2991 72.4038 43.7311C71.9975 44.4826 71.4159 45.1031 70.9248 45.7906C70.7412 46.0476 70.4736 46.2194 70.283 46.4726C69.948 46.9177 69.5116 47.2761 69.1734 47.7206C69.0642 47.864 68.8879 47.9199 68.7626 48.0425C68.4394 48.3584 68.0739 48.6247 67.7318 48.9183C67.5341 49.0879 67.3508 49.2752 67.1685 49.4616C67.0064 49.6273 66.7881 49.7077 66.6115 49.8532C66.1966 50.1951 65.7316 50.4691 65.3058 50.7984C65.1164 50.9448 64.8628 51.048 64.7042 51.1982C64.5005 51.3913 64.1703 51.3579 64.0337 51.6367C64.0173 51.6703 63.8632 51.6543 63.7667 51.7151C63.2857 52.0181 62.7722 52.2638 62.2653 52.5207C61.7735 52.7701 61.2864 53.0299 60.7863 53.2616C60.4086 53.4366 60.0035 53.5541 59.6389 53.7579C58.9947 54.1179 58.2809 54.2754 57.588 54.4968C57.1478 54.6373 56.7298 54.842 56.2809 54.9617C56.0024 55.036 55.7315 55.1396 55.452 55.2095C54.9182 55.3432 54.3806 55.4621 53.8447 55.5873C53.226 55.7319 52.6091 55.8848 51.9881 56.0187C51.5523 56.1127 51.1224 56.2274 50.6801 56.3012C50.0576 56.405 49.4355 56.5214 48.8154 56.6443C48.4982 56.7071 48.1662 56.6912 47.8421 56.7233C47.2048 56.7864 46.569 56.8672 45.9311 56.9238C45.3876 56.9721 44.8491 57.0623 44.3032 57.0922C43.8619 57.1163 43.4233 57.1866 42.9822 57.2195C42.6292 57.246 42.2745 57.2449 41.9205 57.2633C41.1665 57.3025 40.4102 57.2992 39.6568 57.3463C39.3592 57.3649 39.0583 57.3302 38.757 57.4132C38.641 57.4452 38.465 57.3495 38.3129 57.369C37.9088 57.4208 37.506 57.428 37.1023 57.3703C36.5882 57.2968 36.0694 57.3378 35.5527 57.3075C34.9091 57.2698 34.2646 57.2557 33.6222 57.1817C33.1758 57.1303 32.7249 57.1074 32.2745 57.0842C31.7469 57.0571 31.2226 56.9664 30.6962 56.9111C30.1094 56.8494 29.5205 56.8091 28.9353 56.735C28.5782 56.6898 28.2328 56.5721 27.8717 56.5308C27.3173 56.4673 26.7633 56.3964 26.2126 56.3069C25.9549 56.2651 25.694 56.1938 25.4408 56.1696C25.0345 56.1309 24.6498 56.005 24.2744 55.8914C23.8722 55.7698 23.4656 55.6515 23.0618 55.531C22.4441 55.3464 21.8082 55.2217 21.1946 55.0247C20.8155 54.9028 20.43 54.7963 20.0546 54.6502C19.6447 54.4906 19.2227 54.3493 18.8055 54.2017C18.1801 53.9805 17.5669 53.7297 16.9614 53.4555C16.4164 53.2087 15.8961 52.9065 15.3353 52.6989C14.9501 52.5563 14.6429 52.2864 14.2732 52.1228C13.8556 51.9377 13.4965 51.6544 13.1146 51.4096C12.9007 51.2725 12.6783 51.1462 12.4515 51.0319C12.2242 50.9175 12.0095 50.7852 11.8382 50.5997C11.6682 50.4153 11.4207 50.3645 11.234 50.2069C10.8695 49.8995 10.4613 49.653 10.1106 49.3179C9.81358 49.0342 9.48405 48.7563 9.08918 48.591C9.05752 48.5777 9.03318 48.5618 9.01288 48.5312C8.65251 47.9886 8.13752 47.5901 7.67731 47.1447C7.48617 46.9601 7.3632 46.7361 7.1822 46.5506C6.86971 46.23 6.62784 45.8484 6.29953 45.5353C6.15505 45.3975 6.06374 45.1847 5.94159 45.01C5.73746 44.7182 5.53049 44.4293 5.30809 44.1513C5.02685 43.8003 4.78823 43.4188 4.56705 43.0294C4.32883 42.6099 4.10401 42.1803 3.85524 41.769C3.5878 41.3268 3.36175 40.8634 3.10039 40.4188C2.95633 40.1741 2.89951 39.8835 2.76275 39.6284C2.40481 38.9596 2.17998 38.2369 1.91498 37.5295C1.73479 37.0495 1.59396 36.5565 1.46248 36.0681C1.28634 35.4147 1.07329 34.7658 1.02987 34.0732C1.00755 33.7151 0.877684 33.3537 0.828574 32.9873C0.800978 32.7817 0.774199 32.5759 0.734831 32.2787Z" stroke="#DFD4BF" stroke-width="2" mask="url(#path-4-inside-1_132_186984)"/>
</svg>
