<svg width="78" height="58" viewBox="0 0 78 58" fill="none" xmlns="http://www.w3.org/2000/svg">
<path d="M48.0002 29.0001C48.0002 33.9707 43.9708 38.0001 39.0002 38.0001C37.8031 38.0001 36.6605 37.7664 35.6157 37.3421C35.4158 37.2608 35.3158 37.2202 35.235 37.2021C35.1559 37.1844 35.0974 37.1779 35.0164 37.1779C34.9335 37.1779 34.8433 37.1929 34.6629 37.223L31.105 37.816C30.7324 37.8781 30.5461 37.9091 30.4114 37.8514C30.2935 37.8008 30.1996 37.7068 30.149 37.5889C30.0912 37.4542 30.1223 37.2679 30.1844 36.8954L30.7774 33.3375C30.8074 33.157 30.8225 33.0668 30.8225 32.984C30.8224 32.903 30.816 32.8445 30.7982 32.7654C30.7801 32.6846 30.7395 32.5846 30.6583 32.3846C30.234 31.3398 30.0002 30.1973 30.0002 29.0001C30.0002 24.0296 34.0297 20.0001 39.0002 20.0001C43.9708 20.0001 48.0002 24.0296 48.0002 29.0001Z" fill="#181818"/>
<path d="M35.0002 26.5001H39.0002M35.0002 30.0001H42.0002M35.0002 26.5001H39.0002M35.0002 30.0001H42.0002M39.0002 38.0001C43.9708 38.0001 48.0002 33.9707 48.0002 29.0001C48.0002 24.0296 43.9708 20.0001 39.0002 20.0001C34.0297 20.0001 30.0002 24.0296 30.0002 29.0001C30.0002 30.1973 30.234 31.3398 30.6583 32.3846C30.7395 32.5846 30.7801 32.6846 30.7982 32.7654C30.816 32.8445 30.8224 32.903 30.8225 32.984C30.8225 33.0668 30.8074 33.157 30.7774 33.3375L30.1844 36.8954C30.1223 37.2679 30.0912 37.4542 30.149 37.5889C30.1996 37.7068 30.2935 37.8008 30.4114 37.8514C30.5461 37.9091 30.7324 37.8781 31.105 37.816L34.6629 37.223C34.8433 37.1929 34.9335 37.1779 35.0164 37.1779C35.0974 37.1779 35.1559 37.1844 35.235 37.2021C35.3158 37.2202 35.4158 37.2608 35.6157 37.3421C36.6605 37.7664 37.8031 38.0001 39.0002 38.0001Z" stroke="#181818" stroke-width="2" stroke-linecap="round" stroke-linejoin="round"/>
<path d="M35 27H39M35 30.5H42" stroke="#DFD4BF" stroke-width="2" stroke-linecap="round" stroke-linejoin="round"/>
<mask id="path-4-inside-1_525_31954" fill="white">
<path d="M1.20895 32.2787C1.12738 32.1119 1.24953 31.8233 1.10669 31.5667C1.01091 31.3954 1.09247 31.1778 0.967482 30.9894C0.929335 30.932 0.951659 30.7076 0.99671 30.5723C1.11967 30.1997 1.06245 29.8231 1.06894 29.4442C1.0799 28.7618 0.920813 28.0837 1.02146 27.4022C1.09857 26.8807 1.06853 26.3418 1.2057 25.8365C1.28444 25.5457 1.24345 25.2385 1.38061 24.9599C1.45083 24.8171 1.38833 24.643 1.4212 24.4817C1.5255 23.9722 1.64278 23.4658 1.75519 22.9585C1.8948 22.3264 2.02507 21.6889 2.20485 21.07C2.33147 20.6332 2.43983 20.1875 2.5985 19.7572C2.92479 18.8716 3.32413 18.0185 3.71047 17.1593C3.98724 16.5428 4.35126 15.9733 4.70068 15.397C5.13614 14.6784 5.56428 13.9549 6.05777 13.2728C6.37716 12.8315 6.73185 12.4201 7.09425 12.0152C7.53417 11.5239 7.96029 11.0189 8.42171 10.5486C9.11893 9.83821 9.80923 9.12115 10.5645 8.46805C11.1099 7.99624 11.7361 7.63729 12.2848 7.17659C12.6922 6.8344 13.1894 6.63725 13.596 6.29842C13.6914 6.219 13.8269 6.18999 13.9365 6.12575C14.3488 5.88481 14.7486 5.62098 15.1718 5.40155C15.4267 5.26925 15.7014 5.1699 15.9612 5.04243C16.3491 4.8521 16.7294 4.64435 17.1251 4.4722C17.6108 4.26068 18.106 4.06804 18.6039 3.8857C19.2285 3.65694 19.8672 3.46535 20.4869 3.22384C21.1659 2.95904 21.8858 2.85575 22.577 2.64403C22.9901 2.5175 23.4215 2.46235 23.8281 2.32392C24.0805 2.23813 24.3752 2.28699 24.589 2.08424C25.0975 2.07385 25.5821 1.9146 26.0813 1.84253C26.8722 1.72841 27.6551 1.55971 28.444 1.43138C28.8851 1.35968 29.3396 1.35825 29.7735 1.26053C30.2292 1.1579 30.6874 1.08696 31.148 1.06293C31.9333 1.02194 32.7153 0.938792 33.4982 0.876011C34.4312 0.801177 35.3666 0.783401 36.2984 0.710433C36.668 0.681457 37.0387 0.68519 37.4089 0.640915C37.9374 0.577687 38.4744 0.56669 39.0071 0.594774C39.7357 0.633205 40.4642 0.616201 41.1923 0.612345C41.4736 0.610803 41.7586 0.616606 42.043 0.594732C42.2712 0.5772 42.5414 0.622329 42.7799 0.679226C43.0704 0.748541 43.3559 0.689248 43.642 0.724961C44.2279 0.798213 44.8235 0.737016 45.4056 0.807102C45.9378 0.871182 46.4733 0.914199 47.0042 0.99581C47.3823 1.05388 47.7668 1.07044 48.1486 1.10388C48.6588 1.14856 49.1625 1.246 49.6704 1.3014C50.0831 1.34641 50.4842 1.45703 50.9097 1.45241C51.157 1.44973 51.4188 1.57842 51.6815 1.62699C52.137 1.7112 52.5826 1.85876 53.0405 1.91716C53.4431 1.9685 53.8066 2.13582 54.1971 2.21686C54.5344 2.28683 54.8774 2.3488 55.2039 2.45123C55.5359 2.55536 55.8791 2.6009 56.2106 2.70471C56.652 2.84297 57.1145 2.91436 57.5553 3.05417C57.9351 3.17466 58.3237 3.25842 58.7035 3.37546C58.7519 3.39039 58.7753 3.43162 58.809 3.46381C58.8789 3.53061 58.9462 3.6112 59.0652 3.52261C59.1283 3.4757 59.2068 3.53138 59.2767 3.5554C59.6144 3.67147 59.9041 3.89788 60.2529 3.98623C60.8171 4.12916 61.3292 4.40297 61.8455 4.65288C62.4021 4.92231 62.9962 5.10542 63.5245 5.44619C64.0576 5.79017 64.6433 6.05172 65.1897 6.37683C65.4433 6.52776 65.6444 6.765 65.8934 6.92596C66.5202 7.33125 67.0805 7.82511 67.6728 8.27415C67.9076 8.45223 68.1554 8.64727 68.38 8.85765C68.798 9.24931 69.183 9.67348 69.6056 10.0593C69.8109 10.2469 70.027 10.4247 70.2159 10.6277C70.3933 10.8183 70.5328 11.0436 70.7038 11.2409C71.4855 12.1429 72.2232 13.0777 72.8707 14.0823C73.2237 14.63 73.6001 15.1629 73.9452 15.7154C74.1606 16.0601 74.3433 16.4259 74.5292 16.788C74.6425 17.0087 74.8144 17.1925 74.9014 17.43C75.0596 17.8617 75.3503 18.2289 75.4414 18.7016C75.5272 19.146 75.7223 19.5668 75.9191 19.9825C76.0116 20.1779 76.0488 20.4124 76.111 20.6293C76.2121 20.9822 76.3525 21.323 76.4467 21.675C76.5045 21.8912 76.566 22.1102 76.612 22.331C76.6317 22.4255 76.6491 22.5159 76.7156 22.5895C76.748 22.6254 76.7717 22.6635 76.7681 22.7158C76.7393 23.1402 76.9165 23.5286 76.9788 23.9361C77.0224 24.2206 77.0569 24.5094 77.1287 24.7852C77.1779 24.9738 77.0936 25.1916 77.2634 25.3605C77.3054 25.4023 77.2349 25.5205 77.2406 25.6181C77.2687 26.0975 77.3285 26.573 77.3727 27.0505C77.4054 27.4037 77.4052 27.7599 77.42 28.1147C77.4397 28.5877 77.4766 29.0608 77.474 29.5336C77.472 29.9042 77.4291 30.2754 77.3867 30.6443C77.3743 30.7521 77.3655 30.8589 77.3686 30.9656C77.377 31.2517 77.2875 31.5216 77.2449 31.7992C77.1662 32.3106 77.1008 32.8244 77.0468 33.3391C77.0115 33.6762 76.8682 33.9876 76.8337 34.3222C76.7805 34.8369 76.5309 35.2994 76.446 35.8028C76.4023 36.0621 76.2514 36.3 76.2988 36.5782C76.3123 36.6578 76.2149 36.7008 76.1875 36.7809C75.9312 37.5308 75.6715 38.2797 75.397 39.0231C75.1583 39.6699 74.8397 40.28 74.5196 40.8905C74.3747 41.1667 74.2396 41.4548 74.0971 41.7319C73.9672 41.9843 73.8244 42.24 73.6619 42.4805C73.3865 42.8881 73.1114 43.2991 72.8779 43.7311C72.4716 44.4826 71.8901 45.1031 71.399 45.7906C71.2154 46.0476 70.9477 46.2194 70.7571 46.4726C70.4221 46.9177 69.9857 47.2761 69.6475 47.7206C69.5383 47.864 69.362 47.9199 69.2367 48.0425C68.9135 48.3584 68.5481 48.6247 68.2059 48.9183C68.0082 49.0879 67.8249 49.2752 67.6426 49.4616C67.4805 49.6273 67.2622 49.7077 67.0856 49.8532C66.6708 50.1951 66.2057 50.4691 65.7799 50.7984C65.5906 50.9448 65.3369 51.048 65.1783 51.1982C64.9746 51.3913 64.6445 51.3579 64.5078 51.6367C64.4914 51.6703 64.3373 51.6543 64.2408 51.7151C63.7598 52.0181 63.2463 52.2638 62.7395 52.5207C62.2476 52.7701 61.7605 53.0299 61.2604 53.2616C60.8827 53.4366 60.4776 53.5541 60.113 53.7579C59.4688 54.1179 58.7551 54.2754 58.0621 54.4968C57.622 54.6373 57.2039 54.842 56.755 54.9617C56.4765 55.036 56.2056 55.1396 55.9262 55.2095C55.3923 55.3432 54.8547 55.4621 54.3188 55.5873C53.7001 55.7319 53.0832 55.8848 52.4622 56.0187C52.0265 56.1127 51.5965 56.2274 51.1543 56.3012C50.5317 56.405 49.9096 56.5214 49.2895 56.6443C48.9724 56.7071 48.6403 56.6912 48.3163 56.7233C47.6789 56.7864 47.0431 56.8672 46.4052 56.9238C45.8617 56.9721 45.3233 57.0623 44.7773 57.0922C44.336 57.1163 43.8974 57.1866 43.4563 57.2195C43.1033 57.246 42.7486 57.2449 42.3946 57.2633C41.6406 57.3025 40.8843 57.2992 40.1309 57.3463C39.8333 57.3649 39.5324 57.3302 39.2311 57.4132C39.1151 57.4452 38.9391 57.3495 38.787 57.369C38.383 57.4208 37.9801 57.428 37.5764 57.3703C37.0623 57.2968 36.5435 57.3378 36.0269 57.3075C35.3832 57.2698 34.7388 57.2557 34.0963 57.1817C33.6499 57.1303 33.1991 57.1074 32.7486 57.0842C32.221 57.0571 31.6967 56.9664 31.1703 56.9111C30.5835 56.8494 29.9946 56.8091 29.4094 56.735C29.0523 56.6898 28.707 56.5721 28.3458 56.5308C27.7914 56.4673 27.2375 56.3964 26.6868 56.3069C26.4291 56.2651 26.1681 56.1938 25.9149 56.1696C25.5086 56.1309 25.1239 56.005 24.7485 55.8914C24.3463 55.7698 23.9397 55.6515 23.5359 55.531C22.9182 55.3464 22.2823 55.2217 21.6687 55.0247C21.2897 54.9028 20.9041 54.7963 20.5287 54.6502C20.1189 54.4906 19.6968 54.3493 19.2796 54.2017C18.6542 53.9805 18.041 53.7297 17.4355 53.4555C16.8905 53.2087 16.3702 52.9065 15.8094 52.6989C15.4243 52.5563 15.117 52.2864 14.7473 52.1228C14.3297 51.9377 13.9706 51.6544 13.5887 51.4096C13.3748 51.2725 13.1524 51.1462 12.9256 51.0319C12.6983 50.9175 12.4836 50.7852 12.3124 50.5997C12.1423 50.4153 11.8948 50.3645 11.7081 50.2069C11.3437 49.8995 10.9354 49.653 10.5848 49.3179C10.2877 49.0342 9.95817 48.7563 9.5633 48.591C9.53164 48.5777 9.5073 48.5618 9.48701 48.5312C9.12663 47.9886 8.61164 47.5901 8.15143 47.1447C7.96029 46.9601 7.83732 46.7361 7.65632 46.5506C7.34383 46.23 7.10196 45.8484 6.77365 45.5353C6.62917 45.3975 6.53786 45.1847 6.41571 45.01C6.21158 44.7182 6.00461 44.4293 5.78221 44.1513C5.50097 43.8003 5.26235 43.4188 5.04117 43.0294C4.80295 42.6099 4.57813 42.1803 4.32936 41.769C4.06192 41.3268 3.83587 40.8634 3.57451 40.4188C3.43045 40.1741 3.37363 39.8835 3.23687 39.6284C2.87893 38.9596 2.6541 38.2369 2.3891 37.5295C2.20891 37.0495 2.06808 36.5565 1.9366 36.0681C1.76047 35.4147 1.54742 34.7658 1.50399 34.0732C1.48167 33.7151 1.35181 33.3537 1.30269 32.9873C1.2751 32.7817 1.24832 32.5759 1.20895 32.2787Z"/>
</mask>
<path d="M1.20895 32.2787C1.12738 32.1119 1.24953 31.8233 1.10669 31.5667C1.01091 31.3954 1.09247 31.1778 0.967482 30.9894C0.929335 30.932 0.951659 30.7076 0.99671 30.5723C1.11967 30.1997 1.06245 29.8231 1.06894 29.4442C1.0799 28.7618 0.920813 28.0837 1.02146 27.4022C1.09857 26.8807 1.06853 26.3418 1.2057 25.8365C1.28444 25.5457 1.24345 25.2385 1.38061 24.9599C1.45083 24.8171 1.38833 24.643 1.4212 24.4817C1.5255 23.9722 1.64278 23.4658 1.75519 22.9585C1.8948 22.3264 2.02507 21.6889 2.20485 21.07C2.33147 20.6332 2.43983 20.1875 2.5985 19.7572C2.92479 18.8716 3.32413 18.0185 3.71047 17.1593C3.98724 16.5428 4.35126 15.9733 4.70068 15.397C5.13614 14.6784 5.56428 13.9549 6.05777 13.2728C6.37716 12.8315 6.73185 12.4201 7.09425 12.0152C7.53417 11.5239 7.96029 11.0189 8.42171 10.5486C9.11893 9.83821 9.80923 9.12115 10.5645 8.46805C11.1099 7.99624 11.7361 7.63729 12.2848 7.17659C12.6922 6.8344 13.1894 6.63725 13.596 6.29842C13.6914 6.219 13.8269 6.18999 13.9365 6.12575C14.3488 5.88481 14.7486 5.62098 15.1718 5.40155C15.4267 5.26925 15.7014 5.1699 15.9612 5.04243C16.3491 4.8521 16.7294 4.64435 17.1251 4.4722C17.6108 4.26068 18.106 4.06804 18.6039 3.8857C19.2285 3.65694 19.8672 3.46535 20.4869 3.22384C21.1659 2.95904 21.8858 2.85575 22.577 2.64403C22.9901 2.5175 23.4215 2.46235 23.8281 2.32392C24.0805 2.23813 24.3752 2.28699 24.589 2.08424C25.0975 2.07385 25.5821 1.9146 26.0813 1.84253C26.8722 1.72841 27.6551 1.55971 28.444 1.43138C28.8851 1.35968 29.3396 1.35825 29.7735 1.26053C30.2292 1.1579 30.6874 1.08696 31.148 1.06293C31.9333 1.02194 32.7153 0.938792 33.4982 0.876011C34.4312 0.801177 35.3666 0.783401 36.2984 0.710433C36.668 0.681457 37.0387 0.68519 37.4089 0.640915C37.9374 0.577687 38.4744 0.56669 39.0071 0.594774C39.7357 0.633205 40.4642 0.616201 41.1923 0.612345C41.4736 0.610803 41.7586 0.616606 42.043 0.594732C42.2712 0.5772 42.5414 0.622329 42.7799 0.679226C43.0704 0.748541 43.3559 0.689248 43.642 0.724961C44.2279 0.798213 44.8235 0.737016 45.4056 0.807102C45.9378 0.871182 46.4733 0.914199 47.0042 0.99581C47.3823 1.05388 47.7668 1.07044 48.1486 1.10388C48.6588 1.14856 49.1625 1.246 49.6704 1.3014C50.0831 1.34641 50.4842 1.45703 50.9097 1.45241C51.157 1.44973 51.4188 1.57842 51.6815 1.62699C52.137 1.7112 52.5826 1.85876 53.0405 1.91716C53.4431 1.9685 53.8066 2.13582 54.1971 2.21686C54.5344 2.28683 54.8774 2.3488 55.2039 2.45123C55.5359 2.55536 55.8791 2.6009 56.2106 2.70471C56.652 2.84297 57.1145 2.91436 57.5553 3.05417C57.9351 3.17466 58.3237 3.25842 58.7035 3.37546C58.7519 3.39039 58.7753 3.43162 58.809 3.46381C58.8789 3.53061 58.9462 3.6112 59.0652 3.52261C59.1283 3.4757 59.2068 3.53138 59.2767 3.5554C59.6144 3.67147 59.9041 3.89788 60.2529 3.98623C60.8171 4.12916 61.3292 4.40297 61.8455 4.65288C62.4021 4.92231 62.9962 5.10542 63.5245 5.44619C64.0576 5.79017 64.6433 6.05172 65.1897 6.37683C65.4433 6.52776 65.6444 6.765 65.8934 6.92596C66.5202 7.33125 67.0805 7.82511 67.6728 8.27415C67.9076 8.45223 68.1554 8.64727 68.38 8.85765C68.798 9.24931 69.183 9.67348 69.6056 10.0593C69.8109 10.2469 70.027 10.4247 70.2159 10.6277C70.3933 10.8183 70.5328 11.0436 70.7038 11.2409C71.4855 12.1429 72.2232 13.0777 72.8707 14.0823C73.2237 14.63 73.6001 15.1629 73.9452 15.7154C74.1606 16.0601 74.3433 16.4259 74.5292 16.788C74.6425 17.0087 74.8144 17.1925 74.9014 17.43C75.0596 17.8617 75.3503 18.2289 75.4414 18.7016C75.5272 19.146 75.7223 19.5668 75.9191 19.9825C76.0116 20.1779 76.0488 20.4124 76.111 20.6293C76.2121 20.9822 76.3525 21.323 76.4467 21.675C76.5045 21.8912 76.566 22.1102 76.612 22.331C76.6317 22.4255 76.6491 22.5159 76.7156 22.5895C76.748 22.6254 76.7717 22.6635 76.7681 22.7158C76.7393 23.1402 76.9165 23.5286 76.9788 23.9361C77.0224 24.2206 77.0569 24.5094 77.1287 24.7852C77.1779 24.9738 77.0936 25.1916 77.2634 25.3605C77.3054 25.4023 77.2349 25.5205 77.2406 25.6181C77.2687 26.0975 77.3285 26.573 77.3727 27.0505C77.4054 27.4037 77.4052 27.7599 77.42 28.1147C77.4397 28.5877 77.4766 29.0608 77.474 29.5336C77.472 29.9042 77.4291 30.2754 77.3867 30.6443C77.3743 30.7521 77.3655 30.8589 77.3686 30.9656C77.377 31.2517 77.2875 31.5216 77.2449 31.7992C77.1662 32.3106 77.1008 32.8244 77.0468 33.3391C77.0115 33.6762 76.8682 33.9876 76.8337 34.3222C76.7805 34.8369 76.5309 35.2994 76.446 35.8028C76.4023 36.0621 76.2514 36.3 76.2988 36.5782C76.3123 36.6578 76.2149 36.7008 76.1875 36.7809C75.9312 37.5308 75.6715 38.2797 75.397 39.0231C75.1583 39.6699 74.8397 40.28 74.5196 40.8905C74.3747 41.1667 74.2396 41.4548 74.0971 41.7319C73.9672 41.9843 73.8244 42.24 73.6619 42.4805C73.3865 42.8881 73.1114 43.2991 72.8779 43.7311C72.4716 44.4826 71.8901 45.1031 71.399 45.7906C71.2154 46.0476 70.9477 46.2194 70.7571 46.4726C70.4221 46.9177 69.9857 47.2761 69.6475 47.7206C69.5383 47.864 69.362 47.9199 69.2367 48.0425C68.9135 48.3584 68.5481 48.6247 68.2059 48.9183C68.0082 49.0879 67.8249 49.2752 67.6426 49.4616C67.4805 49.6273 67.2622 49.7077 67.0856 49.8532C66.6708 50.1951 66.2057 50.4691 65.7799 50.7984C65.5906 50.9448 65.3369 51.048 65.1783 51.1982C64.9746 51.3913 64.6445 51.3579 64.5078 51.6367C64.4914 51.6703 64.3373 51.6543 64.2408 51.7151C63.7598 52.0181 63.2463 52.2638 62.7395 52.5207C62.2476 52.7701 61.7605 53.0299 61.2604 53.2616C60.8827 53.4366 60.4776 53.5541 60.113 53.7579C59.4688 54.1179 58.7551 54.2754 58.0621 54.4968C57.622 54.6373 57.2039 54.842 56.755 54.9617C56.4765 55.036 56.2056 55.1396 55.9262 55.2095C55.3923 55.3432 54.8547 55.4621 54.3188 55.5873C53.7001 55.7319 53.0832 55.8848 52.4622 56.0187C52.0265 56.1127 51.5965 56.2274 51.1543 56.3012C50.5317 56.405 49.9096 56.5214 49.2895 56.6443C48.9724 56.7071 48.6403 56.6912 48.3163 56.7233C47.6789 56.7864 47.0431 56.8672 46.4052 56.9238C45.8617 56.9721 45.3233 57.0623 44.7773 57.0922C44.336 57.1163 43.8974 57.1866 43.4563 57.2195C43.1033 57.246 42.7486 57.2449 42.3946 57.2633C41.6406 57.3025 40.8843 57.2992 40.1309 57.3463C39.8333 57.3649 39.5324 57.3302 39.2311 57.4132C39.1151 57.4452 38.9391 57.3495 38.787 57.369C38.383 57.4208 37.9801 57.428 37.5764 57.3703C37.0623 57.2968 36.5435 57.3378 36.0269 57.3075C35.3832 57.2698 34.7388 57.2557 34.0963 57.1817C33.6499 57.1303 33.1991 57.1074 32.7486 57.0842C32.221 57.0571 31.6967 56.9664 31.1703 56.9111C30.5835 56.8494 29.9946 56.8091 29.4094 56.735C29.0523 56.6898 28.707 56.5721 28.3458 56.5308C27.7914 56.4673 27.2375 56.3964 26.6868 56.3069C26.4291 56.2651 26.1681 56.1938 25.9149 56.1696C25.5086 56.1309 25.1239 56.005 24.7485 55.8914C24.3463 55.7698 23.9397 55.6515 23.5359 55.531C22.9182 55.3464 22.2823 55.2217 21.6687 55.0247C21.2897 54.9028 20.9041 54.7963 20.5287 54.6502C20.1189 54.4906 19.6968 54.3493 19.2796 54.2017C18.6542 53.9805 18.041 53.7297 17.4355 53.4555C16.8905 53.2087 16.3702 52.9065 15.8094 52.6989C15.4243 52.5563 15.117 52.2864 14.7473 52.1228C14.3297 51.9377 13.9706 51.6544 13.5887 51.4096C13.3748 51.2725 13.1524 51.1462 12.9256 51.0319C12.6983 50.9175 12.4836 50.7852 12.3124 50.5997C12.1423 50.4153 11.8948 50.3645 11.7081 50.2069C11.3437 49.8995 10.9354 49.653 10.5848 49.3179C10.2877 49.0342 9.95817 48.7563 9.5633 48.591C9.53164 48.5777 9.5073 48.5618 9.48701 48.5312C9.12663 47.9886 8.61164 47.5901 8.15143 47.1447C7.96029 46.9601 7.83732 46.7361 7.65632 46.5506C7.34383 46.23 7.10196 45.8484 6.77365 45.5353C6.62917 45.3975 6.53786 45.1847 6.41571 45.01C6.21158 44.7182 6.00461 44.4293 5.78221 44.1513C5.50097 43.8003 5.26235 43.4188 5.04117 43.0294C4.80295 42.6099 4.57813 42.1803 4.32936 41.769C4.06192 41.3268 3.83587 40.8634 3.57451 40.4188C3.43045 40.1741 3.37363 39.8835 3.23687 39.6284C2.87893 38.9596 2.6541 38.2369 2.3891 37.5295C2.20891 37.0495 2.06808 36.5565 1.9366 36.0681C1.76047 35.4147 1.54742 34.7658 1.50399 34.0732C1.48167 33.7151 1.35181 33.3537 1.30269 32.9873C1.2751 32.7817 1.24832 32.5759 1.20895 32.2787Z" stroke="#181818" stroke-width="2" mask="url(#path-4-inside-1_525_31954)"/>
</svg>
