<svg width="28" height="27" viewBox="0 0 28 27" fill="none" xmlns="http://www.w3.org/2000/svg">
<g style="mix-blend-mode:luminosity" clip-path="url(#clip0_132_182294)">
<path d="M27.3509 0.760254L15.3364 9.56548L17.5706 4.37631L27.3509 0.760254Z" fill="#E17726"/>
<path d="M0.677086 0.770752L10.4313 4.37706L12.5527 9.63426L0.677086 0.770752ZM22.5159 19.4866L27.8261 19.5867L25.9703 25.8313L19.4906 24.0643L22.5159 19.4866ZM5.4839 19.4866L8.49794 24.0643L2.02918 25.8314L0.18457 19.5867L5.4839 19.4866Z" fill="#E27625"/>
<path d="M12.2645 8.29499L12.4815 15.2373L5.98779 14.9447L7.83492 12.1846L7.85832 12.158L12.2645 8.29499ZM15.6686 8.21753L20.142 12.1583L20.1652 12.1847L22.0123 14.9448L15.52 15.2373L15.6686 8.21753ZM8.68837 19.5066L12.2341 22.243L8.11525 24.2126L8.68837 19.5066ZM19.3126 19.5062L19.8738 24.2127L15.7665 22.2428L19.3126 19.5062Z" fill="#E27625"/>
<path d="M15.8571 21.9851L20.0251 23.9841L16.1481 25.8091L16.1883 24.6029L15.8571 21.9851ZM12.142 21.986L11.8238 24.5832L11.85 25.8076L7.96387 23.9841L12.142 21.986Z" fill="#D5BFB2"/>
<path d="M10.9383 16.1436L12.0275 18.4108L8.31934 17.3348L10.9383 16.1436ZM17.0617 16.1438L19.693 17.3348L15.9727 18.4104L17.0617 16.1438Z" fill="#233447"/>
<path d="M8.97171 19.4836L8.37234 24.3629L5.15967 19.5903L8.97171 19.4836ZM19.0287 19.4837L22.8409 19.5903L19.6162 24.3632L19.0287 19.4837ZM22.1061 14.6689L19.3318 17.4695L17.1928 16.5013L16.1687 18.6337L15.4974 14.9668L22.1061 14.6689ZM5.8927 14.6689L12.5028 14.9668L11.8313 18.6337L10.807 16.5016L8.67936 17.4696L5.8927 14.6689Z" fill="#CC6228"/>
<path d="M5.70557 14.0943L8.84441 17.249L8.95313 20.3635L5.70557 14.0943ZM22.2974 14.0886L19.044 20.369L19.1665 17.249L22.2974 14.0886ZM12.3491 14.2864L12.4754 15.074L12.7876 17.036L12.5869 23.0621L11.6381 18.2212L11.6377 18.1712L12.3491 14.2864ZM15.6491 14.2755L16.3623 18.1712L16.362 18.2212L15.4107 23.0742L15.3731 21.8603L15.2247 17.0003L15.6491 14.2755Z" fill="#E27525"/>
<path d="M19.4456 17.1235L19.3394 19.8295L16.0281 22.3847L15.3588 21.9163L16.1091 18.0884L19.4456 17.1235ZM8.56592 17.1235L11.8908 18.0884L12.6411 21.9163L11.9717 22.3847L8.66042 19.8293L8.56592 17.1235Z" fill="#F5841F"/>
<path d="M7.33008 23.3865L11.5664 25.3746L11.5485 24.5256L11.9029 24.2174H16.0957L16.463 24.5245L16.4359 25.3729L20.6454 23.3915L18.597 25.068L16.1202 26.7529H11.8689L9.39377 25.0611L7.33008 23.3865Z" fill="#C0AC9D"/>
<path d="M15.5537 21.7205L16.1526 22.1396L16.5036 24.9134L15.9957 24.4886H12.0061L11.5078 24.9219L11.8473 22.1398L12.4465 21.7205H15.5537Z" fill="#161616"/>
<path d="M26.5578 1.00391L28 5.28925L27.0993 9.62226L27.7407 10.1122L26.8728 10.7681L27.5251 11.2671L26.6614 12.0461L27.1916 12.4265L25.7844 14.0543L20.0127 12.3897L19.9627 12.3632L15.8035 8.88808L26.5578 1.00391ZM1.44222 1.00391L12.1966 8.88808L8.03731 12.3632L7.98733 12.3897L2.21561 14.0543L0.808391 12.4265L1.3382 12.0464L0.475016 11.2671L1.12602 10.7686L0.245109 10.1109L0.910656 9.62063L0 5.28946L1.44222 1.00391Z" fill="#763E1A"/>
<path d="M19.7302 12.0259L25.8457 13.7894L27.8325 19.8546H22.5908L18.9792 19.8996L21.6058 14.8288L19.7302 12.0259ZM8.26946 12.0259L6.39357 14.8288L9.02043 19.8996L5.4105 19.8546H0.178223L2.15386 13.7895L8.26946 12.0259ZM17.87 4.34741L16.1594 8.9233L15.7964 15.1048L15.6575 17.0423L15.6465 21.9919H12.3531L12.3424 17.0517L12.203 15.1032L11.8399 8.9233L10.1296 4.34741H17.87Z" fill="#F5841F"/>
</g>
<defs>
<clipPath id="clip0_132_182294">
<rect width="28" height="26" fill="white" transform="translate(0 0.760254)"/>
</clipPath>
</defs>
</svg>
