<svg width="77" height="57" viewBox="0 0 77 57" fill="none" xmlns="http://www.w3.org/2000/svg">
<path d="M44.358 47.6536C44.358 48.2866 43.9442 48.6761 42.9705 48.6761L42.654 48.6761L42.654 48.9438L47.7661 48.9438L47.7661 48.6761L47.4496 48.6761C46.4759 48.6761 46.0621 48.2866 46.0621 47.6536L46.0621 8.12096C46.0621 7.48803 46.4759 7.09854 47.4497 7.09854L47.7661 7.09854L47.7661 6.83076L42.654 6.83076L42.654 7.09854L42.9705 7.09854C43.9442 7.09854 44.358 7.48803 44.358 8.12096L44.358 47.6536Z" fill="#181818"/>
<path d="M58.2513 28.7396C58.8842 28.7396 59.2737 29.1535 59.2737 30.1272L59.2737 30.4437L59.5415 30.4437L59.5415 25.3315L59.2737 25.3315L59.2737 25.648C59.2737 26.6217 58.8842 27.0356 58.2513 27.0356L18.7186 27.0356C18.0857 27.0356 17.6962 26.6217 17.6962 25.648L17.6962 25.3315L17.4284 25.3315L17.4284 30.4437L17.6962 30.4437L17.6962 30.1272C17.6962 29.1535 18.0857 28.7396 18.7186 28.7396L58.2513 28.7396Z" fill="#181818"/>
<path d="M30.9088 47.6536C30.9088 48.2866 30.495 48.6761 29.5212 48.6761L29.2048 48.6761L29.2048 48.9438L34.3169 48.9438L34.3169 48.6761L34.0004 48.6761C33.0267 48.6761 32.6129 48.2866 32.6129 47.6536L32.6129 8.12096C32.6129 7.48803 33.0267 7.09854 34.0004 7.09854L34.3169 7.09854L34.3169 6.83076L29.2048 6.83076L29.2048 7.09854L29.5213 7.09854C30.495 7.09854 30.9088 7.48803 30.9088 8.12096L30.9088 47.6536Z" fill="#181818"/>
<mask id="path-4-inside-1_525_33350" fill="white">
<path d="M0.26071 31.8586C0.179137 31.6918 0.301291 31.4033 0.158446 31.1467C0.0626665 30.9753 0.144232 30.7578 0.01924 30.5694C-0.018907 30.5119 0.00341665 30.2875 0.0484682 30.1523C0.171431 29.7797 0.114203 29.403 0.120696 29.0241C0.131659 28.3417 -0.0274289 27.6636 0.0732181 26.9821C0.150328 26.4607 0.120292 25.9217 0.25746 25.4165C0.336196 25.1256 0.295203 24.8185 0.432372 24.5398C0.502585 24.397 0.440085 24.2229 0.47296 24.0617C0.577254 23.5521 0.694541 23.0457 0.806952 22.5385C0.946555 21.9063 1.07683 21.2689 1.25661 20.6499C1.38322 20.2131 1.49158 19.7675 1.65026 19.3372C1.97655 18.4516 2.37588 17.5985 2.76223 16.7393C3.039 16.1228 3.40302 15.5532 3.75244 14.977C4.1879 14.2584 4.61604 13.5348 5.10953 12.8528C5.42892 12.4115 5.78361 12.0001 6.14601 11.5951C6.58593 11.1038 7.01205 10.5988 7.47347 10.1285C8.17068 9.41816 8.86099 8.70111 9.61624 8.04801C10.1617 7.5762 10.7879 7.21724 11.3365 6.75655C11.744 6.41436 12.2411 6.2172 12.6478 5.87838C12.7431 5.79896 12.8787 5.76994 12.9883 5.7057C13.4006 5.46476 13.8003 5.20093 14.2236 4.9815C14.4784 4.8492 14.7532 4.74986 15.0129 4.62239C15.4009 4.43205 15.7811 4.22431 16.1768 4.05216C16.6626 3.84064 17.1577 3.648 17.6557 3.46566C18.2802 3.23689 18.919 3.0453 19.5387 2.80379C20.2177 2.53899 20.9376 2.43571 21.6287 2.22399C22.0418 2.09745 22.4732 2.0423 22.8799 1.90387C23.1323 1.81808 23.4269 1.86694 23.6408 1.66419C24.1493 1.6538 24.6339 1.49456 25.133 1.42248C25.924 1.30836 26.7068 1.13966 27.4957 1.01134C27.9369 0.939631 28.3914 0.93821 28.8252 0.840487C29.281 0.737853 29.7392 0.666914 30.1998 0.642889C30.985 0.601901 31.7671 0.518749 32.5499 0.455967C33.4829 0.381133 34.4183 0.363357 35.3501 0.290389C35.7197 0.261413 36.0905 0.265146 36.4607 0.220871C36.9891 0.157643 37.5261 0.146646 38.0589 0.17473C38.7874 0.213162 39.516 0.196157 40.2441 0.192301C40.5254 0.190759 40.8103 0.196562 41.0948 0.174688C41.323 0.157156 41.5932 0.202285 41.8317 0.259182C42.1222 0.328497 42.4077 0.269204 42.6937 0.304917C43.2796 0.378169 43.8753 0.316972 44.4573 0.387058C44.9895 0.451138 45.525 0.494155 46.0559 0.575766C46.4341 0.63384 46.8186 0.650399 47.2004 0.683839C47.7106 0.728521 48.2142 0.82596 48.7222 0.881355C49.1348 0.926362 49.536 1.03699 49.9615 1.03236C50.2087 1.02969 50.4706 1.15837 50.7332 1.20695C51.1887 1.29116 51.6344 1.43872 52.0922 1.49712C52.4949 1.54845 52.8584 1.71578 53.2489 1.79682C53.5862 1.86678 53.9291 1.92875 54.2556 2.03118C54.5876 2.13532 54.9308 2.18085 55.2624 2.28466C55.7038 2.42293 56.1662 2.49431 56.607 2.63412C56.9869 2.75461 57.3754 2.83837 57.7553 2.95541C57.8037 2.97035 57.8271 3.01158 57.8608 3.04376C57.9307 3.11056 57.9979 3.19116 58.117 3.10257C58.1801 3.05565 58.2585 3.11133 58.3284 3.13536C58.6662 3.25143 58.9559 3.47783 59.3046 3.56618C59.8689 3.70912 60.3809 3.98293 60.8972 4.23284C61.4539 4.50226 62.048 4.68537 62.5762 5.02614C63.1094 5.37012 63.6951 5.63168 64.2415 5.95679C64.4951 6.10771 64.6962 6.34496 64.9451 6.50591C65.572 6.91121 66.1323 7.40506 66.7246 7.85411C66.9594 8.03219 67.2072 8.22723 67.4318 8.43761C67.8498 8.82927 68.2348 9.25344 68.6573 9.6393C68.8627 9.82683 69.0787 10.0047 69.2677 10.2077C69.445 10.3982 69.5846 10.6236 69.7556 10.8208C70.5372 11.7229 71.275 12.6576 71.9225 13.6622C72.2755 14.21 72.6518 14.7429 72.997 15.2954C73.2123 15.6401 73.3951 16.0058 73.581 16.368C73.6943 16.5886 73.8662 16.7725 73.9532 17.0099C74.1113 17.4416 74.4021 17.8088 74.4932 18.2815C74.5789 18.7259 74.774 19.1468 74.9709 19.5625C75.0633 19.7578 75.1006 19.9923 75.1627 20.2092C75.2638 20.5621 75.4042 20.903 75.4984 21.2549C75.5563 21.4712 75.6177 21.6902 75.6638 21.9109C75.6835 22.0054 75.7009 22.0959 75.7673 22.1694C75.7998 22.2053 75.8234 22.2435 75.8198 22.2958C75.791 22.7202 75.9683 23.1085 76.0306 23.5161C76.0741 23.8005 76.1086 24.0894 76.1805 24.3652C76.2296 24.5537 76.1454 24.7716 76.3152 24.9404C76.3572 24.9823 76.2866 25.1005 76.2924 25.1981C76.3205 25.6774 76.3802 26.153 76.4244 26.6304C76.4572 26.9836 76.457 27.3398 76.4717 27.6947C76.4914 28.1677 76.5284 28.6408 76.5257 29.1136C76.5237 29.4841 76.4808 29.8553 76.4385 30.2242C76.4261 30.3321 76.4172 30.4388 76.4204 30.5456C76.4287 30.8317 76.3393 31.1016 76.2966 31.3792C76.218 31.8905 76.1525 32.4044 76.0986 32.919C76.0632 33.2562 75.92 33.5675 75.8854 33.9022C75.8322 34.4169 75.5827 34.8794 75.4978 35.3827C75.454 35.6421 75.3031 35.8799 75.3505 36.1582C75.3641 36.2378 75.2666 36.2808 75.2392 36.3608C74.983 37.1108 74.7232 37.8597 74.4488 38.603C74.21 39.2498 73.8914 39.8599 73.5713 40.4704C73.4264 40.7467 73.2914 41.0348 73.1488 41.3119C73.0189 41.5643 72.8762 41.82 72.7137 42.0605C72.4382 42.4681 72.1632 42.8791 71.9296 43.3111C71.5234 44.0626 70.9418 44.6831 70.4507 45.3705C70.2671 45.6275 69.9994 45.7994 69.8089 46.0526C69.4739 46.4976 69.0375 46.8561 68.6993 47.3005C68.5901 47.4439 68.4138 47.4999 68.2885 47.6224C67.9652 47.9383 67.5998 48.2047 67.2576 48.4983C67.06 48.6679 66.8767 48.8551 66.6943 49.0416C66.5323 49.2073 66.314 49.2877 66.1374 49.4332C65.7225 49.775 65.2574 50.0491 64.8317 50.3783C64.6423 50.5248 64.3886 50.6279 64.2301 50.7782C64.0264 50.9713 63.6962 50.9379 63.5596 51.2167C63.5431 51.2503 63.3891 51.2343 63.2926 51.2951C62.8116 51.598 62.2981 51.8437 61.7912 52.1007C61.2994 52.35 60.8123 52.6098 60.3122 52.8416C59.9344 53.0166 59.5294 53.1341 59.1648 53.3378C58.5206 53.6978 57.8068 53.8554 57.1139 54.0767C56.6737 54.2172 56.2557 54.4219 55.8068 54.5417C55.5283 54.616 55.2573 54.7195 54.9779 54.7895C54.4441 54.9232 53.9065 55.0421 53.3706 55.1673C52.7519 55.3119 52.1349 55.4648 51.5139 55.5987C51.0782 55.6926 50.6482 55.8074 50.206 55.8811C49.5835 55.9849 48.9614 56.1014 48.3412 56.2243C48.0241 56.2871 47.6921 56.2711 47.368 56.3032C46.7306 56.3664 46.0949 56.4472 45.4569 56.5038C44.9135 56.552 44.375 56.6422 43.8291 56.6721C43.3878 56.6962 42.9491 56.7665 42.5081 56.7995C42.1551 56.8259 41.8004 56.8249 41.4464 56.8433C40.6924 56.8825 39.936 56.8792 39.1827 56.9263C38.8851 56.9449 38.5842 56.9101 38.2829 56.9932C38.1668 57.0252 37.9909 56.9294 37.8388 56.949C37.4347 57.0007 37.0319 57.0079 36.6281 56.9502C36.114 56.8767 35.5952 56.9178 35.0786 56.8875C34.435 56.8498 33.7905 56.8357 33.1481 56.7617C32.7017 56.7102 32.2508 56.6873 31.8003 56.6642C31.2728 56.6371 30.7484 56.5464 30.2221 56.491C29.6353 56.4293 29.0464 56.389 28.4612 56.315C28.1041 56.2697 27.7587 56.1521 27.3975 56.1108C26.8432 56.0473 26.2892 55.9764 25.7385 55.8869C25.4808 55.845 25.2199 55.7738 24.9666 55.7496C24.5604 55.7108 24.1757 55.585 23.8003 55.4714C23.3981 55.3497 22.9915 55.2315 22.5877 55.1109C21.97 54.9264 21.3341 54.8017 20.7205 54.6047C20.3414 54.4828 19.9559 54.3763 19.5805 54.2302C19.1706 54.0705 18.7486 53.9293 18.3314 53.7816C17.706 53.5605 17.0928 53.3097 16.4873 53.0355C15.9423 52.7886 15.422 52.4864 14.8611 52.2789C14.476 52.1363 14.1688 51.8663 13.7991 51.7027C13.3815 51.5177 13.0223 51.2344 12.6405 50.9896C12.4266 50.8524 12.2042 50.7261 11.9773 50.6119C11.7501 50.4975 11.5354 50.3652 11.3641 50.1796C11.1941 49.9952 10.9465 49.9444 10.7599 49.7869C10.3954 49.4795 9.98717 49.233 9.63653 48.8978C9.33946 48.6141 9.00993 48.3362 8.61506 48.171C8.5834 48.1576 8.55906 48.1418 8.53876 48.1111C8.17839 47.5686 7.6634 47.1701 7.20318 46.7246C7.01204 46.54 6.88908 46.3161 6.70808 46.1305C6.39559 45.8099 6.15372 45.4284 5.82541 45.1153C5.68093 44.9775 5.58962 44.7647 5.46747 44.5899C5.26333 44.2981 5.05636 44.0092 4.83397 43.7312C4.55273 43.3803 4.31411 42.9987 4.09293 42.6094C3.85471 42.1899 3.62989 41.7602 3.38112 41.349C3.11368 40.9068 2.88762 40.4433 2.62627 39.9988C2.48221 39.7541 2.42539 39.4634 2.28863 39.2083C1.93069 38.5395 1.70585 37.8168 1.44086 37.1094C1.26066 36.6295 1.11984 36.1365 0.988356 35.648C0.812224 34.9947 0.599173 34.3458 0.555747 33.6531C0.533431 33.2951 0.403563 32.9336 0.354453 32.5673C0.326857 32.3616 0.300078 32.1559 0.26071 31.8586Z"/>
</mask>
<path d="M0.26071 31.8586C0.179137 31.6918 0.301291 31.4033 0.158446 31.1467C0.0626665 30.9753 0.144232 30.7578 0.01924 30.5694C-0.018907 30.5119 0.00341665 30.2875 0.0484682 30.1523C0.171431 29.7797 0.114203 29.403 0.120696 29.0241C0.131659 28.3417 -0.0274289 27.6636 0.0732181 26.9821C0.150328 26.4607 0.120292 25.9217 0.25746 25.4165C0.336196 25.1256 0.295203 24.8185 0.432372 24.5398C0.502585 24.397 0.440085 24.2229 0.47296 24.0617C0.577254 23.5521 0.694541 23.0457 0.806952 22.5385C0.946555 21.9063 1.07683 21.2689 1.25661 20.6499C1.38322 20.2131 1.49158 19.7675 1.65026 19.3372C1.97655 18.4516 2.37588 17.5985 2.76223 16.7393C3.039 16.1228 3.40302 15.5532 3.75244 14.977C4.1879 14.2584 4.61604 13.5348 5.10953 12.8528C5.42892 12.4115 5.78361 12.0001 6.14601 11.5951C6.58593 11.1038 7.01205 10.5988 7.47347 10.1285C8.17068 9.41816 8.86099 8.70111 9.61624 8.04801C10.1617 7.5762 10.7879 7.21724 11.3365 6.75655C11.744 6.41436 12.2411 6.2172 12.6478 5.87838C12.7431 5.79896 12.8787 5.76994 12.9883 5.7057C13.4006 5.46476 13.8003 5.20093 14.2236 4.9815C14.4784 4.8492 14.7532 4.74986 15.0129 4.62239C15.4009 4.43205 15.7811 4.22431 16.1768 4.05216C16.6626 3.84064 17.1577 3.648 17.6557 3.46566C18.2802 3.23689 18.919 3.0453 19.5387 2.80379C20.2177 2.53899 20.9376 2.43571 21.6287 2.22399C22.0418 2.09745 22.4732 2.0423 22.8799 1.90387C23.1323 1.81808 23.4269 1.86694 23.6408 1.66419C24.1493 1.6538 24.6339 1.49456 25.133 1.42248C25.924 1.30836 26.7068 1.13966 27.4957 1.01134C27.9369 0.939631 28.3914 0.93821 28.8252 0.840487C29.281 0.737853 29.7392 0.666914 30.1998 0.642889C30.985 0.601901 31.7671 0.518749 32.5499 0.455967C33.4829 0.381133 34.4183 0.363357 35.3501 0.290389C35.7197 0.261413 36.0905 0.265146 36.4607 0.220871C36.9891 0.157643 37.5261 0.146646 38.0589 0.17473C38.7874 0.213162 39.516 0.196157 40.2441 0.192301C40.5254 0.190759 40.8103 0.196562 41.0948 0.174688C41.323 0.157156 41.5932 0.202285 41.8317 0.259182C42.1222 0.328497 42.4077 0.269204 42.6937 0.304917C43.2796 0.378169 43.8753 0.316972 44.4573 0.387058C44.9895 0.451138 45.525 0.494155 46.0559 0.575766C46.4341 0.63384 46.8186 0.650399 47.2004 0.683839C47.7106 0.728521 48.2142 0.82596 48.7222 0.881355C49.1348 0.926362 49.536 1.03699 49.9615 1.03236C50.2087 1.02969 50.4706 1.15837 50.7332 1.20695C51.1887 1.29116 51.6344 1.43872 52.0922 1.49712C52.4949 1.54845 52.8584 1.71578 53.2489 1.79682C53.5862 1.86678 53.9291 1.92875 54.2556 2.03118C54.5876 2.13532 54.9308 2.18085 55.2624 2.28466C55.7038 2.42293 56.1662 2.49431 56.607 2.63412C56.9869 2.75461 57.3754 2.83837 57.7553 2.95541C57.8037 2.97035 57.8271 3.01158 57.8608 3.04376C57.9307 3.11056 57.9979 3.19116 58.117 3.10257C58.1801 3.05565 58.2585 3.11133 58.3284 3.13536C58.6662 3.25143 58.9559 3.47783 59.3046 3.56618C59.8689 3.70912 60.3809 3.98293 60.8972 4.23284C61.4539 4.50226 62.048 4.68537 62.5762 5.02614C63.1094 5.37012 63.6951 5.63168 64.2415 5.95679C64.4951 6.10771 64.6962 6.34496 64.9451 6.50591C65.572 6.91121 66.1323 7.40506 66.7246 7.85411C66.9594 8.03219 67.2072 8.22723 67.4318 8.43761C67.8498 8.82927 68.2348 9.25344 68.6573 9.6393C68.8627 9.82683 69.0787 10.0047 69.2677 10.2077C69.445 10.3982 69.5846 10.6236 69.7556 10.8208C70.5372 11.7229 71.275 12.6576 71.9225 13.6622C72.2755 14.21 72.6518 14.7429 72.997 15.2954C73.2123 15.6401 73.3951 16.0058 73.581 16.368C73.6943 16.5886 73.8662 16.7725 73.9532 17.0099C74.1113 17.4416 74.4021 17.8088 74.4932 18.2815C74.5789 18.7259 74.774 19.1468 74.9709 19.5625C75.0633 19.7578 75.1006 19.9923 75.1627 20.2092C75.2638 20.5621 75.4042 20.903 75.4984 21.2549C75.5563 21.4712 75.6177 21.6902 75.6638 21.9109C75.6835 22.0054 75.7009 22.0959 75.7673 22.1694C75.7998 22.2053 75.8234 22.2435 75.8198 22.2958C75.791 22.7202 75.9683 23.1085 76.0306 23.5161C76.0741 23.8005 76.1086 24.0894 76.1805 24.3652C76.2296 24.5537 76.1454 24.7716 76.3152 24.9404C76.3572 24.9823 76.2866 25.1005 76.2924 25.1981C76.3205 25.6774 76.3802 26.153 76.4244 26.6304C76.4572 26.9836 76.457 27.3398 76.4717 27.6947C76.4914 28.1677 76.5284 28.6408 76.5257 29.1136C76.5237 29.4841 76.4808 29.8553 76.4385 30.2242C76.4261 30.3321 76.4172 30.4388 76.4204 30.5456C76.4287 30.8317 76.3393 31.1016 76.2966 31.3792C76.218 31.8905 76.1525 32.4044 76.0986 32.919C76.0632 33.2562 75.92 33.5675 75.8854 33.9022C75.8322 34.4169 75.5827 34.8794 75.4978 35.3827C75.454 35.6421 75.3031 35.8799 75.3505 36.1582C75.3641 36.2378 75.2666 36.2808 75.2392 36.3608C74.983 37.1108 74.7232 37.8597 74.4488 38.603C74.21 39.2498 73.8914 39.8599 73.5713 40.4704C73.4264 40.7467 73.2914 41.0348 73.1488 41.3119C73.0189 41.5643 72.8762 41.82 72.7137 42.0605C72.4382 42.4681 72.1632 42.8791 71.9296 43.3111C71.5234 44.0626 70.9418 44.6831 70.4507 45.3705C70.2671 45.6275 69.9994 45.7994 69.8089 46.0526C69.4739 46.4976 69.0375 46.8561 68.6993 47.3005C68.5901 47.4439 68.4138 47.4999 68.2885 47.6224C67.9652 47.9383 67.5998 48.2047 67.2576 48.4983C67.06 48.6679 66.8767 48.8551 66.6943 49.0416C66.5323 49.2073 66.314 49.2877 66.1374 49.4332C65.7225 49.775 65.2574 50.0491 64.8317 50.3783C64.6423 50.5248 64.3886 50.6279 64.2301 50.7782C64.0264 50.9713 63.6962 50.9379 63.5596 51.2167C63.5431 51.2503 63.3891 51.2343 63.2926 51.2951C62.8116 51.598 62.2981 51.8437 61.7912 52.1007C61.2994 52.35 60.8123 52.6098 60.3122 52.8416C59.9344 53.0166 59.5294 53.1341 59.1648 53.3378C58.5206 53.6978 57.8068 53.8554 57.1139 54.0767C56.6737 54.2172 56.2557 54.4219 55.8068 54.5417C55.5283 54.616 55.2573 54.7195 54.9779 54.7895C54.4441 54.9232 53.9065 55.0421 53.3706 55.1673C52.7519 55.3119 52.1349 55.4648 51.5139 55.5987C51.0782 55.6926 50.6482 55.8074 50.206 55.8811C49.5835 55.9849 48.9614 56.1014 48.3412 56.2243C48.0241 56.2871 47.6921 56.2711 47.368 56.3032C46.7306 56.3664 46.0949 56.4472 45.4569 56.5038C44.9135 56.552 44.375 56.6422 43.8291 56.6721C43.3878 56.6962 42.9491 56.7665 42.5081 56.7995C42.1551 56.8259 41.8004 56.8249 41.4464 56.8433C40.6924 56.8825 39.936 56.8792 39.1827 56.9263C38.8851 56.9449 38.5842 56.9101 38.2829 56.9932C38.1668 57.0252 37.9909 56.9294 37.8388 56.949C37.4347 57.0007 37.0319 57.0079 36.6281 56.9502C36.114 56.8767 35.5952 56.9178 35.0786 56.8875C34.435 56.8498 33.7905 56.8357 33.1481 56.7617C32.7017 56.7102 32.2508 56.6873 31.8003 56.6642C31.2728 56.6371 30.7484 56.5464 30.2221 56.491C29.6353 56.4293 29.0464 56.389 28.4612 56.315C28.1041 56.2697 27.7587 56.1521 27.3975 56.1108C26.8432 56.0473 26.2892 55.9764 25.7385 55.8869C25.4808 55.845 25.2199 55.7738 24.9666 55.7496C24.5604 55.7108 24.1757 55.585 23.8003 55.4714C23.3981 55.3497 22.9915 55.2315 22.5877 55.1109C21.97 54.9264 21.3341 54.8017 20.7205 54.6047C20.3414 54.4828 19.9559 54.3763 19.5805 54.2302C19.1706 54.0705 18.7486 53.9293 18.3314 53.7816C17.706 53.5605 17.0928 53.3097 16.4873 53.0355C15.9423 52.7886 15.422 52.4864 14.8611 52.2789C14.476 52.1363 14.1688 51.8663 13.7991 51.7027C13.3815 51.5177 13.0223 51.2344 12.6405 50.9896C12.4266 50.8524 12.2042 50.7261 11.9773 50.6119C11.7501 50.4975 11.5354 50.3652 11.3641 50.1796C11.1941 49.9952 10.9465 49.9444 10.7599 49.7869C10.3954 49.4795 9.98717 49.233 9.63653 48.8978C9.33946 48.6141 9.00993 48.3362 8.61506 48.171C8.5834 48.1576 8.55906 48.1418 8.53876 48.1111C8.17839 47.5686 7.6634 47.1701 7.20318 46.7246C7.01204 46.54 6.88908 46.3161 6.70808 46.1305C6.39559 45.8099 6.15372 45.4284 5.82541 45.1153C5.68093 44.9775 5.58962 44.7647 5.46747 44.5899C5.26333 44.2981 5.05636 44.0092 4.83397 43.7312C4.55273 43.3803 4.31411 42.9987 4.09293 42.6094C3.85471 42.1899 3.62989 41.7602 3.38112 41.349C3.11368 40.9068 2.88762 40.4433 2.62627 39.9988C2.48221 39.7541 2.42539 39.4634 2.28863 39.2083C1.93069 38.5395 1.70585 37.8168 1.44086 37.1094C1.26066 36.6295 1.11984 36.1365 0.988356 35.648C0.812224 34.9947 0.599173 34.3458 0.555747 33.6531C0.533431 33.2951 0.403563 32.9336 0.354453 32.5673C0.326857 32.3616 0.300078 32.1559 0.26071 31.8586Z" stroke="#181818" stroke-width="2" mask="url(#path-4-inside-1_525_33350)"/>
</svg>
