<svg width="17" height="16" viewBox="0 0 17 16" fill="none" xmlns="http://www.w3.org/2000/svg">
<path d="M6.3291 14.0001C7.43367 14.0001 8.3291 13.1047 8.3291 12.0001C8.3291 10.8955 7.43367 10.0001 6.3291 10.0001C5.22453 10.0001 4.3291 10.8955 4.3291 12.0001C4.3291 13.1047 5.22453 14.0001 6.3291 14.0001Z" fill="#181818"/>
<path d="M8.3291 12.0001V3.726C8.3291 3.15452 8.3291 2.86878 8.44946 2.6967C8.55456 2.54643 8.71692 2.44608 8.89833 2.41928C9.10608 2.38859 9.36165 2.51637 9.8728 2.77195L12.3291 4.0001M8.3291 12.0001C8.3291 13.1047 7.43367 14.0001 6.3291 14.0001C5.22453 14.0001 4.3291 13.1047 4.3291 12.0001C4.3291 10.8955 5.22453 10.0001 6.3291 10.0001C7.43367 10.0001 8.3291 10.8955 8.3291 12.0001Z" stroke="#181818" stroke-linecap="round" stroke-linejoin="round"/>
</svg>
