<svg width="307" height="40" viewBox="0 0 307 40" fill="none" xmlns="http://www.w3.org/2000/svg">
<rect y="18.7651" width="306.628" height="0.648467" fill="#181818"/>
<path d="M137.938 10.2609C137.972 9.9749 138.387 9.9749 138.421 10.2609L138.706 12.6598C139.074 15.7575 141.516 18.1998 144.613 18.5674L147.012 18.852C147.298 18.886 147.298 19.3009 147.012 19.3349L144.613 19.6195C141.516 19.9871 139.074 22.4294 138.706 25.5271L138.421 27.926C138.387 28.212 137.972 28.212 137.938 27.926L137.654 25.5271C137.286 22.4294 134.844 19.9871 131.746 19.6195L129.347 19.3349C129.061 19.3009 129.061 18.886 129.347 18.852L131.746 18.5674C134.844 18.1998 137.286 15.7575 137.654 12.6598L137.938 10.2609Z" fill="#181818"/>
<path d="M167.915 10.2609C167.949 9.9749 168.364 9.9749 168.398 10.2609L168.683 12.6598C169.05 15.7575 171.492 18.1998 174.59 18.5674L176.989 18.852C177.275 18.886 177.275 19.3009 176.989 19.3349L174.59 19.6195C171.492 19.9871 169.05 22.4294 168.683 25.527L168.398 27.926C168.364 28.212 167.949 28.212 167.915 27.926L167.63 25.527C167.263 22.4294 164.82 19.9871 161.723 19.6195L159.324 19.3349C159.038 19.3009 159.038 18.886 159.324 18.852L161.723 18.5674C164.82 18.1998 167.263 15.7575 167.63 12.6598L167.915 10.2609Z" fill="#181818"/>
<path d="M153.27 0.491186C158.395 0.491185 162.965 2.60688 164.853 5.80178L168.557 5.80178L168.557 33.4397L165.242 33.4398C163.693 37.039 158.874 39.5093 153.27 39.5093C147.664 39.5093 142.846 37.0387 141.297 33.4395L137.982 33.4395L137.982 5.80154L141.686 5.80154C143.574 2.60697 148.145 0.491262 153.27 0.491262L153.27 0.491186Z" fill="#181818"/>
<path d="M150.023 27.4178V26.9021L150.435 26.8609C150.917 26.8059 151.281 26.7371 151.529 26.6546C151.79 26.5583 151.969 26.3658 152.065 26.077C152.161 25.7745 152.209 25.2863 152.209 24.6124V15.4535C152.209 14.7659 152.161 14.2777 152.065 13.9889C151.969 13.7001 151.79 13.5145 151.529 13.432C151.281 13.3357 150.917 13.2601 150.435 13.2051L150.023 13.1638V12.6481L153.076 12.71H153.096L156.149 12.6481V13.1638L155.737 13.2051C155.269 13.2601 154.905 13.3357 154.644 13.432C154.382 13.5145 154.204 13.7001 154.107 13.9889C154.011 14.2777 153.963 14.7659 153.963 15.4535V24.6124C153.963 25.2863 154.011 25.7745 154.107 26.077C154.204 26.3658 154.382 26.5583 154.644 26.6546C154.905 26.7371 155.269 26.8059 155.737 26.8609L156.149 26.9021V27.4178L153.096 27.356H153.076L150.023 27.4178Z" fill="#DFD4BF"/>
</svg>
