<svg width="505" height="26" viewBox="0 0 505 26" fill="none" xmlns="http://www.w3.org/2000/svg">
<path d="M26.6875 1.59375V2.14062C25.4271 2.14062 24.5677 2.30729 24.1094 2.64062C23.6615 2.96354 23.4375 3.61979 23.4375 4.60938V20.9844C23.4375 21.974 23.6615 22.6354 24.1094 22.9688C24.5573 23.2917 25.4167 23.4531 26.6875 23.4531V24H18.4375V23.4531C19.5729 23.4531 20.4062 23.2865 20.9375 22.9531C21.4688 22.6094 21.7344 21.9688 21.7344 21.0312V6.17188L13.4844 24H12.7344L4.14062 6.14062V20.9844C4.14062 21.974 4.36458 22.6354 4.8125 22.9688C5.27083 23.2917 6.13021 23.4531 7.39062 23.4531V24H0V23.4531C1.14583 23.4531 1.97917 23.2812 2.5 22.9375C3.03125 22.5833 3.29688 21.9219 3.29688 20.9531V4.64062C3.29688 3.67188 3.03125 3.01562 2.5 2.67188C1.97917 2.31771 1.14583 2.14062 0 2.14062V1.59375H3.96875L13.6094 21.8281L22.8594 1.59375H26.6875ZM34.1094 1.09375C32.724 1.09375 31.4271 1.44271 30.2188 2.14062C29.0208 2.83854 28.0573 3.80729 27.3281 5.04688C26.6094 6.27604 26.25 7.625 26.25 9.09375C26.25 11.3229 27.0052 13.1875 28.5156 14.6875C30.0365 16.1771 31.901 16.9219 34.1094 16.9219C35.4531 16.9219 36.7083 16.5729 37.875 15.875C39.0521 15.1771 39.9896 14.224 40.6875 13.0156C41.3854 11.8073 41.7344 10.5 41.7344 9.09375C41.7344 6.77083 41.0208 4.85938 39.5938 3.35938C38.1771 1.84896 36.349 1.09375 34.1094 1.09375ZM63.0781 24L58.5938 24.0312L49.2812 12.7969H45.8594V20.9844C45.8594 21.9948 46.0677 22.6667 46.4844 23C46.9115 23.3229 47.75 23.4844 49 23.4844V24.0312H40.9688V23.4844C42.1146 23.4844 42.9323 23.3125 43.4219 22.9688C43.9219 22.6146 44.1719 21.9531 44.1719 20.9844V4.70312C44.1719 3.69271 43.9271 3.01562 43.4375 2.67188C42.9479 2.31771 42.125 2.14062 40.9688 2.14062V1.59375H49.7344C52.1406 1.59375 53.9948 2.06771 55.2969 3.01562C56.599 3.96354 57.25 5.26042 57.25 6.90625C57.25 8.46875 56.7083 9.75 55.625 10.75C54.5417 11.75 53.099 12.3906 51.2969 12.6719C51.4948 12.9115 51.7865 13.2604 52.1719 13.7188C53.474 15.2604 54.5781 16.5729 55.4844 17.6562C56.401 18.7292 57.1979 19.6302 57.875 20.3594C58.5521 21.0885 59.1042 21.6615 59.5312 22.0781C59.9583 22.4844 60.3802 22.7969 60.7969 23.0156C61.2135 23.224 61.5729 23.3542 61.875 23.4062C62.1771 23.4583 62.5781 23.4844 63.0781 23.4844V24ZM39.875 9.0625C39.875 11.1042 39.3646 12.7812 38.3438 14.0938C37.3229 15.4062 35.9115 16.0625 34.1094 16.0625C32.2865 16.0625 30.8333 15.4167 29.75 14.125C28.6771 12.8333 28.1406 11.1458 28.1406 9.0625C28.1406 6.94792 28.6667 5.23438 29.7188 3.92188C30.7812 2.60938 32.2448 1.95312 34.1094 1.95312C35.901 1.95312 37.3073 2.60938 38.3281 3.92188C39.3594 5.23438 39.875 6.94792 39.875 9.0625ZM45.8594 12.0312H49.4062C51.2604 12.0312 52.7396 11.5781 53.8438 10.6719C54.9479 9.75521 55.5 8.55729 55.5 7.07812C55.5 5.58854 54.9479 4.39583 53.8438 3.5C52.7396 2.59375 51.0469 2.14062 48.7656 2.14062C47.599 2.14062 46.8229 2.29688 46.4375 2.60938C46.0521 2.92188 45.8594 3.61979 45.8594 4.70312V12.0312ZM94.2812 18.375L94.8281 18.5312L92.5625 25.3125L92.0469 25.1875C92.0677 25.0521 92.0781 24.9323 92.0781 24.8281C92.0781 24.724 92.0729 24.6302 92.0625 24.5469C92.0521 24.4635 92.026 24.3906 91.9844 24.3281C91.9427 24.276 91.9062 24.2292 91.875 24.1875C91.8438 24.1458 91.7812 24.1094 91.6875 24.0781C91.5938 24.0573 91.5208 24.0417 91.4688 24.0312C91.4167 24.0208 91.3229 24.0104 91.1875 24C91.0521 24 90.9427 24 90.8594 24C90.7865 24 90.6562 24 90.4688 24C90.2812 24 90.1354 24 90.0312 24H76.8125V23.4531C77.9062 23.4531 78.7135 23.3021 79.2344 23C79.7552 22.6875 80.0469 22.1042 80.1094 21.25L80.0781 15.4219H72.4375L70.4531 18.4688C70.3594 18.6146 70.2188 18.8281 70.0312 19.1094C69.6875 19.6198 69.4375 20.0052 69.2812 20.2656C69.125 20.5156 68.9375 20.8438 68.7188 21.25C68.5 21.6562 68.3906 21.9635 68.3906 22.1719C68.3906 22.3698 68.4271 22.5833 68.5 22.8125C68.5833 23.0312 68.7812 23.1875 69.0938 23.2812C69.4062 23.375 69.8229 23.4219 70.3438 23.4219V24H63.7188V23.4531C64.2396 23.4531 64.7656 23.3073 65.2969 23.0156C65.8281 22.7135 66.3542 22.2708 66.875 21.6875C67.4062 21.1042 67.8542 20.5677 68.2188 20.0781C68.5938 19.5885 69.026 18.974 69.5156 18.2344L79.2188 3.75C79.6354 3.11458 79.3073 2.66146 78.2344 2.39062C77.599 2.22396 76.7604 2.14062 75.7188 2.14062V1.59375H84.875V2.14062C83.6458 2.14062 82.8229 2.29688 82.4062 2.60938C81.9896 2.91146 81.7812 3.56771 81.7812 4.57812V20.9844C81.7812 21.8385 81.9062 22.4062 82.1562 22.6875C82.3542 22.9271 82.651 23.0885 83.0469 23.1719C83.4427 23.2552 84.0208 23.2969 84.7812 23.2969C85.5625 23.2969 86.1927 23.2969 86.6719 23.2969C87.1615 23.2865 87.6771 23.2656 88.2188 23.2344C88.7708 23.2031 89.1979 23.1667 89.5 23.125C89.8125 23.0833 90.1562 23.0156 90.5312 22.9219C90.9062 22.8177 91.1875 22.7135 91.375 22.6094C91.5729 22.5052 91.8021 22.349 92.0625 22.1406C92.3229 21.9323 92.5208 21.724 92.6562 21.5156C92.8021 21.3073 92.9792 21.0312 93.1875 20.6875C93.3958 20.3438 93.5729 20 93.7188 19.6562C93.875 19.3125 94.0625 18.8854 94.2812 18.375ZM72.9375 14.6562H80.0781V8.48438L80.0469 3.75L72.9375 14.6562ZM103.531 1.59375H112.172C113.714 1.59375 115.083 1.85417 116.281 2.375C117.49 2.88542 118.448 3.65104 119.156 4.67188C119.865 5.68229 120.219 6.875 120.219 8.25C120.219 8.95833 120.13 9.625 119.953 10.25C119.786 10.8646 119.505 11.4531 119.109 12.0156C118.724 12.5677 118.24 13.0469 117.656 13.4531C117.083 13.849 116.359 14.1667 115.484 14.4062C114.62 14.6354 113.646 14.75 112.562 14.75C111.885 14.75 111.292 14.7292 110.781 14.6875C110.281 14.6458 109.807 14.5938 109.359 14.5312C108.922 14.4688 108.604 14.4271 108.406 14.4062V20.9844C108.406 21.9844 108.625 22.6458 109.062 22.9688C109.5 23.2917 110.37 23.4531 111.672 23.4531V24H103.531V23.4531C104.656 23.4531 105.464 23.2812 105.953 22.9375C106.453 22.5938 106.703 21.9427 106.703 20.9844V4.60938C106.703 3.65104 106.453 3 105.953 2.65625C105.453 2.3125 104.646 2.14062 103.531 2.14062V1.59375ZM112.562 14.1094C113.635 14.1094 114.557 13.9635 115.328 13.6719C116.109 13.3802 116.719 12.9688 117.156 12.4375C117.594 11.9062 117.911 11.3073 118.109 10.6406C118.318 9.96354 118.422 9.20312 118.422 8.35938C118.422 6.42188 117.844 4.90104 116.688 3.79688C115.542 2.69271 114.005 2.14062 112.078 2.14062C110.672 2.14062 109.708 2.30729 109.188 2.64062C108.667 2.96354 108.406 3.61979 108.406 4.60938V13.7656C108.604 13.7865 108.922 13.8281 109.359 13.8906C109.807 13.9531 110.281 14.0052 110.781 14.0469C111.292 14.0885 111.885 14.1094 112.562 14.1094ZM143.484 1.59375V2.14062C142.234 2.14062 141.396 2.30208 140.969 2.625C140.552 2.94792 140.344 3.60938 140.344 4.60938V20.9844C140.344 21.9844 140.552 22.6458 140.969 22.9688C141.396 23.2917 142.234 23.4531 143.484 23.4531V24H135.484V23.4531C136.62 23.4531 137.432 23.2865 137.922 22.9531C138.411 22.6094 138.656 21.9531 138.656 20.9844V12.5781H126.906V20.9844C126.906 21.9844 127.115 22.6458 127.531 22.9688C127.958 23.2917 128.797 23.4531 130.047 23.4531V24H122.047V23.4531C123.182 23.4531 123.995 23.2865 124.484 22.9531C124.974 22.6094 125.219 21.9531 125.219 20.9844V4.60938C125.219 3.64062 124.974 2.98958 124.484 2.65625C123.995 2.3125 123.182 2.14062 122.047 2.14062V1.59375H130.047V2.14062C128.797 2.14062 127.958 2.30208 127.531 2.625C127.115 2.94792 126.906 3.60938 126.906 4.60938V11.875H138.656V4.60938C138.656 3.64062 138.411 2.98958 137.922 2.65625C137.432 2.3125 136.62 2.14062 135.484 2.14062V1.59375H143.484ZM149.625 4.60938V20.9844C149.625 21.9844 149.833 22.6458 150.25 22.9688C150.677 23.2917 151.516 23.4531 152.766 23.4531V24H144.766V23.4531C145.901 23.4531 146.714 23.2865 147.203 22.9531C147.693 22.6094 147.938 21.9531 147.938 20.9844V4.60938C147.938 3.61979 147.734 2.96354 147.328 2.64062C146.922 2.30729 146.172 2.14062 145.078 2.14062V1.59375H152.766V2.14062C151.516 2.14062 150.677 2.30208 150.25 2.625C149.833 2.94792 149.625 3.60938 149.625 4.60938ZM171.672 1.09375C170.286 1.09375 168.99 1.44271 167.781 2.14062C166.583 2.83854 165.62 3.80729 164.891 5.04688C164.172 6.27604 163.812 7.625 163.812 9.09375C163.812 11.3229 164.568 13.1875 166.078 14.6875C167.599 16.1771 169.464 16.9219 171.672 16.9219C173.016 16.9219 174.271 16.5729 175.438 15.875C176.615 15.1771 177.552 14.224 178.25 13.0156C178.948 11.8073 179.297 10.5 179.297 9.09375C179.297 6.77083 178.583 4.85938 177.156 3.35938C175.74 1.84896 173.911 1.09375 171.672 1.09375ZM171.906 18.625L169.625 25.375L169.125 25.25C169.146 25.1042 169.156 24.974 169.156 24.8594C169.167 24.7448 169.161 24.6406 169.141 24.5469C169.12 24.4635 169.089 24.3906 169.047 24.3281C169.005 24.276 168.948 24.2292 168.875 24.1875C168.812 24.1562 168.734 24.1302 168.641 24.1094C168.547 24.099 168.443 24.0885 168.328 24.0781C168.214 24.0677 168.083 24.0625 167.938 24.0625C167.802 24.0625 167.651 24.0625 167.484 24.0625C167.328 24.0625 167.203 24.0625 167.109 24.0625H154.359V23.4844C155.464 23.4844 156.214 23.3281 156.609 23.0156C157.016 22.7031 157.219 22.0625 157.219 21.0938V4.60938C157.219 3.64062 156.974 2.98958 156.484 2.65625C155.995 2.3125 155.182 2.14062 154.047 2.14062V1.59375H162.016V2.14062C160.786 2.14062 159.958 2.30208 159.531 2.625C159.115 2.94792 158.906 3.60938 158.906 4.60938V21.0938C158.906 22.0625 159.099 22.6875 159.484 22.9688C159.87 23.25 160.672 23.3906 161.891 23.3906C162.87 23.3906 163.641 23.3854 164.203 23.375C164.776 23.3646 165.375 23.3333 166 23.2812C166.625 23.2188 167.099 23.151 167.422 23.0781C167.745 23.0052 168.094 22.875 168.469 22.6875C168.854 22.4896 169.141 22.2917 169.328 22.0938C169.526 21.8854 169.755 21.5885 170.016 21.2031C170.276 20.8177 170.495 20.4271 170.672 20.0312C170.859 19.6354 171.089 19.1146 171.359 18.4688L171.906 18.625ZM177.438 9.0625C177.438 10.3958 177.219 11.6042 176.781 12.6875C176.354 13.7708 175.693 14.6458 174.797 15.3125C173.911 15.9792 172.87 16.3125 171.672 16.3125C169.859 16.3125 168.406 15.6302 167.312 14.2656C166.229 12.901 165.688 11.1667 165.688 9.0625C165.688 6.92708 166.224 5.16667 167.297 3.78125C168.37 2.39583 169.828 1.70312 171.672 1.70312C173.443 1.70312 174.844 2.39583 175.875 3.78125C176.917 5.16667 177.438 6.92708 177.438 9.0625ZM183.922 6.5C183.922 7.19792 184.062 7.82292 184.344 8.375C184.625 8.91667 185 9.36979 185.469 9.73438C185.948 10.0885 186.495 10.4167 187.109 10.7188C187.734 11.0104 188.385 11.2812 189.062 11.5312C189.75 11.7708 190.432 12.0208 191.109 12.2812C191.786 12.5312 192.432 12.8281 193.047 13.1719C193.672 13.5052 194.219 13.8854 194.688 14.3125C195.167 14.7292 195.547 15.2604 195.828 15.9062C196.109 16.5417 196.25 17.2656 196.25 18.0781C196.25 19.8385 195.599 21.349 194.297 22.6094C193.005 23.8594 191.339 24.4844 189.297 24.4844C188.464 24.4844 187.667 24.3802 186.906 24.1719C186.156 23.9635 185.568 23.7396 185.141 23.5C184.714 23.2604 184.323 23.0573 183.969 22.8906C183.625 22.724 183.365 22.6823 183.188 22.7656C183.01 22.8385 182.875 23.0885 182.781 23.5156H182.172V22.2344L182.031 15.9062H182.578C182.755 18.5625 183.411 20.5417 184.547 21.8438C185.682 23.1354 187.323 23.7812 189.469 23.7812C191.021 23.7812 192.266 23.3177 193.203 22.3906C194.141 21.4531 194.609 20.1771 194.609 18.5625C194.609 17.8125 194.469 17.151 194.188 16.5781C193.906 15.9948 193.526 15.5156 193.047 15.1406C192.578 14.7656 192.036 14.4323 191.422 14.1406C190.807 13.849 190.161 13.5885 189.484 13.3594C188.807 13.1198 188.13 12.8802 187.453 12.6406C186.776 12.3906 186.13 12.1042 185.516 11.7812C184.901 11.4479 184.354 11.0729 183.875 10.6562C183.406 10.2292 183.031 9.6875 182.75 9.03125C182.469 8.375 182.328 7.625 182.328 6.78125C182.328 6.125 182.495 5.46354 182.828 4.79688C183.161 4.13021 183.62 3.51562 184.203 2.95312C184.797 2.39062 185.552 1.93229 186.469 1.57812C187.396 1.21354 188.396 1.03125 189.469 1.03125C189.896 1.03125 190.365 1.08333 190.875 1.1875C191.396 1.29167 191.844 1.39583 192.219 1.5C192.594 1.60417 192.953 1.6875 193.297 1.75C193.651 1.80208 193.938 1.78125 194.156 1.6875C194.375 1.59375 194.526 1.40625 194.609 1.125H195.25L195.375 7.90625H194.703C194.703 3.77083 192.849 1.70312 189.141 1.70312C187.661 1.70312 186.422 2.19792 185.422 3.1875C184.422 4.16667 183.922 5.27083 183.922 6.5ZM198.656 12.8281C198.656 11.1302 198.99 9.53646 199.656 8.04688C200.323 6.54688 201.198 5.29167 202.281 4.28125C203.365 3.27083 204.594 2.47917 205.969 1.90625C207.344 1.32292 208.745 1.03125 210.172 1.03125C212.266 1.03125 214.156 1.53125 215.844 2.53125C217.542 3.53125 218.87 4.93229 219.828 6.73438C220.797 8.53646 221.281 10.5677 221.281 12.8281C221.281 14.4635 220.969 16.0156 220.344 17.4844C219.719 18.9427 218.891 20.1771 217.859 21.1875C216.839 22.1979 215.656 23 214.312 23.5938C212.969 24.1875 211.589 24.4844 210.172 24.4844C208.609 24.4844 207.12 24.1927 205.703 23.6094C204.286 23.0156 203.062 22.2083 202.031 21.1875C201 20.1667 200.177 18.9323 199.562 17.4844C198.958 16.026 198.656 14.474 198.656 12.8281ZM200.672 12.8281C200.672 14.4531 200.922 15.9583 201.422 17.3438C201.932 18.7188 202.615 19.8698 203.469 20.7969C204.333 21.724 205.344 22.4479 206.5 22.9688C207.656 23.4896 208.88 23.75 210.172 23.75C211.901 23.75 213.448 23.3073 214.812 22.4219C216.188 21.5365 217.271 20.2604 218.062 18.5938C218.865 16.9271 219.266 15.0052 219.266 12.8281C219.266 11.151 219.031 9.61458 218.562 8.21875C218.104 6.82292 217.469 5.65625 216.656 4.71875C215.854 3.78125 214.896 3.05729 213.781 2.54688C212.667 2.02604 211.464 1.76562 210.172 1.76562C208.87 1.76562 207.641 2.02604 206.484 2.54688C205.328 3.05729 204.318 3.78125 203.453 4.71875C202.599 5.65625 201.922 6.82812 201.422 8.23438C200.922 9.63021 200.672 11.1615 200.672 12.8281ZM223.625 1.59375H232.266C233.807 1.59375 235.177 1.85417 236.375 2.375C237.583 2.88542 238.542 3.65104 239.25 4.67188C239.958 5.68229 240.312 6.875 240.312 8.25C240.312 8.95833 240.224 9.625 240.047 10.25C239.88 10.8646 239.599 11.4531 239.203 12.0156C238.818 12.5677 238.333 13.0469 237.75 13.4531C237.177 13.849 236.453 14.1667 235.578 14.4062C234.714 14.6354 233.74 14.75 232.656 14.75C231.979 14.75 231.385 14.7292 230.875 14.6875C230.375 14.6458 229.901 14.5938 229.453 14.5312C229.016 14.4688 228.698 14.4271 228.5 14.4062V20.9844C228.5 21.9844 228.719 22.6458 229.156 22.9688C229.594 23.2917 230.464 23.4531 231.766 23.4531V24H223.625V23.4531C224.75 23.4531 225.557 23.2812 226.047 22.9375C226.547 22.5938 226.797 21.9427 226.797 20.9844V4.60938C226.797 3.65104 226.547 3 226.047 2.65625C225.547 2.3125 224.74 2.14062 223.625 2.14062V1.59375ZM232.656 14.1094C233.729 14.1094 234.651 13.9635 235.422 13.6719C236.203 13.3802 236.812 12.9688 237.25 12.4375C237.688 11.9062 238.005 11.3073 238.203 10.6406C238.411 9.96354 238.516 9.20312 238.516 8.35938C238.516 6.42188 237.938 4.90104 236.781 3.79688C235.635 2.69271 234.099 2.14062 232.172 2.14062C230.766 2.14062 229.802 2.30729 229.281 2.64062C228.76 2.96354 228.5 3.61979 228.5 4.60938V13.7656C228.698 13.7865 229.016 13.8281 229.453 13.8906C229.901 13.9531 230.375 14.0052 230.875 14.0469C231.385 14.0885 231.979 14.1094 232.656 14.1094ZM263.578 1.59375V2.14062C262.328 2.14062 261.49 2.30208 261.062 2.625C260.646 2.94792 260.438 3.60938 260.438 4.60938V20.9844C260.438 21.9844 260.646 22.6458 261.062 22.9688C261.49 23.2917 262.328 23.4531 263.578 23.4531V24H255.578V23.4531C256.714 23.4531 257.526 23.2865 258.016 22.9531C258.505 22.6094 258.75 21.9531 258.75 20.9844V12.5781H247V20.9844C247 21.9844 247.208 22.6458 247.625 22.9688C248.052 23.2917 248.891 23.4531 250.141 23.4531V24H242.141V23.4531C243.276 23.4531 244.089 23.2865 244.578 22.9531C245.068 22.6094 245.312 21.9531 245.312 20.9844V4.60938C245.312 3.64062 245.068 2.98958 244.578 2.65625C244.089 2.3125 243.276 2.14062 242.141 2.14062V1.59375H250.141V2.14062C248.891 2.14062 248.052 2.30208 247.625 2.625C247.208 2.94792 247 3.60938 247 4.60938V11.875H258.75V4.60938C258.75 3.64062 258.505 2.98958 258.016 2.65625C257.526 2.3125 256.714 2.14062 255.578 2.14062V1.59375H263.578ZM277.047 1.59375H284.438V2.17188C282.844 2.17188 281.589 2.97396 280.672 4.57812L275.266 14.1719V20.9844C275.266 21.9844 275.474 22.6458 275.891 22.9688C276.307 23.2917 277.141 23.4531 278.391 23.4531V24H270.391V23.4531C271.526 23.4531 272.339 23.2865 272.828 22.9531C273.318 22.6094 273.562 21.9531 273.562 20.9844V14.0469L268.797 5.5C268.672 5.28125 268.516 4.99479 268.328 4.64062C268.141 4.27604 268 4.02083 267.906 3.875C267.823 3.71875 267.693 3.52083 267.516 3.28125C267.349 3.04167 267.188 2.875 267.031 2.78125C266.885 2.67708 266.688 2.56771 266.438 2.45312C266.198 2.33854 265.922 2.26562 265.609 2.23438C265.307 2.19271 264.948 2.17188 264.531 2.17188V1.59375H272.156V2.17188C270.688 2.17188 269.859 2.35938 269.672 2.73438C269.536 2.99479 269.661 3.48958 270.047 4.21875C270.099 4.33333 270.214 4.54688 270.391 4.85938L274.969 13.125L280.094 4.09375C280.208 3.89583 280.281 3.71354 280.312 3.54688C280.344 3.36979 280.318 3.19792 280.234 3.03125C280.161 2.85417 280.01 2.70833 279.781 2.59375C279.552 2.46875 279.203 2.36979 278.734 2.29688C278.276 2.21354 277.714 2.17188 277.047 2.17188V1.59375ZM313.328 10.8438V11.3906C312.141 11.3906 311.323 11.5156 310.875 11.7656C310.427 12.0156 310.203 12.4115 310.203 12.9531C310.203 14.0677 309.984 15.3021 309.547 16.6562C309.12 18.0104 308.474 19.2552 307.609 20.3906C309.161 21.974 310.854 23.7292 312.688 25.6562H311.953C310.307 24.25 308.615 22.7812 306.875 21.25C304.865 23.4062 302.281 24.4844 299.125 24.4844C296.979 24.4844 295.214 23.8802 293.828 22.6719C292.453 21.4635 291.766 19.8281 291.766 17.7656C291.766 17.1198 291.901 16.5 292.172 15.9062C292.443 15.3125 292.839 14.7604 293.359 14.25C293.88 13.7292 294.406 13.2708 294.938 12.875C295.479 12.4792 296.13 12.0469 296.891 11.5781C295.078 9.38021 294.172 7.50521 294.172 5.95312C294.172 5.28646 294.276 4.66667 294.484 4.09375C294.693 3.52083 295.01 3.00521 295.438 2.54688C295.865 2.07812 296.438 1.70833 297.156 1.4375C297.885 1.16667 298.724 1.03125 299.672 1.03125C300.12 1.03125 300.573 1.07292 301.031 1.15625C301.49 1.23958 301.875 1.33333 302.188 1.4375C302.5 1.53125 302.807 1.625 303.109 1.71875C303.411 1.80208 303.656 1.85417 303.844 1.875C304.031 1.88542 304.193 1.84896 304.328 1.76562C304.474 1.68229 304.568 1.51562 304.609 1.26562C304.661 1.01562 304.677 0.666667 304.656 0.21875H305.172L305.812 7.90625H305.297C304.995 5.78125 304.411 4.23438 303.547 3.26562C302.693 2.28646 301.38 1.79688 299.609 1.79688C298.276 1.79688 297.297 2.15625 296.672 2.875C296.047 3.59375 295.734 4.5 295.734 5.59375C295.734 6.91667 296.526 8.5625 298.109 10.5312C299.151 11.8333 301.099 13.9062 303.953 16.75C306.099 18.9062 307.177 19.9896 307.188 20C308.385 18.2188 308.984 15.9062 308.984 13.0625C308.984 12.375 308.781 11.9271 308.375 11.7188C307.969 11.5 307.073 11.3906 305.688 11.3906V10.8438H313.328ZM299.734 23.5156C302.651 23.5156 304.901 22.6406 306.484 20.8906C302.13 17.099 299.057 14.1562 297.266 12.0625C296.068 12.7812 295.13 13.5781 294.453 14.4531C293.786 15.3177 293.453 16.375 293.453 17.625C293.453 18.5833 293.651 19.4531 294.047 20.2344C294.443 21.0156 294.953 21.6354 295.578 22.0938C296.214 22.5521 296.885 22.9062 297.594 23.1562C298.312 23.3958 299.026 23.5156 299.734 23.5156ZM358.688 1.59375V2.14062C357.438 2.14062 356.599 2.30208 356.172 2.625C355.755 2.94792 355.547 3.60938 355.547 4.60938V20.9844C355.547 21.9844 355.755 22.6458 356.172 22.9688C356.599 23.2917 357.438 23.4531 358.688 23.4531V24H350.688V23.4531C351.823 23.4531 352.63 23.2865 353.109 22.9531C353.599 22.6094 353.844 21.9531 353.844 20.9844V12.5781H341.781V20.9844C341.781 21.9844 341.99 22.6458 342.406 22.9688C342.833 23.2917 343.672 23.4531 344.922 23.4531V24H336.922V23.4531C338.057 23.4531 338.87 23.2865 339.359 22.9531C339.849 22.6094 340.094 21.9531 340.094 20.9844V4.60938C340.094 3.90104 340.005 3.38542 339.828 3.0625C339.651 2.73958 339.286 2.50521 338.734 2.35938C338.193 2.21354 337.333 2.14062 336.156 2.14062C334.531 2.14062 333.443 2.30208 332.891 2.625C332.339 2.94792 332.062 3.55729 332.062 4.45312V20.9844C332.062 21.9844 332.271 22.6458 332.688 22.9688C333.104 23.2917 333.938 23.4531 335.188 23.4531V24H327.188V23.4531C328.323 23.4531 329.135 23.2865 329.625 22.9531C330.115 22.6094 330.359 21.9531 330.359 20.9844V4.57812C330.359 3.68229 330.12 3.07812 329.641 2.76562C329.161 2.45312 328.365 2.29688 327.25 2.29688C326.792 2.29688 326.391 2.3125 326.047 2.34375C325.714 2.36458 325.391 2.42188 325.078 2.51562C324.776 2.60938 324.521 2.70312 324.312 2.79688C324.104 2.89062 323.885 3.05208 323.656 3.28125C323.438 3.5 323.255 3.70833 323.109 3.90625C322.964 4.10417 322.786 4.40104 322.578 4.79688C322.38 5.19271 322.208 5.55729 322.062 5.89062C321.917 6.22396 321.719 6.68229 321.469 7.26562L320.922 7.10938L323.219 0.578125L323.734 0.703125C323.609 1.29688 324.312 1.59375 325.844 1.59375H344.922V2.14062C343.672 2.14062 342.833 2.30208 342.406 2.625C341.99 2.94792 341.781 3.60938 341.781 4.60938V11.875H353.844V4.60938C353.844 3.64062 353.599 2.98958 353.109 2.65625C352.63 2.3125 351.823 2.14062 350.688 2.14062V1.59375H358.688ZM376.969 18.3438L377.516 18.5L375.25 25.3125L374.734 25.1875C374.755 25.0521 374.766 24.9323 374.766 24.8281C374.766 24.724 374.76 24.6302 374.75 24.5469C374.74 24.4635 374.714 24.3906 374.672 24.3281C374.63 24.276 374.594 24.2292 374.562 24.1875C374.531 24.1458 374.469 24.1094 374.375 24.0781C374.281 24.0573 374.208 24.0417 374.156 24.0312C374.104 24.0208 374.01 24.0104 373.875 24C373.74 24 373.63 24 373.547 24C373.474 24 373.344 24 373.156 24C372.969 24 372.823 24 372.719 24H359.953V23.4219C361.057 23.4219 361.807 23.2604 362.203 22.9375C362.599 22.6146 362.797 21.9635 362.797 20.9844V4.57812C362.797 3.61979 362.589 2.97917 362.172 2.65625C361.766 2.33333 361.026 2.17188 359.953 2.17188V1.59375H371.094C371.188 1.59375 371.323 1.59375 371.5 1.59375C371.646 1.59375 371.781 1.59375 371.906 1.59375C372.031 1.59375 372.146 1.59375 372.25 1.59375C372.354 1.58333 372.448 1.57292 372.531 1.5625C372.625 1.54167 372.703 1.52083 372.766 1.5C372.839 1.47917 372.901 1.44792 372.953 1.40625C373.005 1.36458 373.047 1.3125 373.078 1.25C373.109 1.1875 373.13 1.11458 373.141 1.03125C373.161 0.947917 373.172 0.854167 373.172 0.75C373.172 0.645833 373.161 0.526042 373.141 0.390625L373.656 0.25L375.922 7.07812L375.375 7.23438C375.104 6.59896 374.875 6.07812 374.688 5.67188C374.5 5.25521 374.281 4.85938 374.031 4.48438C373.792 4.09896 373.583 3.80208 373.406 3.59375C373.229 3.38542 372.979 3.1875 372.656 3C372.344 2.80208 372.052 2.66667 371.781 2.59375C371.521 2.51042 371.146 2.44271 370.656 2.39062C370.167 2.32812 369.698 2.29167 369.25 2.28125C368.812 2.27083 368.219 2.26562 367.469 2.26562C366.365 2.26562 365.594 2.41667 365.156 2.71875C364.719 3.01042 364.5 3.63021 364.5 4.57812V12.0312H369.234C369.953 12.0312 370.443 11.776 370.703 11.2656C370.964 10.7552 371.094 9.93229 371.094 8.79688H371.594V15.9062H371.094C371.094 14.7292 370.958 13.8958 370.688 13.4062C370.427 12.9167 369.953 12.6719 369.266 12.6719H364.5V20.9844C364.5 21.974 364.688 22.6094 365.062 22.8906C365.448 23.1615 366.25 23.2969 367.469 23.2969C368.448 23.2969 369.219 23.2917 369.781 23.2812C370.354 23.2708 370.953 23.2344 371.578 23.1719C372.203 23.1094 372.677 23.0469 373 22.9844C373.323 22.9115 373.672 22.776 374.047 22.5781C374.432 22.3802 374.719 22.1823 374.906 21.9844C375.104 21.7865 375.339 21.4948 375.609 21.1094C375.88 20.7135 376.104 20.3177 376.281 19.9219C376.469 19.5156 376.698 18.9896 376.969 18.3438ZM395.328 0.921875L401.562 18.0469C401.833 18.7969 402.042 19.375 402.188 19.7812C402.344 20.1875 402.521 20.6146 402.719 21.0625C402.917 21.5104 403.062 21.8333 403.156 22.0312C403.26 22.2292 403.401 22.4427 403.578 22.6719C403.766 22.8906 403.911 23.0365 404.016 23.1094C404.13 23.1719 404.297 23.2396 404.516 23.3125C404.745 23.375 404.948 23.4115 405.125 23.4219C405.312 23.4219 405.573 23.4219 405.906 23.4219V24H398.875V23.4219C399.823 23.4219 400.417 23.3594 400.656 23.2344C401.031 23.0469 401.146 22.5677 401 21.7969C400.885 21.2135 400.594 20.2865 400.125 19.0156L399.125 16.3594H390.172L388.953 19.4219C388.786 19.8385 388.651 20.1875 388.547 20.4688C388.453 20.75 388.365 21.0365 388.281 21.3281C388.208 21.6198 388.172 21.8542 388.172 22.0312C388.182 22.2083 388.219 22.3854 388.281 22.5625C388.344 22.7396 388.443 22.875 388.578 22.9688C388.724 23.0625 388.911 23.151 389.141 23.2344C389.38 23.3073 389.661 23.3594 389.984 23.3906C390.307 23.4115 390.688 23.4219 391.125 23.4219V24H384.594V23.4531C384.812 23.4531 385.016 23.4375 385.203 23.4062C385.401 23.3646 385.573 23.3229 385.719 23.2812C385.865 23.2396 386.01 23.1562 386.156 23.0312C386.312 22.9062 386.438 22.8073 386.531 22.7344C386.625 22.6615 386.734 22.5208 386.859 22.3125C386.995 22.1042 387.094 21.9531 387.156 21.8594C387.219 21.7656 387.312 21.5729 387.438 21.2812C387.562 20.9896 387.646 20.7865 387.688 20.6719C387.74 20.5573 387.839 20.3177 387.984 19.9531C388.13 19.5885 388.229 19.3385 388.281 19.2031L394.484 3.60938L393.938 2.07812C394.156 2.03646 394.375 1.89062 394.594 1.64062C394.823 1.39062 394.969 1.15104 395.031 0.921875H395.328ZM407.188 4.60938V12.6719C407.188 13.6927 407.365 14.3542 407.719 14.6562C408.073 14.9583 408.859 15.1094 410.078 15.1094V15.6875H402.484V15.1094C403.359 15.1094 404 15.0417 404.406 14.9062C404.812 14.7708 405.083 14.5417 405.219 14.2188C405.365 13.8958 405.438 13.3802 405.438 12.6719V4.60938C405.438 3.90104 405.365 3.38542 405.219 3.0625C405.083 2.73958 404.812 2.51042 404.406 2.375C404 2.23958 403.359 2.17188 402.484 2.17188V1.59375H410.078V2.17188C408.859 2.17188 408.073 2.32292 407.719 2.625C407.365 2.92708 407.188 3.58854 407.188 4.60938ZM390.422 15.6875H398.906L394.812 4.48438L390.422 15.6875ZM418.781 1.59375H427.422C428.964 1.59375 430.333 1.85417 431.531 2.375C432.74 2.88542 433.698 3.65104 434.406 4.67188C435.115 5.68229 435.469 6.875 435.469 8.25C435.469 8.95833 435.38 9.625 435.203 10.25C435.036 10.8646 434.755 11.4531 434.359 12.0156C433.974 12.5677 433.49 13.0469 432.906 13.4531C432.333 13.849 431.609 14.1667 430.734 14.4062C429.87 14.6354 428.896 14.75 427.812 14.75C427.135 14.75 426.542 14.7292 426.031 14.6875C425.531 14.6458 425.057 14.5938 424.609 14.5312C424.172 14.4688 423.854 14.4271 423.656 14.4062V20.9844C423.656 21.9844 423.875 22.6458 424.312 22.9688C424.75 23.2917 425.62 23.4531 426.922 23.4531V24H418.781V23.4531C419.906 23.4531 420.714 23.2812 421.203 22.9375C421.703 22.5938 421.953 21.9427 421.953 20.9844V4.60938C421.953 3.65104 421.703 3 421.203 2.65625C420.703 2.3125 419.896 2.14062 418.781 2.14062V1.59375ZM427.812 14.1094C428.885 14.1094 429.807 13.9635 430.578 13.6719C431.359 13.3802 431.969 12.9688 432.406 12.4375C432.844 11.9062 433.161 11.3073 433.359 10.6406C433.568 9.96354 433.672 9.20312 433.672 8.35938C433.672 6.42188 433.094 4.90104 431.938 3.79688C430.792 2.69271 429.255 2.14062 427.328 2.14062C425.922 2.14062 424.958 2.30729 424.438 2.64062C423.917 2.96354 423.656 3.61979 423.656 4.60938V13.7656C423.854 13.7865 424.172 13.8281 424.609 13.8906C425.057 13.9531 425.531 14.0052 426.031 14.0469C426.542 14.0885 427.135 14.1094 427.812 14.1094ZM465.812 1.59375H473.641V2.14062C473.078 2.14062 472.578 2.21875 472.141 2.375C471.714 2.53125 471.323 2.79167 470.969 3.15625C470.625 3.51042 470.359 4.02083 470.172 4.6875C469.995 5.34375 469.906 6.14062 469.906 7.07812V24H469.328L454.484 4.25L454.516 20.9531C454.516 21.9635 454.74 22.6354 455.188 22.9688C455.646 23.2917 456.521 23.4531 457.812 23.4531V24H450.062V23.4531C451.208 23.4531 452.042 23.2812 452.562 22.9375C453.094 22.5833 453.359 21.9219 453.359 20.9531V15.4219H445.688L443.703 18.4688C443.609 18.6146 443.469 18.8281 443.281 19.1094C442.938 19.6198 442.688 20.0052 442.531 20.2656C442.375 20.5156 442.188 20.8438 441.969 21.25C441.75 21.6562 441.641 21.9635 441.641 22.1719C441.641 22.3698 441.677 22.5833 441.75 22.8125C441.833 23.0312 442.031 23.1875 442.344 23.2812C442.656 23.375 443.073 23.4219 443.594 23.4219V24H436.969V23.4531C437.49 23.4531 438.016 23.3073 438.547 23.0156C439.078 22.7135 439.604 22.2708 440.125 21.6875C440.656 21.1042 441.104 20.5677 441.469 20.0781C441.844 19.5885 442.276 18.974 442.766 18.2344L452.469 3.75C452.885 3.11458 452.557 2.66146 451.484 2.39062C450.849 2.22396 450.01 2.14062 448.969 2.14062V1.59375H454.734L469.141 20.7031V7.07812C469.141 6.10938 469.068 5.30208 468.922 4.65625C468.776 4 468.552 3.49479 468.25 3.14062C467.948 2.77604 467.604 2.52083 467.219 2.375C466.833 2.21875 466.365 2.14062 465.812 2.14062V1.59375ZM446.188 14.6562H453.359L453.328 3.6875L446.188 14.6562ZM479.719 4.60938V20.9844C479.719 21.9844 479.927 22.6458 480.344 22.9688C480.771 23.2917 481.609 23.4531 482.859 23.4531V24H474.859V23.4531C475.995 23.4531 476.807 23.2865 477.297 22.9531C477.786 22.6094 478.031 21.9531 478.031 20.9844V4.60938C478.031 3.61979 477.828 2.96354 477.422 2.64062C477.016 2.30729 476.266 2.14062 475.172 2.14062V1.59375H482.859V2.14062C481.609 2.14062 480.771 2.30208 480.344 2.625C479.927 2.94792 479.719 3.60938 479.719 4.60938ZM504.266 19.75L504.75 20.1562C503.448 21.6667 502.161 22.7656 500.891 23.4531C499.62 24.1406 498.109 24.4844 496.359 24.4844C494.693 24.4844 493.13 24.1875 491.672 23.5938C490.224 23 488.984 22.1875 487.953 21.1562C486.922 20.1146 486.109 18.8594 485.516 17.3906C484.922 15.9219 484.625 14.3385 484.625 12.6406C484.625 11.0469 484.943 9.52604 485.578 8.07812C486.224 6.63021 487.073 5.39583 488.125 4.375C489.188 3.35417 490.411 2.54167 491.797 1.9375C493.182 1.33333 494.599 1.03125 496.047 1.03125C496.63 1.03125 497.49 1.08333 498.625 1.1875C499.771 1.28125 500.625 1.31771 501.188 1.29688C501.75 1.27604 502.031 1.14062 502.031 0.890625L502.547 0.765625L504.453 7.45312L503.891 7.71875C503.37 6.35417 502.807 5.26042 502.203 4.4375C501.599 3.61458 500.828 2.96875 499.891 2.5C499.286 2.19792 498.708 1.98958 498.156 1.875C497.615 1.76042 496.88 1.70312 495.953 1.70312C494.172 1.70312 492.547 2.19271 491.078 3.17188C489.62 4.14062 488.474 5.46354 487.641 7.14062C486.818 8.80729 486.406 10.6406 486.406 12.6406C486.406 14.2344 486.688 15.7344 487.25 17.1406C487.823 18.5365 488.578 19.7135 489.516 20.6719C490.453 21.6198 491.521 22.3698 492.719 22.9219C493.927 23.474 495.161 23.75 496.422 23.75C497.328 23.75 498.151 23.6615 498.891 23.4844C499.641 23.3073 500.328 23.0365 500.953 22.6719C501.589 22.2969 502.156 21.8854 502.656 21.4375C503.156 20.9792 503.693 20.4167 504.266 19.75Z" fill="black"/>
</svg>
