<svg width="255" height="41" viewBox="0 0 255 41" fill="none" xmlns="http://www.w3.org/2000/svg">
<path d="M26.2754 27.749C26.2754 29.5771 25.9622 31.1937 25.3359 32.5986C24.7266 34.0036 23.8717 35.1208 22.7715 35.9502C21.6882 36.7796 20.4609 37.3975 19.0898 37.8037C17.7357 38.21 16.263 38.4131 14.6719 38.4131H0.630859L0.630859 37.5752C2.39128 37.5752 3.60156 37.3044 4.26172 36.7627C4.92187 36.2041 5.25195 35.1208 5.25195 33.5127L5.25195 6.90332C5.25195 5.31217 4.91341 4.2373 4.23633 3.67871C3.57617 3.12012 2.37435 2.84082 0.630859 2.84082V2.00293L12.9453 2.00293C16.0768 2.00293 18.5059 2.77311 20.2324 4.31348C21.959 5.83691 22.8223 7.8597 22.8223 10.3818C22.8223 11.6683 22.4329 12.887 21.6543 14.0381C20.8757 15.1722 19.9785 16.0609 18.9629 16.7041C17.9473 17.3304 16.9824 17.7197 16.0684 17.8721C16.847 17.889 17.668 18.016 18.5312 18.2529C19.3945 18.473 20.2917 18.8454 21.2227 19.3701C22.1536 19.8779 22.9915 20.4958 23.7363 21.2236C24.4811 21.9515 25.0905 22.8825 25.5645 24.0166C26.0384 25.1507 26.2754 26.3949 26.2754 27.749ZM8.01953 6.90332L8.01953 17.9736L10.2031 17.9736C13.5547 17.9736 16.0345 17.2712 17.6426 15.8662C19.2676 14.4613 20.0801 12.6331 20.0801 10.3818C20.0801 8.11361 19.4792 6.3278 18.2773 5.02441C17.0924 3.7041 15.2305 3.04395 12.6914 3.04395C11.7943 3.04395 11.0918 3.08626 10.584 3.1709C10.0762 3.23861 9.60221 3.40788 9.16211 3.67871C8.73893 3.93262 8.44271 4.32194 8.27344 4.84668C8.10417 5.35449 8.01953 6.04004 8.01953 6.90332ZM13.8848 37.3721C20.3001 37.3721 23.5078 34.1644 23.5078 27.749C23.5078 24.8376 22.5007 22.6455 20.4863 21.1729C18.4889 19.7002 15.6113 18.9639 11.8535 18.9639L8.01953 18.9639L8.01953 33.5889C8.01953 35.2139 8.375 36.2549 9.08594 36.7119C9.8138 37.152 11.4134 37.3721 13.8848 37.3721ZM52.9609 2.00293L65.0215 2.00293V2.8916C63.2611 2.8916 61.9577 3.3571 61.1113 4.28809C60.2819 5.21908 59.8672 6.73405 59.8672 8.83301L59.8672 23.6357C59.8672 28.917 58.8262 32.8356 56.7441 35.3916C54.679 37.9307 51.5391 39.2002 47.3242 39.2002C42.7708 39.2002 39.4616 38.0576 37.3965 35.7725C35.3483 33.4704 34.3242 29.7718 34.3242 24.6768L34.3242 7.41113C34.3242 5.59993 33.918 4.39811 33.1055 3.80566C32.3099 3.19629 30.9473 2.8916 29.0176 2.8916V2.00293L42.2969 2.00293V2.8916C40.2656 2.8916 38.903 3.18783 38.209 3.78027C37.5319 4.37272 37.1934 5.58301 37.1934 7.41113L37.1426 24.8291C37.1257 26.8773 37.3034 28.6631 37.6758 30.1865C38.0651 31.71 38.5814 32.9456 39.2246 33.8936C39.8678 34.8245 40.6803 35.5778 41.6621 36.1533C42.6439 36.7119 43.668 37.1012 44.7344 37.3213C45.8177 37.5244 47.0449 37.626 48.416 37.626C50.3288 37.626 51.9538 37.3213 53.291 36.7119C54.6283 36.0856 55.6777 35.1546 56.4395 33.9189C57.2181 32.6663 57.7767 31.2106 58.1152 29.5518C58.4538 27.8929 58.623 25.9209 58.623 23.6357L58.623 8.88379C58.623 6.7679 58.1322 5.24447 57.1504 4.31348C56.1855 3.36556 54.7891 2.8916 52.9609 2.8916V2.00293ZM86.6289 2.00293L98.6387 2.00293V2.94238C96.0488 2.94238 94.0091 4.24577 92.5195 6.85254L83.7344 22.4424V33.5127C83.7344 35.1377 84.0729 36.2126 84.75 36.7373C85.4271 37.262 86.7812 37.5244 88.8125 37.5244V38.4131H75.8125V37.5244C77.6576 37.5244 78.9779 37.2536 79.7734 36.7119C80.569 36.1533 80.9668 35.0869 80.9668 33.5127V22.2393L73.2227 8.35059C73.0195 7.99512 72.7656 7.52962 72.4609 6.9541C72.1562 6.36165 71.9277 5.94694 71.7754 5.70996C71.64 5.45605 71.4284 5.13444 71.1406 4.74512C70.8698 4.35579 70.6074 4.08496 70.3535 3.93262C70.1165 3.76335 69.7949 3.58561 69.3887 3.39941C68.9993 3.21322 68.5508 3.09473 68.043 3.04395C67.5521 2.97624 66.9681 2.94238 66.291 2.94238V2.00293L78.6816 2.00293V2.94238C76.2949 2.94238 74.9492 3.24707 74.6445 3.85645C74.4245 4.27962 74.6276 5.08366 75.2539 6.26855C75.3385 6.45475 75.5247 6.80176 75.8125 7.30957L83.252 20.7412L91.5801 6.06543C91.7663 5.74382 91.8848 5.44759 91.9355 5.17676C91.9863 4.889 91.944 4.6097 91.8086 4.33887C91.6901 4.05111 91.4447 3.81413 91.0723 3.62793C90.6999 3.4248 90.1328 3.264 89.3711 3.14551C88.6263 3.01009 87.7122 2.94238 86.6289 2.94238V2.00293ZM137.334 27.749C137.334 29.5771 137.021 31.1937 136.395 32.5986C135.785 34.0036 134.93 35.1208 133.83 35.9502C132.747 36.7796 131.52 37.3975 130.148 37.8037C128.794 38.21 127.322 38.4131 125.73 38.4131H111.689V37.5752C113.45 37.5752 114.66 37.3044 115.32 36.7627C115.98 36.2041 116.311 35.1208 116.311 33.5127V6.90332C116.311 5.31217 115.972 4.2373 115.295 3.67871C114.635 3.12012 113.433 2.84082 111.689 2.84082V2.00293L124.004 2.00293C127.135 2.00293 129.564 2.77311 131.291 4.31348C133.018 5.83691 133.881 7.8597 133.881 10.3818C133.881 11.6683 133.492 12.887 132.713 14.0381C131.934 15.1722 131.037 16.0609 130.021 16.7041C129.006 17.3304 128.041 17.7197 127.127 17.8721C127.906 17.889 128.727 18.016 129.59 18.2529C130.453 18.473 131.35 18.8454 132.281 19.3701C133.212 19.8779 134.05 20.4958 134.795 21.2236C135.54 21.9515 136.149 22.8825 136.623 24.0166C137.097 25.1507 137.334 26.3949 137.334 27.749ZM119.078 6.90332V17.9736L121.262 17.9736C124.613 17.9736 127.093 17.2712 128.701 15.8662C130.326 14.4613 131.139 12.6331 131.139 10.3818C131.139 8.11361 130.538 6.3278 129.336 5.02441C128.151 3.7041 126.289 3.04395 123.75 3.04395C122.853 3.04395 122.15 3.08626 121.643 3.1709C121.135 3.23861 120.661 3.40788 120.221 3.67871C119.798 3.93262 119.501 4.32194 119.332 4.84668C119.163 5.35449 119.078 6.04004 119.078 6.90332ZM124.943 37.3721C131.359 37.3721 134.566 34.1644 134.566 27.749C134.566 24.8376 133.559 22.6455 131.545 21.1729C129.548 19.7002 126.67 18.9639 122.912 18.9639L119.078 18.9639V33.5889C119.078 35.2139 119.434 36.2549 120.145 36.7119C120.872 37.152 122.472 37.3721 124.943 37.3721ZM169.25 1.19043C166.999 1.19043 164.891 1.75749 162.928 2.8916C160.981 4.02572 159.415 5.59993 158.23 7.61426C157.062 9.61165 156.479 11.8037 156.479 14.1904C156.479 17.8128 157.706 20.8428 160.16 23.2803C162.632 25.7008 165.661 26.9111 169.25 26.9111C171.434 26.9111 173.473 26.3441 175.369 25.21C177.282 24.0758 178.805 22.527 179.939 20.5635C181.074 18.5999 181.641 16.4756 181.641 14.1904C181.641 10.4157 180.481 7.30957 178.162 4.87207C175.86 2.41764 172.889 1.19043 169.25 1.19043ZM169.631 29.6787L165.924 40.6475L165.111 40.4443C165.145 40.2074 165.162 39.9958 165.162 39.8096C165.179 39.6234 165.171 39.4541 165.137 39.3018C165.103 39.1663 165.052 39.0479 164.984 38.9463C164.917 38.8617 164.824 38.7855 164.705 38.7178C164.604 38.667 164.477 38.6247 164.324 38.5908C164.172 38.5739 164.003 38.557 163.816 38.54C163.63 38.5231 163.419 38.5146 163.182 38.5146C162.962 38.5146 162.716 38.5146 162.445 38.5146C162.191 38.5146 161.988 38.5146 161.836 38.5146L141.117 38.5146V37.5752C142.911 37.5752 144.13 37.3213 144.773 36.8135C145.434 36.3057 145.764 35.2646 145.764 33.6904V6.90332C145.764 5.3291 145.366 4.27116 144.57 3.72949C143.775 3.1709 142.454 2.8916 140.609 2.8916V2.00293L153.559 2.00293V2.8916C151.561 2.8916 150.215 3.15397 149.521 3.67871C148.844 4.20345 148.506 5.27832 148.506 6.90332V33.6904C148.506 35.2646 148.819 36.2803 149.445 36.7373C150.072 37.1943 151.375 37.4229 153.355 37.4229C154.947 37.4229 156.199 37.4144 157.113 37.3975C158.044 37.3805 159.018 37.3298 160.033 37.2451C161.049 37.1436 161.819 37.0335 162.344 36.915C162.868 36.7965 163.436 36.585 164.045 36.2803C164.671 35.9587 165.137 35.637 165.441 35.3154C165.763 34.9769 166.135 34.4945 166.559 33.8682C166.982 33.2419 167.337 32.6071 167.625 31.9639C167.93 31.3206 168.302 30.4743 168.742 29.4248L169.631 29.6787ZM178.619 14.1396C178.619 16.3063 178.264 18.2699 177.553 20.0303C176.859 21.7907 175.784 23.2126 174.328 24.2959C172.889 25.3792 171.197 25.9209 169.25 25.9209C166.305 25.9209 163.943 24.8122 162.166 22.5947C160.406 20.3773 159.525 17.5589 159.525 14.1396C159.525 10.6696 160.397 7.80892 162.141 5.55762C163.884 3.30632 166.254 2.18066 169.25 2.18066C172.128 2.18066 174.404 3.30632 176.08 5.55762C177.773 7.80892 178.619 10.6696 178.619 14.1396ZM217.188 31.5068L217.975 32.167C215.859 34.6214 213.768 36.4072 211.703 37.5244C209.638 38.6416 207.184 39.2002 204.34 39.2002C201.632 39.2002 199.092 38.7178 196.723 37.7529C194.37 36.7881 192.355 35.4678 190.68 33.792C189.004 32.0993 187.684 30.0596 186.719 27.6729C185.754 25.2861 185.271 22.7132 185.271 19.9541C185.271 17.3643 185.788 14.8929 186.82 12.54C187.87 10.1872 189.249 8.18132 190.959 6.52246C192.686 4.86361 194.674 3.54329 196.926 2.56152C199.177 1.57975 201.479 1.08887 203.832 1.08887C204.78 1.08887 206.176 1.1735 208.021 1.34277C209.883 1.49512 211.271 1.55436 212.186 1.52051C213.1 1.48665 213.557 1.2666 213.557 0.860352L214.395 0.657227L217.492 11.5244L216.578 11.9561C215.732 9.73861 214.818 7.96126 213.836 6.62402C212.854 5.28678 211.602 4.2373 210.078 3.47559C209.096 2.9847 208.157 2.64616 207.26 2.45996C206.38 2.27376 205.186 2.18066 203.68 2.18066C200.785 2.18066 198.145 2.97624 195.758 4.56738C193.388 6.1416 191.526 8.29134 190.172 11.0166C188.835 13.7249 188.166 16.7041 188.166 19.9541C188.166 22.5439 188.623 24.9814 189.537 27.2666C190.468 29.5348 191.695 31.4476 193.219 33.0049C194.742 34.5452 196.477 35.764 198.424 36.6611C200.387 37.5583 202.393 38.0068 204.441 38.0068C205.914 38.0068 207.251 37.863 208.453 37.5752C209.672 37.2874 210.789 36.8473 211.805 36.2549C212.837 35.6455 213.76 34.9769 214.572 34.249C215.385 33.5042 216.257 32.5902 217.188 31.5068ZM233.234 16.4248L241.766 27.1396C242.984 28.6631 243.958 29.8734 244.686 30.7705C245.43 31.6676 246.209 32.5648 247.021 33.4619C247.834 34.3421 248.511 35.0023 249.053 35.4424C249.611 35.8656 250.221 36.2633 250.881 36.6357C251.541 36.9912 252.167 37.2282 252.76 37.3467C253.369 37.4652 254.055 37.5244 254.816 37.5244V38.3623L247.174 38.4131L231.152 18.5576C230.678 19.0316 229.883 19.861 228.766 21.0459V33.5127C228.766 35.1377 229.104 36.2126 229.781 36.7373C230.475 37.262 231.838 37.5244 233.869 37.5244V38.4131H220.869V37.5244C222.714 37.5244 224.035 37.2536 224.83 36.7119C225.626 36.1533 226.023 35.0869 226.023 33.5127V6.90332C226.023 5.3291 225.626 4.27116 224.83 3.72949C224.035 3.1709 222.714 2.8916 220.869 2.8916V2.00293L233.869 2.00293V2.8916C231.838 2.8916 230.475 3.15397 229.781 3.67871C229.104 4.20345 228.766 5.27832 228.766 6.90332V19.2686L235.799 12.3623C239.37 8.8584 241.444 6.78483 242.02 6.1416C243.238 4.80436 243.721 3.92415 243.467 3.50098C243.23 3.11165 242.163 2.90853 240.268 2.8916C240.115 2.8916 239.954 2.8916 239.785 2.8916V2.00293L253.115 2.00293V2.8916C251.998 2.8916 251.042 2.96777 250.246 3.12012C249.467 3.27246 248.503 3.62793 247.352 4.18652C246.201 4.72819 244.897 5.58301 243.441 6.75098C242.003 7.91895 240.301 9.45931 238.338 11.3721C237.847 11.8291 236.146 13.5133 233.234 16.4248Z" fill="#181818"/>
</svg>
