<svg width="325" height="44" viewBox="0 0 325 44" fill="none" xmlns="http://www.w3.org/2000/svg">
<g style="mix-blend-mode:luminosity">
<rect x="1.5" y="1" width="60" height="42" rx="7" fill="white"/>
<path fill-rule="evenodd" clip-rule="evenodd" d="M20.4171 28.4304H16.9842L14.4099 18.3206C14.2877 17.8556 14.0283 17.4444 13.6467 17.2507C12.6943 16.7637 11.6449 16.3762 10.5 16.1807V15.7915H16.0301C16.7934 15.7915 17.3658 16.3762 17.4612 17.0552L18.7969 24.3477L22.2281 15.7915H25.5656L20.4171 28.4304ZM27.4737 28.4304H24.2316L26.9013 15.7915H30.1434L27.4737 28.4304ZM34.3378 19.2929C34.4332 18.6121 35.0057 18.2229 35.6735 18.2229C36.723 18.1252 37.8661 18.3206 38.8202 18.8059L39.3926 16.0847C38.4386 15.6955 37.3891 15.5 36.4367 15.5C33.2901 15.5 31.0003 17.2507 31.0003 19.6804C31.0003 21.5288 32.6222 22.4993 33.7671 23.084C35.0057 23.667 35.4827 24.0563 35.3873 24.6393C35.3873 25.5137 34.4332 25.903 33.4809 25.903C32.336 25.903 31.1911 25.6115 30.1434 25.1245L29.5709 27.8474C30.7158 28.3327 31.9544 28.5281 33.0992 28.5281C36.6276 28.6242 38.8202 26.8752 38.8202 24.25C38.8202 20.9441 34.3378 20.7504 34.3378 19.2929ZM50.1667 28.4304L47.5924 15.7915H44.8273C44.2549 15.7915 43.6825 16.1807 43.4917 16.7637L38.7248 28.4304H42.0623L42.7284 26.5837H46.8292L47.2108 28.4304H50.1667ZM45.3044 19.1951L46.2567 23.9585H43.5871L45.3044 19.1951Z" fill="#172B85"/>
<rect x="1.5" y="1" width="60" height="42" rx="7" stroke="#181818" stroke-width="2"/>
<rect x="69" y="2.5" width="57" height="39" rx="5.5" fill="white"/>
<path fill-rule="evenodd" clip-rule="evenodd" d="M97.1316 30.0491C95.1582 31.7125 92.5984 32.7166 89.8011 32.7166C83.5597 32.7166 78.5 27.7171 78.5 21.55C78.5 15.3828 83.5597 10.3833 89.8011 10.3833C92.5984 10.3833 95.1582 11.3875 97.1316 13.0509C99.105 11.3875 101.665 10.3833 104.462 10.3833C110.704 10.3833 115.763 15.3828 115.763 21.55C115.763 27.7171 110.704 32.7166 104.462 32.7166C101.665 32.7166 99.105 31.7125 97.1316 30.0491Z" fill="#ED0006"/>
<path fill-rule="evenodd" clip-rule="evenodd" d="M97.1318 30.0491C99.5617 28.0009 101.103 24.9532 101.103 21.55C101.103 18.1467 99.5617 15.099 97.1318 13.0509C99.1053 11.3875 101.665 10.3833 104.462 10.3833C110.704 10.3833 115.763 15.3828 115.763 21.55C115.763 27.7171 110.704 32.7166 104.462 32.7166C101.665 32.7166 99.1053 31.7125 97.1318 30.0491Z" fill="#F9A000"/>
<path fill-rule="evenodd" clip-rule="evenodd" d="M97.1318 30.049C99.5616 28.0009 101.102 24.9532 101.102 21.55C101.102 18.1467 99.5616 15.0991 97.1318 13.0509C94.7019 15.0991 93.1611 18.1467 93.1611 21.55C93.1611 24.9532 94.7019 28.0009 97.1318 30.049Z" fill="#FF5E00"/>
<rect x="69" y="2.5" width="57" height="39" rx="5.5" stroke="#F2F4F7"/>
<rect x="135" y="2.5" width="57" height="39" rx="5.5" fill="#1F72CD"/>
<path fill-rule="evenodd" clip-rule="evenodd" d="M144.659 16.1666L139.357 28.2445H145.704L146.491 26.3188H148.289L149.076 28.2445H156.063V26.7748L156.685 28.2445H160.299L160.922 26.7437V28.2445H175.451L177.218 26.3688L178.872 28.2445L186.335 28.2601L181.016 22.2393L186.335 16.1666H178.988L177.268 18.0077L175.666 16.1666H159.86L158.502 19.284L157.113 16.1666H150.779V17.5864L150.075 16.1666H144.659ZM145.887 17.8817H148.981L152.497 26.0718V17.8817H155.887L158.603 23.754L161.106 17.8817H164.479V26.5484H162.427L162.41 19.7572L159.418 26.5484H157.583L154.574 19.7572V26.5484H150.353L149.553 24.6054H145.229L144.431 26.5467H142.169L145.887 17.8817ZM174.699 17.8817H166.356V26.5433H174.57L177.218 23.6727L179.77 26.5433H182.438L178.56 22.2376L182.438 17.8817H179.886L177.251 20.7193L174.699 17.8817ZM147.392 19.3481L145.967 22.8093H148.815L147.392 19.3481ZM168.416 21.2582V19.6761V19.6746H173.622L175.894 22.2048L173.522 24.7488H168.416V23.0216H172.968V21.2582H168.416Z" fill="white"/>
<rect x="135" y="2.5" width="57" height="39" rx="5.5" stroke="#F2F4F7"/>
<rect x="201" y="2.5" width="57" height="39" rx="5.5" fill="white"/>
<path d="M237.5 41L256.5 35.25V38C256.5 39.6569 255.157 41 253.5 41H237.5Z" fill="#FD6020"/>
<path fill-rule="evenodd" clip-rule="evenodd" d="M249.489 17.1847C251.232 17.1847 252.19 17.9906 252.19 19.5129C252.277 20.677 251.493 21.662 250.448 21.8411L252.8 25.1542H250.97L248.967 21.9306H248.793V25.1542H247.312V17.1847H249.489ZM248.793 20.8561H249.228C250.186 20.8561 250.622 20.4084 250.622 19.6025C250.622 18.8861 250.186 18.4384 249.228 18.4384H248.793V20.8561ZM242.172 25.1542H246.354V23.8111H243.653V21.662H246.266V20.3188H243.653V18.5279H246.354V17.1847H242.172V25.1542ZM237.817 22.5574L235.814 17.1847H234.246L237.469 25.3333H238.253L241.476 17.1847H239.908L237.817 22.5574ZM220.134 21.2143C220.134 23.4529 221.876 25.3333 224.054 25.3333C224.751 25.3333 225.361 25.1542 225.97 24.8856V23.0947C225.535 23.632 224.925 23.9902 224.228 23.9902C222.834 23.9902 221.702 22.9156 221.702 21.4829V21.3038C221.615 19.8711 222.747 18.6175 224.141 18.5279C224.838 18.5279 225.535 18.8861 225.97 19.4234V17.6325C225.448 17.2743 224.751 17.1848 224.141 17.1848C221.876 17.0057 220.134 18.8861 220.134 21.2143ZM217.434 20.2293C216.563 19.8711 216.301 19.692 216.301 19.2443C216.388 18.707 216.824 18.2593 217.347 18.3488C217.782 18.3488 218.218 18.6175 218.566 18.9756L219.35 17.9011C218.74 17.3638 217.956 17.0057 217.172 17.0057C215.953 16.9161 214.908 17.9011 214.821 19.1547V19.2443C214.821 20.3188 215.256 20.9456 216.65 21.3934C216.998 21.4829 217.347 21.662 217.695 21.8411C217.956 22.0202 218.131 22.2888 218.131 22.647C218.131 23.2738 217.608 23.8111 217.085 23.8111H216.998C216.301 23.8111 215.692 23.3633 215.43 22.7365L214.472 23.7215C214.995 24.7065 216.04 25.2438 217.085 25.2438C218.479 25.3333 219.611 24.2588 219.699 22.8261V22.5574C219.611 21.4829 219.176 20.9456 217.434 20.2293ZM212.382 25.1542H213.862V17.1847H212.382V25.1542ZM205.5 17.1848H207.678H208.113C210.204 17.2743 211.859 19.0652 211.772 21.2143C211.772 22.3784 211.249 23.4529 210.378 24.2588C209.594 24.8856 208.636 25.2438 207.678 25.1543H205.5V17.1848ZM207.416 23.8111C208.113 23.9006 208.897 23.632 209.42 23.1842C209.943 22.647 210.204 21.9306 210.204 21.1247C210.204 20.4083 209.943 19.692 209.42 19.1547C208.897 18.707 208.113 18.4384 207.416 18.5279H206.981V23.8111H207.416Z" fill="black"/>
<path fill-rule="evenodd" clip-rule="evenodd" d="M230.413 17C228.235 17 226.406 18.7909 226.406 21.1191C226.406 23.3577 228.148 25.2381 230.413 25.3277C232.678 25.4172 234.42 23.5368 234.507 21.2086C234.42 18.8804 232.678 17 230.413 17V17Z" fill="#FD6020"/>
<rect x="201" y="2.5" width="57" height="39" rx="5.5" stroke="#F2F4F7"/>
<rect x="267" y="2.5" width="57" height="39" rx="5.5" fill="white"/>
<path fill-rule="evenodd" clip-rule="evenodd" d="M290.857 32.7471L291.225 30.3319L290.405 30.3122H286.492L289.212 12.4895C289.22 12.4355 289.248 12.3854 289.288 12.3497C289.328 12.3141 289.379 12.2946 289.433 12.2946H296.031C298.222 12.2946 299.733 12.7656 300.522 13.6955C300.893 14.1318 301.128 14.5877 301.242 15.0894C301.362 15.6158 301.364 16.2447 301.247 17.0119L301.239 17.0677V17.5593L301.609 17.776C301.92 17.9469 302.168 18.1424 302.358 18.3662C302.674 18.7393 302.879 19.2134 302.966 19.7753C303.055 20.3533 303.025 21.0413 302.879 21.82C302.71 22.7157 302.437 23.4959 302.069 24.1342C301.73 24.7224 301.298 25.2103 300.785 25.5883C300.295 25.9476 299.714 26.2203 299.056 26.3948C298.418 26.5663 297.692 26.6528 296.895 26.6528H296.381C296.014 26.6528 295.658 26.7895 295.378 27.0345C295.097 27.2846 294.911 27.6263 294.854 28L294.815 28.2175L294.165 32.4746L294.136 32.6308C294.128 32.6803 294.115 32.7049 294.095 32.7216C294.077 32.7369 294.052 32.7471 294.028 32.7471H290.857Z" fill="#28356A"/>
<path fill-rule="evenodd" clip-rule="evenodd" d="M301.959 17.1245C301.94 17.2546 301.917 17.3876 301.892 17.5243C301.022 22.142 298.045 23.7373 294.243 23.7373H292.307C291.842 23.7373 291.45 24.0861 291.378 24.5603L290.106 32.899C290.059 33.2104 290.291 33.4909 290.595 33.4909H294.028C294.435 33.4909 294.78 33.1856 294.844 32.7711L294.878 32.5909L295.524 28.3505L295.566 28.118C295.629 27.7021 295.975 27.3966 296.382 27.3966H296.895C300.222 27.3966 302.826 26.0007 303.587 21.961C303.905 20.2735 303.741 18.8644 302.899 17.8734C302.645 17.5746 302.329 17.3265 301.959 17.1245Z" fill="#298FC2"/>
<path fill-rule="evenodd" clip-rule="evenodd" d="M301.049 16.7494C300.916 16.7093 300.779 16.6731 300.638 16.6403C300.496 16.6083 300.352 16.58 300.202 16.5551C299.68 16.468 299.108 16.4266 298.496 16.4266H293.324C293.197 16.4266 293.076 16.4564 292.967 16.5101C292.729 16.6287 292.552 16.8621 292.509 17.1478L291.408 24.3503L291.377 24.5603C291.449 24.0862 291.841 23.7373 292.306 23.7373H294.242C298.044 23.7373 301.021 22.1413 301.891 17.5244C301.917 17.3877 301.939 17.2547 301.959 17.1246C301.739 17.0038 301.5 16.9005 301.244 16.8126C301.18 16.7908 301.115 16.7698 301.049 16.7494Z" fill="#22284F"/>
<path fill-rule="evenodd" clip-rule="evenodd" d="M292.509 17.1478C292.552 16.8621 292.729 16.6287 292.968 16.5109C293.077 16.457 293.197 16.4272 293.324 16.4272H298.496C299.109 16.4272 299.681 16.4688 300.203 16.556C300.352 16.5806 300.497 16.6091 300.638 16.6411C300.779 16.6737 300.916 16.7101 301.049 16.75C301.115 16.7704 301.18 16.7916 301.244 16.8126C301.501 16.9005 301.74 17.0046 301.96 17.1246C302.219 15.4181 301.958 14.2563 301.065 13.2042C300.081 12.0458 298.305 11.55 296.032 11.55H289.433C288.969 11.55 288.573 11.8989 288.501 12.3738L285.753 30.3798C285.699 30.736 285.965 31.0574 286.312 31.0574H290.386L292.509 17.1478Z" fill="#28356A"/>
<rect x="267" y="2.5" width="57" height="39" rx="5.5" stroke="#F2F4F7"/>
</g>
</svg>
