<svg width="17" height="16" viewBox="0 0 17 16" fill="none" xmlns="http://www.w3.org/2000/svg">
<path d="M3.41849 10.6339C3.5095 10.3972 3.55501 10.2789 3.61443 10.1682C3.66721 10.0699 3.72812 9.97617 3.79653 9.88801C3.87355 9.78876 3.96319 9.69912 4.14246 9.51985L11.6623 2.00004C12.3987 1.26366 13.5926 1.26366 14.329 2.00004C15.0653 2.73642 15.0653 3.93033 14.329 4.66671L6.80912 12.1865C6.62986 12.3658 6.54022 12.4554 6.44097 12.5324C6.35281 12.6009 6.25907 12.6618 6.16075 12.7146C6.05006 12.774 5.93175 12.8195 5.69512 12.9105L1.99561 14.3334L3.41849 10.6339Z" fill="#181818"/>
<path d="M3.36769 10.766C3.46587 10.5107 3.51496 10.3831 3.59917 10.3246C3.67275 10.2735 3.76381 10.2542 3.8518 10.271C3.95249 10.2902 4.04919 10.3869 4.24259 10.5803L5.74865 12.0864C5.94205 12.2798 6.03875 12.3765 6.05798 12.4772C6.07479 12.5652 6.05546 12.6562 6.00437 12.7298C5.9459 12.814 5.81826 12.8631 5.56299 12.9613L1.99561 14.3334L3.36769 10.766Z" fill="#181818"/>
<path d="M14.329 14H8.99562M1.99561 14.3334L5.69512 12.9105C5.93175 12.8195 6.05006 12.774 6.16075 12.7146C6.25907 12.6618 6.35281 12.6009 6.44097 12.5324C6.54022 12.4554 6.62985 12.3658 6.80913 12.1865L14.329 4.66671C15.0653 3.93033 15.0653 2.73642 14.329 2.00004C13.5926 1.26366 12.3987 1.26366 11.6623 2.00004L4.14246 9.51985C3.96319 9.69912 3.87355 9.78876 3.79653 9.88801C3.72812 9.97617 3.66721 10.0699 3.61443 10.1682C3.55501 10.2789 3.5095 10.3972 3.41849 10.6339L1.99561 14.3334ZM1.99561 14.3334L3.36769 10.766C3.46587 10.5107 3.51496 10.3831 3.59917 10.3246C3.67275 10.2735 3.76381 10.2542 3.8518 10.271C3.95249 10.2902 4.04919 10.3869 4.24259 10.5803L5.74865 12.0864C5.94205 12.2798 6.03875 12.3765 6.05798 12.4772C6.07479 12.5652 6.05546 12.6562 6.00437 12.7298C5.9459 12.814 5.81826 12.8631 5.56299 12.9613L1.99561 14.3334Z" stroke="#EAE5DC" stroke-linecap="round" stroke-linejoin="round"/>
</svg>
