<svg width="17" height="16" viewBox="0 0 17 16" fill="none" xmlns="http://www.w3.org/2000/svg">
<path d="M2.3291 5.2C2.3291 4.0799 2.3291 3.51984 2.54709 3.09202C2.73884 2.71569 3.0448 2.40973 3.42112 2.21799C3.84894 2 4.409 2 5.5291 2H11.1291C12.2492 2 12.8093 2 13.2371 2.21799C13.6134 2.40973 13.9194 2.71569 14.1111 3.09202C14.3291 3.51984 14.3291 4.0799 14.3291 5.2V10.8C14.3291 11.9201 14.3291 12.4802 14.1111 12.908C13.9194 13.2843 13.6134 13.5903 13.2371 13.782C12.8093 14 12.2492 14 11.1291 14H5.5291C4.409 14 3.84894 14 3.42112 13.782C3.0448 13.5903 2.73884 13.2843 2.54709 12.908C2.3291 12.4802 2.3291 11.9201 2.3291 10.8V5.2Z" fill="#181818"/>
<path d="M6.3291 6.33333L4.3291 10H12.3291L9.3291 5L7.66244 7.33333L6.3291 6.33333Z" fill="#181818"/>
<path d="M2.3291 5.2C2.3291 4.0799 2.3291 3.51984 2.54709 3.09202C2.73884 2.71569 3.0448 2.40973 3.42112 2.21799C3.84894 2 4.409 2 5.5291 2H11.1291C12.2492 2 12.8093 2 13.2371 2.21799C13.6134 2.40973 13.9194 2.71569 14.1111 3.09202C14.3291 3.51984 14.3291 4.0799 14.3291 5.2V10.8C14.3291 11.9201 14.3291 12.4802 14.1111 12.908C13.9194 13.2843 13.6134 13.5903 13.2371 13.782C12.8093 14 12.2492 14 11.1291 14H5.5291C4.409 14 3.84894 14 3.42112 13.782C3.0448 13.5903 2.73884 13.2843 2.54709 12.908C2.3291 12.4802 2.3291 11.9201 2.3291 10.8V5.2Z" stroke="#EAE5DC" stroke-linecap="round" stroke-linejoin="round"/>
<path d="M6.3291 6.33333L4.3291 10H12.3291L9.3291 5L7.66244 7.33333L6.3291 6.33333Z" stroke="#EAE5DC" stroke-linecap="round" stroke-linejoin="round"/>
</svg>
