<svg width="20" height="20" viewBox="0 0 20 20" fill="none" xmlns="http://www.w3.org/2000/svg">
<path d="M19.3882 10.8144C19.6892 10.8144 19.8741 11.0342 19.8741 11.5536V11.7216H20.0002V9H19.8741V9.1694C19.8741 9.6874 19.6892 9.9072 19.3882 9.9072H0.613511C0.312486 9.9072 0.127625 9.6874 0.127625 9.1694V9H0.000221252V11.7216H0.127625V11.5536C0.127625 11.0342 0.312486 10.8144 0.613511 10.8144H19.3882Z" fill="#181818"/>
<path d="M10.5553 0.61329C10.5553 0.312265 10.7437 0.127404 11.1889 0.127404H11.3329V0H9.00006V0.127404H9.14526C9.58926 0.127404 9.77766 0.312265 9.77766 0.61329V19.3867C9.77766 19.6877 9.58926 19.8726 9.14526 19.8726H9.00006V20H11.3329V19.8726H11.1889C10.7437 19.8726 10.5553 19.6877 10.5553 19.3867V0.61329Z" fill="#181818"/>
</svg>
