<svg width="320" height="99" viewBox="0 0 320 99" fill="none" xmlns="http://www.w3.org/2000/svg">
<path d="M83.5022 9.50391L86.2913 12.7969C87.7366 14.5234 88.6897 15.6133 89.1506 16.0664C89.9006 16.8242 90.6038 17.2891 91.26 17.4609C91.5725 17.5469 91.9241 17.5898 92.3147 17.5898V17.9766L88.9514 18L81.9905 9.59766H79.4241V15.7148C79.4241 16.4727 79.5803 16.9766 79.8928 17.2266C80.2131 17.4688 80.842 17.5898 81.7795 17.5898V18H75.7795V17.5898C76.6233 17.5898 77.2288 17.4609 77.5959 17.2031C77.9631 16.9375 78.1467 16.4414 78.1467 15.7148V3.52734C78.1467 2.76953 77.9631 2.26172 77.5959 2.00391C77.2366 1.73828 76.6311 1.60547 75.7795 1.60547V1.19531H82.3303C84.1272 1.19531 85.5139 1.55078 86.4905 2.26172C87.4748 2.97266 87.967 3.94531 87.967 5.17969C87.967 6.35156 87.5608 7.3125 86.7483 8.0625C85.9358 8.8125 84.8538 9.29297 83.5022 9.50391ZM79.4241 3.52734V9.02344H82.0608C83.4592 9.02344 84.5686 8.68359 85.3889 8.00391C86.2092 7.32422 86.6194 6.42578 86.6194 5.30859C86.6194 4.19141 86.2092 3.29688 85.3889 2.625C84.5764 1.94531 83.3147 1.60547 81.6038 1.60547C80.7288 1.60547 80.1467 1.72266 79.8577 1.95703C79.5686 2.19141 79.4241 2.71484 79.4241 3.52734ZM106.511 13.7578L106.921 13.875L105.222 18.9844L104.835 18.8906C104.851 18.7891 104.859 18.6992 104.859 18.6211C104.859 18.543 104.855 18.4727 104.847 18.4102C104.839 18.3477 104.82 18.293 104.789 18.2461C104.757 18.207 104.73 18.1719 104.707 18.1406C104.683 18.1094 104.636 18.082 104.566 18.0586C104.496 18.043 104.441 18.0312 104.402 18.0234C104.363 18.0156 104.293 18.0078 104.191 18C104.089 18 104.007 18 103.945 18C103.89 18 103.793 18 103.652 18C103.511 18 103.402 18 103.324 18H93.7495V17.5664C94.5777 17.5664 95.1402 17.4453 95.437 17.2031C95.7339 16.9609 95.8823 16.4727 95.8823 15.7383V3.43359C95.8823 2.71484 95.7261 2.23438 95.4136 1.99219C95.1089 1.75 94.5542 1.62891 93.7495 1.62891V1.19531H102.105C102.175 1.19531 102.277 1.19531 102.41 1.19531C102.519 1.19531 102.621 1.19531 102.714 1.19531C102.808 1.19531 102.894 1.19531 102.972 1.19531C103.05 1.1875 103.121 1.17969 103.183 1.17188C103.253 1.15625 103.312 1.14062 103.359 1.125C103.414 1.10938 103.46 1.08594 103.5 1.05469C103.539 1.02344 103.57 0.984375 103.593 0.9375C103.617 0.890625 103.632 0.835938 103.64 0.773438C103.656 0.710938 103.664 0.640625 103.664 0.5625C103.664 0.484375 103.656 0.394531 103.64 0.292969L104.027 0.1875L105.726 5.30859L105.316 5.42578C105.113 4.94922 104.941 4.55859 104.8 4.25391C104.66 3.94141 104.496 3.64453 104.308 3.36328C104.128 3.07422 103.972 2.85156 103.839 2.69531C103.707 2.53906 103.519 2.39062 103.277 2.25C103.043 2.10156 102.824 2 102.621 1.94531C102.425 1.88281 102.144 1.83203 101.777 1.79297C101.41 1.74609 101.058 1.71875 100.722 1.71094C100.394 1.70312 99.9488 1.69922 99.3863 1.69922C98.5581 1.69922 97.98 1.8125 97.6519 2.03906C97.3238 2.25781 97.1597 2.72266 97.1597 3.43359V9.02344H100.71C101.25 9.02344 101.617 8.83203 101.812 8.44922C102.007 8.06641 102.105 7.44922 102.105 6.59766H102.48V11.9297H102.105C102.105 11.0469 102.003 10.4219 101.8 10.0547C101.605 9.6875 101.25 9.50391 100.734 9.50391H97.1597V15.7383C97.1597 16.4805 97.3003 16.957 97.5816 17.168C97.8706 17.3711 98.4722 17.4727 99.3863 17.4727C100.121 17.4727 100.699 17.4688 101.121 17.4609C101.55 17.4531 102 17.4258 102.468 17.3789C102.937 17.332 103.293 17.2852 103.535 17.2383C103.777 17.1836 104.039 17.082 104.32 16.9336C104.609 16.7852 104.824 16.6367 104.964 16.4883C105.113 16.3398 105.289 16.1211 105.492 15.832C105.695 15.5352 105.863 15.2383 105.996 14.9414C106.136 14.6367 106.308 14.2422 106.511 13.7578ZM124.282 9.52734C124.282 12.207 123.501 14.2891 121.938 15.7734C120.376 17.2578 118.227 18 115.493 18H108.684V17.5898C109.536 17.5898 110.141 17.4648 110.501 17.2148C110.868 16.957 111.052 16.4648 111.052 15.7383V3.45703C111.052 2.73828 110.864 2.25 110.489 1.99219C110.114 1.73438 109.512 1.60547 108.684 1.60547V1.19531H114.825C118.083 1.19531 120.473 1.86719 121.997 3.21094C123.52 4.55469 124.282 6.66016 124.282 9.52734ZM115.352 17.5898C117.868 17.5898 119.755 16.9375 121.012 15.6328C122.278 14.3203 122.911 12.2852 122.911 9.52734C122.911 6.98828 122.251 5.03516 120.93 3.66797C119.618 2.29297 117.583 1.60547 114.825 1.60547C113.809 1.60547 113.137 1.72656 112.809 1.96875C112.489 2.20312 112.329 2.69922 112.329 3.45703V15.7734C112.329 16.2891 112.407 16.6719 112.563 16.9219C112.727 17.1641 113.016 17.3359 113.43 17.4375C113.845 17.5391 114.485 17.5898 115.352 17.5898ZM139.404 13.7578L139.815 13.875L138.115 18.9844L137.729 18.8906C137.744 18.7891 137.752 18.6992 137.752 18.6211C137.752 18.543 137.748 18.4727 137.74 18.4102C137.732 18.3477 137.713 18.293 137.682 18.2461C137.65 18.207 137.623 18.1719 137.6 18.1406C137.576 18.1094 137.529 18.082 137.459 18.0586C137.389 18.043 137.334 18.0312 137.295 18.0234C137.256 18.0156 137.186 18.0078 137.084 18C136.982 18 136.9 18 136.838 18C136.783 18 136.686 18 136.545 18C136.404 18 136.295 18 136.217 18H126.643V17.5664C127.471 17.5664 128.033 17.4453 128.33 17.2031C128.627 16.9609 128.775 16.4727 128.775 15.7383V3.43359C128.775 2.71484 128.619 2.23438 128.307 1.99219C128.002 1.75 127.447 1.62891 126.643 1.62891V1.19531H134.998C135.068 1.19531 135.17 1.19531 135.303 1.19531C135.412 1.19531 135.514 1.19531 135.607 1.19531C135.701 1.19531 135.787 1.19531 135.865 1.19531C135.943 1.1875 136.014 1.17969 136.076 1.17188C136.147 1.15625 136.205 1.14062 136.252 1.125C136.307 1.10938 136.354 1.08594 136.393 1.05469C136.432 1.02344 136.463 0.984375 136.486 0.9375C136.51 0.890625 136.525 0.835938 136.533 0.773438C136.549 0.710938 136.557 0.640625 136.557 0.5625C136.557 0.484375 136.549 0.394531 136.533 0.292969L136.92 0.1875L138.619 5.30859L138.209 5.42578C138.006 4.94922 137.834 4.55859 137.693 4.25391C137.553 3.94141 137.389 3.64453 137.201 3.36328C137.022 3.07422 136.865 2.85156 136.732 2.69531C136.6 2.53906 136.412 2.39062 136.17 2.25C135.936 2.10156 135.717 2 135.514 1.94531C135.318 1.88281 135.037 1.83203 134.67 1.79297C134.303 1.74609 133.951 1.71875 133.615 1.71094C133.287 1.70312 132.842 1.69922 132.279 1.69922C131.451 1.69922 130.873 1.8125 130.545 2.03906C130.217 2.25781 130.053 2.72266 130.053 3.43359V9.02344H133.604C134.143 9.02344 134.51 8.83203 134.705 8.44922C134.9 8.06641 134.998 7.44922 134.998 6.59766H135.373V11.9297H134.998C134.998 11.0469 134.897 10.4219 134.693 10.0547C134.498 9.6875 134.143 9.50391 133.627 9.50391H130.053V15.7383C130.053 16.4805 130.193 16.957 130.475 17.168C130.764 17.3711 131.365 17.4727 132.279 17.4727C133.014 17.4727 133.592 17.4688 134.014 17.4609C134.443 17.4531 134.893 17.4258 135.361 17.3789C135.83 17.332 136.186 17.2852 136.428 17.2383C136.67 17.1836 136.932 17.082 137.213 16.9336C137.502 16.7852 137.717 16.6367 137.857 16.4883C138.006 16.3398 138.182 16.1211 138.385 15.832C138.588 15.5352 138.756 15.2383 138.889 14.9414C139.029 14.6367 139.201 14.2422 139.404 13.7578ZM154.046 13.7578L154.456 13.875L152.757 18.9844L152.37 18.8906C152.386 18.7891 152.394 18.6992 152.394 18.6211C152.394 18.543 152.39 18.4727 152.382 18.4102C152.374 18.3477 152.355 18.293 152.324 18.2461C152.292 18.207 152.265 18.1719 152.242 18.1406C152.218 18.1094 152.171 18.082 152.101 18.0586C152.031 18.043 151.976 18.0312 151.937 18.0234C151.898 18.0156 151.827 18.0078 151.726 18C151.624 18 151.542 18 151.48 18C151.425 18 151.327 18 151.187 18C151.046 18 150.937 18 150.859 18H141.285V17.5664C142.113 17.5664 142.675 17.4453 142.972 17.2031C143.269 16.9609 143.417 16.4727 143.417 15.7383V3.43359C143.417 2.71484 143.261 2.23438 142.949 1.99219C142.644 1.75 142.089 1.62891 141.285 1.62891V1.19531H149.64C149.71 1.19531 149.812 1.19531 149.945 1.19531C150.054 1.19531 150.156 1.19531 150.249 1.19531C150.343 1.19531 150.429 1.19531 150.507 1.19531C150.585 1.1875 150.656 1.17969 150.718 1.17188C150.788 1.15625 150.847 1.14062 150.894 1.125C150.949 1.10938 150.995 1.08594 151.035 1.05469C151.074 1.02344 151.105 0.984375 151.128 0.9375C151.152 0.890625 151.167 0.835938 151.175 0.773438C151.191 0.710938 151.199 0.640625 151.199 0.5625C151.199 0.484375 151.191 0.394531 151.175 0.292969L151.562 0.1875L153.261 5.30859L152.851 5.42578C152.648 4.94922 152.476 4.55859 152.335 4.25391C152.195 3.94141 152.031 3.64453 151.843 3.36328C151.663 3.07422 151.507 2.85156 151.374 2.69531C151.242 2.53906 151.054 2.39062 150.812 2.25C150.577 2.10156 150.359 2 150.156 1.94531C149.96 1.88281 149.679 1.83203 149.312 1.79297C148.945 1.74609 148.593 1.71875 148.257 1.71094C147.929 1.70312 147.484 1.69922 146.921 1.69922C146.093 1.69922 145.515 1.8125 145.187 2.03906C144.859 2.25781 144.695 2.72266 144.695 3.43359V9.02344H148.245C148.785 9.02344 149.152 8.83203 149.347 8.44922C149.542 8.06641 149.64 7.44922 149.64 6.59766H150.015V11.9297H149.64C149.64 11.0469 149.538 10.4219 149.335 10.0547C149.14 9.6875 148.785 9.50391 148.269 9.50391H144.695V15.7383C144.695 16.4805 144.835 16.957 145.117 17.168C145.406 17.3711 146.007 17.4727 146.921 17.4727C147.656 17.4727 148.234 17.4688 148.656 17.4609C149.085 17.4531 149.535 17.4258 150.003 17.3789C150.472 17.332 150.827 17.2852 151.07 17.2383C151.312 17.1836 151.574 17.082 151.855 16.9336C152.144 16.7852 152.359 16.6367 152.499 16.4883C152.648 16.3398 152.824 16.1211 153.027 15.832C153.23 15.5352 153.398 15.2383 153.531 14.9414C153.671 14.6367 153.843 14.2422 154.046 13.7578ZM175.649 1.19531V1.60547C174.704 1.60547 174.059 1.73047 173.715 1.98047C173.38 2.22266 173.212 2.71484 173.212 3.45703V15.7383C173.212 16.4805 173.38 16.9766 173.715 17.2266C174.051 17.4688 174.696 17.5898 175.649 17.5898V18H169.462V17.5898C170.313 17.5898 170.938 17.4648 171.337 17.2148C171.735 16.957 171.934 16.4766 171.934 15.7734V4.62891L165.747 18H165.184L158.739 4.60547V15.7383C158.739 16.4805 158.907 16.9766 159.243 17.2266C159.587 17.4688 160.231 17.5898 161.176 17.5898V18H155.633V17.5898C156.493 17.5898 157.118 17.4609 157.508 17.2031C157.907 16.9375 158.106 16.4414 158.106 15.7148V3.48047C158.106 2.75391 157.907 2.26172 157.508 2.00391C157.118 1.73828 156.493 1.60547 155.633 1.60547V1.19531H158.61L165.84 16.3711L172.778 1.19531H175.649ZM192.499 1.19531H198.042V1.62891C196.847 1.62891 195.905 2.23047 195.218 3.43359L191.163 10.6289V15.7383C191.163 16.4883 191.32 16.9844 191.632 17.2266C191.945 17.4688 192.57 17.5898 193.507 17.5898V18H187.507V17.5898C188.359 17.5898 188.968 17.4648 189.335 17.2148C189.702 16.957 189.886 16.4648 189.886 15.7383V10.5352L186.312 4.125C186.218 3.96094 186.101 3.74609 185.96 3.48047C185.82 3.20703 185.714 3.01562 185.644 2.90625C185.581 2.78906 185.484 2.64062 185.351 2.46094C185.226 2.28125 185.105 2.15625 184.988 2.08594C184.878 2.00781 184.73 1.92578 184.542 1.83984C184.363 1.75391 184.155 1.69922 183.921 1.67578C183.695 1.64453 183.425 1.62891 183.113 1.62891V1.19531H188.831V1.62891C187.73 1.62891 187.109 1.76953 186.968 2.05078C186.866 2.24609 186.96 2.61719 187.249 3.16406C187.288 3.25 187.374 3.41016 187.507 3.64453L190.941 9.84375L194.784 3.07031C194.87 2.92188 194.925 2.78516 194.948 2.66016C194.972 2.52734 194.952 2.39844 194.89 2.27344C194.835 2.14062 194.722 2.03125 194.55 1.94531C194.378 1.85156 194.116 1.77734 193.765 1.72266C193.421 1.66016 192.999 1.62891 192.499 1.62891V1.19531ZM205.735 0.773438C207.415 0.773438 208.786 1.33984 209.848 2.47266C210.918 3.59766 211.454 5.03125 211.454 6.77344C211.454 7.82812 211.192 8.80859 210.668 9.71484C210.145 10.6211 209.442 11.3359 208.559 11.8594C207.684 12.3828 206.743 12.6445 205.735 12.6445C204.079 12.6445 202.68 12.0859 201.54 10.9688C200.407 9.84375 199.84 8.44531 199.84 6.77344C199.84 5.67188 200.11 4.66016 200.649 3.73828C201.196 2.80859 201.918 2.08203 202.817 1.55859C203.723 1.03516 204.696 0.773438 205.735 0.773438ZM221.801 1.19531H227.368V1.60547C226.555 1.60547 225.954 1.82031 225.563 2.25C225.18 2.67969 224.989 3.37891 224.989 4.34766V11.1797C224.989 13.6172 224.508 15.4258 223.547 16.6055C222.594 17.7773 221.145 18.3633 219.2 18.3633C217.098 18.3633 215.571 17.8359 214.618 16.7812C213.672 15.7188 213.2 14.0117 213.2 11.6602V3.69141C213.2 2.85547 213.016 2.30078 212.649 2.02734C212.282 1.74609 211.653 1.60547 210.762 1.60547V1.19531H216.879V1.60547C215.942 1.60547 215.313 1.74219 214.993 2.01562C214.68 2.28906 214.524 2.84766 214.524 3.69141L214.5 11.7305C214.493 12.6758 214.575 13.5 214.747 14.2031C214.926 14.9062 215.165 15.4766 215.461 15.9141C215.758 16.3438 216.133 16.6914 216.586 16.957C217.04 17.2148 217.512 17.3945 218.004 17.4961C218.504 17.5898 219.071 17.6367 219.704 17.6367C220.586 17.6367 221.336 17.4961 221.954 17.2148C222.571 16.9258 223.055 16.4961 223.407 15.9258C223.766 15.3477 224.024 14.6758 224.18 13.9102C224.336 13.1445 224.415 12.2344 224.415 11.1797V4.37109C224.415 3.39453 224.188 2.69141 223.735 2.26172C223.29 1.82422 222.645 1.60547 221.801 1.60547V1.19531ZM210.059 6.73828C210.059 5.15234 209.672 3.87109 208.899 2.89453C208.133 1.91016 207.079 1.41797 205.735 1.41797C204.336 1.41797 203.239 1.91016 202.442 2.89453C201.653 3.87109 201.258 5.15234 201.258 6.73828C201.258 8.30078 201.661 9.57031 202.465 10.5469C203.278 11.5156 204.368 12 205.735 12C207.086 12 208.145 11.5078 208.911 10.5234C209.676 9.53125 210.059 8.26953 210.059 6.73828ZM236.513 9.50391L239.302 12.7969C240.748 14.5234 241.701 15.6133 242.162 16.0664C242.912 16.8242 243.615 17.2891 244.271 17.4609C244.584 17.5469 244.935 17.5898 245.326 17.5898V17.9766L241.963 18L235.002 9.59766H232.435V15.7148C232.435 16.4727 232.592 16.9766 232.904 17.2266C233.224 17.4688 233.853 17.5898 234.791 17.5898V18H228.791V17.5898C229.635 17.5898 230.24 17.4609 230.607 17.2031C230.974 16.9375 231.158 16.4414 231.158 15.7148V3.52734C231.158 2.76953 230.974 2.26172 230.607 2.00391C230.248 1.73828 229.642 1.60547 228.791 1.60547V1.19531H235.342C237.138 1.19531 238.525 1.55078 239.502 2.26172C240.486 2.97266 240.978 3.94531 240.978 5.17969C240.978 6.35156 240.572 7.3125 239.76 8.0625C238.947 8.8125 237.865 9.29297 236.513 9.50391ZM232.435 3.52734V9.02344H235.072C236.47 9.02344 237.58 8.68359 238.4 8.00391C239.22 7.32422 239.631 6.42578 239.631 5.30859C239.631 4.19141 239.22 3.29688 238.4 2.625C237.588 1.94531 236.326 1.60547 234.615 1.60547C233.74 1.60547 233.158 1.72266 232.869 1.95703C232.58 2.19141 232.435 2.71484 232.435 3.52734ZM53.3963 50.0625C57.8963 50.0625 61.5838 51.5729 64.4588 54.5938C67.3338 57.6146 68.7713 61.4375 68.7713 66.0625C68.7713 68.875 68.0629 71.4896 66.6463 73.9062C65.2296 76.3229 63.3338 78.2292 60.9588 79.625C58.6046 81.0208 56.0838 81.7188 53.3963 81.7188C50.5004 81.7188 47.8442 81.0417 45.4275 79.6875C43.0108 78.3333 41.0942 76.4583 39.6775 74.0625C38.2608 71.6667 37.5525 69 37.5525 66.0625C37.5525 63.125 38.2817 60.4271 39.74 57.9688C41.2192 55.4896 43.1671 53.5521 45.5838 52.1562C48.0213 50.7604 50.6254 50.0625 53.3963 50.0625ZM20.9588 73.3438L28.3963 82.125C32.2504 86.7292 34.7921 89.6354 36.0213 90.8438C38.0213 92.8646 39.8963 94.1042 41.6463 94.5625C42.4796 94.7917 43.4171 94.9062 44.4588 94.9062V95.9375L35.49 96L16.9275 73.5938H10.0838V89.9062C10.0838 91.9271 10.5004 93.2708 11.3338 93.9375C12.1879 94.5833 13.865 94.9062 16.365 94.9062V96H0.365005V94.9062C2.61501 94.9062 4.22959 94.5625 5.20876 93.875C6.18792 93.1667 6.67751 91.8438 6.67751 89.9062V57.4062C6.67751 55.3854 6.18792 54.0312 5.20876 53.3438C4.25042 52.6354 2.63584 52.2812 0.365005 52.2812V51.1875H17.8338C22.6254 51.1875 26.3233 52.1354 28.9275 54.0312C31.5525 55.9271 32.865 58.5208 32.865 61.8125C32.865 64.9375 31.7817 67.5 29.615 69.5C27.4483 71.5 24.5629 72.7812 20.9588 73.3438ZM53.3963 80.5C55.2088 80.5 56.8546 80.1146 58.3338 79.3438C59.8338 78.5729 61.0733 77.5208 62.0525 76.1875C63.0317 74.8542 63.7817 73.3125 64.3025 71.5625C64.8442 69.8125 65.115 67.9479 65.115 65.9688C65.115 61.7188 64.0525 58.2083 61.9275 55.4375C59.8025 52.6458 56.9588 51.25 53.3963 51.25C49.6879 51.25 46.7192 52.6458 44.49 55.4375C42.2817 58.2083 41.1775 61.7188 41.1775 65.9688C41.1775 70.1562 42.3025 73.625 44.5525 76.375C46.8025 79.125 49.7504 80.5 53.3963 80.5ZM10.0838 72.0625H17.115C20.8442 72.0625 23.8025 71.1562 25.99 69.3438C28.1775 67.5312 29.2713 65.1354 29.2713 62.1562C29.2713 59.1771 28.1775 56.7917 25.99 55C23.8233 53.1875 20.4588 52.2812 15.8963 52.2812C13.5629 52.2812 12.0108 52.5938 11.24 53.2188C10.4692 53.8438 10.0838 55.2396 10.0838 57.4062V72.0625ZM98.5975 51.1875H113.379V52.3438C110.191 52.3438 107.681 53.9479 105.848 57.1562L95.035 76.3438V89.9688C95.035 91.9688 95.4517 93.2917 96.285 93.9375C97.1183 94.5833 98.785 94.9062 101.285 94.9062V96H85.285V94.9062C87.5558 94.9062 89.1808 94.5729 90.16 93.9062C91.1392 93.2188 91.6288 91.9062 91.6288 89.9688V76.0938L82.0975 59C81.8475 58.5625 81.535 57.9896 81.16 57.2812C80.785 56.5521 80.5038 56.0417 80.3163 55.75C80.1496 55.4375 79.8892 55.0417 79.535 54.5625C79.2017 54.0833 78.8788 53.75 78.5663 53.5625C78.2746 53.3542 77.8788 53.1354 77.3788 52.9062C76.8996 52.6771 76.3475 52.5312 75.7225 52.4688C75.1183 52.3854 74.3996 52.3438 73.5663 52.3438V51.1875H88.8163V52.3438C85.8788 52.3438 84.2225 52.7188 83.8475 53.4688C83.5767 53.9896 83.8267 54.9792 84.5975 56.4375C84.7017 56.6667 84.9308 57.0938 85.285 57.7188L94.4413 74.25L104.691 56.1875C104.92 55.7917 105.066 55.4271 105.129 55.0938C105.191 54.7396 105.139 54.3958 104.973 54.0625C104.827 53.7083 104.525 53.4167 104.066 53.1875C103.608 52.9375 102.91 52.7396 101.973 52.5938C101.056 52.4271 99.9308 52.3438 98.5975 52.3438V51.1875ZM177.674 84.75L178.768 85.0625L174.236 98.625L173.205 98.375C173.247 98.1042 173.268 97.8646 173.268 97.6562C173.268 97.4479 173.257 97.2604 173.236 97.0938C173.215 96.9271 173.163 96.7812 173.08 96.6562C172.997 96.5521 172.924 96.4583 172.861 96.375C172.799 96.2917 172.674 96.2188 172.486 96.1562C172.299 96.1146 172.153 96.0833 172.049 96.0625C171.945 96.0417 171.757 96.0208 171.486 96C171.215 96 170.997 96 170.83 96C170.684 96 170.424 96 170.049 96C169.674 96 169.382 96 169.174 96H142.736V94.9062C144.924 94.9062 146.538 94.6042 147.58 94C148.622 93.375 149.205 92.2083 149.33 90.5L149.268 78.8438H133.986L130.018 84.9375C129.83 85.2292 129.549 85.6562 129.174 86.2188C128.486 87.2396 127.986 88.0104 127.674 88.5312C127.361 89.0312 126.986 89.6875 126.549 90.5C126.111 91.3125 125.893 91.9271 125.893 92.3438C125.893 92.7396 125.965 93.1667 126.111 93.625C126.278 94.0625 126.674 94.375 127.299 94.5625C127.924 94.75 128.757 94.8438 129.799 94.8438V96H116.549V94.9062C117.59 94.9062 118.643 94.6146 119.705 94.0312C120.768 93.4271 121.82 92.5417 122.861 91.375C123.924 90.2083 124.82 89.1354 125.549 88.1562C126.299 87.1771 127.163 85.9479 128.143 84.4688L147.549 55.5C148.382 54.2292 147.726 53.3229 145.58 52.7812C144.309 52.4479 142.632 52.2812 140.549 52.2812V51.1875H158.861V52.2812C156.403 52.2812 154.757 52.5938 153.924 53.2188C153.09 53.8229 152.674 55.1354 152.674 57.1562V89.9688C152.674 91.6771 152.924 92.8125 153.424 93.375C153.82 93.8542 154.413 94.1771 155.205 94.3438C155.997 94.5104 157.153 94.5938 158.674 94.5938C160.236 94.5938 161.497 94.5938 162.455 94.5938C163.434 94.5729 164.465 94.5312 165.549 94.4688C166.653 94.4062 167.507 94.3333 168.111 94.25C168.736 94.1667 169.424 94.0312 170.174 93.8438C170.924 93.6354 171.486 93.4271 171.861 93.2188C172.257 93.0104 172.715 92.6979 173.236 92.2812C173.757 91.8646 174.153 91.4479 174.424 91.0312C174.715 90.6146 175.07 90.0625 175.486 89.375C175.903 88.6875 176.257 88 176.549 87.3125C176.861 86.625 177.236 85.7708 177.674 84.75ZM134.986 77.3125H149.268V64.9688L149.205 55.5L134.986 77.3125ZM219.906 49.1562L224.531 62.2188L223.438 62.5312C222.812 61.0104 222.302 59.8229 221.906 58.9688C221.531 58.1146 221.073 57.2604 220.531 56.4062C220.01 55.5312 219.51 54.8958 219.031 54.5C218.573 54.1042 217.979 53.7396 217.25 53.4062C216.542 53.0729 215.76 52.8542 214.906 52.75C214.073 52.6458 213.052 52.5938 211.844 52.5938C209.573 52.5938 207.948 52.9062 206.969 53.5312C206.01 54.1354 205.531 55.3438 205.531 57.1562V89.9688C205.531 91.9688 205.948 93.2917 206.781 93.9375C207.615 94.5833 209.281 94.9062 211.781 94.9062V96H195.781V94.9062C198.052 94.9062 199.677 94.5729 200.656 93.9062C201.635 93.2188 202.125 91.9062 202.125 89.9688V57.1562C202.125 55.3646 201.646 54.1562 200.688 53.5312C199.729 52.9062 198.135 52.5938 195.906 52.5938C194.99 52.5938 194.188 52.625 193.5 52.6875C192.833 52.7292 192.188 52.8438 191.562 53.0312C190.958 53.2188 190.448 53.4062 190.031 53.5938C189.615 53.7812 189.177 54.1042 188.719 54.5625C188.281 55 187.917 55.4167 187.625 55.8125C187.333 56.2083 186.979 56.8021 186.562 57.5938C186.167 58.3854 185.823 59.1146 185.531 59.7812C185.24 60.4479 184.844 61.3646 184.344 62.5312L183.25 62.2188L187.844 49.1562L188.875 49.4062C188.625 50.5938 190.031 51.1875 193.094 51.1875H214.688C216.146 51.1875 217.24 51.0208 217.969 50.6875C218.719 50.3542 219.031 49.9271 218.906 49.4062L219.906 49.1562ZM238.076 57.2188V89.9688C238.076 91.9688 238.493 93.2917 239.326 93.9375C240.18 94.5833 241.857 94.9062 244.357 94.9062V96H228.357V94.9062C230.628 94.9062 232.253 94.5729 233.232 93.9062C234.212 93.2188 234.701 91.9062 234.701 89.9688V57.2188C234.701 55.2396 234.295 53.9271 233.482 53.2812C232.67 52.6146 231.17 52.2812 228.982 52.2812V51.1875H244.357V52.2812C241.857 52.2812 240.18 52.6042 239.326 53.25C238.493 53.8958 238.076 55.2188 238.076 57.2188ZM282.871 84.6875L283.965 85L279.434 98.625L278.403 98.375C278.444 98.1042 278.465 97.8646 278.465 97.6562C278.465 97.4479 278.455 97.2604 278.434 97.0938C278.413 96.9271 278.361 96.7812 278.278 96.6562C278.194 96.5521 278.121 96.4583 278.059 96.375C277.996 96.2917 277.871 96.2188 277.684 96.1562C277.496 96.1146 277.35 96.0833 277.246 96.0625C277.142 96.0417 276.955 96.0208 276.684 96C276.413 96 276.194 96 276.028 96C275.882 96 275.621 96 275.246 96C274.871 96 274.58 96 274.371 96H248.84V94.8438C251.048 94.8438 252.548 94.5208 253.34 93.875C254.132 93.2292 254.528 91.9271 254.528 89.9688V57.1562C254.528 55.2396 254.111 53.9583 253.278 53.3125C252.465 52.6667 250.986 52.3438 248.84 52.3438V51.1875H271.121C271.309 51.1875 271.58 51.1875 271.934 51.1875C272.225 51.1875 272.496 51.1875 272.746 51.1875C272.996 51.1875 273.225 51.1875 273.434 51.1875C273.642 51.1667 273.83 51.1458 273.996 51.125C274.184 51.0833 274.34 51.0417 274.465 51C274.611 50.9583 274.736 50.8958 274.84 50.8125C274.944 50.7292 275.028 50.625 275.09 50.5C275.153 50.375 275.194 50.2292 275.215 50.0625C275.257 49.8958 275.278 49.7083 275.278 49.5C275.278 49.2917 275.257 49.0521 275.215 48.7812L276.246 48.5L280.778 62.1562L279.684 62.4688C279.142 61.1979 278.684 60.1562 278.309 59.3438C277.934 58.5104 277.496 57.7188 276.996 56.9688C276.517 56.1979 276.1 55.6042 275.746 55.1875C275.392 54.7708 274.892 54.375 274.246 54C273.621 53.6042 273.038 53.3333 272.496 53.1875C271.975 53.0208 271.225 52.8854 270.246 52.7812C269.267 52.6562 268.33 52.5833 267.434 52.5625C266.559 52.5417 265.371 52.5312 263.871 52.5312C261.663 52.5312 260.121 52.8333 259.246 53.4375C258.371 54.0208 257.934 55.2604 257.934 57.1562V72.0625H267.403C268.84 72.0625 269.819 71.5521 270.34 70.5312C270.861 69.5104 271.121 67.8646 271.121 65.5938H272.121V79.8125H271.121C271.121 77.4583 270.85 75.7917 270.309 74.8125C269.788 73.8333 268.84 73.3438 267.465 73.3438H257.934V89.9688C257.934 91.9479 258.309 93.2188 259.059 93.7812C259.83 94.3229 261.434 94.5938 263.871 94.5938C265.83 94.5938 267.371 94.5833 268.496 94.5625C269.642 94.5417 270.84 94.4688 272.09 94.3438C273.34 94.2188 274.288 94.0938 274.934 93.9688C275.58 93.8229 276.278 93.5521 277.028 93.1562C277.798 92.7604 278.371 92.3646 278.746 91.9688C279.142 91.5729 279.611 90.9896 280.153 90.2188C280.694 89.4271 281.142 88.6354 281.496 87.8438C281.871 87.0312 282.33 85.9792 282.871 84.6875ZM294.948 61C294.948 62.3958 295.229 63.6458 295.791 64.75C296.354 65.8333 297.104 66.7396 298.041 67.4688C299 68.1771 300.093 68.8333 301.323 69.4375C302.573 70.0208 303.875 70.5625 305.229 71.0625C306.604 71.5417 307.968 72.0417 309.323 72.5625C310.677 73.0625 311.968 73.6562 313.198 74.3438C314.448 75.0104 315.541 75.7708 316.479 76.625C317.437 77.4583 318.198 78.5208 318.76 79.8125C319.323 81.0833 319.604 82.5312 319.604 84.1562C319.604 87.6771 318.302 90.6979 315.698 93.2188C313.114 95.7188 309.781 96.9688 305.698 96.9688C304.031 96.9688 302.437 96.7604 300.916 96.3438C299.416 95.9271 298.239 95.4792 297.385 95C296.531 94.5208 295.75 94.1146 295.041 93.7812C294.354 93.4479 293.833 93.3646 293.479 93.5312C293.125 93.6771 292.854 94.1771 292.666 95.0312H291.448V92.4688L291.166 79.8125H292.26C292.614 85.125 293.927 89.0833 296.198 91.6875C298.468 94.2708 301.75 95.5625 306.041 95.5625C309.145 95.5625 311.635 94.6354 313.51 92.7812C315.385 90.9062 316.323 88.3542 316.323 85.125C316.323 83.625 316.041 82.3021 315.479 81.1562C314.916 79.9896 314.156 79.0312 313.198 78.2812C312.26 77.5312 311.177 76.8646 309.948 76.2812C308.718 75.6979 307.427 75.1771 306.073 74.7188C304.718 74.2396 303.364 73.7604 302.01 73.2812C300.656 72.7812 299.364 72.2083 298.135 71.5625C296.906 70.8958 295.812 70.1458 294.854 69.3125C293.916 68.4583 293.166 67.375 292.604 66.0625C292.041 64.75 291.76 63.25 291.76 61.5625C291.76 60.25 292.093 58.9271 292.76 57.5938C293.427 56.2604 294.343 55.0312 295.51 53.9062C296.698 52.7812 298.208 51.8646 300.041 51.1562C301.895 50.4271 303.895 50.0625 306.041 50.0625C306.895 50.0625 307.833 50.1667 308.854 50.375C309.895 50.5833 310.791 50.7917 311.541 51C312.291 51.2083 313.01 51.375 313.698 51.5C314.406 51.6042 314.979 51.5625 315.416 51.375C315.854 51.1875 316.156 50.8125 316.323 50.25H317.604L317.854 63.8125H316.51C316.51 55.5417 312.802 51.4062 305.385 51.4062C302.427 51.4062 299.948 52.3958 297.948 54.375C295.948 56.3333 294.948 58.5417 294.948 61Z" fill="#181818"/>
</svg>
