<svg width="242" height="99" viewBox="0 0 242 99" fill="none" xmlns="http://www.w3.org/2000/svg">
<path d="M44.5022 9.50391L47.2913 12.7969C48.7366 14.5234 49.6897 15.6133 50.1506 16.0664C50.9006 16.8242 51.6038 17.2891 52.26 17.4609C52.5725 17.5469 52.9241 17.5898 53.3147 17.5898V17.9766L49.9514 18L42.9905 9.59766H40.4241V15.7148C40.4241 16.4727 40.5803 16.9766 40.8928 17.2266C41.2131 17.4688 41.842 17.5898 42.7795 17.5898V18H36.7795V17.5898C37.6233 17.5898 38.2288 17.4609 38.5959 17.2031C38.9631 16.9375 39.1467 16.4414 39.1467 15.7148V3.52734C39.1467 2.76953 38.9631 2.26172 38.5959 2.00391C38.2366 1.73828 37.6311 1.60547 36.7795 1.60547V1.19531H43.3303C45.1272 1.19531 46.5139 1.55078 47.4905 2.26172C48.4748 2.97266 48.967 3.94531 48.967 5.17969C48.967 6.35156 48.5608 7.3125 47.7483 8.0625C46.9358 8.8125 45.8538 9.29297 44.5022 9.50391ZM40.4241 3.52734V9.02344H43.0608C44.4592 9.02344 45.5686 8.68359 46.3889 8.00391C47.2092 7.32422 47.6194 6.42578 47.6194 5.30859C47.6194 4.19141 47.2092 3.29688 46.3889 2.625C45.5764 1.94531 44.3147 1.60547 42.6038 1.60547C41.7288 1.60547 41.1467 1.72266 40.8577 1.95703C40.5686 2.19141 40.4241 2.71484 40.4241 3.52734ZM67.5113 13.7578L67.9214 13.875L66.2222 18.9844L65.8355 18.8906C65.8511 18.7891 65.8589 18.6992 65.8589 18.6211C65.8589 18.543 65.855 18.4727 65.8472 18.4102C65.8394 18.3477 65.8198 18.293 65.7886 18.2461C65.7573 18.207 65.73 18.1719 65.7066 18.1406C65.6831 18.1094 65.6363 18.082 65.5659 18.0586C65.4956 18.043 65.4409 18.0312 65.4019 18.0234C65.3628 18.0156 65.2925 18.0078 65.1909 18C65.0894 18 65.0073 18 64.9448 18C64.8902 18 64.7925 18 64.6519 18C64.5113 18 64.4019 18 64.3238 18H54.7495V17.5664C55.5777 17.5664 56.1402 17.4453 56.437 17.2031C56.7339 16.9609 56.8823 16.4727 56.8823 15.7383V3.43359C56.8823 2.71484 56.7261 2.23438 56.4136 1.99219C56.1089 1.75 55.5542 1.62891 54.7495 1.62891V1.19531H63.105C63.1753 1.19531 63.2769 1.19531 63.4097 1.19531C63.5191 1.19531 63.6206 1.19531 63.7144 1.19531C63.8081 1.19531 63.8941 1.19531 63.9722 1.19531C64.0503 1.1875 64.1206 1.17969 64.1831 1.17188C64.2534 1.15625 64.312 1.14062 64.3589 1.125C64.4136 1.10938 64.4605 1.08594 64.4995 1.05469C64.5386 1.02344 64.5698 0.984375 64.5933 0.9375C64.6167 0.890625 64.6323 0.835938 64.6402 0.773438C64.6558 0.710938 64.6636 0.640625 64.6636 0.5625C64.6636 0.484375 64.6558 0.394531 64.6402 0.292969L65.0269 0.1875L66.7261 5.30859L66.3159 5.42578C66.1128 4.94922 65.9409 4.55859 65.8003 4.25391C65.6597 3.94141 65.4956 3.64453 65.3081 3.36328C65.1284 3.07422 64.9722 2.85156 64.8394 2.69531C64.7066 2.53906 64.5191 2.39062 64.2769 2.25C64.0425 2.10156 63.8238 2 63.6206 1.94531C63.4253 1.88281 63.1441 1.83203 62.7769 1.79297C62.4097 1.74609 62.0581 1.71875 61.7222 1.71094C61.3941 1.70312 60.9488 1.69922 60.3863 1.69922C59.5581 1.69922 58.98 1.8125 58.6519 2.03906C58.3238 2.25781 58.1597 2.72266 58.1597 3.43359V9.02344H61.7105C62.2495 9.02344 62.6167 8.83203 62.812 8.44922C63.0073 8.06641 63.105 7.44922 63.105 6.59766H63.48V11.9297H63.105C63.105 11.0469 63.0034 10.4219 62.8003 10.0547C62.605 9.6875 62.2495 9.50391 61.7339 9.50391H58.1597V15.7383C58.1597 16.4805 58.3003 16.957 58.5816 17.168C58.8706 17.3711 59.4722 17.4727 60.3863 17.4727C61.1206 17.4727 61.6988 17.4688 62.1206 17.4609C62.5503 17.4531 62.9995 17.4258 63.4683 17.3789C63.937 17.332 64.2925 17.2852 64.5347 17.2383C64.7769 17.1836 65.0386 17.082 65.3198 16.9336C65.6089 16.7852 65.8238 16.6367 65.9644 16.4883C66.1128 16.3398 66.2886 16.1211 66.4917 15.832C66.6948 15.5352 66.8628 15.2383 66.9956 14.9414C67.1363 14.6367 67.3081 14.2422 67.5113 13.7578ZM85.282 9.52734C85.282 12.207 84.5008 14.2891 82.9383 15.7734C81.3758 17.2578 79.2273 18 76.493 18H69.6844V17.5898C70.5359 17.5898 71.1414 17.4648 71.5008 17.2148C71.868 16.957 72.0516 16.4648 72.0516 15.7383V3.45703C72.0516 2.73828 71.8641 2.25 71.4891 1.99219C71.1141 1.73438 70.5125 1.60547 69.6844 1.60547V1.19531H75.825C79.0828 1.19531 81.4734 1.86719 82.9969 3.21094C84.5203 4.55469 85.282 6.66016 85.282 9.52734ZM76.3523 17.5898C78.868 17.5898 80.7547 16.9375 82.0125 15.6328C83.2781 14.3203 83.9109 12.2852 83.9109 9.52734C83.9109 6.98828 83.2508 5.03516 81.9305 3.66797C80.618 2.29297 78.5828 1.60547 75.825 1.60547C74.8094 1.60547 74.1375 1.72656 73.8094 1.96875C73.4891 2.20312 73.3289 2.69922 73.3289 3.45703V15.7734C73.3289 16.2891 73.407 16.6719 73.5633 16.9219C73.7273 17.1641 74.0164 17.3359 74.4305 17.4375C74.8445 17.5391 75.4852 17.5898 76.3523 17.5898ZM100.404 13.7578L100.815 13.875L99.1153 18.9844L98.7286 18.8906C98.7442 18.7891 98.752 18.6992 98.752 18.6211C98.752 18.543 98.7481 18.4727 98.7403 18.4102C98.7325 18.3477 98.713 18.293 98.6817 18.2461C98.6505 18.207 98.6231 18.1719 98.5997 18.1406C98.5762 18.1094 98.5294 18.082 98.4591 18.0586C98.3887 18.043 98.3341 18.0312 98.295 18.0234C98.2559 18.0156 98.1856 18.0078 98.0841 18C97.9825 18 97.9005 18 97.838 18C97.7833 18 97.6856 18 97.545 18C97.4044 18 97.295 18 97.2169 18H87.6427V17.5664C88.4708 17.5664 89.0333 17.4453 89.3302 17.2031C89.627 16.9609 89.7755 16.4727 89.7755 15.7383V3.43359C89.7755 2.71484 89.6192 2.23438 89.3067 1.99219C89.002 1.75 88.4473 1.62891 87.6427 1.62891V1.19531H95.9981C96.0684 1.19531 96.17 1.19531 96.3028 1.19531C96.4122 1.19531 96.5137 1.19531 96.6075 1.19531C96.7012 1.19531 96.7872 1.19531 96.8653 1.19531C96.9434 1.1875 97.0137 1.17969 97.0762 1.17188C97.1466 1.15625 97.2052 1.14062 97.252 1.125C97.3067 1.10938 97.3536 1.08594 97.3927 1.05469C97.4317 1.02344 97.463 0.984375 97.4864 0.9375C97.5098 0.890625 97.5255 0.835938 97.5333 0.773438C97.5489 0.710938 97.5567 0.640625 97.5567 0.5625C97.5567 0.484375 97.5489 0.394531 97.5333 0.292969L97.92 0.1875L99.6192 5.30859L99.2091 5.42578C99.0059 4.94922 98.8341 4.55859 98.6934 4.25391C98.5528 3.94141 98.3887 3.64453 98.2012 3.36328C98.0216 3.07422 97.8653 2.85156 97.7325 2.69531C97.5997 2.53906 97.4122 2.39062 97.17 2.25C96.9356 2.10156 96.7169 2 96.5137 1.94531C96.3184 1.88281 96.0372 1.83203 95.67 1.79297C95.3028 1.74609 94.9512 1.71875 94.6153 1.71094C94.2872 1.70312 93.8419 1.69922 93.2794 1.69922C92.4512 1.69922 91.8731 1.8125 91.545 2.03906C91.2169 2.25781 91.0528 2.72266 91.0528 3.43359V9.02344H94.6036C95.1427 9.02344 95.5098 8.83203 95.7052 8.44922C95.9005 8.06641 95.9981 7.44922 95.9981 6.59766H96.3731V11.9297H95.9981C95.9981 11.0469 95.8966 10.4219 95.6934 10.0547C95.4981 9.6875 95.1427 9.50391 94.627 9.50391H91.0528V15.7383C91.0528 16.4805 91.1934 16.957 91.4747 17.168C91.7637 17.3711 92.3653 17.4727 93.2794 17.4727C94.0137 17.4727 94.5919 17.4688 95.0137 17.4609C95.4434 17.4531 95.8927 17.4258 96.3614 17.3789C96.8302 17.332 97.1856 17.2852 97.4278 17.2383C97.67 17.1836 97.9317 17.082 98.213 16.9336C98.502 16.7852 98.7169 16.6367 98.8575 16.4883C99.0059 16.3398 99.1817 16.1211 99.3848 15.832C99.588 15.5352 99.7559 15.2383 99.8887 14.9414C100.029 14.6367 100.201 14.2422 100.404 13.7578ZM115.046 13.7578L115.456 13.875L113.757 18.9844L113.37 18.8906C113.386 18.7891 113.394 18.6992 113.394 18.6211C113.394 18.543 113.39 18.4727 113.382 18.4102C113.374 18.3477 113.355 18.293 113.324 18.2461C113.292 18.207 113.265 18.1719 113.242 18.1406C113.218 18.1094 113.171 18.082 113.101 18.0586C113.031 18.043 112.976 18.0312 112.937 18.0234C112.898 18.0156 112.827 18.0078 112.726 18C112.624 18 112.542 18 112.48 18C112.425 18 112.327 18 112.187 18C112.046 18 111.937 18 111.859 18H102.285V17.5664C103.113 17.5664 103.675 17.4453 103.972 17.2031C104.269 16.9609 104.417 16.4727 104.417 15.7383V3.43359C104.417 2.71484 104.261 2.23438 103.949 1.99219C103.644 1.75 103.089 1.62891 102.285 1.62891V1.19531H110.64C110.71 1.19531 110.812 1.19531 110.945 1.19531C111.054 1.19531 111.156 1.19531 111.249 1.19531C111.343 1.19531 111.429 1.19531 111.507 1.19531C111.585 1.1875 111.656 1.17969 111.718 1.17188C111.788 1.15625 111.847 1.14062 111.894 1.125C111.949 1.10938 111.995 1.08594 112.035 1.05469C112.074 1.02344 112.105 0.984375 112.128 0.9375C112.152 0.890625 112.167 0.835938 112.175 0.773438C112.191 0.710938 112.199 0.640625 112.199 0.5625C112.199 0.484375 112.191 0.394531 112.175 0.292969L112.562 0.1875L114.261 5.30859L113.851 5.42578C113.648 4.94922 113.476 4.55859 113.335 4.25391C113.195 3.94141 113.031 3.64453 112.843 3.36328C112.663 3.07422 112.507 2.85156 112.374 2.69531C112.242 2.53906 112.054 2.39062 111.812 2.25C111.577 2.10156 111.359 2 111.156 1.94531C110.96 1.88281 110.679 1.83203 110.312 1.79297C109.945 1.74609 109.593 1.71875 109.257 1.71094C108.929 1.70312 108.484 1.69922 107.921 1.69922C107.093 1.69922 106.515 1.8125 106.187 2.03906C105.859 2.25781 105.695 2.72266 105.695 3.43359V9.02344H109.245C109.785 9.02344 110.152 8.83203 110.347 8.44922C110.542 8.06641 110.64 7.44922 110.64 6.59766H111.015V11.9297H110.64C110.64 11.0469 110.538 10.4219 110.335 10.0547C110.14 9.6875 109.785 9.50391 109.269 9.50391H105.695V15.7383C105.695 16.4805 105.835 16.957 106.117 17.168C106.406 17.3711 107.007 17.4727 107.921 17.4727C108.656 17.4727 109.234 17.4688 109.656 17.4609C110.085 17.4531 110.535 17.4258 111.003 17.3789C111.472 17.332 111.827 17.2852 112.07 17.2383C112.312 17.1836 112.574 17.082 112.855 16.9336C113.144 16.7852 113.359 16.6367 113.499 16.4883C113.648 16.3398 113.824 16.1211 114.027 15.832C114.23 15.5352 114.398 15.2383 114.531 14.9414C114.671 14.6367 114.843 14.2422 115.046 13.7578ZM136.649 1.19531V1.60547C135.704 1.60547 135.059 1.73047 134.715 1.98047C134.38 2.22266 134.212 2.71484 134.212 3.45703V15.7383C134.212 16.4805 134.38 16.9766 134.715 17.2266C135.051 17.4688 135.696 17.5898 136.649 17.5898V18H130.462V17.5898C131.313 17.5898 131.938 17.4648 132.337 17.2148C132.735 16.957 132.934 16.4766 132.934 15.7734V4.62891L126.747 18H126.184L119.739 4.60547V15.7383C119.739 16.4805 119.907 16.9766 120.243 17.2266C120.587 17.4688 121.231 17.5898 122.176 17.5898V18H116.633V17.5898C117.493 17.5898 118.118 17.4609 118.508 17.2031C118.907 16.9375 119.106 16.4414 119.106 15.7148V3.48047C119.106 2.75391 118.907 2.26172 118.508 2.00391C118.118 1.73828 117.493 1.60547 116.633 1.60547V1.19531H119.61L126.84 16.3711L133.778 1.19531H136.649ZM153.499 1.19531H159.042V1.62891C157.847 1.62891 156.905 2.23047 156.218 3.43359L152.163 10.6289V15.7383C152.163 16.4883 152.32 16.9844 152.632 17.2266C152.945 17.4688 153.57 17.5898 154.507 17.5898V18H148.507V17.5898C149.359 17.5898 149.968 17.4648 150.335 17.2148C150.702 16.957 150.886 16.4648 150.886 15.7383V10.5352L147.312 4.125C147.218 3.96094 147.101 3.74609 146.96 3.48047C146.82 3.20703 146.714 3.01562 146.644 2.90625C146.581 2.78906 146.484 2.64062 146.351 2.46094C146.226 2.28125 146.105 2.15625 145.988 2.08594C145.878 2.00781 145.73 1.92578 145.542 1.83984C145.363 1.75391 145.155 1.69922 144.921 1.67578C144.695 1.64453 144.425 1.62891 144.113 1.62891V1.19531H149.831V1.62891C148.73 1.62891 148.109 1.76953 147.968 2.05078C147.866 2.24609 147.96 2.61719 148.249 3.16406C148.288 3.25 148.374 3.41016 148.507 3.64453L151.941 9.84375L155.784 3.07031C155.87 2.92188 155.925 2.78516 155.948 2.66016C155.972 2.52734 155.952 2.39844 155.89 2.27344C155.835 2.14062 155.722 2.03125 155.55 1.94531C155.378 1.85156 155.116 1.77734 154.765 1.72266C154.421 1.66016 153.999 1.62891 153.499 1.62891V1.19531ZM166.735 0.773438C168.415 0.773438 169.786 1.33984 170.848 2.47266C171.918 3.59766 172.454 5.03125 172.454 6.77344C172.454 7.82812 172.192 8.80859 171.668 9.71484C171.145 10.6211 170.442 11.3359 169.559 11.8594C168.684 12.3828 167.743 12.6445 166.735 12.6445C165.079 12.6445 163.68 12.0859 162.54 10.9688C161.407 9.84375 160.84 8.44531 160.84 6.77344C160.84 5.67188 161.11 4.66016 161.649 3.73828C162.196 2.80859 162.918 2.08203 163.817 1.55859C164.723 1.03516 165.696 0.773438 166.735 0.773438ZM182.801 1.19531H188.368V1.60547C187.555 1.60547 186.954 1.82031 186.563 2.25C186.18 2.67969 185.989 3.37891 185.989 4.34766V11.1797C185.989 13.6172 185.508 15.4258 184.547 16.6055C183.594 17.7773 182.145 18.3633 180.2 18.3633C178.098 18.3633 176.571 17.8359 175.618 16.7812C174.672 15.7188 174.2 14.0117 174.2 11.6602V3.69141C174.2 2.85547 174.016 2.30078 173.649 2.02734C173.282 1.74609 172.653 1.60547 171.762 1.60547V1.19531H177.879V1.60547C176.942 1.60547 176.313 1.74219 175.993 2.01562C175.68 2.28906 175.524 2.84766 175.524 3.69141L175.5 11.7305C175.493 12.6758 175.575 13.5 175.747 14.2031C175.926 14.9062 176.165 15.4766 176.461 15.9141C176.758 16.3438 177.133 16.6914 177.586 16.957C178.04 17.2148 178.512 17.3945 179.004 17.4961C179.504 17.5898 180.071 17.6367 180.704 17.6367C181.586 17.6367 182.336 17.4961 182.954 17.2148C183.571 16.9258 184.055 16.4961 184.407 15.9258C184.766 15.3477 185.024 14.6758 185.18 13.9102C185.336 13.1445 185.415 12.2344 185.415 11.1797V4.37109C185.415 3.39453 185.188 2.69141 184.735 2.26172C184.29 1.82422 183.645 1.60547 182.801 1.60547V1.19531ZM171.059 6.73828C171.059 5.15234 170.672 3.87109 169.899 2.89453C169.133 1.91016 168.079 1.41797 166.735 1.41797C165.336 1.41797 164.239 1.91016 163.442 2.89453C162.653 3.87109 162.258 5.15234 162.258 6.73828C162.258 8.30078 162.661 9.57031 163.465 10.5469C164.278 11.5156 165.368 12 166.735 12C168.086 12 169.145 11.5078 169.911 10.5234C170.676 9.53125 171.059 8.26953 171.059 6.73828ZM197.513 9.50391L200.302 12.7969C201.748 14.5234 202.701 15.6133 203.162 16.0664C203.912 16.8242 204.615 17.2891 205.271 17.4609C205.584 17.5469 205.935 17.5898 206.326 17.5898V17.9766L202.963 18L196.002 9.59766H193.435V15.7148C193.435 16.4727 193.592 16.9766 193.904 17.2266C194.224 17.4688 194.853 17.5898 195.791 17.5898V18H189.791V17.5898C190.635 17.5898 191.24 17.4609 191.607 17.2031C191.974 16.9375 192.158 16.4414 192.158 15.7148V3.52734C192.158 2.76953 191.974 2.26172 191.607 2.00391C191.248 1.73828 190.642 1.60547 189.791 1.60547V1.19531H196.342C198.138 1.19531 199.525 1.55078 200.502 2.26172C201.486 2.97266 201.978 3.94531 201.978 5.17969C201.978 6.35156 201.572 7.3125 200.76 8.0625C199.947 8.8125 198.865 9.29297 197.513 9.50391ZM193.435 3.52734V9.02344H196.072C197.47 9.02344 198.58 8.68359 199.4 8.00391C200.22 7.32422 200.631 6.42578 200.631 5.30859C200.631 4.19141 200.22 3.29688 199.4 2.625C198.588 1.94531 197.326 1.60547 195.615 1.60547C194.74 1.60547 194.158 1.72266 193.869 1.95703C193.58 2.19141 193.435 2.71484 193.435 3.52734ZM41.8788 62.2188L40.785 62.5312C40.16 61.0104 39.6496 59.8229 39.2538 58.9688C38.8788 58.1146 38.4204 57.2604 37.8788 56.4062C37.3579 55.5312 36.8579 54.8958 36.3788 54.5C35.9204 54.1042 35.3267 53.7396 34.5975 53.4062C33.8892 53.0729 33.1079 52.8542 32.2538 52.75C31.4204 52.6458 30.3996 52.5938 29.1913 52.5938C26.9204 52.5938 25.2954 52.9062 24.3163 53.5312C23.3579 54.1354 22.8788 55.3438 22.8788 57.1562V89.9688C22.8788 91.9688 23.2954 93.2917 24.1288 93.9375C24.9621 94.5833 26.6288 94.9062 29.1288 94.9062V96H13.1288V94.9062C15.3996 94.9062 17.0246 94.5729 18.0038 93.9062C18.9829 93.2188 19.4725 91.9062 19.4725 89.9688V57.1562C19.4725 55.3646 18.9933 54.1562 18.035 53.5312C17.0767 52.9062 15.4829 52.5938 13.2538 52.5938C12.3371 52.5938 11.535 52.625 10.8475 52.6875C10.1808 52.7292 9.535 52.8438 8.91 53.0312C8.30584 53.2188 7.79542 53.4062 7.37875 53.5938C6.96209 53.7812 6.52459 54.1042 6.06625 54.5625C5.62875 55 5.26417 55.4167 4.9725 55.8125C4.68084 56.2083 4.32667 56.8021 3.91 57.5938C3.51417 58.3854 3.17042 59.1146 2.87875 59.7812C2.58709 60.4479 2.19125 61.3646 1.69125 62.5312L0.597504 62.2188L5.19125 49.1562L6.2225 49.4062C5.9725 50.5938 7.37875 51.1875 10.4413 51.1875H32.035C33.4933 51.1875 34.5871 51.0208 35.3163 50.6875C36.0663 50.3542 36.3788 49.9271 36.2538 49.4062L37.2538 49.1562L41.8788 62.2188ZM53.91 65.2812C58.41 65.2812 62.0871 66.7917 64.9413 69.8125C67.8163 72.8333 69.2538 76.6562 69.2538 81.2812C69.2538 84.0938 68.5454 86.7083 67.1288 89.125C65.7329 91.5417 63.8475 93.4583 61.4725 94.875C59.1183 96.2708 56.5975 96.9688 53.91 96.9688C51.0142 96.9688 48.3475 96.2917 45.91 94.9375C43.4933 93.5833 41.5767 91.7083 40.16 89.3125C38.7433 86.8958 38.035 84.2188 38.035 81.2812C38.035 78.3438 38.7746 75.6458 40.2538 73.1875C41.7329 70.7083 43.6808 68.7708 46.0975 67.375C48.535 65.9792 51.1392 65.2812 53.91 65.2812ZM65.6288 81.2188C65.6288 76.9688 64.5663 73.4583 62.4413 70.6875C60.3163 67.8958 57.4725 66.5 53.91 66.5C50.2017 66.5 47.2329 67.8958 45.0038 70.6875C42.7954 73.4583 41.6913 76.9688 41.6913 81.2188C41.6913 85.4062 42.8163 88.875 45.0663 91.625C47.3163 94.375 50.2642 95.75 53.91 95.75C55.7225 95.75 57.3683 95.3646 58.8475 94.5938C60.3475 93.8229 61.5871 92.7708 62.5663 91.4375C63.5454 90.1042 64.2954 88.5625 64.8163 86.8125C65.3579 85.0625 65.6288 83.1979 65.6288 81.2188ZM91.205 68.9375L101.705 82.125C103.205 84 104.403 85.4896 105.299 86.5938C106.215 87.6979 107.174 88.8021 108.174 89.9062C109.174 90.9896 110.007 91.8021 110.674 92.3438C111.361 92.8646 112.111 93.3542 112.924 93.8125C113.736 94.25 114.507 94.5417 115.236 94.6875C115.986 94.8333 116.83 94.9062 117.768 94.9062V95.9375L108.361 96L88.6425 71.5625C88.0592 72.1458 87.08 73.1667 85.705 74.625V89.9688C85.705 91.9688 86.1217 93.2917 86.955 93.9375C87.8092 94.5833 89.4863 94.9062 91.9863 94.9062V96H75.9863V94.9062C78.2571 94.9062 79.8821 94.5729 80.8613 93.9062C81.8404 93.2188 82.33 91.9062 82.33 89.9688V57.2188C82.33 55.2812 81.8404 53.9792 80.8613 53.3125C79.8821 52.625 78.2571 52.2812 75.9863 52.2812V51.1875H91.9863V52.2812C89.4863 52.2812 87.8092 52.6042 86.955 53.25C86.1217 53.8958 85.705 55.2188 85.705 57.2188V72.4375L94.3613 63.9375C98.7571 59.625 101.309 57.0729 102.018 56.2812C103.518 54.6354 104.111 53.5521 103.799 53.0312C103.507 52.5521 102.195 52.3021 99.8613 52.2812C99.6738 52.2812 99.4758 52.2812 99.2675 52.2812V51.1875H115.674V52.2812C114.299 52.2812 113.122 52.375 112.143 52.5625C111.184 52.75 109.997 53.1875 108.58 53.875C107.163 54.5417 105.559 55.5938 103.768 57.0312C101.997 58.4688 99.9029 60.3646 97.4863 62.7188C96.8821 63.2812 94.7883 65.3542 91.205 68.9375ZM155.844 84.6875L156.938 85L152.406 98.625L151.375 98.375C151.417 98.1042 151.438 97.8646 151.438 97.6562C151.438 97.4479 151.427 97.2604 151.406 97.0938C151.385 96.9271 151.333 96.7812 151.25 96.6562C151.167 96.5521 151.094 96.4583 151.031 96.375C150.969 96.2917 150.844 96.2188 150.656 96.1562C150.469 96.1146 150.323 96.0833 150.219 96.0625C150.115 96.0417 149.927 96.0208 149.656 96C149.385 96 149.167 96 149 96C148.854 96 148.594 96 148.219 96C147.844 96 147.552 96 147.344 96H121.812V94.8438C124.021 94.8438 125.521 94.5208 126.312 93.875C127.104 93.2292 127.5 91.9271 127.5 89.9688V57.1562C127.5 55.2396 127.083 53.9583 126.25 53.3125C125.438 52.6667 123.958 52.3438 121.812 52.3438V51.1875H144.094C144.281 51.1875 144.552 51.1875 144.906 51.1875C145.198 51.1875 145.469 51.1875 145.719 51.1875C145.969 51.1875 146.198 51.1875 146.406 51.1875C146.615 51.1667 146.802 51.1458 146.969 51.125C147.156 51.0833 147.312 51.0417 147.438 51C147.583 50.9583 147.708 50.8958 147.812 50.8125C147.917 50.7292 148 50.625 148.062 50.5C148.125 50.375 148.167 50.2292 148.188 50.0625C148.229 49.8958 148.25 49.7083 148.25 49.5C148.25 49.2917 148.229 49.0521 148.188 48.7812L149.219 48.5L153.75 62.1562L152.656 62.4688C152.115 61.1979 151.656 60.1562 151.281 59.3438C150.906 58.5104 150.469 57.7188 149.969 56.9688C149.49 56.1979 149.073 55.6042 148.719 55.1875C148.365 54.7708 147.865 54.375 147.219 54C146.594 53.6042 146.01 53.3333 145.469 53.1875C144.948 53.0208 144.198 52.8854 143.219 52.7812C142.24 52.6562 141.302 52.5833 140.406 52.5625C139.531 52.5417 138.344 52.5312 136.844 52.5312C134.635 52.5312 133.094 52.8333 132.219 53.4375C131.344 54.0208 130.906 55.2604 130.906 57.1562V72.0625H140.375C141.812 72.0625 142.792 71.5521 143.312 70.5312C143.833 69.5104 144.094 67.8646 144.094 65.5938H145.094V79.8125H144.094C144.094 77.4583 143.823 75.7917 143.281 74.8125C142.76 73.8333 141.812 73.3438 140.438 73.3438H130.906V89.9688C130.906 91.9479 131.281 93.2188 132.031 93.7812C132.802 94.3229 134.406 94.5938 136.844 94.5938C138.802 94.5938 140.344 94.5833 141.469 94.5625C142.615 94.5417 143.812 94.4688 145.062 94.3438C146.312 94.2188 147.26 94.0938 147.906 93.9688C148.552 93.8229 149.25 93.5521 150 93.1562C150.771 92.7604 151.344 92.3646 151.719 91.9688C152.115 91.5729 152.583 90.9896 153.125 90.2188C153.667 89.4271 154.115 88.6354 154.469 87.8438C154.844 87.0312 155.302 85.9792 155.844 84.6875ZM191.326 51.1875H207.014V52.2812C205.868 52.2812 204.868 52.3958 204.014 52.625C203.16 52.8542 202.378 53.25 201.67 53.8125C200.962 54.375 200.42 55.1979 200.045 56.2812C199.691 57.3438 199.514 58.6562 199.514 60.2188V96H198.357L168.67 56.5L168.732 89.9062C168.732 91.9271 169.18 93.2708 170.076 93.9375C170.972 94.5833 172.701 94.9062 175.264 94.9062V96H160.732V94.9062C163.024 94.9062 164.691 94.5625 165.732 93.875C166.795 93.1667 167.326 91.8438 167.326 89.9062V57.2812C167.326 55.3438 166.795 54.0312 165.732 53.3438C164.691 52.6354 163.024 52.2812 160.732 52.2812V51.1875H168.982L197.982 89.6562V60.2188C197.982 58.9271 197.878 57.8125 197.67 56.875C197.482 55.9375 197.212 55.1771 196.857 54.5938C196.503 53.9896 196.035 53.5208 195.451 53.1875C194.889 52.8333 194.285 52.5938 193.639 52.4688C192.993 52.3438 192.222 52.2812 191.326 52.2812V51.1875ZM217.09 61C217.09 62.3958 217.371 63.6458 217.934 64.75C218.496 65.8333 219.246 66.7396 220.184 67.4688C221.142 68.1771 222.236 68.8333 223.465 69.4375C224.715 70.0208 226.017 70.5625 227.371 71.0625C228.746 71.5417 230.111 72.0417 231.465 72.5625C232.819 73.0625 234.111 73.6562 235.34 74.3438C236.59 75.0104 237.684 75.7708 238.621 76.625C239.58 77.4583 240.34 78.5208 240.902 79.8125C241.465 81.0833 241.746 82.5312 241.746 84.1562C241.746 87.6771 240.444 90.6979 237.84 93.2188C235.257 95.7188 231.923 96.9688 227.84 96.9688C226.173 96.9688 224.58 96.7604 223.059 96.3438C221.559 95.9271 220.382 95.4792 219.527 95C218.673 94.5208 217.892 94.1146 217.184 93.7812C216.496 93.4479 215.975 93.3646 215.621 93.5312C215.267 93.6771 214.996 94.1771 214.809 95.0312H213.59V92.4688L213.309 79.8125H214.402C214.757 85.125 216.069 89.0833 218.34 91.6875C220.611 94.2708 223.892 95.5625 228.184 95.5625C231.288 95.5625 233.777 94.6354 235.652 92.7812C237.527 90.9062 238.465 88.3542 238.465 85.125C238.465 83.625 238.184 82.3021 237.621 81.1562C237.059 79.9896 236.298 79.0312 235.34 78.2812C234.402 77.5312 233.319 76.8646 232.09 76.2812C230.861 75.6979 229.569 75.1771 228.215 74.7188C226.861 74.2396 225.507 73.7604 224.152 73.2812C222.798 72.7812 221.507 72.2083 220.277 71.5625C219.048 70.8958 217.955 70.1458 216.996 69.3125C216.059 68.4583 215.309 67.375 214.746 66.0625C214.184 64.75 213.902 63.25 213.902 61.5625C213.902 60.25 214.236 58.9271 214.902 57.5938C215.569 56.2604 216.486 55.0312 217.652 53.9062C218.84 52.7812 220.35 51.8646 222.184 51.1562C224.038 50.4271 226.038 50.0625 228.184 50.0625C229.038 50.0625 229.975 50.1667 230.996 50.375C232.038 50.5833 232.934 50.7917 233.684 51C234.434 51.2083 235.152 51.375 235.84 51.5C236.548 51.6042 237.121 51.5625 237.559 51.375C237.996 51.1875 238.298 50.8125 238.465 50.25H239.746L239.996 63.8125H238.652C238.652 55.5417 234.944 51.4062 227.527 51.4062C224.569 51.4062 222.09 52.3958 220.09 54.375C218.09 56.3333 217.09 58.5417 217.09 61Z" fill="black"/>
</svg>
