<svg width="25" height="25" viewBox="0 0 25 25" fill="none" xmlns="http://www.w3.org/2000/svg">
<path d="M10.1668 12.5C12.6521 12.5 14.6668 10.4853 14.6668 8C14.6668 5.51472 12.6521 3.5 10.1668 3.5C7.68155 3.5 5.66683 5.51472 5.66683 8C5.66683 10.4853 7.68155 12.5 10.1668 12.5Z" fill="#181818"/>
<path d="M10.1668 15.5C7.3362 15.5 4.82037 17.0446 3.22606 19.4383C2.87679 19.9628 2.70216 20.225 2.72226 20.5599C2.73792 20.8207 2.90888 21.14 3.11727 21.2976C3.38491 21.5 3.753 21.5 4.48919 21.5H15.8445C16.5807 21.5 16.9488 21.5 17.2164 21.2976C17.4248 21.14 17.5957 20.8207 17.6114 20.5599C17.6315 20.225 17.4569 19.9628 17.1076 19.4383C15.5133 17.0446 12.9975 15.5 10.1668 15.5Z" fill="#181818"/>
<path d="M18.6668 16.3369C20.1227 17.0683 21.371 18.242 22.2821 19.7096C22.4625 20.0003 22.5527 20.1456 22.5839 20.3468C22.6473 20.7558 22.3676 21.2585 21.9868 21.4204C21.7993 21.5 21.5885 21.5 21.1668 21.5M16.6668 12.0322C18.1485 11.2959 19.1668 9.76686 19.1668 8C19.1668 6.23314 18.1485 4.70411 16.6668 3.96776M14.6668 8C14.6668 10.4853 12.6521 12.5 10.1668 12.5C7.68155 12.5 5.66683 10.4853 5.66683 8C5.66683 5.51472 7.68155 3.5 10.1668 3.5C12.6521 3.5 14.6668 5.51472 14.6668 8ZM3.22606 19.4383C4.82037 17.0446 7.3362 15.5 10.1668 15.5C12.9975 15.5 15.5133 17.0446 17.1076 19.4383C17.4569 19.9628 17.6315 20.225 17.6114 20.5599C17.5957 20.8207 17.4248 21.14 17.2164 21.2976C16.9488 21.5 16.5807 21.5 15.8445 21.5H4.48919C3.753 21.5 3.38491 21.5 3.11727 21.2976C2.90888 21.14 2.73792 20.8207 2.72226 20.5599C2.70216 20.225 2.87679 19.9628 3.22606 19.4383Z" stroke="#181818" stroke-linecap="round" stroke-linejoin="round"/>
</svg>
