<svg width="340" height="39" viewBox="0 0 340 39" fill="none" xmlns="http://www.w3.org/2000/svg">
<path d="M52.9609 2.65039V3.4707C49.9922 3.4707 47.8203 5.51758 46.4453 9.61133L37.3281 36.2598H36.2266L27.2031 12.0254L18.2266 36.2598H17.125L4.96094 6.35352C4.64844 5.60352 4.35156 5.04883 4.07031 4.68945C3.78906 4.33008 3.33594 4.04102 2.71094 3.82227C2.10156 3.58789 1.25781 3.4707 0.179688 3.4707V2.65039H13.6562V3.4707C11.6719 3.4707 10.1484 3.79102 9.08594 4.43164C8.02344 5.07227 7.72656 5.95508 8.19531 7.08008L18.4141 32.5098L26.6172 10.4785L25.1406 6.49414C24.8438 5.71289 24.5391 5.12695 24.2266 4.73633C23.9297 4.3457 23.4688 4.04102 22.8438 3.82227C22.2188 3.58789 21.3672 3.4707 20.2891 3.4707V2.65039H33.7656V3.4707C31.75 3.4707 30.2031 3.69727 29.125 4.15039C28.0625 4.60352 27.6953 5.27539 28.0234 6.16602L37.4688 32.416L45.4844 9.00195C45.6562 8.51758 45.7578 8.04102 45.7891 7.57227C45.8359 7.08789 45.7812 6.5957 45.625 6.0957C45.4844 5.58008 45.2266 5.13477 44.8516 4.75977C44.4766 4.38477 43.9062 4.08008 43.1406 3.8457C42.3906 3.5957 41.4766 3.4707 40.3984 3.4707V2.65039H52.9609ZM67.9375 27.8691L68.7578 28.1035L65.3594 38.2285L64.5859 38.041C64.6172 37.8379 64.6328 37.6582 64.6328 37.502C64.6328 37.3457 64.625 37.2051 64.6094 37.0801C64.5938 36.9551 64.5547 36.8457 64.4922 36.752C64.4297 36.6738 64.375 36.6035 64.3281 36.541C64.2812 36.4785 64.1875 36.4238 64.0469 36.377C63.9062 36.3457 63.7969 36.3223 63.7188 36.3066C63.6406 36.291 63.5 36.2754 63.2969 36.2598C63.0938 36.2598 62.9297 36.2598 62.8047 36.2598C62.6953 36.2598 62.5 36.2598 62.2188 36.2598C61.9375 36.2598 61.7188 36.2598 61.5625 36.2598H48.8359V35.4395C49.6641 35.4395 50.2969 35.4004 50.7344 35.3223C51.1875 35.2285 51.5391 35.0332 51.7891 34.7363C52.0391 34.4238 52.1953 34.0723 52.2578 33.6816C52.3203 33.2754 52.3516 32.666 52.3516 31.8535V18.3066C52.3516 17.4785 52.3203 16.8535 52.2578 16.4316C52.1953 16.0098 52.0391 15.6426 51.7891 15.3301C51.5391 15.0176 51.1875 14.8223 50.7344 14.7441C50.2969 14.6504 49.6641 14.6035 48.8359 14.6035V13.8066H60.5547C61.8672 13.8066 62.6484 13.7676 62.8984 13.6895C63.3672 13.5488 63.5781 13.127 63.5312 12.4238C63.5156 12.2988 63.5 12.1504 63.4844 11.9785L64.2578 11.791L67.6562 22.0098L66.8359 22.2441C66.3047 20.9941 65.8594 19.9863 65.5 19.2207C65.1562 18.4551 64.7812 17.7676 64.375 17.1582C63.9844 16.5332 63.6406 16.0801 63.3438 15.7988C63.0469 15.502 62.6562 15.2598 62.1719 15.0723C61.6875 14.8691 61.2188 14.752 60.7656 14.7207C60.3281 14.6738 59.7266 14.6504 58.9609 14.6504C57.9766 14.6504 57.2266 14.6816 56.7109 14.7441C56.2109 14.8066 55.7656 14.9707 55.375 15.2363C54.9844 15.4863 54.7266 15.8457 54.6016 16.3145C54.4766 16.7832 54.4141 17.4473 54.4141 18.3066V24.6816H57.2969C57.9375 24.6816 58.4062 24.6582 58.7031 24.6113C59 24.5645 59.2656 24.4238 59.5 24.1895C59.75 23.9551 59.9062 23.6191 59.9688 23.1816C60.0469 22.7441 60.0859 22.1113 60.0859 21.2832H60.8359V28.9238H60.0859C60.0859 27.4863 59.8984 26.5566 59.5234 26.1348C59.1641 25.7129 58.4375 25.502 57.3438 25.502H54.4141V31.8535C54.4141 33.2285 54.6875 34.166 55.2344 34.666C55.7969 35.1504 56.8516 35.3926 58.3984 35.3926C59.1797 35.3926 59.8672 35.3691 60.4609 35.3223C61.0547 35.2754 61.6094 35.1816 62.125 35.041C62.6406 34.8848 63.0781 34.7285 63.4375 34.5723C63.8125 34.4004 64.1797 34.1426 64.5391 33.7988C64.8984 33.4551 65.2031 33.127 65.4531 32.8145C65.7031 32.502 65.9766 32.0645 66.2734 31.502C66.5859 30.9238 66.8516 30.3848 67.0703 29.8848C67.3047 29.3691 67.5938 28.6973 67.9375 27.8691ZM98.6734 27.8223L99.4938 28.0566L96.0719 38.2285L95.3219 38.041C95.3531 37.8379 95.3688 37.6582 95.3688 37.502C95.3688 37.3457 95.3609 37.2051 95.3453 37.0801C95.3297 36.9551 95.2906 36.8457 95.2281 36.752C95.1656 36.6738 95.1109 36.6035 95.0641 36.541C95.0172 36.4785 94.9234 36.4238 94.7828 36.377C94.6422 36.3457 94.5328 36.3223 94.4547 36.3066C94.3766 36.291 94.2359 36.2754 94.0328 36.2598C93.8297 36.2598 93.6656 36.2598 93.5406 36.2598C93.4313 36.2598 93.2359 36.2598 92.9547 36.2598C92.6734 36.2598 92.4547 36.2598 92.2984 36.2598H73.1266V35.3926C74.7828 35.3926 75.9078 35.1504 76.5016 34.666C77.1109 34.1816 77.4156 33.2051 77.4156 31.7363V7.17383C77.4156 5.7207 77.0484 4.74414 76.3141 4.24414C75.5797 3.72852 74.3609 3.4707 72.6578 3.4707V2.65039H84.6578V3.4707C82.7828 3.4707 81.525 3.71289 80.8844 4.19727C80.2594 4.68164 79.9469 5.67383 79.9469 7.17383V31.7363C79.9469 33.2051 80.2359 34.1504 80.8141 34.5723C81.3922 34.9941 82.5953 35.2051 84.4234 35.2051C85.5953 35.2051 86.5406 35.2051 87.2594 35.2051C87.9938 35.1895 88.7672 35.1582 89.5797 35.1113C90.4078 35.0645 91.0484 35.0098 91.5016 34.9473C91.9703 34.8848 92.4859 34.7832 93.0484 34.6426C93.6109 34.4863 94.0328 34.3301 94.3141 34.1738C94.6109 34.0176 94.9547 33.7832 95.3453 33.4707C95.7359 33.1582 96.0328 32.8457 96.2359 32.5332C96.4547 32.2207 96.7203 31.8066 97.0328 31.291C97.3453 30.7754 97.6109 30.2598 97.8297 29.7441C98.0641 29.2285 98.3453 28.5879 98.6734 27.8223ZM133.98 29.8848L134.706 30.4941C132.753 32.7598 130.823 34.4082 128.917 35.4395C127.011 36.4707 124.745 36.9863 122.12 36.9863C119.62 36.9863 117.277 36.541 115.089 35.6504C112.917 34.7598 111.058 33.541 109.511 31.9941C107.964 30.4316 106.745 28.5488 105.855 26.3457C104.964 24.1426 104.519 21.7676 104.519 19.2207C104.519 16.8301 104.995 14.5488 105.948 12.377C106.917 10.2051 108.191 8.35352 109.769 6.82227C111.363 5.29102 113.198 4.07227 115.277 3.16602C117.355 2.25977 119.48 1.80664 121.652 1.80664C122.527 1.80664 123.816 1.88477 125.519 2.04102C127.238 2.18164 128.519 2.23633 129.363 2.20508C130.206 2.17383 130.628 1.9707 130.628 1.5957L131.402 1.4082L134.261 11.4395L133.417 11.8379C132.636 9.79102 131.792 8.15039 130.886 6.91602C129.98 5.68164 128.823 4.71289 127.417 4.00977C126.511 3.55664 125.644 3.24414 124.816 3.07227C124.003 2.90039 122.902 2.81445 121.511 2.81445C118.839 2.81445 116.402 3.54883 114.198 5.01758C112.011 6.4707 110.292 8.45508 109.042 10.9707C107.808 13.4707 107.191 16.2207 107.191 19.2207C107.191 21.6113 107.613 23.8613 108.456 25.9707C109.316 28.0645 110.448 29.8301 111.855 31.2676C113.261 32.6895 114.863 33.8145 116.659 34.6426C118.472 35.4707 120.323 35.8848 122.214 35.8848C123.573 35.8848 124.808 35.752 125.917 35.4863C127.042 35.2207 128.073 34.8145 129.011 34.2676C129.964 33.7051 130.816 33.0879 131.566 32.416C132.316 31.7285 133.12 30.8848 133.98 29.8848ZM122.308 7.68945C125.48 7.68945 128.089 8.73633 130.136 10.8301C132.386 13.0332 133.511 15.9082 133.511 19.4551C133.511 21.0332 133.214 22.5488 132.62 24.002C132.027 25.4551 131.183 26.7285 130.089 27.8223C129.027 28.8379 127.808 29.6426 126.433 30.2363C125.058 30.8301 123.683 31.127 122.308 31.127C120.73 31.127 119.206 30.8379 117.738 30.2598C116.284 29.6816 115.058 28.8691 114.058 27.8223C112.948 26.7441 112.097 25.4863 111.503 24.0488C110.909 22.5957 110.613 21.0645 110.613 19.4551C110.613 17.8457 110.925 16.3145 111.55 14.8613C112.175 13.3926 113.073 12.1113 114.245 11.0176C115.292 9.98633 116.558 9.17383 118.042 8.58008C119.527 7.98633 120.948 7.68945 122.308 7.68945ZM130.909 19.4551C130.909 16.002 130.113 13.3457 128.519 11.4863C127.753 10.5645 126.823 9.85352 125.73 9.35352C124.652 8.85352 123.511 8.60352 122.308 8.60352C119.667 8.60352 117.527 9.56445 115.886 11.4863C114.12 13.4395 113.238 16.0957 113.238 19.4551C113.238 22.7988 114.12 25.4238 115.886 27.3301C117.589 29.2207 119.73 30.166 122.308 30.166C124.808 30.166 126.878 29.2207 128.519 27.3301C130.113 25.4551 130.909 22.8301 130.909 19.4551ZM193.075 27.7051L193.895 28.0098L190.497 38.2285L189.723 37.9941C189.755 37.791 189.77 37.6113 189.77 37.4551C189.77 37.2988 189.762 37.1582 189.747 37.0332C189.747 36.9082 189.708 36.7988 189.63 36.7051C189.567 36.627 189.512 36.5566 189.466 36.4941C189.419 36.4316 189.325 36.377 189.184 36.3301C189.044 36.2988 188.934 36.2754 188.856 36.2598C188.778 36.2441 188.63 36.2363 188.411 36.2363C188.208 36.2207 188.044 36.2129 187.919 36.2129C187.809 36.2129 187.614 36.2129 187.333 36.2129C187.067 36.2129 186.856 36.2129 186.7 36.2129L166.825 36.2598V35.3926C168.825 35.3926 170.153 35.1582 170.809 34.6895C171.481 34.2207 171.817 33.2363 171.817 31.7363V6.58789L159.442 36.2129H158.341L145.38 9.42383V31.6895C145.38 33.1895 145.716 34.1816 146.387 34.666C147.059 35.1504 148.348 35.3926 150.255 35.3926V36.2129H139.169V35.3926C140.903 35.3926 142.153 35.1426 142.919 34.6426C143.684 34.127 144.067 33.127 144.067 31.6426V7.17383C144.067 5.7207 143.677 4.73633 142.895 4.2207C142.13 3.68945 140.887 3.42383 139.169 3.42383V2.65039H145.122L159.583 32.9551L170.903 5.58008C171.278 4.64258 171.231 4.05664 170.762 3.82227C170.309 3.58789 169.223 3.4707 167.505 3.4707V2.65039H184.192C184.364 2.65039 184.591 2.65039 184.872 2.65039C185.153 2.65039 185.356 2.65039 185.481 2.65039C185.622 2.65039 185.794 2.65039 185.997 2.65039C186.216 2.65039 186.364 2.64258 186.442 2.62695C186.536 2.5957 186.653 2.56445 186.794 2.5332C186.934 2.48633 187.028 2.43164 187.075 2.36914C187.122 2.30664 187.177 2.23633 187.239 2.1582C187.317 2.06445 187.356 1.95508 187.356 1.83008C187.372 1.70508 187.38 1.56445 187.38 1.4082C187.38 1.23633 187.364 1.04883 187.333 0.845703L188.083 0.587891L191.505 10.8301L190.684 11.0645C190.278 10.1113 189.934 9.33008 189.653 8.7207C189.372 8.11133 189.044 7.51758 188.669 6.93945C188.309 6.36133 187.997 5.91602 187.731 5.60352C187.466 5.29102 187.091 5.00195 186.606 4.73633C186.122 4.45508 185.684 4.25977 185.294 4.15039C184.903 4.02539 184.333 3.92383 183.583 3.8457C182.848 3.75195 182.145 3.69727 181.473 3.68164C180.817 3.66602 179.919 3.6582 178.778 3.6582C177.216 3.6582 176.106 3.8457 175.45 4.2207C174.794 4.5957 174.434 5.38477 174.372 6.58789L174.325 18.2598H181.427C182.52 18.2598 183.255 17.8848 183.63 17.1348C184.005 16.3691 184.192 15.127 184.192 13.4082H184.966V24.0723H184.192C184.192 22.3066 183.997 21.0645 183.606 20.3457C183.231 19.627 182.52 19.2676 181.473 19.2676H174.325L174.372 31.6895C174.372 32.4863 174.434 33.1113 174.559 33.5645C174.7 34.0176 174.966 34.3691 175.356 34.6191C175.747 34.8535 176.184 35.002 176.669 35.0645C177.153 35.127 177.856 35.1582 178.778 35.1582C180.247 35.1582 181.411 35.1504 182.27 35.1348C183.13 35.1191 184.028 35.0645 184.966 34.9707C185.903 34.877 186.614 34.7754 187.098 34.666C187.583 34.5566 188.114 34.3613 188.692 34.0801C189.27 33.7832 189.7 33.4863 189.981 33.1895C190.278 32.877 190.63 32.4316 191.036 31.8535C191.442 31.2598 191.778 30.666 192.044 30.0723C192.325 29.4629 192.669 28.6738 193.075 27.7051ZM234.484 26.416C234.484 28.1035 234.195 29.5957 233.617 30.8926C233.055 32.1895 232.266 33.2207 231.25 33.9863C230.25 34.752 229.117 35.3223 227.852 35.6973C226.602 36.0723 225.242 36.2598 223.773 36.2598H210.812V35.4863C212.438 35.4863 213.555 35.2363 214.164 34.7363C214.773 34.2207 215.078 33.2207 215.078 31.7363V7.17383C215.078 5.70508 214.766 4.71289 214.141 4.19727C213.531 3.68164 212.422 3.42383 210.812 3.42383V2.65039H222.18C225.07 2.65039 227.312 3.36133 228.906 4.7832C230.5 6.18945 231.297 8.05664 231.297 10.3848C231.297 11.5723 230.938 12.6973 230.219 13.7598C229.5 14.8066 228.672 15.627 227.734 16.2207C226.797 16.7988 225.906 17.1582 225.062 17.2988C225.781 17.3145 226.539 17.4316 227.336 17.6504C228.133 17.8535 228.961 18.1973 229.82 18.6816C230.68 19.1504 231.453 19.7207 232.141 20.3926C232.828 21.0645 233.391 21.9238 233.828 22.9707C234.266 24.0176 234.484 25.166 234.484 26.416ZM217.633 7.17383V17.3926H219.648C222.742 17.3926 225.031 16.7441 226.516 15.4473C228.016 14.1504 228.766 12.4629 228.766 10.3848C228.766 8.29102 228.211 6.64258 227.102 5.43945C226.008 4.2207 224.289 3.61133 221.945 3.61133C221.117 3.61133 220.469 3.65039 220 3.72852C219.531 3.79102 219.094 3.94727 218.688 4.19727C218.297 4.43164 218.023 4.79102 217.867 5.27539C217.711 5.74414 217.633 6.37695 217.633 7.17383ZM223.047 35.2988C228.969 35.2988 231.93 32.3379 231.93 26.416C231.93 23.7285 231 21.7051 229.141 20.3457C227.297 18.9863 224.641 18.3066 221.172 18.3066H217.633V31.8066C217.633 33.3066 217.961 34.2676 218.617 34.6895C219.289 35.0957 220.766 35.2988 223.047 35.2988ZM254.533 1.64258L263.884 27.3301C264.291 28.4551 264.603 29.3223 264.822 29.9316C265.056 30.541 265.322 31.1816 265.619 31.8535C265.916 32.5254 266.134 33.0098 266.275 33.3066C266.431 33.6035 266.642 33.9238 266.908 34.2676C267.189 34.5957 267.408 34.8145 267.564 34.9238C267.736 35.0176 267.986 35.1191 268.314 35.2285C268.658 35.3223 268.962 35.377 269.228 35.3926C269.509 35.3926 269.9 35.3926 270.4 35.3926V36.2598H259.853V35.3926C261.275 35.3926 262.166 35.2988 262.525 35.1113C263.087 34.8301 263.259 34.1113 263.041 32.9551C262.869 32.0801 262.431 30.6895 261.728 28.7832L260.228 24.7988H246.798L244.97 29.3926C244.72 30.0176 244.517 30.541 244.361 30.9629C244.22 31.3848 244.087 31.8145 243.962 32.252C243.853 32.6895 243.798 33.041 243.798 33.3066C243.814 33.5723 243.869 33.8379 243.962 34.1035C244.056 34.3691 244.205 34.5723 244.408 34.7129C244.627 34.8535 244.908 34.9863 245.252 35.1113C245.611 35.2207 246.033 35.2988 246.517 35.3457C247.002 35.377 247.572 35.3926 248.228 35.3926V36.2598H238.431V35.4395C238.759 35.4395 239.064 35.416 239.345 35.3691C239.642 35.3066 239.9 35.2441 240.119 35.1816C240.337 35.1191 240.556 34.9941 240.775 34.8066C241.009 34.6191 241.197 34.4707 241.337 34.3613C241.478 34.252 241.642 34.041 241.83 33.7285C242.033 33.416 242.181 33.1895 242.275 33.0488C242.369 32.9082 242.509 32.6191 242.697 32.1816C242.884 31.7441 243.009 31.4395 243.072 31.2676C243.15 31.0957 243.298 30.7363 243.517 30.1895C243.736 29.6426 243.884 29.2676 243.962 29.0645L253.267 5.67383L252.447 3.37695C252.775 3.31445 253.103 3.0957 253.431 2.7207C253.775 2.3457 253.994 1.98633 254.087 1.64258H254.533ZM253.759 6.98633L247.173 23.791H259.9L253.759 6.98633ZM302.73 29.8848L303.456 30.4941C301.503 32.7598 299.573 34.4082 297.667 35.4395C295.761 36.4707 293.495 36.9863 290.87 36.9863C288.37 36.9863 286.027 36.541 283.839 35.6504C281.667 34.7598 279.808 33.541 278.261 31.9941C276.714 30.4316 275.495 28.5488 274.605 26.3457C273.714 24.1426 273.269 21.7676 273.269 19.2207C273.269 16.8301 273.745 14.5488 274.698 12.377C275.667 10.2051 276.941 8.35352 278.519 6.82227C280.112 5.29102 281.948 4.07227 284.027 3.16602C286.105 2.25977 288.23 1.80664 290.402 1.80664C291.277 1.80664 292.566 1.88477 294.269 2.04102C295.987 2.18164 297.269 2.23633 298.112 2.20508C298.956 2.17383 299.378 1.9707 299.378 1.5957L300.152 1.4082L303.011 11.4395L302.167 11.8379C301.386 9.79102 300.542 8.15039 299.636 6.91602C298.73 5.68164 297.573 4.71289 296.167 4.00977C295.261 3.55664 294.394 3.24414 293.566 3.07227C292.753 2.90039 291.652 2.81445 290.261 2.81445C287.589 2.81445 285.152 3.54883 282.948 5.01758C280.761 6.4707 279.042 8.45508 277.792 10.9707C276.558 13.4707 275.941 16.2207 275.941 19.2207C275.941 21.6113 276.362 23.8613 277.206 25.9707C278.066 28.0645 279.198 29.8301 280.605 31.2676C282.011 32.6895 283.612 33.8145 285.409 34.6426C287.222 35.4707 289.073 35.8848 290.964 35.8848C292.323 35.8848 293.558 35.752 294.667 35.4863C295.792 35.2207 296.823 34.8145 297.761 34.2676C298.714 33.7051 299.566 33.0879 300.316 32.416C301.066 31.7285 301.87 30.8848 302.73 29.8848ZM319.942 15.9629L327.817 25.8535C328.942 27.2598 329.841 28.377 330.513 29.2051C331.2 30.0332 331.919 30.8613 332.669 31.6895C333.419 32.502 334.044 33.1113 334.544 33.5176C335.059 33.9082 335.622 34.2754 336.231 34.6191C336.841 34.9473 337.419 35.166 337.966 35.2754C338.528 35.3848 339.161 35.4395 339.864 35.4395V36.2129L332.809 36.2598L318.02 17.9316C317.583 18.3691 316.848 19.1348 315.817 20.2285V31.7363C315.817 33.2363 316.13 34.2285 316.755 34.7129C317.395 35.1973 318.653 35.4395 320.528 35.4395V36.2598H308.528V35.4395C310.231 35.4395 311.45 35.1895 312.184 34.6895C312.919 34.1738 313.286 33.1895 313.286 31.7363V7.17383C313.286 5.7207 312.919 4.74414 312.184 4.24414C311.45 3.72852 310.231 3.4707 308.528 3.4707V2.65039H320.528V3.4707C318.653 3.4707 317.395 3.71289 316.755 4.19727C316.13 4.68164 315.817 5.67383 315.817 7.17383V18.5879L322.309 12.2129C325.606 8.97852 327.52 7.06445 328.052 6.4707C329.177 5.23633 329.622 4.42383 329.388 4.0332C329.169 3.67383 328.184 3.48633 326.434 3.4707C326.294 3.4707 326.145 3.4707 325.989 3.4707V2.65039H338.294V3.4707C337.263 3.4707 336.38 3.54102 335.645 3.68164C334.927 3.82227 334.036 4.15039 332.973 4.66602C331.911 5.16602 330.708 5.95508 329.364 7.0332C328.036 8.11133 326.466 9.5332 324.653 11.2988C324.2 11.7207 322.63 13.2754 319.942 15.9629Z" fill="#181818"/>
</svg>
